<svg width="14" height="14" viewBox="0 0 14 14" fill="none" xmlns="http://www.w3.org/2000/svg">
<g clip-path="url(#clip0_78_343)">
<path d="M7.00002 14.0001C10.6512 14.0001 13.6111 11.0402 13.6111 7.38895C13.6111 3.73773 10.6512 0.777832 7.00002 0.777832C3.34881 0.777832 0.388916 3.73773 0.388916 7.38895C0.388916 11.0402 3.34881 14.0001 7.00002 14.0001Z" fill="#F4900C"/>
<path d="M7.00002 13.2222C10.6512 13.2222 13.6111 10.2623 13.6111 6.61111C13.6111 2.9599 10.6512 0 7.00002 0C3.34881 0 0.388916 2.9599 0.388916 6.61111C0.388916 10.2623 3.34881 13.2222 7.00002 13.2222Z" fill="#FFCC4D"/>
<path d="M6.99999 12.4446C10.0069 12.4446 12.4444 10.007 12.4444 7.00011C12.4444 3.99323 10.0069 1.55566 6.99999 1.55566C3.9931 1.55566 1.55554 3.99323 1.55554 7.00011C1.55554 10.007 3.9931 12.4446 6.99999 12.4446Z" fill="#FFE8B6"/>
<path d="M6.99999 12.0556C10.0069 12.0556 12.4444 9.61808 12.4444 6.61119C12.4444 3.60431 10.0069 1.16675 6.99999 1.16675C3.9931 1.16675 1.55554 3.60431 1.55554 6.61119C1.55554 9.61808 3.9931 12.0556 6.99999 12.0556Z" fill="#FFAC33"/>
<path d="M6.99995 3.24438C6.99995 3.24438 4.87857 4.24422 4.66701 4.33444C4.45507 4.42427 4.52584 4.57205 4.6674 4.57205H9.3224C9.54095 4.57205 9.48923 4.40522 9.31579 4.315C9.14234 4.22516 6.99995 3.24438 6.99995 3.24438Z" fill="#FFAC33"/>
<path d="M9.73611 6.28494C9.4739 5.83264 7.98657 3.22273 7.98657 3.22273C7.96751 3.1889 7.93958 3.16071 7.90567 3.14107C7.87177 3.12144 7.83312 3.11108 7.79376 3.11108C7.7544 3.11108 7.71576 3.12144 7.68186 3.14107C7.64795 3.16071 7.62002 3.1889 7.60096 3.22273L6.27889 5.52534L5.61785 4.38269C5.5988 4.34886 5.57087 4.32067 5.53696 4.30103C5.50305 4.2814 5.46441 4.27105 5.42505 4.27105C5.38569 4.27105 5.34705 4.2814 5.31314 4.30103C5.27924 4.32067 5.25131 4.34886 5.23225 4.38269C5.23225 4.38269 4.02916 6.52516 3.81323 6.89738C3.60185 7.22836 3.49313 7.61261 3.50034 8.00324C3.50034 9.1091 4.35528 10.0916 5.41073 10.1111H7.79266C9.07066 10.1111 10.1107 8.94679 10.1107 7.60937C10.1195 7.14153 9.98931 6.68131 9.73611 6.28494ZM7.57232 9.67826H6.04312C5.7784 9.67053 5.52686 9.56306 5.34062 9.37813C5.15439 9.19321 5.04773 8.945 5.04275 8.68494C5.041 8.50308 5.09895 8.32551 5.20801 8.17853L5.94617 7.05103C5.95616 7.03585 5.96986 7.02336 5.98603 7.01472C6.00219 7.00607 6.02031 7.00154 6.03871 7.00154C6.05712 7.00154 6.07524 7.00607 6.0914 7.01472C6.10757 7.02336 6.12127 7.03585 6.13126 7.05103L6.52347 7.65049V7.63318C6.66229 7.39296 7.45553 6.01443 7.45553 6.01443C7.46514 5.99777 7.47908 5.98392 7.49592 5.97429C7.51276 5.96465 7.5319 5.95957 7.55138 5.95957C7.57087 5.95957 7.59001 5.96465 7.60685 5.97429C7.62369 5.98392 7.63763 5.99777 7.64723 6.01443C7.64723 6.01443 8.44048 7.39513 8.5793 7.63318C8.71672 7.83966 8.78949 8.08118 8.78862 8.32786C8.78862 9.67826 7.70893 9.67826 7.57232 9.67826Z" fill="#CEA53E"/>
<path d="M9.73611 5.50711C9.4739 5.05481 7.98657 2.44489 7.98657 2.44489C7.96751 2.41107 7.93958 2.38287 7.90567 2.36324C7.87177 2.34361 7.83312 2.33325 7.79376 2.33325C7.7544 2.33325 7.71576 2.34361 7.68186 2.36324C7.64795 2.38287 7.62002 2.41107 7.60096 2.44489L6.27889 4.74751L5.61785 3.60486C5.5988 3.57103 5.57087 3.54284 5.53696 3.5232C5.50305 3.50357 5.46441 3.49321 5.42505 3.49321C5.38569 3.49321 5.34705 3.50357 5.31314 3.5232C5.27924 3.54284 5.25131 3.57103 5.23225 3.60486C5.23225 3.60486 4.02916 5.74732 3.81323 6.11955C3.60185 6.45053 3.49313 6.83478 3.50034 7.22541C3.50034 8.33127 4.35528 9.31378 5.41073 9.33325H7.79266C9.07066 9.33325 10.1107 8.16896 10.1107 6.83154C10.1195 6.3637 9.98931 5.90348 9.73611 5.50711ZM7.57232 8.90043H6.04312C5.7784 8.89269 5.52686 8.78523 5.34062 8.6003C5.15439 8.41538 5.04773 8.16716 5.04275 7.9071C5.041 7.72525 5.09895 7.54767 5.20801 7.4007L5.94617 6.2732C5.95616 6.25802 5.96986 6.24553 5.98603 6.23688C6.00219 6.22824 6.02031 6.22371 6.03871 6.22371C6.05712 6.22371 6.07524 6.22824 6.0914 6.23688C6.10757 6.24553 6.12127 6.25802 6.13126 6.2732L6.52347 6.87266V6.85535C6.66229 6.61513 7.45553 5.23659 7.45553 5.23659C7.46514 5.21994 7.47908 5.20609 7.49592 5.19645C7.51276 5.18682 7.5319 5.18174 7.55138 5.18174C7.57087 5.18174 7.59001 5.18682 7.60685 5.19645C7.62369 5.20609 7.63763 5.21994 7.64723 5.23659C7.64723 5.23659 8.44048 6.6173 8.5793 6.85535C8.71672 7.06183 8.78949 7.30335 8.78862 7.55003C8.78862 8.90043 7.70893 8.90043 7.57232 8.90043Z" fill="#FFE8B6"/>
<path d="M9.73611 5.89602C9.4739 5.44372 7.98657 2.83381 7.98657 2.83381C7.96751 2.79998 7.93958 2.77179 7.90567 2.75216C7.87177 2.73252 7.83312 2.72217 7.79376 2.72217C7.7544 2.72217 7.71576 2.73252 7.68186 2.75216C7.64795 2.77179 7.62002 2.79998 7.60096 2.83381L6.27889 5.13642L5.61785 3.99377C5.5988 3.95995 5.57087 3.93175 5.53696 3.91212C5.50305 3.89248 5.46441 3.88213 5.42505 3.88213C5.38569 3.88213 5.34705 3.89248 5.31314 3.91212C5.27924 3.93175 5.25131 3.95995 5.23225 3.99377C5.23225 3.99377 4.02916 6.13624 3.81323 6.50846C3.60185 6.83944 3.49313 7.22369 3.50034 7.61432C3.50034 8.72018 4.35528 9.70269 5.41073 9.72217H7.79266C9.07066 9.72217 10.1107 8.55788 10.1107 7.22046C10.1195 6.75262 9.98931 6.29239 9.73611 5.89602ZM7.57232 9.28934H6.04312C5.7784 9.28161 5.52686 9.17414 5.34062 8.98922C5.15439 8.80429 5.04773 8.55608 5.04275 8.29602C5.041 8.11416 5.09895 7.93659 5.20801 7.78962L5.94617 6.66212C5.95616 6.64693 5.96986 6.63444 5.98603 6.6258C6.00219 6.61715 6.02031 6.61262 6.03871 6.61262C6.05712 6.61262 6.07524 6.61715 6.0914 6.6258C6.10757 6.63444 6.12127 6.64693 6.13126 6.66212L6.52347 7.26157V7.24426C6.66229 7.00405 7.45553 5.62551 7.45553 5.62551C7.46514 5.60886 7.47908 5.59501 7.49592 5.58537C7.51276 5.57573 7.5319 5.57065 7.55138 5.57065C7.57087 5.57065 7.59001 5.57573 7.60685 5.58537C7.62369 5.59501 7.63763 5.60886 7.64723 5.62551C7.64723 5.62551 8.44048 7.00621 8.5793 7.24426C8.71672 7.45074 8.78949 7.69226 8.78862 7.93894C8.78862 9.28934 7.70893 9.28934 7.57232 9.28934Z" fill="#FFD983"/>
</g>
<defs>
<clipPath id="clip0_78_343">
<rect width="14" height="14" fill="white"/>
</clipPath>
</defs>
</svg>
