<svg width="31" height="33" viewBox="0 0 31 33" fill="none" xmlns="http://www.w3.org/2000/svg">
<path d="M28.3015 14.6659C27.1115 12.5759 20.3615 0.515877 20.3615 0.515877C20.275 0.359576 20.1483 0.229292 19.9944 0.13857C19.8405 0.0478481 19.6652 0 19.4865 0C19.3079 0 19.1325 0.0478481 18.9786 0.13857C18.8248 0.229292 18.698 0.359576 18.6115 0.515877L12.6115 11.1559L9.61153 5.87588C9.52505 5.71958 9.39828 5.58929 9.2444 5.49857C9.09052 5.40785 8.91516 5.36 8.73653 5.36C8.5579 5.36 8.38253 5.40785 8.22865 5.49857C8.07477 5.58929 7.948 5.71958 7.86153 5.87588C7.86153 5.87588 2.40153 15.7759 1.42153 17.4959C0.46224 19.0253 -0.0311604 20.8008 0.00152588 22.6059C0.00152588 27.7159 3.88153 32.2559 8.67153 32.3459H19.4815C25.2815 32.3459 30.0015 26.9659 30.0015 20.7859C30.0413 18.6241 29.4506 16.4974 28.3015 14.6659ZM18.4815 30.3459C15.0015 30.5 15.5015 28.5 14.5015 28.5C13.5015 28.5 14.5015 30.5 11.5415 30.3459C8.58153 30.1918 7.19858 29.8136 6.35337 28.959C5.50816 28.1045 5.02411 26.9576 5.00153 25.7559C4.99356 24.9155 5.25153 23.776 5.50153 22.8459C5.75153 21.9159 8.50153 11.8459 9.50153 17.8459C9.75491 19.3662 10.9487 23.6919 11.2251 24.3459C11.5015 25 11.74 24.5992 11.7847 24.3459C11.8293 24.0927 13.1015 18.2059 13.1015 18.2059C13.1469 18.1357 13.209 18.078 13.2824 18.0381C13.3558 17.9981 13.438 17.9772 13.5215 17.9772C13.6051 17.9772 13.6873 17.9981 13.7606 18.0381C13.834 18.078 13.8962 18.1357 13.9415 18.2059L16.2847 23.8459C16.2847 23.8459 16.4705 24.6193 16.7847 23.8459C17.0989 23.0726 18.9515 13.4159 18.9515 13.4159C18.9951 13.3389 19.0584 13.2749 19.1348 13.2304C19.2112 13.1859 19.2981 13.1624 19.3865 13.1624C19.475 13.1624 19.5618 13.1859 19.6383 13.2304C19.7147 13.2749 19.7779 13.3389 19.8215 13.4159C19.8215 13.4159 23.4215 19.7959 24.0515 20.8959C24.6752 21.85 25.0055 22.966 25.0015 24.1059C25.0015 30.3459 21.9615 30.1918 18.4815 30.3459Z" fill="white"/>
</svg>
