<svg width="383" height="72" viewBox="0 0 383 72" fill="none" xmlns="http://www.w3.org/2000/svg">
<path d="M338.317 36.4873C336.345 35.141 334.194 34.2435 332.042 33.0768C330.698 32.3588 329.263 31.6408 328.098 30.6535C326.126 29.038 326.484 25.807 328.636 24.371C331.594 22.3965 336.524 23.4735 337.062 27.5123C337.062 27.602 337.152 27.6918 337.241 27.6918H341.724C341.813 27.6918 341.903 27.602 341.903 27.5123C341.634 24.73 340.558 22.3965 338.586 20.8708C336.704 19.4348 334.552 18.7168 332.221 18.7168C320.389 18.7168 319.313 31.2818 325.678 35.2308C326.395 35.6795 332.67 38.8208 334.911 40.2568C337.152 41.603 337.779 44.116 336.883 46.0905C335.986 47.8855 333.745 49.142 331.504 48.9625C328.994 48.783 327.112 47.4368 326.395 45.3725C326.305 45.0135 326.215 44.2955 326.215 43.9365C326.215 43.8468 326.126 43.757 326.036 43.757H321.195C321.106 43.757 321.016 43.8468 321.016 43.9365C321.016 47.4368 321.913 49.4113 324.243 51.2063C326.484 52.9115 328.905 53.6295 331.504 53.6295C338.138 53.6295 341.544 49.86 342.261 46.0008C342.799 42.2313 341.724 38.8208 338.317 36.4873Z" fill="white"/>
<path d="M127.029 19.4348H124.878H122.547C122.457 19.4348 122.368 19.5246 122.368 19.5246L118.334 32.7178C118.244 32.8973 118.065 32.8973 117.975 32.7178L113.941 19.5246C113.941 19.4348 113.851 19.4348 113.762 19.4348H111.431H109.28H106.411C106.321 19.4348 106.232 19.5246 106.232 19.6143V53.2705C106.232 53.3603 106.321 53.45 106.411 53.45H111.252C111.341 53.45 111.431 53.3603 111.431 53.2705V27.6918C111.431 27.5123 111.7 27.4225 111.79 27.602L115.824 40.885L116.093 41.7825C116.093 41.8723 116.182 41.8723 116.272 41.8723H120.037C120.126 41.8723 120.216 41.7825 120.216 41.7825L120.485 40.885L124.519 27.602C124.609 27.4225 124.878 27.4226 124.878 27.6918V53.2705C124.878 53.3603 124.967 53.45 125.057 53.45H129.898C129.987 53.45 130.077 53.3603 130.077 53.2705V19.6143C130.077 19.5246 129.987 19.4348 129.898 19.4348H127.029Z" fill="white"/>
<path d="M263.824 19.4348C263.734 19.4348 263.645 19.5246 263.645 19.5246L259.611 32.7178C259.521 32.8973 259.342 32.8973 259.252 32.7178L255.218 19.5246C255.218 19.4348 255.129 19.4348 255.039 19.4348H247.599C247.509 19.4348 247.419 19.5246 247.419 19.6143V53.2705C247.419 53.3603 247.509 53.45 247.599 53.45H252.439C252.529 53.45 252.619 53.3603 252.619 53.2705V27.6918C252.619 27.5123 252.888 27.4225 252.977 27.602L257.011 40.885L257.28 41.7825C257.28 41.8723 257.37 41.8723 257.459 41.8723H261.224C261.314 41.8723 261.404 41.7825 261.404 41.7825L261.673 40.885L265.706 27.602C265.796 27.4225 266.065 27.4226 266.065 27.6918V53.2705C266.065 53.3603 266.155 53.45 266.244 53.45H271.085C271.175 53.45 271.264 53.3603 271.264 53.2705V19.6143C271.264 19.5246 271.175 19.4348 271.085 19.4348H263.824Z" fill="white"/>
<path d="M201.074 19.4348H192.02H187.179H178.036C177.946 19.4348 177.856 19.5246 177.856 19.6143V23.8326C177.856 23.9223 177.946 24.0121 178.036 24.0121H186.91V53.2705C186.91 53.3603 187 53.45 187.09 53.45H191.93C192.02 53.45 192.11 53.3603 192.11 53.2705V24.0121H200.984C201.074 24.0121 201.164 23.9223 201.164 23.8326V19.6143C201.253 19.5246 201.164 19.4348 201.074 19.4348Z" fill="white"/>
<path d="M229.76 53.45H234.152C234.242 53.45 234.331 53.3602 234.331 53.1807L225.188 19.4347C225.188 19.345 225.098 19.345 225.009 19.345H223.305H220.347H218.644C218.554 19.345 218.465 19.4347 218.465 19.4347L209.321 53.1807C209.321 53.2705 209.411 53.45 209.5 53.45H213.893C213.983 53.45 214.072 53.3602 214.072 53.3602L216.761 43.4877C216.761 43.398 216.851 43.398 216.941 43.398H226.712C226.801 43.398 226.891 43.4877 226.891 43.4877L229.58 53.3602C229.58 53.3602 229.67 53.45 229.76 53.45ZM218.106 38.5515L221.692 25.3582C221.781 25.1787 221.961 25.1787 222.05 25.3582L225.636 38.5515C225.636 38.6412 225.546 38.8207 225.457 38.8207H218.375C218.196 38.8207 218.106 38.6412 218.106 38.5515Z" fill="white"/>
<path d="M305.239 53.45H309.631C309.721 53.45 309.811 53.3602 309.811 53.1807L300.667 19.4347C300.667 19.345 300.578 19.345 300.488 19.345H298.785H295.826H294.123C294.034 19.345 293.944 19.4347 293.944 19.4347L284.8 53.1807C284.8 53.2705 284.89 53.45 284.98 53.45H289.372C289.462 53.45 289.551 53.3602 289.551 53.3602L292.241 43.4877C292.241 43.398 292.33 43.398 292.42 43.398H302.191C302.281 43.398 302.37 43.4877 302.37 43.4877L305.06 53.3602C305.06 53.3602 305.149 53.45 305.239 53.45ZM293.585 38.5515L297.171 25.3582C297.261 25.1787 297.44 25.1787 297.53 25.3582L301.115 38.5515C301.115 38.6412 301.026 38.8207 300.936 38.8207H293.854C293.675 38.8207 293.585 38.6412 293.585 38.5515Z" fill="white"/>
<path d="M149.798 48.424V38.013C149.798 37.9233 149.888 37.8335 149.978 37.8335H162.976C163.065 37.8335 163.155 37.7438 163.155 37.654V33.4358C163.155 33.346 163.065 33.2563 162.976 33.2563H149.978C149.888 33.2563 149.798 33.1665 149.798 33.0768V24.1915C149.798 24.1018 149.888 24.0121 149.978 24.0121H164.679C164.769 24.0121 164.858 23.9223 164.858 23.8326V19.6143C164.858 19.5246 164.769 19.4348 164.679 19.4348H149.798H144.778C144.689 19.4348 144.599 19.5246 144.599 19.6143V24.0121V33.3461V37.9233V48.6933V53.2705C144.599 53.3603 144.689 53.45 144.778 53.45H149.798H165.306C165.396 53.45 165.486 53.3603 165.486 53.2705V48.8728C165.486 48.783 165.396 48.6933 165.306 48.6933H149.888C149.888 48.6035 149.798 48.5138 149.798 48.424Z" fill="white"/>
<path d="M382.78 53.091L365.927 35.6795C365.838 35.5897 365.838 35.5 365.927 35.4102L381.077 19.6142C381.166 19.5245 381.077 19.345 380.987 19.345H374.802C374.712 19.345 374.712 19.345 374.712 19.4347L361.804 32.8972C361.714 32.987 361.535 32.8972 361.535 32.8075V19.704C361.535 19.6142 361.445 19.5245 361.355 19.5245H356.425C356.335 19.5245 356.246 19.6142 356.246 19.704V53.3602C356.246 53.45 356.335 53.5397 356.425 53.5397H361.266C361.355 53.5397 361.445 53.45 361.445 53.3602V38.5515C361.445 38.372 361.624 38.2822 361.714 38.4617L376.236 53.5397L376.326 53.6295H382.511C382.78 53.45 382.87 53.1807 382.78 53.091Z" fill="white"/>
<path d="M72.9743 1.30518L43.5714 23.2042L49.0396 10.2802L72.9743 1.30518Z" fill="#E17726" stroke="#E17726" stroke-linecap="round" stroke-linejoin="round"/>
<path d="M5.02496 1.30518L34.2485 23.3837L29.0492 10.2802L5.02496 1.30518Z" fill="#E27625" stroke="#E27625" stroke-linecap="round" stroke-linejoin="round"/>
<path d="M62.3964 52.0139L54.5078 64.0404L71.3607 68.7074L76.1117 52.2832L62.3964 52.0139Z" fill="#E27625" stroke="#E27625" stroke-linecap="round" stroke-linejoin="round"/>
<path d="M1.97711 52.2832L6.72819 68.7074L23.4914 64.0404L15.6925 52.0139L1.97711 52.2832Z" fill="#E27625" stroke="#E27625" stroke-linecap="round" stroke-linejoin="round"/>
<path d="M22.595 31.7304L17.9335 38.8206L34.5175 39.5386L33.9796 21.5886L22.595 31.7304Z" fill="#E27625" stroke="#E27625" stroke-linecap="round" stroke-linejoin="round"/>
<path d="M55.4939 31.7304L43.93 21.4092L43.5714 39.5387L60.1553 38.8207L55.4939 31.7304Z" fill="#E27625" stroke="#E27625" stroke-linecap="round" stroke-linejoin="round"/>
<path d="M23.4914 64.0406L33.5314 59.194L24.836 52.373L23.4914 64.0406Z" fill="#E27625" stroke="#E27625" stroke-linecap="round" stroke-linejoin="round"/>
<path d="M44.5575 59.194L54.5078 64.0406L53.1632 52.373L44.5575 59.194Z" fill="#E27625" stroke="#E27625" stroke-linecap="round" stroke-linejoin="round"/>
<path d="M54.5078 64.0404L44.5575 59.1938L45.3643 65.6559L45.2746 68.4381L54.5078 64.0404Z" fill="#D5BFB2" stroke="#D5BFB2" stroke-linecap="round" stroke-linejoin="round"/>
<path d="M23.4914 64.0404L32.8143 68.4381L32.7246 65.6559L33.5314 59.1938L23.4914 64.0404Z" fill="#D5BFB2" stroke="#D5BFB2" stroke-linecap="round" stroke-linejoin="round"/>
<path d="M32.9935 48.0649L24.6567 45.6417L30.4835 42.9492L32.9935 48.0649Z" fill="#233447" stroke="#233447" stroke-linecap="round" stroke-linejoin="round"/>
<path d="M45.0953 48.0649L47.5157 42.9492L53.4321 45.6417L45.0953 48.0649Z" fill="#233447" stroke="#233447" stroke-linecap="round" stroke-linejoin="round"/>
<path d="M23.4914 64.0404L24.9257 52.0139L15.6924 52.2832L23.4914 64.0404Z" fill="#CC6228" stroke="#CC6228" stroke-linecap="round" stroke-linejoin="round"/>
<path d="M53.1631 52.0139L54.5078 64.0404L62.3964 52.2832L53.1631 52.0139Z" fill="#CC6228" stroke="#CC6228" stroke-linecap="round" stroke-linejoin="round"/>
<path d="M60.1553 38.8206L43.5714 39.5386L45.0953 48.0648L47.5156 42.9491L53.4321 45.6416L60.1553 38.8206Z" fill="#CC6228" stroke="#CC6228" stroke-linecap="round" stroke-linejoin="round"/>
<path d="M24.6567 45.6416L30.4835 42.9491L32.9935 48.0648L34.5175 39.5386L17.9335 38.8206L24.6567 45.6416Z" fill="#CC6228" stroke="#CC6228" stroke-linecap="round" stroke-linejoin="round"/>
<path d="M17.9335 38.8206L24.836 52.3728L24.6567 45.6416L17.9335 38.8206Z" fill="#E27525" stroke="#E27525" stroke-linecap="round" stroke-linejoin="round"/>
<path d="M53.4321 45.6416L53.1631 52.3728L60.1553 38.8206L53.4321 45.6416Z" fill="#E27525" stroke="#E27525" stroke-linecap="round" stroke-linejoin="round"/>
<path d="M34.5175 39.5386L32.9935 48.0648L34.876 58.2066L35.3242 44.8338L34.5175 39.5386Z" fill="#E27525" stroke="#E27525" stroke-linecap="round" stroke-linejoin="round"/>
<path d="M43.5714 39.5386L42.7646 44.8338L43.1232 58.2066L45.0953 48.0648L43.5714 39.5386Z" fill="#E27525" stroke="#E27525" stroke-linecap="round" stroke-linejoin="round"/>
<path d="M45.0953 48.0648L43.1232 58.2066L44.5575 59.1938L53.1632 52.3728L53.4321 45.6416L45.0953 48.0648Z" fill="#F5841F" stroke="#F5841F" stroke-linecap="round" stroke-linejoin="round"/>
<path d="M24.6567 45.6416L24.836 52.3728L33.5314 59.1938L34.876 58.2066L32.9935 48.0648L24.6567 45.6416Z" fill="#F5841F" stroke="#F5841F" stroke-linecap="round" stroke-linejoin="round"/>
<path d="M45.2746 68.4383L45.3643 65.656L44.5575 65.0278H33.4417L32.7246 65.656L32.8143 68.4383L23.4914 64.0405L26.7185 66.733L33.3521 71.3103H44.6471L51.2807 66.733L54.5078 64.0405L45.2746 68.4383Z" fill="#C0AC9D" stroke="#C0AC9D" stroke-linecap="round" stroke-linejoin="round"/>
<path d="M44.5575 59.194L43.1232 58.2068H34.876L33.5314 59.194L32.7246 65.6561L33.4417 65.0278H44.5575L45.3643 65.6561L44.5575 59.194Z" fill="#161616" stroke="#161616" stroke-linecap="round" stroke-linejoin="round"/>
<path d="M74.2293 24.6402L76.7393 12.5239L72.9743 1.30518L44.5575 22.4862L55.4939 31.7304L70.9125 36.2179L74.3189 32.2689L72.8846 31.1919L75.2154 29.0379L73.4225 27.6019L75.7532 25.8069L74.2293 24.6402Z" fill="#763E1A" stroke="#763E1A" stroke-linecap="round" stroke-linejoin="round"/>
<path d="M1.34961 12.5239L3.85961 24.6402L2.24604 25.8069L4.57675 27.6019L2.78389 29.0379L5.20425 31.1919L3.68032 32.2689L7.08675 36.2179L22.595 31.7304L33.5314 22.4862L5.02497 1.30518L1.34961 12.5239Z" fill="#763E1A" stroke="#763E1A" stroke-linecap="round" stroke-linejoin="round"/>
<path d="M70.9125 36.218L55.4939 31.7305L60.1554 38.8207L53.1632 52.373L62.3964 52.2832H76.1118L70.9125 36.218Z" fill="#F5841F" stroke="#F5841F" stroke-linecap="round" stroke-linejoin="round"/>
<path d="M22.595 31.7305L7.08676 36.218L1.97711 52.2832H15.6925L24.836 52.373L17.9335 38.8207L22.595 31.7305Z" fill="#F5841F" stroke="#F5841F" stroke-linecap="round" stroke-linejoin="round"/>
<path d="M43.5714 39.5388L44.5575 22.4863L49.0396 10.2803H29.0493L33.5314 22.4863L34.5175 39.5388L34.876 44.9238V58.2068H43.1232V44.9238L43.5714 39.5388Z" fill="#F5841F" stroke="#F5841F" stroke-linecap="round" stroke-linejoin="round"/>
</svg>
