<svg width="196" height="185" viewBox="0 0 196 185" fill="none" xmlns="http://www.w3.org/2000/svg">
<ellipse rx="70.0814" ry="13.1047" transform="matrix(-1 0 0 1 86.0349 171.5)" fill="#0D2823"/>
<g clip-path="url(#clip0_600_3284)">
<path d="M120.474 56.974C118.395 67.2334 123.328 78.5964 123.592 88.9176C123.716 93.7118 123.892 99.7332 120.641 103.68C118.879 105.781 107.541 112.306 106.387 110.664C113.109 120.164 130.385 124.384 141.221 122.592C164.126 118.83 171.007 99.6802 168.866 79.2233C167.588 66.9508 161.818 48.4716 167.862 36.9232C173.077 26.964 186.653 17.1107 196 11.6455C189.076 1.38615 174.434 -1.72168 162.364 0.865235C151.793 3.13431 142.639 9.95035 135.997 18.5234C135.045 19.7595 134.138 21.0308 133.292 22.3287C126.544 32.7735 122.932 44.8428 120.474 56.974Z" fill="#F18628"/>
<path d="M155.475 72.8663C154.665 90.7805 149.617 110.443 136.34 122.989C137.975 122.984 139.607 122.851 141.221 122.592C164.126 118.83 171.007 99.6802 168.866 79.2233C167.588 66.9508 161.818 48.4716 167.862 36.9232C173.077 26.964 186.653 17.1107 196 11.6455C189.076 1.38615 174.434 -1.72168 162.364 0.865235C154.455 2.71051 147.216 6.72789 141.459 12.4666C151.722 30.3367 156.426 51.8002 155.475 72.8663Z" fill="#CF560A"/>
<path d="M133.292 22.3641C126.544 32.7294 122.932 44.8429 120.474 56.974C118.395 67.2334 123.328 78.5964 123.592 88.9176C123.716 93.7118 123.892 99.7332 120.641 103.68C118.879 105.781 107.541 112.306 106.387 110.664C112.166 118.831 125.768 123.095 136.34 123.024C149.616 110.478 154.664 90.8159 155.475 72.9017C156.426 51.8355 151.722 30.372 141.459 12.4932C139.491 14.3902 137.666 16.4293 135.997 18.5941C135.045 19.7948 134.138 21.0662 133.292 22.3641Z" fill="#E6710B"/>
<path d="M162.364 0.865499C151.793 3.13457 142.639 9.95061 135.997 18.5236C135.753 20.4266 135.641 22.3441 135.662 24.2625C138.363 21.2629 141.703 18.9116 145.435 17.3831C149.167 15.8546 153.195 15.1882 157.219 15.4335C153.923 20.0611 152.227 25.6423 152.392 31.3258C154.112 28.8334 156.46 26.8417 159.197 25.553C161.935 24.2644 164.963 23.7247 167.976 23.9888C166.37 26.8349 165.347 29.9741 164.969 33.2218C164.591 36.4696 164.864 39.7604 165.774 42.9007C172.816 29.8843 183.266 19.0387 196 11.531C189.076 1.38641 174.434 -1.72142 162.364 0.865499Z" fill="#E6D3A3"/>
<path d="M126.024 73.6345C126.466 74.1091 126.747 74.7118 126.826 75.3562C127.03 76.0239 127.186 76.7055 127.293 77.3957C127.354 77.8018 126.808 77.8636 126.641 77.5458C126.317 76.8712 126.04 76.175 125.812 75.4621C125.533 74.9187 125.446 74.2959 125.566 73.6963C125.592 73.5462 125.857 73.5374 126.024 73.6345Z" fill="#F1B480"/>
<path d="M125.724 62.7923C125.911 63.3219 125.954 63.8918 125.848 64.4434C125.831 65.1587 125.882 65.874 125.997 66.58C126.077 67.1009 125.222 67.304 125.117 66.7919C124.925 66.0588 124.816 65.3067 124.791 64.5493C124.734 64.2267 124.745 63.8958 124.824 63.5779C124.903 63.2601 125.048 62.9623 125.249 62.704C125.282 62.6696 125.323 62.644 125.369 62.6295C125.415 62.6149 125.463 62.6119 125.51 62.6206C125.557 62.6293 125.601 62.6496 125.639 62.6795C125.676 62.7095 125.706 62.7482 125.724 62.7923Z" fill="#F1B480"/>
<path d="M126.905 52.1975C126.96 53.1132 126.883 54.0321 126.676 54.9257C126.535 55.9322 126.376 56.9476 126.182 57.9452C126.155 58.0356 126.095 58.1127 126.015 58.1621C125.934 58.2115 125.838 58.2297 125.745 58.2135C125.653 58.1973 125.569 58.1476 125.51 58.0738C125.451 58.0001 125.42 57.9073 125.425 57.8128C125.495 56.7886 125.601 55.7733 125.724 54.758C125.759 53.8563 125.922 52.9643 126.209 52.1092C126.243 52.0393 126.297 51.9817 126.366 51.9446C126.434 51.9075 126.512 51.8928 126.589 51.9026C126.666 51.9124 126.737 51.9461 126.794 51.999C126.851 52.0519 126.89 52.1213 126.905 52.1975Z" fill="#F1B480"/>
<path d="M128.447 43.4919C128.729 43.8539 128.499 44.2424 128.358 44.6397C128.159 45.2283 127.947 45.8169 127.724 46.4055C127.548 46.8646 126.746 46.6086 126.896 46.1406C127.046 45.6727 127.213 45.143 127.381 44.6397C127.548 44.1365 127.601 43.5361 128.112 43.4036C128.17 43.3804 128.233 43.3765 128.294 43.3924C128.354 43.4083 128.408 43.4432 128.447 43.4919Z" fill="#F1B480"/>
<path d="M128.543 68.2841C129.01 68.6196 128.905 69.3436 128.958 69.8646C129.037 70.5621 129.222 71.2419 129.301 71.9394C129.303 72.008 129.283 72.0754 129.245 72.1322C129.206 72.189 129.151 72.2321 129.087 72.2556C129.022 72.279 128.952 72.2816 128.886 72.2629C128.821 72.2441 128.762 72.2051 128.72 72.1513C128.354 71.5535 128.106 70.8912 127.989 70.2001C127.856 69.6085 127.618 68.6814 128.182 68.2665C128.237 68.2309 128.301 68.2135 128.366 68.2167C128.431 68.2198 128.493 68.2435 128.543 68.2841Z" fill="#F1B480"/>
<path d="M129.469 59.2607C129.581 59.6654 129.623 60.0866 129.592 60.5056C129.636 60.9363 129.706 61.3638 129.803 61.7858C129.891 62.2537 129.213 62.342 129.037 61.9624C128.852 61.524 128.721 61.0643 128.649 60.5939C128.525 60.1449 128.55 59.6678 128.72 59.2342C128.756 59.1642 128.811 59.1058 128.879 59.066C128.946 59.0262 129.024 59.0065 129.102 59.0093C129.181 59.0121 129.257 59.0372 129.322 59.0817C129.387 59.1262 129.438 59.1883 129.469 59.2607Z" fill="#F1B480"/>
<path d="M130.49 47.6151C130.563 48.0395 130.52 48.4755 130.367 48.8777C130.247 49.4853 130.188 50.1035 130.191 50.723C130.188 50.8179 130.151 50.9086 130.086 50.9778C130.021 51.0471 129.933 51.0901 129.839 51.0988C129.745 51.1075 129.65 51.0813 129.574 51.025C129.498 50.9688 129.444 50.8865 129.424 50.7936C129.354 50.1746 129.354 49.5496 129.424 48.9307C129.415 48.6616 129.459 48.3934 129.554 48.1417C129.65 47.8901 129.794 47.66 129.979 47.465C130.02 47.4325 130.068 47.4104 130.12 47.4003C130.171 47.3903 130.224 47.3928 130.274 47.4075C130.324 47.4222 130.37 47.4487 130.407 47.4849C130.445 47.521 130.474 47.5657 130.49 47.6151Z" fill="#F1B480"/>
<path d="M130.94 65.6353C130.88 65.8636 130.841 66.0972 130.825 66.3328C130.825 66.633 130.975 66.8537 130.896 67.1539C130.888 67.1985 130.872 67.2413 130.848 67.2797C130.824 67.3181 130.793 67.3513 130.756 67.3776C130.719 67.4038 130.678 67.4225 130.633 67.4326C130.589 67.4427 130.544 67.444 130.499 67.4364C129.988 67.3128 129.856 66.9067 129.759 66.4387C129.719 66.2249 129.723 66.0052 129.77 65.7928C129.817 65.5804 129.906 65.3796 130.032 65.2027C130.109 65.1217 130.21 65.0671 130.319 65.0467C130.429 65.0264 130.542 65.0412 130.643 65.0892C130.743 65.1372 130.826 65.2159 130.88 65.3139C130.933 65.412 130.954 65.5245 130.94 65.6353Z" fill="#F1B480"/>
<path d="M131.918 54.2634C131.938 54.6124 131.896 54.9622 131.794 55.2964C131.715 55.6496 131.662 56.0027 131.565 56.3559C131.545 56.473 131.48 56.5774 131.383 56.6461C131.287 56.7148 131.167 56.7422 131.05 56.7223C130.933 56.7024 130.829 56.6368 130.76 56.5399C130.692 56.4431 130.664 56.3229 130.684 56.2058C130.684 55.8438 130.781 55.4907 130.834 55.1375C130.846 54.7877 130.924 54.4433 131.063 54.1222C131.072 54.0659 131.093 54.0121 131.123 53.9637C131.153 53.9153 131.192 53.8733 131.238 53.84C131.284 53.8068 131.337 53.7831 131.392 53.7701C131.447 53.7572 131.505 53.7553 131.561 53.7646C131.617 53.7739 131.671 53.7941 131.719 53.8242C131.767 53.8543 131.809 53.8936 131.842 53.9399C131.875 53.9863 131.899 54.0387 131.912 54.0942C131.925 54.1497 131.927 54.2072 131.918 54.2634Z" fill="#F1B480"/>
<path d="M90.8553 145.229C79.2782 145.158 67.8551 142.564 57.3781 137.628C41.6615 130.193 29.0987 108.492 36.7897 90.9835C41.9258 79.3203 53.5899 78.7994 66.7429 81.4923C79.6052 84.141 90.9258 89.7298 103.171 93.9678C113.576 97.5612 120.932 104.616 123.231 116.111C126.702 133.496 118.65 142.024 102.828 144.364C98.8646 144.956 94.8622 145.246 90.8553 145.229Z" fill="#E6710B"/>
<path d="M97.956 153.908C98.2379 146.96 99.0396 140.038 99.9558 133.151C100.07 132.33 100.211 131.103 100.414 129.62C100.52 129.683 100.632 129.736 100.749 129.778C104.757 131.482 107.277 126.671 108.166 122.636C109.691 125.037 109.629 130.485 113.452 127.827C112.865 131.8 112.278 135.776 111.69 139.755C110.545 147.284 109.394 154.809 108.237 162.331C108.237 162.331 104.184 176.29 99.4889 168.644C97.0133 164.697 97.771 158.279 97.956 153.908Z" fill="#803F21"/>
<path d="M34.6665 99.1592C33.0103 114.716 44.0753 131.315 57.4045 137.627C67.8815 142.564 79.3046 145.158 90.8817 145.229C94.8891 145.24 98.8915 144.945 102.854 144.346C118.712 141.989 126.729 133.46 123.258 116.093C122.504 112.06 120.9 108.234 118.553 104.872C112.441 107.961 105.912 110.141 99.1717 111.343C76.4337 115.67 53.7132 111.44 34.6665 99.1592Z" fill="#CF560A"/>
<path d="M70.7778 123.713C69.9673 127.766 67.5446 132.622 63.5009 131.006L63.1662 130.856C64.0912 122.786 66.5755 107.423 75.0153 112.315C78.9709 114.61 77.1032 121.312 76.6275 125.029C76.4689 126.282 76.3015 127.545 76.143 128.807C72.3988 131.483 72.3548 126.035 70.7778 123.713Z" fill="#E6710B"/>
<path d="M61.1927 155.136C61.3337 148.187 61.9944 141.248 62.7785 134.343C62.8754 133.522 62.9899 132.286 63.1661 130.812L63.5009 130.962C67.5446 132.577 69.9673 127.721 70.7778 123.669C72.3547 126.035 72.3988 131.483 76.1429 128.755C75.6261 132.745 75.1093 136.733 74.5924 140.718C73.5998 148.27 72.5985 155.816 71.5883 163.356C71.5883 163.356 67.8177 177.394 62.9635 169.836C60.4615 165.943 61.0958 159.506 61.1927 155.136Z" fill="#803F21"/>
<path d="M47.3526 122.547C47.0883 126.67 45.3351 131.809 41.1152 130.75C40.9919 130.75 40.8685 130.679 40.754 130.644C40.6042 122.521 41.0183 106.964 50.0307 110.681C54.2594 112.447 53.2992 119.316 53.3256 123.042C53.3256 124.313 53.3256 125.585 53.3256 126.847C49.9955 130.079 49.229 124.684 47.3526 122.547Z" fill="#E6710B"/>
<path d="M42.0403 155.021C41.2562 148.107 40.9831 141.141 40.851 134.193C40.851 133.372 40.7805 132.127 40.754 130.661C40.8686 130.661 40.9919 130.741 41.1152 130.767C45.3351 131.827 47.0883 126.688 47.3526 122.565C49.2291 124.702 49.9955 130.096 53.3432 126.882C53.3432 130.908 53.3873 134.926 53.3961 138.952C53.3961 146.562 53.4108 154.176 53.4401 161.793C53.4401 161.793 51.5637 176.21 45.758 169.368C42.7627 165.819 42.5336 159.365 42.0403 155.021Z" fill="#803F21"/>
<path d="M103.171 93.9678C90.9257 89.7298 79.6052 84.1233 66.7429 81.4923C53.6163 78.7994 41.9522 79.3203 36.7896 90.9835C35.6534 93.5802 34.9282 96.3386 34.64 99.1593C53.6868 111.441 76.4072 115.67 99.1365 111.361C105.876 110.159 112.405 107.978 118.518 104.889C114.897 99.7596 109.62 96.2015 103.171 93.9678Z" fill="#E6710B"/>
<path d="M60.2149 89.3237C63.9424 93.0686 67.3601 97.1109 70.4342 101.411C57.8186 102.055 45.3528 99.0887 33.6622 94.1797C34.0196 92.6312 34.5393 91.1248 35.2127 89.6857C43.4877 91.2348 51.988 91.1117 60.2149 89.3237Z" fill="#E6D3A3"/>
<path d="M35.2127 89.6856C35.6283 88.8129 36.1022 87.9693 36.6311 87.1605C43.256 77.0954 52.3565 81.6865 60.2148 89.3236C51.988 91.1116 43.4877 91.2346 35.2127 89.6856Z" fill="#CCBB91"/>
<path d="M70.4342 101.411C72.1257 103.715 73.5441 105.825 74.6012 107.353L62.2235 102.055C66.4879 109.305 68.7417 117.566 68.7515 125.982C57.181 123.819 46.6495 117.88 38.7983 109.092C38.6749 110.902 38.5604 112.721 38.4459 114.531C36.1318 111.749 34.4943 108.467 33.6626 104.943C32.8309 101.419 32.8277 97.7494 33.6533 94.2239C45.3527 99.0887 57.8186 102.055 70.4342 101.411Z" fill="#CCBB91"/>
<path d="M33.0895 47.5533C32.2965 48.3041 31.4612 49.0087 30.5876 49.6635C27.7451 51.8146 24.5446 53.4438 21.1347 54.4753C19.7813 54.885 18.4005 55.1977 17.0029 55.4112C12.9646 51.226 10.2557 45.9343 9.21916 40.2057C8.18258 34.4771 8.86486 28.5691 11.1796 23.2292C22.9495 25.7544 32.0588 35.5281 33.0895 47.5533Z" fill="#E6710B"/>
<path d="M30.5876 49.6635C27.7451 51.8147 24.5446 53.4438 21.1347 54.4754C20.913 54.3054 20.7094 54.1131 20.5268 53.9015C18.2195 51.1464 16.6134 47.8715 15.8462 44.3577C15.079 40.844 15.1736 37.1961 16.1219 33.7271C19.554 35.154 22.6299 37.322 25.1302 40.0766C27.6306 42.8312 29.494 46.1046 30.5876 49.6635Z" fill="#803F21"/>
<path d="M68.8396 47.5533C69.6345 48.302 70.4698 49.0064 71.3416 49.6635C74.1852 51.8129 77.3853 53.4419 80.7945 54.4753C82.1479 54.885 83.5287 55.1977 84.9263 55.4112C88.9725 51.2311 91.6893 45.9412 92.7323 40.2119C93.7753 34.4826 93.0975 28.572 90.7848 23.2292C78.9709 25.7544 69.8704 35.5281 68.8396 47.5533Z" fill="#E6710B"/>
<path d="M71.3416 49.6635C74.1852 51.8129 77.3853 53.4419 80.7945 54.4754C81.02 54.31 81.2242 54.1172 81.4024 53.9015C83.7097 51.1464 85.3158 47.8715 86.083 44.3577C86.8502 40.844 86.7556 37.1961 85.8073 33.7271C82.3751 35.154 79.2993 37.322 76.7989 40.0766C74.2986 42.8312 72.4352 46.1046 71.3416 49.6635Z" fill="#803F21"/>
<path d="M100.608 79.1349C69.6413 95.0272 31.2042 95.3185 -1.52588e-05 79.9206C6.43993 57.5566 26.2355 36.9054 49.4493 37.0025C72.663 37.0997 94.3087 56.7267 100.608 79.1349Z" fill="#F18628"/>
<path d="M100.608 79.1349C69.6413 95.0272 31.2042 95.3186 -1.52588e-05 79.9207C-1.52588e-05 79.9207 34.8162 35.5017 48.1278 86.8692L53.4137 86.1364C53.4137 86.1364 60.3382 29.7716 100.608 79.1349Z" fill="#E6D3A3"/>
<path d="M57.7481 86.7103C56.6205 84.9445 51.8456 85.3153 50.3127 85.3948C48.7798 85.4742 44.9387 85.6067 44.0137 86.8869C41.8288 89.9506 48.1367 93.3321 50.3743 93.288C52.1044 93.1959 53.7568 92.5385 55.0788 91.4162C55.9597 90.7011 58.2062 88.5114 57.9684 87.2489C57.9299 87.0569 57.8551 86.8741 57.7481 86.7103Z" fill="#982626"/>
<path d="M53.863 87.4255C53.2816 86.5426 52.4006 86.6221 51.4491 86.5426C50.4977 86.4632 49.1586 86.3925 48.3128 87.0371C47.934 87.3284 47.7314 88.0877 48.3128 88.3349C49.1025 88.5904 49.9355 88.6835 50.762 88.6086C51.687 88.6086 52.753 89.0766 53.5723 88.538C53.7547 88.4261 53.8869 88.2478 53.9411 88.0404C53.9952 87.833 53.9673 87.6127 53.863 87.4255Z" fill="#AB2B2B"/>
<path d="M33.1865 71.127C33.0117 70.8498 32.7699 70.6214 32.4834 70.4632C32.1968 70.3049 31.875 70.2219 31.5478 70.2219C31.2207 70.2219 30.8989 70.3049 30.6123 70.4632C30.3258 70.6214 30.0839 70.8498 29.9092 71.127C29.2485 72.0099 29.3806 73.5815 29.4071 74.6586C29.4046 75.0336 29.5011 75.4026 29.6868 75.7282C29.8724 76.0538 30.1406 76.3244 30.4642 76.5127C30.7964 76.6951 31.1691 76.7907 31.5478 76.7907C31.9266 76.7907 32.2993 76.6951 32.6314 76.5127C32.955 76.3244 33.2233 76.0538 33.4089 75.7282C33.5946 75.4026 33.6911 75.0336 33.6886 74.6586C33.7151 73.5815 33.8472 71.9922 33.1865 71.127Z" fill="#803F21"/>
<path d="M70.4783 71.127C70.3035 70.8498 70.0616 70.6214 69.7751 70.4632C69.4886 70.3049 69.1668 70.2219 68.8396 70.2219C68.5125 70.2219 68.1907 70.3049 67.9041 70.4632C67.6176 70.6214 67.3757 70.8498 67.201 71.127C66.5403 72.0099 66.6724 73.5815 66.6989 74.6586C66.6964 75.0336 66.7929 75.4026 66.9786 75.7282C67.1642 76.0538 67.4324 76.3244 67.756 76.5127C68.0882 76.6951 68.4609 76.7907 68.8396 76.7907C69.2184 76.7907 69.5911 76.6951 69.9232 76.5127C70.2469 76.3244 70.5151 76.0538 70.7007 75.7282C70.8864 75.4026 70.9828 75.0336 70.9804 74.6586C71.0068 73.5815 71.139 71.9922 70.4783 71.127Z" fill="#803F21"/>
<path d="M47.8019 61.5121C47.7226 60.9205 47.6521 60.329 47.5288 59.7462C47.5085 59.6453 47.4507 59.5559 47.3671 59.4961C47.2835 59.4362 47.1804 59.4104 47.0786 59.4239C46.9767 59.4374 46.8838 59.4891 46.8186 59.5686C46.7533 59.6481 46.7206 59.7495 46.7271 59.8522C46.7271 60.4791 46.8504 61.1147 46.9297 61.7328C46.9826 62.2096 46.9297 62.7658 47.3526 63.0925C47.3803 63.1192 47.4136 63.1393 47.4502 63.1513C47.4867 63.1633 47.5255 63.1669 47.5636 63.1618C47.6017 63.1567 47.6381 63.1431 47.6703 63.1219C47.7024 63.1007 47.7293 63.0725 47.749 63.0395C48.0662 62.6069 47.8724 62.0153 47.8019 61.5121Z" fill="#F1B480"/>
<path d="M54.6647 61.6269C54.675 60.9342 54.6455 60.2415 54.5766 59.5521C54.5766 59.4608 54.5404 59.3732 54.476 59.3086C54.4116 59.244 54.3242 59.2078 54.2331 59.2078C54.1419 59.2078 54.0545 59.244 53.9901 59.3086C53.9257 59.3732 53.8895 59.4608 53.8895 59.5521C53.8291 60.1565 53.7997 60.7635 53.8014 61.3709C53.7092 61.9468 53.7669 62.5367 53.9687 63.0837C53.9962 63.1294 54.0349 63.1673 54.0812 63.1935C54.1275 63.2198 54.1798 63.2336 54.2331 63.2336C54.2863 63.2336 54.3386 63.2198 54.3849 63.1935C54.4312 63.1673 54.4699 63.1294 54.4973 63.0837C54.6769 62.6206 54.7346 62.1189 54.6647 61.6269Z" fill="#F1B480"/>
<path d="M50.0572 68.9728C50.0659 68.4037 50.0394 67.8346 49.9779 67.2688C49.9645 67.1836 49.9212 67.106 49.8558 67.0499C49.7904 66.9939 49.7071 66.9631 49.6211 66.9631C49.535 66.9631 49.4518 66.9939 49.3864 67.0499C49.321 67.106 49.2777 67.1836 49.2643 67.2688C49.2027 67.8346 49.1763 68.4037 49.185 68.9728C49.185 69.4054 49.0617 69.9175 49.4317 70.2177C49.4835 70.2648 49.5511 70.2909 49.6211 70.2909C49.6911 70.2909 49.7586 70.2648 49.8105 70.2177C50.1805 69.8557 50.0572 69.3613 50.0572 68.9728Z" fill="#F1B480"/>
<path d="M40.8509 59.6139C40.7276 59.0489 40.6131 58.4838 40.4545 57.9188C40.3488 57.5214 39.6616 57.5832 39.7056 58.0247C39.7497 58.4661 39.8642 59.1018 39.9611 59.6316C39.9846 60.1313 40.133 60.6171 40.3928 61.0442C40.4353 61.0843 40.4874 61.1128 40.544 61.1272C40.6006 61.1415 40.6599 61.1411 40.7163 61.1261C40.7728 61.1111 40.8244 61.0819 40.8665 61.0413C40.9085 61.0007 40.9396 60.9501 40.9567 60.8941C41.0313 60.4654 40.9949 60.0246 40.8509 59.6139Z" fill="#F1B480"/>
<path d="M44.093 54.4313C44.0171 53.7901 43.8261 53.1679 43.5291 52.5949C43.3441 52.2682 42.9124 52.5066 42.9565 52.8421C43.0358 53.3807 43.1767 53.9104 43.2648 54.449C43.3529 54.9876 43.2648 55.4113 43.5908 55.7468C43.6412 55.7934 43.7073 55.8192 43.7758 55.8192C43.8444 55.8192 43.9104 55.7934 43.9608 55.7468C44.3308 55.376 44.2075 54.8904 44.093 54.4313Z" fill="#F1B480"/>
<path d="M45.0444 68.8932C44.8498 68.4548 44.6107 68.0376 44.3308 67.6483C44.093 67.3216 43.5115 67.4982 43.6437 67.9396C43.77 68.3504 43.9322 68.7493 44.1282 69.1316C44.2692 69.4053 44.4894 69.8732 44.8858 69.732C45.2823 69.5907 45.1678 69.1669 45.0444 68.8932Z" fill="#F1B480"/>
<path d="M56.2593 67.2864C55.9221 67.8659 55.7091 68.5093 55.6338 69.1759C55.6353 69.2592 55.6635 69.3398 55.7142 69.4058C55.7649 69.4718 55.8355 69.5197 55.9155 69.5425C55.9954 69.5652 56.0806 69.5616 56.1584 69.5322C56.2361 69.5027 56.3024 69.449 56.3474 69.3789C56.659 68.7842 56.8478 68.1325 56.9024 67.463C56.9376 67.1099 56.4267 67.0039 56.2593 67.2864Z" fill="#F1B480"/>
<path d="M50.8941 52.33C50.8671 52.2804 50.826 52.2401 50.776 52.2141C50.7259 52.1882 50.6693 52.1779 50.6133 52.1846C50.5574 52.1912 50.5047 52.2145 50.4621 52.2515C50.4195 52.2884 50.389 52.3372 50.3743 52.3918C50.3158 52.7031 50.3009 53.021 50.3303 53.3365C50.3303 53.7514 50.3303 54.1576 50.3303 54.5637C50.3303 55.1553 51.1408 55.1111 51.2112 54.5637C51.3482 53.8043 51.237 53.0209 50.8941 52.33Z" fill="#F1B480"/>
<path d="M58.8405 52.8154C58.8203 52.7456 58.7781 52.6842 58.7201 52.6405C58.6621 52.5969 58.5915 52.5732 58.519 52.5732C58.4464 52.5732 58.3759 52.5969 58.3179 52.6405C58.2599 52.6842 58.2176 52.7456 58.1974 52.8154C58.1181 53.3275 58.0476 53.8484 57.9331 54.3517C57.756 54.7566 57.6979 55.2038 57.7657 55.6407C57.7761 55.6672 57.792 55.6912 57.8122 55.7111C57.8324 55.7311 57.8566 55.7466 57.8832 55.7566C57.9097 55.7666 57.9381 55.7708 57.9665 55.7691C57.9948 55.7674 58.0225 55.7598 58.0476 55.7467C58.9463 55.3229 58.9639 53.6453 58.8405 52.8154Z" fill="#F1B480"/>
<path d="M45.4761 49.1779C45.4254 48.7398 45.3429 48.3061 45.2294 47.88C45.2021 47.792 45.1445 47.7167 45.0669 47.6674C44.9893 47.618 44.8968 47.5979 44.8057 47.6107C44.7147 47.6234 44.6312 47.6681 44.57 47.7368C44.5088 47.8056 44.474 47.8939 44.4718 47.9859C44.4926 48.4632 44.5486 48.9384 44.6392 49.4074C44.6701 49.5195 44.7439 49.6148 44.8445 49.6726C44.9451 49.7305 45.0645 49.7462 45.1766 49.7164C45.2855 49.6817 45.3771 49.6067 45.4327 49.5066C45.4884 49.4065 45.5039 49.289 45.4761 49.1779Z" fill="#F1B480"/>
<path d="M38.3137 50.4317C38.023 50.1315 37.5913 50.52 37.7587 50.8643C38.0646 51.446 38.2899 52.0668 38.4282 52.7096C38.534 53.2658 39.3092 53.0186 39.2652 52.4712C39.1666 51.709 38.8341 50.9963 38.3137 50.4317Z" fill="#F1B480"/>
<path d="M56.4266 50.0697C56.3385 49.5046 56.1888 48.9572 56.0566 48.401C55.9245 47.8447 55.2549 48.0655 55.2902 48.5069C55.3254 48.9484 55.3695 49.4693 55.4311 49.9461C55.4928 50.4228 55.4311 50.9702 55.9069 51.2439C55.9717 51.2834 56.0479 51.2997 56.1231 51.29C56.1983 51.2804 56.2681 51.2455 56.3209 51.191C56.6381 50.829 56.5147 50.5111 56.4266 50.0697Z" fill="#F1B480"/>
<path d="M117.699 156.681C115.487 150.094 113.752 143.34 112.166 136.577C111.972 135.774 111.664 134.573 111.329 133.125C111.453 133.125 111.567 133.125 111.699 133.125C116.051 133.275 116.686 127.88 116.104 123.792C118.386 125.488 120.271 130.591 122.87 126.759C123.733 130.679 124.594 134.605 125.451 138.537C127.072 145.983 128.682 153.423 130.279 160.857C130.279 160.857 131.477 175.345 124.359 169.88C120.668 167.09 119.082 160.795 117.699 156.681Z" fill="#803F21"/>
</g>
<defs>
<clipPath id="clip0_600_3284">
<rect width="196" height="172.07" fill="white" transform="matrix(-1 0 0 1 196 0)"/>
</clipPath>
</defs>
</svg>
