<svg width="162" height="217" viewBox="0 0 162 217" fill="none" xmlns="http://www.w3.org/2000/svg">
<ellipse cx="77" cy="209.5" rx="39" ry="7.5" fill="#0D2823"/>
<path d="M59.8101 82.6369C59.8101 82.6369 88.6392 61.7226 96.2193 64.6555C103.799 67.5884 89.166 86.2487 61.127 84.2236L59.8101 82.6369Z" fill="#B25900"/>
<g style="mix-blend-mode:screen" opacity="0.47">
<path d="M59.8101 82.6369C59.8101 82.6369 88.6392 61.7226 96.2193 64.6555C103.799 67.5884 89.166 86.2487 61.127 84.2236L59.8101 82.6369Z" fill="#B25900"/>
</g>
<g style="mix-blend-mode:screen" opacity="0.5">
<path d="M65.6936 81.2288C65.6936 81.2288 87.8684 66.219 91.7882 66.413C95.708 66.607 65.6936 81.2288 65.6936 81.2288Z" fill="#B25900"/>
</g>
<path d="M60.0308 82.5868C60.0308 82.5868 55.0188 71.3906 52.6715 71.4332C50.3243 71.4759 51.0215 83.1299 55.2434 90.6561C59.4653 98.1823 64.1985 124.555 64.1985 124.555L67.6845 123.263C67.6845 123.263 64.5239 111.823 65.0662 96.8439C65.6084 81.8652 68.7226 79.8828 60.0308 82.5868Z" fill="#B25900"/>
<g style="mix-blend-mode:multiply" opacity="0.43">
<path d="M64.032 123.636C64.032 123.636 61.7274 111.26 59.597 103.226C59.597 103.226 65.5658 117.293 65.682 122.53C65.7982 127.767 64.032 123.636 64.032 123.636Z" fill="#B25900"/>
</g>
<path d="M65.8641 122.002C65.8641 122.002 60.0541 119.834 37.8367 125.106C37.8367 125.106 51.4127 126.378 55.9484 127.535C55.9484 127.535 60.5963 124.885 61.1154 125.719C61.6344 126.553 60.0696 128.12 60.0696 128.12L63.6989 129.463C63.6989 129.463 71.2635 123.438 65.8641 122.002Z" fill="#B25900"/>
<path d="M65.0662 96.8436C64.5239 111.822 67.6845 123.263 67.6845 123.263C69.0866 125.086 63.7066 129.47 63.7066 129.47L62.471 129.012C66.9137 126.576 66.1507 122.441 66.1507 122.441C66.1507 122.441 59.3414 91.1214 63.052 87.6842C66.7627 84.2469 65.4767 81.8921 65.4767 81.8921C66.7975 83.0094 65.4109 87.2574 65.0662 96.8436Z" fill="#B25900"/>
<g style="mix-blend-mode:multiply" opacity="0.43">
<path d="M52.4701 83.5059C52.6367 83.8356 55.1814 88.7044 59.4421 87.8121C59.4421 87.8121 57.9393 96.2965 59.8294 104.199C58.4118 98.6514 56.8083 93.3986 55.2667 90.6558C54.0372 88.4001 53.0975 85.9977 52.4701 83.5059Z" fill="#B25900"/>
</g>
<g style="mix-blend-mode:multiply" opacity="0.43">
<path d="M55.9561 127.546C51.4204 126.382 37.8444 125.118 37.8444 125.118C41.2452 124.307 44.2238 123.69 46.8925 123.197C46.5342 123.426 46.1877 123.674 45.8545 123.938C41.5938 127.356 60.3175 125.409 60.3175 125.409L59.6396 125.797C58.37 126.287 57.1388 126.872 55.9561 127.546Z" fill="#B25900"/>
</g>
<g style="mix-blend-mode:screen" opacity="0.72">
<path d="M59.1439 83.1375C59.1439 83.1375 55.4371 73.3845 52.7451 72.8956C50.0531 72.4068 57.1259 77.7101 59.1439 83.1375Z" fill="#B25900"/>
</g>
<path d="M50.8588 84.9453C50.8588 84.9453 76.8992 60.6326 84.7659 62.6111C92.6326 64.5896 80.4239 84.9104 52.3461 86.3575L50.8588 84.9453Z" fill="#B25900"/>
<g style="mix-blend-mode:screen" opacity="0.47">
<path d="M50.8588 84.9453C50.8588 84.9453 76.8992 60.6326 84.7659 62.6111C92.6326 64.5896 80.4239 84.9104 52.3461 86.3575L50.8588 84.9453Z" fill="#B25900"/>
</g>
<g style="mix-blend-mode:screen" opacity="0.5">
<path d="M56.5255 82.8232C56.5255 82.8232 76.6861 65.1869 80.5827 64.8998C84.4793 64.6128 56.5255 82.8232 56.5255 82.8232Z" fill="#B25900"/>
</g>
<path d="M51.3314 87.4396C51.3314 87.4396 49.418 75.3201 47.1404 74.7459C44.8629 74.1717 42.4925 85.6085 44.6073 93.9765C46.7221 102.345 44.402 129.043 44.402 129.043L48.1049 128.706C48.1049 128.706 48.0391 116.838 52.4701 102.519C56.9012 88.2 60.4414 87.106 51.3314 87.4396Z" fill="#B25900"/>
<g style="mix-blend-mode:multiply" opacity="0.43">
<path d="M44.4756 128.116C44.4756 128.116 45.4826 115.57 45.5252 107.256C45.5252 107.256 47.6168 122.386 46.358 127.484C45.0992 132.582 44.4756 128.116 44.4756 128.116Z" fill="#B25900"/>
</g>
<path d="M45.5524 127.154C45.5524 127.154 39.3551 127.453 21.011 141.07C21.011 141.07 33.9905 136.888 38.6153 136.158C38.6153 136.158 41.8417 131.891 42.6513 132.453C43.4608 133.016 42.6513 135.076 42.6513 135.076L46.4975 134.886C46.4975 134.886 51.0719 126.351 45.5524 127.154Z" fill="#B25900"/>
<path d="M52.4701 102.519C48.039 116.839 48.1049 128.706 48.1049 128.706V128.198C48.9996 130.324 46.4974 134.886 46.4974 134.886L44.7041 134.979C46.5633 128.597 46.8383 127.523 46.8383 127.523C46.8383 127.523 48.438 95.5131 52.9233 93.166C57.4086 90.8189 56.7772 88.208 56.7772 88.2041C57.7533 89.6201 55.3054 93.3755 52.4701 102.519Z" fill="#B25900"/>
<g style="mix-blend-mode:multiply" opacity="0.43">
<path d="M43.7861 86.3496C43.8597 86.7104 45.0333 92.0718 49.3831 92.3279C49.3831 92.3279 45.7228 100.126 45.4633 108.234C45.5446 102.508 45.3626 97.0143 44.5957 93.965C44.0061 91.4709 43.734 88.9121 43.7861 86.3496Z" fill="#B25900"/>
</g>
<g style="mix-blend-mode:multiply" opacity="0.43">
<path d="M38.6153 136.158C33.9905 136.888 21.011 141.07 21.011 141.07C23.823 138.982 26.3136 137.244 28.5756 135.735C28.3393 136.092 28.1108 136.457 27.9133 136.825C25.3414 141.648 41.7836 132.477 41.7836 132.477L41.3227 133.113C40.345 134.058 39.44 135.076 38.6153 136.158Z" fill="#B25900"/>
</g>
<g style="mix-blend-mode:screen" opacity="0.72">
<path d="M50.3321 87.7385C50.3321 87.7385 49.2979 77.357 46.846 76.1776C44.3942 74.9982 49.8014 81.9736 50.3321 87.7385Z" fill="#B25900"/>
</g>
<path d="M29.6214 100.684C29.6214 100.684 41.8727 67.2082 49.782 65.4081C57.6913 63.608 55.9793 87.2651 31.5774 101.27L29.6214 100.684Z" fill="#B25900"/>
<g style="mix-blend-mode:screen" opacity="0.47">
<path d="M29.6214 100.684C29.6214 100.684 41.8727 67.2082 49.782 65.4081C57.6913 63.608 55.9793 87.2651 31.5774 101.27L29.6214 100.684Z" fill="#B25900"/>
</g>
<g style="mix-blend-mode:screen" opacity="0.5">
<path d="M33.7155 96.2269C33.7155 96.2269 43.7396 71.3671 47.1017 69.3226C50.4637 67.2782 33.7155 96.2269 33.7155 96.2269Z" fill="#B25900"/>
</g>
<path d="M32.1197 99.4896C32.1197 99.4896 27.8203 88.0024 25.4769 87.8938C23.1336 87.7852 23.091 99.4663 26.8326 107.241C30.5742 115.015 33.638 141.64 33.638 141.64L37.2015 140.57C37.2015 140.57 34.7652 128.954 36.2448 114.038C37.7244 99.1211 40.9625 97.3404 32.1197 99.4896Z" fill="#B25900"/>
<g style="mix-blend-mode:multiply" opacity="0.43">
<path d="M33.5296 140.705C33.5296 140.705 32.0112 128.209 30.3883 120.059C30.3883 120.059 35.4623 134.475 35.2454 139.708C35.0285 144.942 33.5296 140.705 33.5296 140.705Z" fill="#B25900"/>
</g>
<path d="M34.0292 140.341C34.0292 140.341 28.684 143.503 18.8109 164.118C18.8109 164.118 28.3393 154.354 32.0926 151.545C32.0926 151.545 32.9563 146.269 33.9324 146.381C34.9085 146.494 35.1409 148.709 35.1409 148.709L38.4642 146.726C38.4642 146.726 38.5339 137.047 34.0292 140.341Z" fill="#B25900"/>
<path d="M36.2448 114.037C34.7652 128.954 37.2015 140.569 37.2015 140.569C38.4874 142.478 38.4642 146.726 38.4642 146.726L37.6663 147.203C38.2124 140.581 35.7296 139.658 35.7296 139.658C35.7296 139.658 30.9035 107.97 34.831 104.773C38.7585 101.576 37.5888 99.1401 37.5888 99.1401C38.8438 100.358 37.2015 104.494 36.2448 114.037Z" fill="#B25900"/>
<g style="mix-blend-mode:multiply" opacity="0.43">
<path d="M24.5163 99.9316C24.6635 100.273 26.8829 105.289 31.1978 104.668C31.1978 104.668 29.1682 113.04 30.5393 121.048C29.4703 115.422 28.2153 110.076 26.8326 107.241C25.757 104.911 24.9788 102.456 24.5163 99.9316Z" fill="#B25900"/>
</g>
<g style="mix-blend-mode:multiply" opacity="0.43">
<path d="M32.0926 151.544C28.3393 154.353 18.811 164.118 18.811 164.118C20.3216 160.96 21.7159 158.256 23.0135 155.862C22.9709 156.293 22.936 156.72 22.936 157.139C22.9089 162.609 33.1771 146.808 33.1771 146.808L33.0648 147.584C32.6423 148.878 32.3173 150.202 32.0926 151.544Z" fill="#B25900"/>
</g>
<g style="mix-blend-mode:screen" opacity="0.72">
<path d="M31.1978 99.9706C31.1978 99.9706 28.0992 90.0043 25.4537 89.3486C22.8082 88.693 29.5245 94.4424 31.1978 99.9706Z" fill="#B25900"/>
</g>
<path style="mix-blend-mode:multiply" opacity="0.28" d="M66.0306 84.367C65.9841 85.5891 65.7905 87.2495 65.5736 89.453C65.5736 89.5927 65.5465 89.7246 65.531 89.872C65.4922 90.26 65.4535 90.7294 65.4186 91.1717C65.3838 91.6139 65.3334 92.1958 65.2947 92.7235C65.2676 93.0649 65.2444 93.4062 65.2211 93.767C65.1591 94.7292 65.1049 95.7339 65.0662 96.828C64.9171 101.086 65.04 105.349 65.4341 109.591C65.6394 111.842 65.9028 113.878 66.1739 115.655C66.3521 116.819 66.538 117.901 66.7123 118.836C67.243 121.637 67.6845 123.247 67.6923 123.286C68.5212 124.45 66.7511 126.568 65.3063 128C64.7978 128.512 64.2639 128.999 63.7066 129.458L62.471 129.001L60.0773 128.116C60.0773 128.116 61.646 126.545 61.1231 125.715C60.9566 125.451 60.3485 125.556 59.6396 125.796C58.3705 126.282 57.1392 126.861 55.9561 127.53C55.1078 127.313 53.9381 127.092 52.6018 126.878L51.2113 126.661C50.243 126.522 49.2165 126.382 48.1862 126.246C48.1397 127.111 48.1204 127.775 48.1126 128.186C48.1359 128.244 48.132 128.318 48.1514 128.376C48.1905 128.512 48.219 128.651 48.2366 128.791C48.5658 131.08 46.4975 134.886 46.4975 134.886L42.6241 135.084C42.6241 135.084 43.4492 133.02 42.6241 132.461C42.3646 132.283 41.8495 132.616 41.2917 133.121C40.3133 134.067 39.407 135.085 38.5804 136.166C38.0149 136.255 37.3177 136.399 36.5353 136.577C36.8645 139.107 37.1666 140.577 37.155 140.581C38.2938 142.249 38.4177 145.698 38.4293 146.567V146.734L35.106 148.716C35.106 148.716 34.8736 146.505 33.8975 146.388C33.5877 146.354 33.2933 146.885 33.0299 147.595C32.6076 148.888 32.2826 150.211 32.0577 151.552C31.3528 152.08 30.4464 152.852 29.4393 153.756C27.7544 155.265 25.7907 157.146 24.0167 158.892C21.1659 161.685 18.7838 164.126 18.7838 164.126C19.299 163.051 19.7948 162.042 20.2828 161.068C20.4765 160.681 20.6701 160.293 20.856 159.928C21.0962 159.458 21.3247 159.012 21.5571 158.566C22.0503 157.625 22.5267 156.726 22.9864 155.87C28.6724 145.395 32.2591 141.768 33.5025 140.721C33.5025 140.721 33.3437 139.44 33.0841 137.458C31.438 137.904 29.695 138.408 28.0488 138.897C27.0921 139.18 26.1741 139.46 25.3375 139.716C22.8121 140.492 20.9878 141.077 20.9878 141.077C21.9483 140.364 22.8586 139.704 23.7494 139.068L24.7642 138.342L26.1005 137.411C28.4749 135.766 30.6207 134.354 32.5031 133.194C31.9841 129.583 31.3063 125.249 30.5161 121.071C30.2527 119.674 29.9738 118.293 29.6872 116.963L29.664 116.866C29.5349 116.273 29.4058 115.691 29.2766 115.12C29.2573 115.042 29.2418 114.965 29.2224 114.887C29.083 114.293 28.9397 113.723 28.7964 113.161L28.7499 112.986C28.6221 112.501 28.4942 112.032 28.3625 111.582L28.2696 111.26C28.1263 110.767 27.9791 110.29 27.8319 109.844L27.7854 109.712C27.6537 109.324 27.522 108.936 27.3981 108.598L27.2819 108.3C27.1347 107.912 26.9836 107.57 26.8287 107.248C26.296 106.118 25.843 104.951 25.473 103.757C25.473 103.699 25.4421 103.644 25.4227 103.59C23.1607 96.2732 23.486 87.8043 25.473 87.8974C27.096 87.9711 29.6524 93.4955 31.0739 96.8939C34.5599 88.0797 43.5189 66.8356 49.7781 65.4118C52.718 64.7407 54.3254 67.5999 53.9304 72.1699C55.2473 73.4501 56.8392 76.2046 58.0709 78.5749C66.3792 71.522 79.5524 61.3034 84.762 62.6147C86.5399 63.0608 87.2371 64.473 87.0124 66.3623C90.909 64.729 94.2555 63.9066 96.1999 64.6592C103.307 67.4098 90.8276 84.0644 66.0306 84.367ZM53.6127 87.0827C53.5082 86.8072 53.3997 86.5318 53.3029 86.2525C52.9775 86.2757 52.6754 86.3262 52.3462 86.3417L50.8898 84.9567C51.1687 86.4038 51.3314 87.4241 51.3314 87.4241C52.2687 87.3892 53.0434 87.3775 53.7251 87.3853C53.7251 87.3387 53.6902 87.2883 53.6709 87.2417L53.6127 87.0827ZM51.7497 80.0802C51.3623 80.9531 50.9208 81.8453 50.4289 82.7493C50.6032 83.5252 50.7542 84.2584 50.8782 84.9102C50.9402 84.852 51.5057 84.3282 52.4624 83.4631C52.168 82.3303 51.9201 81.1897 51.7497 80.0957V80.0802ZM44.5376 127.336C44.5647 126.948 44.6034 126.448 44.6499 125.819C42.8836 125.618 41.253 125.431 40.0368 125.319L38.4371 125.16L37.8444 125.102C39.0064 124.826 40.0948 124.582 41.16 124.345L42.4034 124.074L43.9527 123.756L44.8087 123.577C44.8552 122.883 44.9055 122.118 44.9559 121.315C45.1883 117.525 45.4168 112.8 45.4788 108.234C45.4788 107.52 45.4788 106.814 45.4788 106.108C45.4788 105.402 45.4788 104.734 45.4788 104.063C45.4788 104.024 45.4788 103.982 45.4788 103.943C45.4788 103.334 45.4788 102.736 45.44 102.147C45.44 102.077 45.44 102.007 45.44 101.933C45.44 101.32 45.3974 100.723 45.3665 100.141V99.9742C45.3393 99.4738 45.3084 98.9888 45.2696 98.5194C45.2696 98.403 45.2696 98.2866 45.2425 98.1741C45.1999 97.662 45.1534 97.1693 45.0953 96.7038C45.0953 96.6573 45.0953 96.6146 45.0953 96.568C45.045 96.1568 44.9869 95.7689 44.9249 95.4042C44.9055 95.2956 44.89 95.1908 44.8707 95.09C44.8009 94.702 44.7235 94.314 44.6383 93.9688C44.4325 93.1293 44.2696 92.2799 44.1502 91.4238C41.5536 94.1903 38.6609 96.6622 35.5243 98.7949C36.574 98.6668 37.2518 98.7561 37.6353 99.1246C38.4952 99.9548 37.9723 102.209 37.248 106.682C37.248 106.818 37.2054 106.946 37.186 107.07C37.1201 107.477 37.0504 107.923 36.9846 108.369C36.9187 108.816 36.8374 109.39 36.7638 109.921C36.7173 110.259 36.6708 110.592 36.6244 110.949C36.5043 111.904 36.3842 112.889 36.2757 113.995C35.7246 119.677 35.652 125.397 36.0588 131.092C40.5442 128.62 43.2284 127.685 44.5376 127.352V127.336ZM63.6485 121.63C63.42 120.466 63.0985 118.813 62.7151 116.947C61.9404 113.227 60.9372 108.614 59.8101 104.191C59.4576 102.818 59.0935 101.476 58.7255 100.157L58.6945 100.056C58.528 99.466 58.3576 98.8918 58.1871 98.3293C58.1871 98.2595 58.1445 98.1897 58.1252 98.1198C57.947 97.534 57.7688 96.956 57.5868 96.4128C57.5868 96.3547 57.5519 96.3003 57.5326 96.246C57.3737 95.7689 57.2149 95.3111 57.06 94.8649L56.9438 94.5468C56.7695 94.0658 56.5952 93.6002 56.417 93.1618C56.417 93.123 56.386 93.0842 56.3667 93.0454C56.2737 92.8088 56.1769 92.5993 56.0801 92.3782C55.7469 93.2666 55.3441 94.3179 54.8832 95.5206C54.8367 95.6408 54.7941 95.7572 54.7476 95.8852C54.6004 96.2732 54.4416 96.7038 54.2867 97.1306L53.7677 98.5931C53.6515 98.9229 53.5353 99.2488 53.4191 99.594C53.1092 100.502 52.7916 101.46 52.4701 102.504C51.4439 105.835 50.5919 109.217 49.9176 112.637C49.6116 114.189 49.356 115.686 49.1429 117.083C49.0345 117.777 48.9415 118.452 48.8563 119.1C48.6704 120.497 48.5348 121.761 48.4302 122.898C56.5913 121.494 61.2393 121.451 63.6485 121.645V121.63Z" fill="url(#paint0_linear_600_3501)"/>
<path d="M113.82 148.992C113.82 148.992 114.087 146.214 115.625 146.746C117.162 147.277 113.917 144.135 113.917 144.135C113.917 144.135 112.398 147.712 113.82 148.992Z" fill="#B25900"/>
<path d="M31.0042 55.7444C31.0042 55.7444 28.3316 20.8289 68.1029 4.64367C107.874 -11.5416 139.318 26.5512 131.118 64.8806C122.918 103.21 91.0407 98.8339 81.706 97.1424C72.3713 95.451 31.0042 55.7444 31.0042 55.7444Z" fill="#260B06"/>
<path style="mix-blend-mode:screen" opacity="0.47" d="M130.827 64.6398C135.379 43.3646 127.709 22.1748 113.188 10.2881C113.398 10.645 119.606 21.5192 116.024 42.4219C112.379 63.6776 86.6832 59.9029 86.6832 59.9029L83.143 97.1965C94.1742 98.9422 123.073 100.882 130.827 64.6398Z" fill="#3D1812"/>
<path d="M136.397 84.1422C136.397 84.1422 105.845 65.8427 98.5666 69.4273C91.2886 73.012 107.475 90.3184 135.239 85.8376L136.397 84.1422Z" fill="#260B06"/>
<path style="mix-blend-mode:screen" opacity="0.47" d="M136.397 84.1422C136.397 84.1422 105.845 65.8427 98.5666 69.4273C91.2886 73.012 107.475 90.3184 135.239 85.8376L136.397 84.1422Z" fill="url(#paint1_linear_600_3501)"/>
<path style="mix-blend-mode:screen" opacity="0.5" d="M130.413 83.2577C130.413 83.2577 107.007 70.2498 103.122 70.7929C99.2366 71.336 130.413 83.2577 130.413 83.2577Z" fill="url(#paint2_linear_600_3501)"/>
<path d="M136.173 84.1111C136.173 84.1111 140.182 72.5192 142.525 72.3524C144.868 72.1855 145.194 83.8589 141.646 91.7265C138.098 99.5941 135.696 126.285 135.696 126.285L132.098 125.304C132.098 125.304 134.244 113.63 132.396 98.7562C130.549 83.8822 127.276 82.1791 136.173 84.1111Z" fill="url(#paint3_linear_600_3501)"/>
<path style="mix-blend-mode:multiply" opacity="0.43" d="M135.785 125.362C135.785 125.362 136.994 112.831 138.411 104.642C138.411 104.642 133.698 119.178 134.042 124.408C134.387 129.637 135.785 125.362 135.785 125.362Z" fill="url(#paint4_linear_600_3501)"/>
<path d="M133.806 123.887C133.806 123.887 139.411 121.215 162 124.528C162 124.528 148.591 126.987 144.183 128.539C144.183 128.539 139.329 126.308 138.876 127.181C138.423 128.054 140.127 129.486 140.127 129.486L136.641 131.142C136.641 131.142 128.562 125.788 133.806 123.887Z" fill="#FF7E00"/>
<path d="M132.408 98.7564C134.255 113.63 132.11 125.304 132.11 125.304C130.874 127.243 136.618 131.142 136.618 131.142L137.811 130.576C133.163 128.539 133.55 124.369 133.55 124.369C133.55 124.369 137.59 92.5569 133.585 89.4534C129.58 86.3498 130.665 83.894 130.665 83.894C129.468 85.1277 131.223 89.2361 132.408 98.7564Z" fill="#B25900"/>
<path style="mix-blend-mode:multiply" opacity="0.43" d="M143.784 84.3633C143.644 84.7047 141.549 89.7946 137.222 89.2631C137.222 89.2631 139.461 97.5846 138.288 105.619C139.213 99.9705 140.356 94.5974 141.646 91.7266C142.665 89.372 143.383 86.898 143.784 84.3633Z" fill="url(#paint5_linear_600_3501)"/>
<path style="mix-blend-mode:multiply" opacity="0.43" d="M144.171 128.539C148.591 126.988 161.988 124.528 161.988 124.528C158.526 124.02 155.508 123.667 152.805 123.411C153.192 123.612 153.556 123.822 153.905 124.055C158.448 127.088 139.628 126.794 139.628 126.794L140.337 127.135C141.648 127.506 142.93 127.975 144.171 128.539Z" fill="url(#paint6_linear_600_3501)"/>
<path d="M120.153 101.406C120.153 101.406 102.157 70.6414 94.058 70.2768C85.9589 69.9121 91.8386 92.8903 118.324 102.333L120.153 101.406Z" fill="#260B06"/>
<path style="mix-blend-mode:screen" opacity="0.47" d="M120.153 101.406C120.153 101.406 102.157 70.6414 94.058 70.2768C85.9589 69.9121 91.8386 92.8903 118.324 102.333L120.153 101.406Z" fill="url(#paint7_linear_600_3501)"/>
<path style="mix-blend-mode:screen" opacity="0.5" d="M115.334 97.7475C115.334 97.7475 101.061 75.068 97.3929 73.6675C93.7249 72.267 115.334 97.7475 115.334 97.7475Z" fill="url(#paint8_linear_600_3501)"/>
<path d="M119.107 100.859C119.107 100.859 124.409 89.7946 126.753 89.8838C129.096 89.9731 128.101 101.619 123.685 109.033C119.269 116.447 113.851 142.691 113.851 142.691L110.4 141.307C110.4 141.307 113.858 129.951 113.707 114.965C113.556 99.9783 110.493 97.926 119.107 100.859Z" fill="url(#paint9_linear_600_3501)"/>
<path style="mix-blend-mode:multiply" opacity="0.43" d="M114.044 141.795C114.044 141.795 116.667 129.486 119.006 121.509C119.006 121.509 112.673 135.417 112.421 140.651C112.17 145.884 114.044 141.795 114.044 141.795Z" fill="url(#paint10_linear_600_3501)"/>
<path d="M113.289 140.565C113.289 140.565 119.142 142.629 132.822 160.941C132.822 160.941 121.59 153.209 117.36 151.184C117.36 151.184 115.489 146.175 114.556 146.474C113.622 146.773 113.82 148.992 113.82 148.992L110.175 147.688C110.175 147.688 108.234 138.207 113.289 140.565Z" fill="#FF7E00"/>
<path d="M113.707 114.98C113.858 129.967 110.4 141.322 110.4 141.322L110.539 140.833C109.079 142.614 110.175 147.696 110.175 147.696L111.868 148.297C111.91 141.652 111.957 140.538 111.957 140.538C111.957 140.538 119.575 109.409 115.946 105.875C112.317 102.341 113.676 100.017 113.676 100.017C112.344 101.107 113.611 105.402 113.707 114.98Z" fill="#B25900"/>
<path style="mix-blend-mode:multiply" opacity="0.43" d="M126.64 101.976C126.466 102.302 123.809 107.101 119.568 106.096C119.568 106.096 120.846 114.631 118.77 122.471C120.319 116.962 122.074 111.752 123.685 109.048C124.964 106.825 125.957 104.449 126.64 101.976Z" fill="url(#paint11_linear_600_3501)"/>
<path style="mix-blend-mode:multiply" opacity="0.43" d="M117.36 151.18C121.582 153.205 132.822 160.937 132.822 160.937C130.727 158.132 128.837 155.746 127.101 153.655C127.225 154.066 127.341 154.477 127.423 154.889C128.507 160.25 115.377 146.742 115.377 146.742L115.64 147.487C116.304 148.673 116.879 149.908 117.36 151.18Z" fill="url(#paint12_linear_600_3501)"/>
<path d="M102.533 122.142C102.533 122.142 100.372 86.5516 93.3105 82.5712C86.2494 78.5909 81.125 101.736 100.484 122.142H102.533Z" fill="#260B06"/>
<path style="mix-blend-mode:screen" opacity="0.47" d="M102.533 122.142C102.533 122.142 100.372 86.5516 93.3105 82.5712C86.2494 78.5909 81.125 101.736 100.484 122.142H102.533Z" fill="url(#paint13_linear_600_3501)"/>
<path style="mix-blend-mode:screen" opacity="0.5" d="M99.8874 116.695C99.8874 116.695 97.393 90.004 94.7552 87.0944C92.1175 84.1848 99.8874 116.695 99.8874 116.695Z" fill="url(#paint14_linear_600_3501)"/>
<path d="M100.484 120.28C100.484 120.28 107.886 110.507 110.167 111.078C112.449 111.648 109.145 122.848 103.335 129.226C97.5246 135.604 86.9776 160.231 86.9776 160.231L83.8789 158.179C83.8789 158.179 89.534 147.75 92.3809 133.036C95.2278 118.321 92.6249 115.683 100.484 120.28Z" fill="url(#paint15_linear_600_3501)"/>
<path style="mix-blend-mode:multiply" opacity="0.43" d="M87.3417 159.377C87.3417 159.377 92.377 147.843 96.2503 140.496C96.2503 140.496 87.2642 152.852 85.9744 157.93C84.6846 163.008 87.3417 159.377 87.3417 159.377Z" fill="url(#paint16_linear_600_3501)"/>
<path d="M86.9737 158.873C86.9737 158.873 91.1879 163.435 94.7552 186.029C94.7552 186.029 88.4146 173.937 85.6258 170.174C85.6258 170.174 86.3036 164.867 85.3353 164.696C84.367 164.525 83.5148 166.577 83.5148 166.577L80.8965 163.726C80.8965 163.726 83.6 154.423 86.9737 158.873Z" fill="#FF7E00"/>
<path d="M92.3692 133.036C89.5223 147.75 83.8673 158.179 83.8673 158.179C82.0894 159.641 80.8964 163.718 80.8964 163.718L81.5239 164.405C82.8951 157.903 85.5444 157.732 85.5444 157.732C85.5444 157.732 99.2328 128.756 96.3897 124.567C93.5467 120.377 95.3323 118.359 95.3323 118.359C93.7985 119.166 94.1897 123.635 92.3692 133.036Z" fill="#B25900"/>
<path style="mix-blend-mode:multiply" opacity="0.43" d="M107.642 122.887C107.405 123.17 103.842 127.34 99.8951 125.505C99.8951 125.505 99.4458 134.114 95.8436 141.388C98.4736 136.306 101.22 131.55 103.338 129.226C105.033 127.302 106.479 125.172 107.642 122.887Z" fill="url(#paint17_linear_600_3501)"/>
<path style="mix-blend-mode:multiply" opacity="0.43" d="M85.618 170.166C88.4068 173.929 94.7475 186.022 94.7475 186.022C94.2013 182.561 93.6397 179.57 93.0781 176.905C92.9967 177.328 92.9076 177.747 92.7876 178.15C91.2382 183.395 85.9318 165.313 85.9318 165.313L85.8156 166.089C85.8524 167.451 85.7863 168.814 85.618 170.166Z" fill="url(#paint18_linear_600_3501)"/>
<path d="M27.4833 52.2759C27.4833 52.2759 53.3339 37.9024 75.1988 52.2759C97.0637 66.6494 94.027 101.522 84.1888 100.676C74.3505 99.8307 27.4833 52.2759 27.4833 52.2759Z" fill="url(#paint19_linear_600_3501)"/>
<path d="M37.7321 48.9084C37.7321 48.9084 52.536 45.8281 68.5948 56.6674C84.6536 67.5067 91.6062 86.6404 85.6374 100.506C84.4313 100.806 83.1612 100.718 82.0081 100.253C79.9707 99.4892 37.7321 48.9084 37.7321 48.9084Z" fill="#B25900"/>
<path d="M15.6387 52.2761C15.6387 52.2761 20.2866 43.3106 29.234 42.686C38.1814 42.0614 42.5157 52.5593 42.5157 52.5593L15.6387 52.2761Z" fill="#FF8801"/>
<path d="M24.1794 97.7359C24.1794 97.7359 24.9773 119.519 22.0142 128.527C19.0511 137.536 24.7255 129.102 24.7255 129.102C24.7255 129.102 32.05 111.419 30.9228 102.977C29.7957 94.5353 24.1794 97.7359 24.1794 97.7359Z" fill="#260B06"/>
<path d="M21.9018 95.3344C21.9018 95.3344 36.1363 121.913 60.0541 120.202C83.9719 118.491 90.1188 93.224 82.6046 74.8313C75.0903 56.4386 45.7615 41.8556 23.61 55.752C1.45841 69.6483 21.9018 95.3344 21.9018 95.3344Z" fill="#260B06"/>
<path d="M14.3837 57.2381C14.3837 57.2381 10.8396 55.6398 14.8911 51.6478C18.9426 47.6558 32.6232 44.2418 40.6449 49.4248C48.6665 54.6078 45.3626 55.182 45.3626 55.182L14.3837 57.2381Z" fill="url(#paint20_linear_600_3501)"/>
<path d="M14.3837 57.2377L45.3703 55.1816C45.3703 55.1816 48.0507 54.7044 42.6048 50.7629C43.116 54.4173 39.7308 49.5137 39.7308 49.5137C36.543 52.8578 36.419 48.6136 36.419 48.6136C34.0718 52.1944 31.7052 48.1675 31.7052 48.1675C29.7686 52.6172 27.034 48.1675 27.034 48.1675C26.1819 53.9285 22.7075 48.9667 22.7075 48.9667C22.936 55.0109 19.3454 50.5611 19.3454 50.5611C19.4616 56.0312 16.2971 51.1896 16.2971 51.1896C16.2971 51.1896 16.3862 55.2398 14.8989 55.0342C14.1242 54.9255 13.64 54.2583 13.3495 53.6569C12.0558 56.1864 14.3837 57.2377 14.3837 57.2377Z" fill="#B25900"/>
<path style="mix-blend-mode:screen" opacity="0.47" d="M82.6046 74.8314C78.5298 64.8611 68.0448 56.0275 55.7702 52.2256C62.0605 56.1594 71.4146 64.4227 73.8354 70.273C80.4898 86.3768 75.6946 111.008 54.523 112.486C37.7863 113.669 21.3789 94.0388 17.3391 87.9984C18.6335 90.5771 20.1594 93.0326 21.898 95.3345C21.898 95.3345 36.1324 121.913 60.0502 120.202C83.968 118.491 90.1188 93.2241 82.6046 74.8314Z" fill="url(#paint21_linear_600_3501)"/>
<path d="M80.7144 125.187C80.7144 125.187 80.5556 119.756 72.9406 110.833C65.3257 101.91 61.065 100.448 58.6907 104.118C56.3163 107.788 76.508 117.956 78.1386 125.66C79.7693 133.365 80.7144 125.187 80.7144 125.187Z" fill="#260B06"/>
<path d="M84.1152 24.6114C79.1648 21.9656 73.7035 20.4188 68.1029 20.0763C74.5016 11.5414 80.0831 5.9394 76.4731 5.56309C71.7864 5.07428 64.8105 14.0514 60.5925 20.2159C51.2965 21.2246 44.3633 24.9528 43.3446 26.78C41.4505 30.1668 49.6155 27.0632 57.0677 25.7403C49.4141 39.3535 51.5599 50.7359 58.7178 35.2218C60.3539 31.7573 62.2603 28.4274 64.4193 25.2632C78.5763 25.9809 101.181 33.7825 84.1152 24.6114Z" fill="url(#paint22_linear_600_3501)"/>
<path d="M25.4149 90.4311L23.5518 92.5416C23.5518 92.5416 37.8599 110.131 46.6795 112.486C55.499 114.841 38.4138 106.17 45.2502 87.6922C52.0866 69.2142 25.4149 90.4311 25.4149 90.4311Z" fill="url(#paint23_linear_600_3501)"/>
<g style="mix-blend-mode:multiply" opacity="0.67">
<path d="M25.415 93.1196C25.415 93.1196 30.2721 100.184 43.0115 99.1561C55.7508 98.128 31.0042 71.0957 31.0042 71.0957L25.415 93.1196Z" fill="#7C645B"/>
</g>
<path d="M21.2201 91.2843C21.2201 91.2843 18.1447 97.1035 21.2201 99.8425C24.2955 102.581 27.0301 101.037 27.0301 101.037C27.0301 101.037 35.9388 112.331 46.6834 115.069C57.428 117.808 42.996 109.937 47.6556 87.8626C52.3152 65.7882 41.3808 87.8626 41.3808 87.8626C41.3808 87.8626 40.0135 102.065 44.797 110.62C44.797 110.62 30.6401 103.947 25.4304 90.4463C20.2208 76.9457 21.2201 91.2843 21.2201 91.2843Z" fill="url(#paint24_linear_600_3501)"/>
<path d="M8.57759 72.426C10.6266 67.1809 8.57759 60.5625 8.57759 60.5625C8.57759 60.5625 8.74802 57.7693 14.3876 57.2572C14.3876 57.2572 20.0272 50.7552 31.3024 50.5845C38.124 50.5297 44.7574 52.8238 50.0919 57.0826C50.0919 57.0826 57.7804 56.5705 56.2427 64.6127C54.705 72.6549 57.2692 80.0104 57.2692 80.0104C57.2692 80.0104 53.5082 93.7011 43.6002 91.8196C43.6002 91.8196 33.6922 95.5827 24.2956 92.8438C24.2956 92.8438 14.0467 95.0706 9.26318 90.1087C4.47962 85.1468 7.55505 79.1569 7.55505 79.1569L8.57759 72.426Z" fill="url(#paint25_linear_600_3501)"/>
<path style="mix-blend-mode:multiply" opacity="0.39" d="M24.0322 67.8253C24.0322 67.8253 29.0365 54.7591 38.6036 66.5101C48.1707 78.2611 29.2612 82.1561 24.7914 76.1429C20.3216 70.1297 24.0322 67.8253 24.0322 67.8253Z" fill="url(#paint26_linear_600_3501)"/>
<g style="mix-blend-mode:multiply" opacity="0.39">
<path d="M14.3837 57.2381C8.74804 57.7502 8.57374 60.5434 8.57374 60.5434C8.57374 60.5434 10.6227 67.1618 8.57374 72.4069L7.5473 79.1378C7.5473 79.1378 4.47187 85.1277 9.25542 90.0896C14.039 95.0515 24.2878 92.8246 24.2878 92.8246C33.6845 95.5635 43.5925 91.8004 43.5925 91.8004C53.5004 93.682 57.2614 79.9913 57.2614 79.9913C57.2614 79.9913 54.6973 72.6202 56.235 64.5936C57.7727 56.5669 50.0842 57.0635 50.0842 57.0635C46.4454 54.1535 42.1743 52.1415 37.6159 51.1899C38.7469 51.6602 39.7746 52.3483 40.641 53.215C44.3633 57.1527 38.9793 56.6367 36.7677 59.1196C36.7677 59.1196 43.6118 56.0393 47.1946 57.9208C50.7775 59.8024 41.0671 56.757 36.7677 63.5655C32.4683 70.374 37.1821 84.2122 45.4788 85.6786C53.7754 87.1451 50.3437 90.4426 47.6556 90.8694C44.9675 91.2961 42.0586 88.7201 42.0586 88.7201C42.0586 88.7201 42.3801 92.6539 36.4113 92.91C30.4425 93.166 25.291 91.8004 23.9237 89.0887C23.9237 89.0887 22.0994 93.7441 15.4683 91.6841C8.83712 89.6241 8.63571 85.9812 10.4562 85.667C12.2766 85.3527 21.1814 88.3826 24.9308 80.4491C28.6802 72.5155 17.9162 67.6739 17.9162 67.6739L12.9893 59.7559C12.9893 59.7559 15.0112 57.8161 18.5708 58.6347C18.5708 58.6347 13.9964 57.4708 19.8606 53.2887C16.2158 55.1354 14.3837 57.2381 14.3837 57.2381Z" fill="#7C645B"/>
</g>
<path d="M46.6795 59.1196C39.2195 59.1196 33.0919 64.2755 32.4063 70.8628C31.4341 70.2576 30.2605 70.0093 29.1605 70.7852C28.4361 64.2328 22.3241 59.1196 14.8911 59.1196C6.97019 59.1196 0.559837 64.9389 0.559837 72.0926C0.559837 79.2464 6.98181 85.0695 14.8911 85.0695C22.7191 85.0695 29.0714 79.3938 29.2224 72.3409C30.2462 72.038 31.3367 72.0461 32.3559 72.3642C32.5148 79.4055 38.8631 85.0695 46.6873 85.0695C54.6082 85.0695 61.0186 79.2503 61.0186 72.0926C61.0186 64.935 54.6004 59.1196 46.6795 59.1196Z" fill="url(#paint27_linear_600_3501)"/>
<path d="M13.7872 83.0716C6.47551 83.0716 0.548203 77.7098 0.548203 71.0956C0.548203 64.4815 6.47551 59.1196 13.7872 59.1196C21.0989 59.1196 27.0262 64.4815 27.0262 71.0956C27.0262 77.7098 21.0989 83.0716 13.7872 83.0716Z" fill="#B25900"/>
<path d="M47.7834 83.0716C40.4717 83.0716 34.5444 77.7098 34.5444 71.0956C34.5444 64.4815 40.4717 59.1196 47.7834 59.1196C55.0951 59.1196 61.0224 64.4815 61.0224 71.0956C61.0224 77.7098 55.0951 83.0716 47.7834 83.0716Z" fill="#B25900"/>
<path d="M24.9308 70.2732C24.9308 76.0924 19.725 80.7944 13.3108 80.7944C6.89659 80.7944 1.69084 76.0847 1.69084 70.2732C1.69084 64.4617 6.89659 59.7559 13.3108 59.7559C19.725 59.7559 24.9308 64.4656 24.9308 70.2732Z" fill="url(#paint28_linear_600_3501)"/>
<path d="M58.8185 70.6608C58.8185 76.4801 53.6127 81.1781 47.1985 81.1781C40.7843 81.1781 35.5785 76.4684 35.5785 70.6608C35.5785 64.8532 40.7843 60.1396 47.1985 60.1396C53.6127 60.1396 58.8185 64.8494 58.8185 70.6608Z" fill="url(#paint29_linear_600_3501)"/>
<path d="M27.0262 81.1046C27.0262 81.1046 29.9429 84.732 33.0067 80.1348C33.0067 80.1348 32.9215 91.2844 30.0165 91.1991C27.1115 91.1137 27.0262 81.1046 27.0262 81.1046Z" fill="#260B06"/>
<path d="M30.0165 83.7582C32.3792 83.7582 33.0067 80.1348 33.0067 80.1348C30.6827 83.6263 28.4206 82.3616 27.4833 81.5586C27.5405 82.1818 27.836 82.7587 28.3082 83.1687C28.7803 83.5787 29.3924 83.7899 30.0165 83.7582Z" fill="#FEE9FF"/>
<path d="M79.0721 68.5116C79.0721 68.5116 78.6848 69.5242 77.7629 68.5116C76.8411 67.4991 75.714 66.4206 76.4538 65.796C77.1936 65.1714 80.3813 62.4868 83.2863 62.2036C86.1913 61.9204 86.474 62.4868 86.873 63.5148C87.272 64.5429 86.7336 65.0938 86.7336 65.0938C86.7336 65.0938 86.2494 64.0269 84.6536 64.2558C83.0578 64.4847 78.0999 67.0801 79.0721 68.5116Z" fill="#260B06"/>
<path d="M85.3972 86.0431C85.3972 86.0431 84.731 85.3216 84.58 86.4311C84.4289 87.5406 84.1733 88.8247 84.8937 89.1196C85.6141 89.4144 88.7167 90.6713 90.6456 90.0235C92.5745 89.3756 92.5164 88.7976 92.3382 87.8122C92.3153 87.5567 92.2369 87.3094 92.1084 87.0876C91.9799 86.8658 91.8046 86.6748 91.5946 86.5281C91.6292 86.8305 91.5516 87.1351 91.3766 87.384C91.2017 87.6329 90.9415 87.8087 90.6456 87.8781C89.5572 88.1962 85.3856 87.5561 85.3972 86.0431Z" fill="#260B06"/>
<path d="M85.0525 163.521C83.3715 163.179 83.5032 166.57 83.5032 166.57C83.5032 166.57 84.3592 164.518 85.3237 164.688C86.2881 164.859 85.6142 170.166 85.6142 170.166C85.6142 170.166 86.7335 163.862 85.0525 163.521Z" fill="#B25900"/>
<path d="M40.6875 70.6611C38.1466 68.3916 43.0114 60.6016 45.6414 61.1718C48.2714 61.7421 45.0178 74.5173 40.6875 70.6611Z" fill="white"/>
<path d="M44.9481 72.5077C44.2587 71.0723 45.7228 67.9028 47.6362 67.7321C49.5496 67.5614 45.901 74.4591 44.9481 72.5077Z" fill="white"/>
<path d="M6.57895 69.8967C4.14261 65.8698 8.34907 61.1135 10.5685 61.4006C12.7879 61.6877 8.51175 73.0934 6.57895 69.8967Z" fill="white"/>
<path d="M9.3755 72.5075C8.2716 71.0527 10.3981 68.015 11.7653 68.628C13.1326 69.2409 11.0023 74.6529 9.3755 72.5075Z" fill="white"/>
<path opacity="0.38" d="M27.4833 81.5585C27.8108 82.0118 28.2607 82.3621 28.7801 82.5682C29.2994 82.7744 29.8667 82.8279 30.4154 82.7223C31.3489 82.5982 31.6084 82.7844 31.62 83.0249C32.6697 81.9697 33.0067 80.127 33.0067 80.127C30.6672 83.6418 28.4206 82.3615 27.4833 81.5585Z" fill="#9A6F38"/>
<path d="M89.6695 126.161C87.1325 122.937 80.1063 126.083 80.1063 126.083C80.1063 126.083 75.6946 121.408 74.153 124.283C73.1924 126.072 74.6681 127.627 75.927 128.551C75.4367 129.318 75.0646 130.155 74.8231 131.033C72.2163 140.077 59.0819 153.325 59.0819 153.325L59.8294 154.283C59.8294 154.283 79.5834 137.512 83.844 132.349C87.7406 132.733 91.8541 128.942 89.6695 126.161Z" fill="url(#paint30_linear_600_3501)"/>
<path d="M61.7893 150.482C61.7893 150.482 56.4325 153.558 53.6282 149.194C50.8239 144.829 51.1454 141.869 51.5986 137.854C52.0518 133.839 46.5633 134.657 45.3161 139.278C44.0688 143.898 45.5446 148.325 50.7658 150.982C50.7658 150.982 44.5685 151.614 44.1502 154.086C43.7319 156.557 47.5432 158.846 47.5432 158.846C47.5432 158.846 45.6956 160.161 46.8886 161.976C48.0816 163.792 51.8387 162.481 51.8387 162.481C51.8387 162.481 52.1796 163.749 54.5501 163.617C56.9205 163.486 64.1869 150.889 61.7893 150.482Z" fill="#FF7E00"/>
<path d="M45.6376 138.944C46.3658 136.36 48.8563 135.301 49.17 136.81C49.4838 138.32 46.7376 141.613 48.5542 145.307C50.3708 149 42.9805 148.406 45.6376 138.944Z" fill="#FFB000"/>
<path style="mix-blend-mode:multiply" opacity="0.43" d="M52.0634 156.933C49.9238 157.676 47.6084 157.745 45.4284 157.131C46.062 157.79 46.772 158.371 47.5433 158.861C50.6497 158.551 52.0634 156.933 52.0634 156.933Z" fill="url(#paint31_linear_600_3501)"/>
<path style="mix-blend-mode:multiply" opacity="0.43" d="M50.7581 150.982C50.7581 150.982 56.6107 151.393 52.8032 150.78C50.3592 150.392 47.9577 148.677 46.5439 147.494C47.6445 148.983 49.0911 150.18 50.7581 150.982Z" fill="url(#paint32_linear_600_3501)"/>
<path style="mix-blend-mode:multiply" opacity="0.43" d="M55.4952 158.881C51.3275 162.136 48.744 162.791 47.3264 162.419C48.8021 163.54 51.8388 162.496 51.8388 162.496C54.8871 161.15 55.4952 158.881 55.4952 158.881Z" fill="url(#paint33_linear_600_3501)"/>
<path style="mix-blend-mode:multiply" opacity="0.43" d="M58.5048 157.255C56.1808 160.917 53.8142 162.562 52.3539 163.144C52.7413 163.431 53.3997 163.699 54.5346 163.633C56.4248 163.528 61.5337 155.323 62.1922 151.925C62.0411 151.956 61.2858 152.879 58.5048 157.255Z" fill="url(#paint34_linear_600_3501)"/>
<path d="M89.9329 126.576C90.1769 127.472 89.8012 128.535 87.7329 129.548C82.8292 131.949 79.8313 130.227 79.8313 130.227C79.8313 130.227 72.9019 142.304 62.196 151.909C62.196 151.909 62.1689 152.072 62.1147 152.336C67.4173 147.778 80.4549 136.43 83.8363 132.357C87.5547 132.717 91.428 129.303 89.9329 126.576Z" fill="#B25900"/>
<path style="mix-blend-mode:multiply" opacity="0.43" d="M77.701 129.478L75.927 128.551C75.4367 129.318 75.0646 130.155 74.8231 131.034C73.8974 134.238 71.6508 137.962 69.137 141.442C69.1254 141.481 77.701 129.478 77.701 129.478Z" fill="url(#paint35_linear_600_3501)"/>
<path style="mix-blend-mode:multiply" opacity="0.43" d="M52.3733 152.837C52.3733 152.837 54.4184 153.612 53.2642 156.371C53.2642 156.371 55.4526 157.329 55.3906 158.31C55.3906 158.31 57.3273 158.019 57.2576 158.563C57.2576 158.551 64.4929 149.748 52.3733 152.837Z" fill="url(#paint36_linear_600_3501)"/>
<path d="M31.4612 125.913C28.2502 123.364 22.1381 128.058 22.1381 128.058C22.1381 128.058 16.7658 124.528 15.9408 127.67C15.4218 129.61 17.219 130.801 18.6521 131.41C18.3512 132.27 18.1815 133.171 18.1486 134.083C17.7032 143.483 7.98502 159.416 7.98502 159.416L8.94172 160.192C8.94172 160.192 24.2646 139.305 27.2277 133.291C31.101 132.756 34.2307 128.112 31.4612 125.913Z" fill="url(#paint37_linear_600_3501)"/>
<path d="M31.8137 126.258C32.2591 127.073 32.1352 128.198 30.3573 129.656C26.1431 133.148 22.8315 132.151 22.8315 132.151C22.8315 132.151 18.8768 145.508 10.6847 157.333C10.6847 157.333 10.6847 157.495 10.7041 157.763C14.8059 152.103 24.8727 138.055 27.2199 133.295C30.9112 132.783 33.9092 128.562 31.8137 126.258Z" fill="#B25900"/>
<path style="mix-blend-mode:multiply" opacity="0.43" d="M20.5849 131.914L18.6482 131.425C18.3473 132.286 18.1776 133.187 18.1447 134.098C17.9898 137.427 16.6612 141.57 15.0189 145.543C15.0112 145.57 20.5849 131.914 20.5849 131.914Z" fill="url(#paint38_linear_600_3501)"/>
<path d="M18.1989 167.257C18.1989 167.257 21.2744 169.879 20.4765 172.277C20.4765 172.277 23.4977 175.923 20.9916 178.55C18.4856 181.176 12.2224 172.905 12.2224 172.905L8.57759 162.24L10.5685 158.939L18.1989 167.257Z" fill="#B25900"/>
<g style="mix-blend-mode:multiply" opacity="0.49">
<path d="M13.702 171.299C13.702 171.299 10.6847 166.508 13.9577 168.195C13.9577 168.195 13.3302 166.446 16.2507 167.59L11.3664 159.715L8.89525 161.693L12.571 170.837L13.702 171.299Z" fill="#B25900"/>
</g>
<path d="M9.17414 157.616C9.17414 157.616 6.86951 160.184 6.86951 162.465C6.86951 164.746 9.82872 168.285 9.88682 172.73C9.94491 177.176 11.4362 180.66 16.2662 180.877C21.0962 181.095 16.8356 173.01 13.5897 169.701C10.3439 166.391 9.32906 161.375 11.196 161.488C13.0629 161.6 13.063 166.279 17.9395 168.618C22.816 170.957 24.3498 166.05 22.6998 164.909C21.0497 163.769 17.3004 165.421 15.1042 162.058C12.908 158.694 11.3083 156.08 9.17414 157.616Z" fill="#FF7E00"/>
<path style="mix-blend-mode:multiply" opacity="0.43" d="M13.1869 163.765C14.039 165.317 15.2281 167.326 17.9356 168.626C21.5068 170.337 23.2769 168.164 23.3234 166.43C19.9032 169.627 15.7975 166.264 13.1869 163.765Z" fill="url(#paint39_linear_600_3501)"/>
<path style="mix-blend-mode:multiply" opacity="0.43" d="M16.2662 180.885C21.1039 181.114 16.8355 173.018 13.5897 169.708C10.766 166.834 9.62726 162.671 10.6111 161.705C9.8093 162.248 10.2044 165.534 11.2076 167.028C11.51 167.442 11.704 167.925 11.7717 168.433C11.8393 168.941 11.7786 169.459 11.5949 169.937C11.5949 169.937 17.9743 178.263 16.208 179.062C14.4418 179.861 11.3122 178.325 11.2231 178.286C12.203 179.795 13.7872 180.769 16.2662 180.885Z" fill="url(#paint40_linear_600_3501)"/>
<g style="mix-blend-mode:multiply" opacity="0.49">
<path d="M20.4764 172.277C20.4764 172.277 17.25 169.084 14.314 168.195C14.314 168.195 18.0711 168.269 20.4764 172.277Z" fill="#B25900"/>
</g>
<path d="M8.70929 54.1306C8.70929 54.1306 14.2288 44.4319 17.1919 48.455C17.1919 48.455 14.9454 37.0493 8.70929 54.1306Z" fill="#260B06"/>
<path d="M39.5061 56.276C39.5061 56.276 34.8775 48.3735 32.2398 53.4168C32.2398 53.4168 33.2778 42.0733 39.5061 56.276Z" fill="#260B06"/>
<path style="mix-blend-mode:screen" opacity="0.58" d="M58.8185 49.0445C62.3045 49.6691 66.6426 51.4032 71.4417 55.0344C77.7591 59.814 71.7244 46.0612 52.1409 46.4995C39.9786 46.7944 54.6082 48.2919 58.8185 49.0445Z" fill="url(#paint41_linear_600_3501)"/>
<path d="M58.1407 53.1488C58.1407 53.1488 58.0903 54.2351 56.9012 53.5755C55.7121 52.916 54.2829 52.2604 54.7825 51.4263C55.2822 50.5922 57.428 47.0192 60.0851 45.8088C62.7422 44.5984 63.1838 45.0329 63.9003 45.8864C64.6169 46.7399 64.2877 47.4382 64.2877 47.4382C64.2877 47.4382 63.482 46.5847 62.0489 47.3179C60.6158 48.0512 56.754 52.1091 58.1407 53.1488Z" fill="#260B06"/>
<defs>
<linearGradient id="paint0_linear_600_3501" x1="57.7149" y1="169.932" x2="66.2402" y2="63.5352" gradientUnits="userSpaceOnUse">
<stop stop-color="white"/>
<stop offset="0.01" stop-color="#F7F7F7"/>
<stop offset="0.11" stop-color="#BEBEBE"/>
<stop offset="0.22" stop-color="#8B8B8B"/>
<stop offset="0.32" stop-color="#606060"/>
<stop offset="0.43" stop-color="#3D3D3D"/>
<stop offset="0.53" stop-color="#222222"/>
<stop offset="0.64" stop-color="#0F0F0F"/>
<stop offset="0.75" stop-color="#040404"/>
<stop offset="0.86"/>
</linearGradient>
<linearGradient id="paint1_linear_600_3501" x1="110.445" y1="78.0541" x2="121.933" y2="63.891" gradientUnits="userSpaceOnUse">
<stop offset="0.54"/>
<stop offset="0.58" stop-color="#090700"/>
<stop offset="0.65" stop-color="#211800"/>
<stop offset="0.73" stop-color="#493600"/>
<stop offset="0.83" stop-color="#805E00"/>
<stop offset="0.93" stop-color="#C59100"/>
<stop offset="1" stop-color="#F4B400"/>
</linearGradient>
<linearGradient id="paint2_linear_600_3501" x1="114.473" y1="72.4215" x2="119.642" y2="66.048" gradientUnits="userSpaceOnUse">
<stop stop-color="#F4B400"/>
<stop offset="0.14" stop-color="#C59100"/>
<stop offset="0.37" stop-color="#805E00"/>
<stop offset="0.57" stop-color="#493600"/>
<stop offset="0.74" stop-color="#211800"/>
<stop offset="0.88" stop-color="#090700"/>
<stop offset="0.97"/>
</linearGradient>
<linearGradient id="paint3_linear_600_3501" x1="144.603" y1="122.949" x2="129.339" y2="76.2461" gradientUnits="userSpaceOnUse">
<stop offset="0.2" stop-color="#FF7E00"/>
<stop offset="0.29" stop-color="#FF8800"/>
<stop offset="0.54" stop-color="#FF9E00"/>
<stop offset="0.78" stop-color="#FFAB00"/>
<stop offset="1" stop-color="#FFB000"/>
</linearGradient>
<linearGradient id="paint4_linear_600_3501" x1="138.612" y1="125.332" x2="132.361" y2="106.206" gradientUnits="userSpaceOnUse">
<stop stop-color="#B25900"/>
<stop offset="0.15" stop-color="#C98A4B"/>
<stop offset="0.51" stop-color="white"/>
</linearGradient>
<linearGradient id="paint5_linear_600_3501" x1="142.912" y1="103.7" x2="137.169" y2="86.1288" gradientUnits="userSpaceOnUse">
<stop offset="0.49" stop-color="white"/>
<stop offset="0.85" stop-color="#C98A4B"/>
<stop offset="1" stop-color="#B25900"/>
</linearGradient>
<linearGradient id="paint6_linear_600_3501" x1="137.736" y1="135.645" x2="156.179" y2="126.072" gradientUnits="userSpaceOnUse">
<stop stop-color="white"/>
<stop offset="0.71" stop-color="#C98A4B"/>
<stop offset="1" stop-color="#B25900"/>
</linearGradient>
<linearGradient id="paint7_linear_600_3501" x1="100021" y1="3772.94" x2="101300" y2="3251.09" gradientUnits="userSpaceOnUse">
<stop offset="0.54"/>
<stop offset="0.58" stop-color="#090700"/>
<stop offset="0.65" stop-color="#211800"/>
<stop offset="0.73" stop-color="#493600"/>
<stop offset="0.83" stop-color="#805E00"/>
<stop offset="0.93" stop-color="#C59100"/>
<stop offset="1" stop-color="#F4B400"/>
</linearGradient>
<linearGradient id="paint8_linear_600_3501" x1="65130.9" y1="7915.71" x2="65487.8" y2="7764.39" gradientUnits="userSpaceOnUse">
<stop stop-color="#F4B400"/>
<stop offset="0.14" stop-color="#C59100"/>
<stop offset="0.37" stop-color="#805E00"/>
<stop offset="0.57" stop-color="#493600"/>
<stop offset="0.74" stop-color="#211800"/>
<stop offset="0.88" stop-color="#090700"/>
<stop offset="0.97"/>
</linearGradient>
<linearGradient id="paint9_linear_600_3501" x1="67406.7" y1="43174" x2="66066" y2="36614.7" gradientUnits="userSpaceOnUse">
<stop offset="0.2" stop-color="#FF7E00"/>
<stop offset="0.29" stop-color="#FF8800"/>
<stop offset="0.54" stop-color="#FF9E00"/>
<stop offset="0.78" stop-color="#FFAB00"/>
<stop offset="1" stop-color="#FFB000"/>
</linearGradient>
<linearGradient id="paint10_linear_600_3501" x1="25063.4" y1="18398.4" x2="24836.7" y2="17289.2" gradientUnits="userSpaceOnUse">
<stop stop-color="#B25900"/>
<stop offset="0.15" stop-color="#C98A4B"/>
<stop offset="0.51" stop-color="white"/>
</linearGradient>
<linearGradient id="paint11_linear_600_3501" x1="28873.9" y1="15144.2" x2="28678.2" y2="14186.4" gradientUnits="userSpaceOnUse">
<stop offset="0.49" stop-color="white"/>
<stop offset="0.85" stop-color="#C98A4B"/>
<stop offset="1" stop-color="#B25900"/>
</linearGradient>
<linearGradient id="paint12_linear_600_3501" x1="56019.5" y1="-2570.15" x2="56790.1" y2="-2246.67" gradientUnits="userSpaceOnUse">
<stop stop-color="white"/>
<stop offset="0.71" stop-color="#C98A4B"/>
<stop offset="1" stop-color="#B25900"/>
</linearGradient>
<linearGradient id="paint13_linear_600_3501" x1="51008.8" y1="17942.9" x2="51741.7" y2="17967.8" gradientUnits="userSpaceOnUse">
<stop offset="0.54"/>
<stop offset="0.58" stop-color="#090700"/>
<stop offset="0.65" stop-color="#211800"/>
<stop offset="0.73" stop-color="#493600"/>
<stop offset="0.83" stop-color="#805E00"/>
<stop offset="0.93" stop-color="#C59100"/>
<stop offset="1" stop-color="#F4B400"/>
</linearGradient>
<linearGradient id="paint14_linear_600_3501" x1="18121.5" y1="13394.2" x2="18242" y2="13396.2" gradientUnits="userSpaceOnUse">
<stop stop-color="#F4B400"/>
<stop offset="0.14" stop-color="#C59100"/>
<stop offset="0.37" stop-color="#805E00"/>
<stop offset="0.57" stop-color="#493600"/>
<stop offset="0.74" stop-color="#211800"/>
<stop offset="0.88" stop-color="#090700"/>
<stop offset="0.97"/>
</linearGradient>
<linearGradient id="paint15_linear_600_3501" x1="90048.1" y1="29535.2" x2="90048.1" y2="23301.5" gradientUnits="userSpaceOnUse">
<stop offset="0.2" stop-color="#FF7E00"/>
<stop offset="0.29" stop-color="#FF8800"/>
<stop offset="0.54" stop-color="#FF9E00"/>
<stop offset="0.78" stop-color="#FFAB00"/>
<stop offset="1" stop-color="#FFB000"/>
</linearGradient>
<linearGradient id="paint16_linear_600_3501" x1="34688.7" y1="12211.2" x2="34688.7" y2="11165.8" gradientUnits="userSpaceOnUse">
<stop stop-color="#B25900"/>
<stop offset="0.15" stop-color="#C98A4B"/>
<stop offset="0.51" stop-color="white"/>
</linearGradient>
<linearGradient id="paint17_linear_600_3501" x1="38924.2" y1="10294.2" x2="38924.2" y2="9411.86" gradientUnits="userSpaceOnUse">
<stop offset="0.49" stop-color="white"/>
<stop offset="0.85" stop-color="#C98A4B"/>
<stop offset="1" stop-color="#B25900"/>
</linearGradient>
<linearGradient id="paint18_linear_600_3501" x1="29475.5" y1="12985.9" x2="30057.4" y2="13242.4" gradientUnits="userSpaceOnUse">
<stop stop-color="white"/>
<stop offset="0.71" stop-color="#C98A4B"/>
<stop offset="1" stop-color="#B25900"/>
</linearGradient>
<linearGradient id="paint19_linear_600_3501" x1="27.4872" y1="73.2872" x2="91.6914" y2="73.2872" gradientUnits="userSpaceOnUse">
<stop offset="0.2" stop-color="#FFB000"/>
<stop offset="0.42" stop-color="#FFAB00"/>
<stop offset="0.66" stop-color="#FF9E00"/>
<stop offset="0.91" stop-color="#FF8800"/>
<stop offset="1" stop-color="#FF7E00"/>
</linearGradient>
<linearGradient id="paint20_linear_600_3501" x1="-104196" y1="3382.1" x2="-107022" y2="3382.1" gradientUnits="userSpaceOnUse">
<stop offset="0.2" stop-color="#FFB000"/>
<stop offset="0.42" stop-color="#FFAB00"/>
<stop offset="0.66" stop-color="#FF9E00"/>
<stop offset="0.91" stop-color="#FF8800"/>
<stop offset="1" stop-color="#FF7E00"/>
</linearGradient>
<linearGradient id="paint21_linear_600_3501" x1="28.3509" y1="70.3583" x2="83.1493" y2="104.548" gradientUnits="userSpaceOnUse">
<stop offset="0.54"/>
<stop offset="0.58" stop-color="#090700"/>
<stop offset="0.64" stop-color="#211800"/>
<stop offset="0.73" stop-color="#493600"/>
<stop offset="0.82" stop-color="#805E00"/>
<stop offset="0.93" stop-color="#C59100"/>
<stop offset="1" stop-color="#F4B400"/>
</linearGradient>
<linearGradient id="paint22_linear_600_3501" x1="-152158" y1="9197.63" x2="-157902" y2="9197.63" gradientUnits="userSpaceOnUse">
<stop stop-color="#FFB000"/>
<stop offset="0.22" stop-color="#FFAB00"/>
<stop offset="0.46" stop-color="#FF9E00"/>
<stop offset="0.71" stop-color="#FF8800"/>
<stop offset="0.8" stop-color="#FF7E00"/>
</linearGradient>
<linearGradient id="paint23_linear_600_3501" x1="23.5557" y1="96.4986" x2="49.2707" y2="96.4986" gradientUnits="userSpaceOnUse">
<stop stop-color="#6B6B6B"/>
<stop offset="0.45" stop-color="#7E6D56"/>
<stop offset="1" stop-color="#9A6F38"/>
</linearGradient>
<linearGradient id="paint24_linear_600_3501" x1="-97869.6" y1="16404" x2="-100336" y2="16404" gradientUnits="userSpaceOnUse">
<stop stop-color="#FFB000"/>
<stop offset="0.22" stop-color="#FFAB00"/>
<stop offset="0.46" stop-color="#FF9E00"/>
<stop offset="0.71" stop-color="#FF8800"/>
<stop offset="0.8" stop-color="#FF7E00"/>
</linearGradient>
<linearGradient id="paint25_linear_600_3501" x1="13.1055" y1="55.3407" x2="49.4951" y2="91.6763" gradientUnits="userSpaceOnUse">
<stop stop-color="#6B6B6B"/>
<stop offset="0.51" stop-color="#6D6B69"/>
<stop offset="0.7" stop-color="#736C62"/>
<stop offset="0.83" stop-color="#7E6D57"/>
<stop offset="0.94" stop-color="#8D6E46"/>
<stop offset="1" stop-color="#9A6F38"/>
</linearGradient>
<linearGradient id="paint26_linear_600_3501" x1="31.9221" y1="78.94" x2="31.9221" y2="61.6103" gradientUnits="userSpaceOnUse">
<stop stop-color="white"/>
<stop offset="0.89" stop-color="#7C645B"/>
</linearGradient>
<linearGradient id="paint27_linear_600_3501" x1="13.1753" y1="54.4565" x2="48.4553" y2="89.6766" gradientUnits="userSpaceOnUse">
<stop offset="0.73" stop-color="#331B0B"/>
<stop offset="0.84" stop-color="#351C0B"/>
<stop offset="0.89" stop-color="#3C1F0A"/>
<stop offset="0.92" stop-color="#472509"/>
<stop offset="0.94" stop-color="#582D08"/>
<stop offset="0.96" stop-color="#6E3806"/>
<stop offset="0.98" stop-color="#8A4504"/>
<stop offset="1" stop-color="#B25900"/>
</linearGradient>
<linearGradient id="paint28_linear_600_3501" x1="-72514.8" y1="7769.33" x2="-73910.2" y2="7769.33" gradientUnits="userSpaceOnUse">
<stop stop-color="#FFB000"/>
<stop offset="0.22" stop-color="#FFAB00"/>
<stop offset="0.46" stop-color="#FF9E00"/>
<stop offset="0.71" stop-color="#FF8800"/>
<stop offset="0.8" stop-color="#FF7E00"/>
</linearGradient>
<linearGradient id="paint29_linear_600_3501" x1="-74514.2" y1="7790.73" x2="-75909.6" y2="7790.73" gradientUnits="userSpaceOnUse">
<stop stop-color="#FFB000"/>
<stop offset="0.22" stop-color="#FFAB00"/>
<stop offset="0.46" stop-color="#FF9E00"/>
<stop offset="0.71" stop-color="#FF8800"/>
<stop offset="0.8" stop-color="#FF7E00"/>
</linearGradient>
<linearGradient id="paint30_linear_600_3501" x1="52.9773" y1="134.465" x2="87.5119" y2="128.132" gradientUnits="userSpaceOnUse">
<stop offset="0.18" stop-color="#FF7E00"/>
<stop offset="0.27" stop-color="#FF8800"/>
<stop offset="0.53" stop-color="#FF9E00"/>
<stop offset="0.78" stop-color="#FFAB00"/>
<stop offset="1" stop-color="#FFB000"/>
</linearGradient>
<linearGradient id="paint31_linear_600_3501" x1="41.8775" y1="151.866" x2="48.3121" y2="150.686" gradientUnits="userSpaceOnUse">
<stop stop-color="#B25900"/>
<stop offset="0.29" stop-color="#C98A4B"/>
<stop offset="1" stop-color="white"/>
</linearGradient>
<linearGradient id="paint32_linear_600_3501" x1="-23657.1" y1="3727.25" x2="-23789.6" y2="3727.25" gradientUnits="userSpaceOnUse">
<stop stop-color="#B25900"/>
<stop offset="0.29" stop-color="#C98A4B"/>
<stop offset="1" stop-color="white"/>
</linearGradient>
<linearGradient id="paint33_linear_600_3501" x1="-25572.1" y1="4292.11" x2="-25754.8" y2="4292.11" gradientUnits="userSpaceOnUse">
<stop stop-color="#B25900"/>
<stop offset="0.29" stop-color="#C98A4B"/>
<stop offset="1" stop-color="white"/>
</linearGradient>
<linearGradient id="paint34_linear_600_3501" x1="-30925.2" y1="12027" x2="-31221.4" y2="12027" gradientUnits="userSpaceOnUse">
<stop stop-color="#B25900"/>
<stop offset="0.29" stop-color="#C98A4B"/>
<stop offset="1" stop-color="white"/>
</linearGradient>
<linearGradient id="paint35_linear_600_3501" x1="82.3425" y1="108.866" x2="54.5185" y2="149.146" gradientUnits="userSpaceOnUse">
<stop stop-color="#B25900"/>
<stop offset="0.19" stop-color="#C98A4B"/>
<stop offset="0.66" stop-color="white"/>
</linearGradient>
<linearGradient id="paint36_linear_600_3501" x1="55.7664" y1="148.455" x2="49.1647" y2="149.665" gradientUnits="userSpaceOnUse">
<stop offset="0.21" stop-color="white"/>
<stop offset="0.32" stop-color="#FEFDFB"/>
<stop offset="0.42" stop-color="#FAF5F0"/>
<stop offset="0.51" stop-color="#F5E9DD"/>
<stop offset="0.61" stop-color="#ECD7C2"/>
<stop offset="0.71" stop-color="#E2C09F"/>
<stop offset="0.8" stop-color="#D5A474"/>
<stop offset="0.9" stop-color="#C68441"/>
<stop offset="0.99" stop-color="#B55E08"/>
<stop offset="1" stop-color="#B25900"/>
</linearGradient>
<linearGradient id="paint37_linear_600_3501" x1="82736.9" y1="19428.7" x2="84791" y2="18537" gradientUnits="userSpaceOnUse">
<stop offset="0.18" stop-color="#FF7E00"/>
<stop offset="0.27" stop-color="#FF8800"/>
<stop offset="0.53" stop-color="#FF9E00"/>
<stop offset="0.78" stop-color="#FFAB00"/>
<stop offset="1" stop-color="#FFB000"/>
</linearGradient>
<linearGradient id="paint38_linear_600_3501" x1="21877.6" y1="11882.7" x2="21219.1" y2="12541.3" gradientUnits="userSpaceOnUse">
<stop stop-color="#B25900"/>
<stop offset="0.19" stop-color="#C98A4B"/>
<stop offset="0.66" stop-color="white"/>
</linearGradient>
<linearGradient id="paint39_linear_600_3501" x1="31075.4" y1="3533.69" x2="31340.7" y2="3533.69" gradientUnits="userSpaceOnUse">
<stop stop-color="white"/>
<stop offset="0.71" stop-color="#C98A4B"/>
<stop offset="1" stop-color="#B25900"/>
</linearGradient>
<linearGradient id="paint40_linear_600_3501" x1="25110.7" y1="12188" x2="25286.9" y2="12188" gradientUnits="userSpaceOnUse">
<stop stop-color="white"/>
<stop offset="0.71" stop-color="#C98A4B"/>
<stop offset="1" stop-color="#B25900"/>
</linearGradient>
<linearGradient id="paint41_linear_600_3501" x1="47.4116" y1="51.2752" x2="73.847" y2="51.2752" gradientUnits="userSpaceOnUse">
<stop stop-color="#FFB000"/>
<stop offset="0.6" stop-color="#674700"/>
<stop offset="1"/>
</linearGradient>
</defs>
</svg>
