<svg width="21" height="29" viewBox="0 0 21 29" fill="none" xmlns="http://www.w3.org/2000/svg">
<path d="M6.85352 14.8457L10.0176 3.78125H13.5625L8.68945 18H6.375L6.85352 14.8457ZM3.97266 3.78125L7.12695 14.8457L7.625 18H5.28125L0.4375 3.78125H3.97266Z" fill="white"/>
<path fill-rule="evenodd" clip-rule="evenodd" d="M11.0765 20.6242L11.0402 20.3942L13.3344 13.7002C13.778 13.624 14.248 13.5859 14.7441 13.5859C15.7858 13.5859 16.7005 13.7715 17.4883 14.1426C18.2826 14.5072 18.901 15.0215 19.3438 15.6855C19.7865 16.3431 20.0078 17.1081 20.0078 17.9805H16.8438C16.8438 17.5964 16.7624 17.2578 16.5996 16.9648C16.4434 16.6654 16.2025 16.431 15.877 16.2617C15.5579 16.0924 15.1576 16.0078 14.6758 16.0078C14.207 16.0078 13.8132 16.0794 13.4941 16.2227C13.1816 16.3594 12.944 16.5482 12.7812 16.7891C12.625 17.0299 12.5469 17.2936 12.5469 17.5801C12.5469 17.8079 12.6055 18.0163 12.7227 18.2051C12.8464 18.3874 13.0221 18.5599 13.25 18.7227C13.4844 18.8789 13.7708 19.0286 14.1094 19.1719C14.4479 19.3151 14.8353 19.4518 15.2715 19.582C16.0332 19.8229 16.707 20.0898 17.293 20.3828C17.8854 20.6758 18.3835 21.0078 18.7871 21.3789C19.1908 21.75 19.4935 22.1699 19.6953 22.6387C19.9036 23.1074 20.0078 23.638 20.0078 24.2305C20.0078 24.862 19.8841 25.4219 19.6367 25.9102C19.3958 26.3984 19.0443 26.8151 18.582 27.1602C18.1263 27.4987 17.5794 27.7559 16.9414 27.9316C16.3034 28.1074 15.5905 28.1953 14.8027 28.1953C14.0866 28.1953 13.3802 28.1042 12.6836 27.9219C11.987 27.7331 11.3555 27.4466 10.7891 27.0625C10.2292 26.6784 9.77995 26.1901 9.44141 25.5977C9.10938 24.9987 8.94336 24.2891 8.94336 23.4688H12.127C12.127 23.8984 12.1888 24.263 12.3125 24.5625C12.4362 24.8555 12.612 25.0931 12.8398 25.2754C13.0742 25.4577 13.3574 25.5879 13.6895 25.666C14.0215 25.7441 14.3926 25.7832 14.8027 25.7832C15.278 25.7832 15.6621 25.7181 15.9551 25.5879C16.2546 25.4512 16.4759 25.2656 16.6191 25.0312C16.7624 24.7969 16.834 24.5365 16.834 24.25C16.834 24.0091 16.7982 23.7943 16.7266 23.6055C16.6549 23.4102 16.5247 23.2311 16.3359 23.0684C16.1471 22.9056 15.8802 22.7428 15.5352 22.5801C15.1901 22.4108 14.7376 22.2383 14.1777 22.0625C13.5397 21.8542 12.931 21.6198 12.3516 21.3594C11.8856 21.1423 11.4606 20.8972 11.0765 20.6242Z" fill="white"/>
</svg>
