<svg width="343" height="302" viewBox="0 0 343 302" fill="none" xmlns="http://www.w3.org/2000/svg">
<path d="M409.382 226.828C392.169 194.544 294.53 8.24871 294.53 8.24871C293.279 5.83427 291.445 3.82174 289.219 2.42032C286.994 1.01891 284.457 0.279785 281.873 0.279785C279.289 0.279785 276.752 1.01891 274.527 2.42032C272.301 3.82174 270.467 5.83427 269.216 8.24871L182.426 172.608L139.031 91.0464C137.78 88.632 135.946 86.6194 133.72 85.218C131.495 83.8166 128.958 83.0775 126.374 83.0775C123.79 83.0775 121.253 83.8166 119.028 85.218C116.802 86.6194 114.968 88.632 113.717 91.0464C113.717 91.0464 34.7381 243.975 20.5624 270.544C6.68631 294.169 -0.450736 321.597 0.0220719 349.48C0.0220719 428.416 56.1464 498.547 125.434 499.937H281.801C365.698 499.937 433.973 416.831 433.973 321.366C434.549 287.972 426.004 255.121 409.382 226.828ZM267.336 469.043C216.997 471.423 224.23 440.529 209.765 440.529C195.3 440.529 209.765 471.423 166.948 469.043C124.132 466.662 104.128 460.82 91.9016 447.62C79.6756 434.42 72.6738 416.702 72.3472 398.139C72.232 385.158 75.9635 367.556 79.5797 353.189C83.1959 338.822 122.975 183.268 137.44 275.952C141.105 299.437 158.373 366.256 162.371 376.36C166.37 386.463 169.82 380.272 170.465 376.36C171.111 372.447 189.514 281.512 189.514 281.512C190.17 280.428 191.069 279.537 192.13 278.92C193.192 278.302 194.381 277.979 195.589 277.979C196.798 277.979 197.987 278.302 199.048 278.92C200.109 279.537 201.009 280.428 201.664 281.512L235.558 368.636C235.558 368.636 238.246 380.583 242.791 368.636C247.336 356.689 274.134 207.519 274.134 207.519C274.765 206.331 275.68 205.342 276.785 204.654C277.891 203.966 279.147 203.604 280.427 203.604C281.706 203.604 282.962 203.966 284.068 204.654C285.173 205.342 286.088 206.331 286.719 207.519C286.719 207.519 338.793 306.073 347.906 323.065C356.927 337.804 361.705 355.043 361.648 372.651C361.648 469.043 317.674 466.662 267.336 469.043Z" fill="white" fill-opacity="0.03"/>
</svg>
