<svg width="98" height="98" viewBox="0 0 98 98" fill="none" xmlns="http://www.w3.org/2000/svg">
<path d="M42 4.04145C46.3316 1.54059 51.6684 1.54059 56 4.04145L84.4352 20.4585C88.7669 22.9594 91.4352 27.5812 91.4352 32.5829V65.4171C91.4352 70.4188 88.7669 75.0406 84.4352 77.5415L56 93.9585C51.6684 96.4594 46.3316 96.4594 42 93.9585L13.5648 77.5415C9.23314 75.0406 6.56475 70.4188 6.56475 65.4171V32.5829C6.56475 27.5812 9.23314 22.9594 13.5648 20.4585L42 4.04145Z" fill="#CDB359"/>
<mask id="mask0_41_478" style="mask-type:alpha" maskUnits="userSpaceOnUse" x="6" y="2" width="86" height="94">
<path d="M42 4.04145C46.3316 1.54059 51.6684 1.54059 56 4.04145L84.4352 20.4585C88.7669 22.9594 91.4352 27.5812 91.4352 32.5829V65.4171C91.4352 70.4188 88.7669 75.0406 84.4352 77.5415L56 93.9585C51.6684 96.4594 46.3316 96.4594 42 93.9585L13.5648 77.5415C9.23314 75.0406 6.56475 70.4188 6.56475 65.4171V32.5829C6.56475 27.5812 9.23314 22.9594 13.5648 20.4585L42 4.04145Z" fill="#C4C4C4"/>
</mask>
<g mask="url(#mask0_41_478)">
<rect x="-0.566528" y="73.054" width="105.692" height="35.9078" transform="rotate(-30.5 -0.566528 73.054)" fill="white" fill-opacity="0.5"/>
<rect x="-5.66479" y="46.0557" width="92.9756" height="16.8766" transform="rotate(-30.5 -5.66479 46.0557)" fill="white" fill-opacity="0.5"/>
</g>
<path d="M42.625 5.12398C46.5699 2.84642 51.4301 2.84642 55.375 5.12398L83.8102 21.5411C87.7551 23.8186 90.1852 28.0278 90.1852 32.5829V65.4171C90.1852 69.9722 87.7551 74.1814 83.8102 76.4589L55.375 92.876C51.4301 95.1536 46.5699 95.1536 42.625 92.876L14.1898 76.4589C10.2449 74.1814 7.81475 69.9722 7.81475 65.4171V32.5829C7.81475 28.0278 10.2449 23.8186 14.1898 21.5411L42.625 5.12398Z" stroke="#C4C4C4" stroke-width="2.5"/>
<path d="M47.2832 9.65183C48.5209 8.9373 50.0456 8.9373 51.2833 9.65183L82.1145 27.4523C83.3521 28.1668 84.1145 29.4873 84.1145 30.9164V66.5172C84.1145 67.9463 83.3521 69.2668 82.1145 69.9813L51.2833 87.7817C50.0457 88.4963 48.5209 88.4963 47.2833 87.7817L16.452 69.9813C15.2144 69.2668 14.452 67.9463 14.452 66.5172V30.9164C14.452 29.4873 15.2144 28.1668 16.452 27.4523L47.2832 9.65183Z" fill="#EFEFEF"/>
<path d="M40.7244 64L51.3504 40.774H37.9104V35.104H59.0364V40.27L48.7464 64H40.7244Z" fill="black"/>
<path d="M47.9082 10.7344C48.7591 10.2431 49.8074 10.2431 50.6583 10.7344L81.4895 28.5348C82.3403 29.026 82.8645 29.9339 82.8645 30.9164V66.5172C82.8645 67.4997 82.3403 68.4075 81.4895 68.8988L50.6583 86.6992C49.8074 87.1904 48.7591 87.1904 47.9083 86.6992L17.077 68.8988C16.2262 68.4075 15.702 67.4997 15.702 66.5172V30.9164C15.702 29.9339 16.2262 29.026 17.077 28.5348L47.9082 10.7344Z" stroke="#8C7E4A" stroke-width="2.5"/>
</svg>
