<svg width="98" height="98" viewBox="0 0 98 98" fill="none" xmlns="http://www.w3.org/2000/svg">
<path d="M42 4.04145C46.3316 1.54059 51.6684 1.54059 56 4.04145L84.4352 20.4585C88.7669 22.9594 91.4352 27.5812 91.4352 32.5829V65.4171C91.4352 70.4188 88.7669 75.0406 84.4352 77.5415L56 93.9585C51.6684 96.4594 46.3316 96.4594 42 93.9585L13.5648 77.5415C9.23314 75.0406 6.56475 70.4188 6.56475 65.4171V32.5829C6.56475 27.5812 9.23314 22.9594 13.5648 20.4585L42 4.04145Z" fill="#0094FF"/>
<mask id="mask0_41_458" style="mask-type:alpha" maskUnits="userSpaceOnUse" x="6" y="2" width="86" height="94">
<path d="M42 4.04145C46.3316 1.54059 51.6684 1.54059 56 4.04145L84.4352 20.4585C88.7669 22.9594 91.4352 27.5812 91.4352 32.5829V65.4171C91.4352 70.4188 88.7669 75.0406 84.4352 77.5415L56 93.9585C51.6684 96.4594 46.3316 96.4594 42 93.9585L13.5648 77.5415C9.23314 75.0406 6.56475 70.4188 6.56475 65.4171V32.5829C6.56475 27.5812 9.23314 22.9594 13.5648 20.4585L42 4.04145Z" fill="#C4C4C4"/>
</mask>
<g mask="url(#mask0_41_458)">
<rect x="-0.566528" y="73.054" width="105.692" height="35.9078" transform="rotate(-30.5 -0.566528 73.054)" fill="white" fill-opacity="0.5"/>
<rect x="-5.66479" y="46.0558" width="92.9756" height="16.8766" transform="rotate(-30.5 -5.66479 46.0558)" fill="white" fill-opacity="0.5"/>
</g>
<path d="M42.625 5.12398C46.5699 2.84642 51.4301 2.84642 55.375 5.12398L83.8102 21.5411C87.7551 23.8186 90.1852 28.0278 90.1852 32.5829V65.4171C90.1852 69.9722 87.7551 74.1814 83.8102 76.4589L55.375 92.876C51.4301 95.1536 46.5699 95.1536 42.625 92.876L14.1898 76.4589C10.2449 74.1814 7.81475 69.9722 7.81475 65.4171V32.5829C7.81475 28.0278 10.2449 23.8186 14.1898 21.5411L42.625 5.12398Z" stroke="#C4C4C4" stroke-width="2.5"/>
<path d="M47.2832 9.65177C48.5209 8.93724 50.0456 8.93724 51.2833 9.65177L82.1145 27.4522C83.3521 28.1667 84.1145 29.4872 84.1145 30.9163V66.5171C84.1145 67.9462 83.3521 69.2667 82.1145 69.9813L51.2833 87.7817C50.0457 88.4962 48.5209 88.4962 47.2833 87.7817L16.452 69.9813C15.2144 69.2667 14.452 67.9462 14.452 66.5172V30.9163C14.452 29.4872 15.2144 28.1667 16.452 27.4522L47.2832 9.65177Z" fill="#EFEFEF"/>
<path d="M47.639 64.336C46.715 64.336 45.693 64.294 44.573 64.21C43.453 64.154 42.347 64.07 41.255 63.958C40.163 63.818 39.169 63.65 38.273 63.454V58.246C39.253 58.33 40.261 58.414 41.297 58.498C42.361 58.554 43.369 58.61 44.321 58.666C45.273 58.694 46.099 58.708 46.799 58.708C47.919 58.708 48.815 58.666 49.487 58.582C50.159 58.47 50.677 58.288 51.041 58.036C51.433 57.784 51.699 57.42 51.839 56.944C51.979 56.44 52.049 55.81 52.049 55.054C52.049 54.242 51.965 53.598 51.797 53.122C51.657 52.618 51.391 52.254 50.999 52.03C50.607 51.778 50.061 51.61 49.361 51.526C48.661 51.442 47.765 51.4 46.673 51.4C45.945 51.4 45.105 51.428 44.153 51.484C43.201 51.512 42.249 51.568 41.297 51.652C40.345 51.708 39.449 51.778 38.609 51.862V35.104H57.257V40.774H44.993V46.192C45.469 46.136 46.015 46.08 46.631 46.024C47.275 45.968 47.919 45.926 48.563 45.898C49.207 45.87 49.795 45.856 50.327 45.856C52.147 45.856 53.645 46.052 54.821 46.444C55.997 46.836 56.921 47.41 57.593 48.166C58.265 48.894 58.727 49.79 58.979 50.854C59.259 51.918 59.399 53.15 59.399 54.55C59.399 56.258 59.231 57.728 58.895 58.96C58.559 60.192 57.957 61.214 57.089 62.026C56.249 62.81 55.059 63.398 53.519 63.79C52.007 64.154 50.047 64.336 47.639 64.336Z" fill="black"/>
<path d="M47.9082 10.7343C48.7591 10.2431 49.8074 10.2431 50.6583 10.7343L81.4895 28.5347C82.3403 29.026 82.8645 29.9338 82.8645 30.9163V66.5171C82.8645 67.4996 82.3403 68.4075 81.4895 68.8987L50.6583 86.6991C49.8074 87.1904 48.7591 87.1904 47.9083 86.6991L17.077 68.8987C16.2262 68.4075 15.702 67.4996 15.702 66.5172V30.9163C15.702 29.9338 16.2262 29.026 17.077 28.5347L47.9082 10.7343Z" stroke="#2C5F85" stroke-width="2.5"/>
</svg>
