<svg width="98" height="98" viewBox="0 0 98 98" fill="none" xmlns="http://www.w3.org/2000/svg">
<path d="M42 4.04145C46.3316 1.54059 51.6684 1.54059 56 4.04145L84.4352 20.4585C88.7669 22.9594 91.4352 27.5812 91.4352 32.5829V65.4171C91.4352 70.4188 88.7669 75.0406 84.4352 77.5415L56 93.9585C51.6684 96.4594 46.3316 96.4594 42 93.9585L13.5648 77.5415C9.23314 75.0406 6.56475 70.4188 6.56475 65.4171V32.5829C6.56475 27.5812 9.23314 22.9594 13.5648 20.4585L42 4.04145Z" fill="#78705C"/>
<mask id="mask0_41_428" style="mask-type:alpha" maskUnits="userSpaceOnUse" x="6" y="2" width="86" height="94">
<path d="M42 4.04145C46.3316 1.54059 51.6684 1.54059 56 4.04145L84.4352 20.4585C88.7669 22.9594 91.4352 27.5812 91.4352 32.5829V65.4171C91.4352 70.4188 88.7669 75.0406 84.4352 77.5415L56 93.9585C51.6684 96.4594 46.3316 96.4594 42 93.9585L13.5648 77.5415C9.23314 75.0406 6.56475 70.4188 6.56475 65.4171V32.5829C6.56475 27.5812 9.23314 22.9594 13.5648 20.4585L42 4.04145Z" fill="#C4C4C4"/>
</mask>
<g mask="url(#mask0_41_428)">
<rect x="-0.566528" y="73.054" width="105.692" height="35.9078" transform="rotate(-30.5 -0.566528 73.054)" fill="white" fill-opacity="0.5"/>
<rect x="-5.66479" y="46.0558" width="92.9756" height="16.8766" transform="rotate(-30.5 -5.66479 46.0558)" fill="white" fill-opacity="0.5"/>
</g>
<path d="M42.625 5.12398C46.5699 2.84642 51.4301 2.84642 55.375 5.12398L83.8102 21.5411C87.7551 23.8186 90.1852 28.0278 90.1852 32.5829V65.4171C90.1852 69.9722 87.7551 74.1814 83.8102 76.4589L55.375 92.876C51.4301 95.1536 46.5699 95.1536 42.625 92.876L14.1898 76.4589C10.2449 74.1814 7.81475 69.9722 7.81475 65.4171V32.5829C7.81475 28.0278 10.2449 23.8186 14.1898 21.5411L42.625 5.12398Z" stroke="#C4C4C4" stroke-width="2.5"/>
<path d="M47.2832 9.65177C48.5209 8.93724 50.0456 8.93724 51.2833 9.65177L82.1145 27.4522C83.3521 28.1667 84.1145 29.4872 84.1145 30.9163V66.5171C84.1145 67.9462 83.3521 69.2667 82.1145 69.9813L51.2833 87.7817C50.0457 88.4962 48.5209 88.4962 47.2833 87.7817L16.452 69.9813C15.2144 69.2667 14.452 67.9462 14.452 66.5172V30.9163C14.452 29.4872 15.2144 28.1667 16.452 27.4522L47.2832 9.65177Z" fill="#EFEFEF"/>
<path d="M37.3676 64V60.01C37.3676 58.414 37.4096 57.042 37.4936 55.894C37.5776 54.746 37.7596 53.766 38.0396 52.954C38.3476 52.142 38.8236 51.456 39.4676 50.896C40.1116 50.308 40.9936 49.776 42.1136 49.3L48.4976 46.738C49.3096 46.402 49.9116 46.108 50.3036 45.856C50.6956 45.576 50.9476 45.24 51.0596 44.848C51.1716 44.456 51.2276 43.91 51.2276 43.21C51.2276 42.342 51.0876 41.712 50.8076 41.32C50.5276 40.9 50.0236 40.648 49.2956 40.564C48.5676 40.452 47.5456 40.396 46.2296 40.396C45.6136 40.396 44.8436 40.424 43.9196 40.48C43.0236 40.536 42.0576 40.606 41.0216 40.69C39.9856 40.774 38.9636 40.872 37.9556 40.984V35.692C38.8796 35.524 39.9296 35.37 41.1056 35.23C42.2816 35.09 43.4856 34.978 44.7176 34.894C45.9776 34.81 47.1396 34.768 48.2036 34.768C49.6036 34.768 50.9196 34.866 52.1516 35.062C53.4116 35.23 54.5176 35.58 55.4696 36.112C56.4216 36.644 57.1636 37.442 57.6956 38.506C58.2556 39.57 58.5356 40.998 58.5356 42.79C58.5356 44.582 58.3396 46.024 57.9476 47.116C57.5836 48.208 57.0376 49.076 56.3096 49.72C55.5816 50.364 54.6996 50.896 53.6636 51.316L46.4396 54.13C45.8796 54.354 45.4456 54.592 45.1376 54.844C44.8576 55.068 44.6616 55.376 44.5496 55.768C44.4376 56.132 44.3816 56.622 44.3816 57.238V58.33H58.5356V64H37.3676Z" fill="black"/>
<path d="M47.9082 10.7343C48.7591 10.2431 49.8074 10.2431 50.6583 10.7343L81.4895 28.5347C82.3403 29.026 82.8645 29.9338 82.8645 30.9163V66.5171C82.8645 67.4996 82.3403 68.4075 81.4895 68.8987L50.6583 86.6991C49.8074 87.1904 48.7591 87.1904 47.9083 86.6991L17.077 68.8987C16.2262 68.4075 15.702 67.4996 15.702 66.5172V30.9163C15.702 29.9338 16.2262 29.026 17.077 28.5347L47.9082 10.7343Z" stroke="#615A48" stroke-width="2.5"/>
</svg>
