<svg width="98" height="98" viewBox="0 0 98 98" fill="none" xmlns="http://www.w3.org/2000/svg">
<path d="M42 4.04145C46.3316 1.54059 51.6684 1.54059 56 4.04145L84.4352 20.4585C88.7669 22.9594 91.4352 27.5812 91.4352 32.5829V65.4171C91.4352 70.4188 88.7669 75.0406 84.4352 77.5415L56 93.9585C51.6684 96.4594 46.3316 96.4594 42 93.9585L13.5648 77.5415C9.23314 75.0406 6.56475 70.4188 6.56475 65.4171V32.5829C6.56475 27.5812 9.23314 22.9594 13.5648 20.4585L42 4.04145Z" fill="#B3B078"/>
<mask id="mask0_41_468" style="mask-type:alpha" maskUnits="userSpaceOnUse" x="6" y="2" width="86" height="94">
<path d="M42 4.04145C46.3316 1.54059 51.6684 1.54059 56 4.04145L84.4352 20.4585C88.7669 22.9594 91.4352 27.5812 91.4352 32.5829V65.4171C91.4352 70.4188 88.7669 75.0406 84.4352 77.5415L56 93.9585C51.6684 96.4594 46.3316 96.4594 42 93.9585L13.5648 77.5415C9.23314 75.0406 6.56475 70.4188 6.56475 65.4171V32.5829C6.56475 27.5812 9.23314 22.9594 13.5648 20.4585L42 4.04145Z" fill="#C4C4C4"/>
</mask>
<g mask="url(#mask0_41_468)">
<rect x="-0.566528" y="73.054" width="105.692" height="35.9078" transform="rotate(-30.5 -0.566528 73.054)" fill="white" fill-opacity="0.5"/>
<rect x="-5.66479" y="46.0557" width="92.9756" height="16.8766" transform="rotate(-30.5 -5.66479 46.0557)" fill="white" fill-opacity="0.5"/>
</g>
<path d="M42.625 5.12398C46.5699 2.84642 51.4301 2.84642 55.375 5.12398L83.8102 21.5411C87.7551 23.8186 90.1852 28.0278 90.1852 32.5829V65.4171C90.1852 69.9722 87.7551 74.1814 83.8102 76.4589L55.375 92.876C51.4301 95.1536 46.5699 95.1536 42.625 92.876L14.1898 76.4589C10.2449 74.1814 7.81475 69.9722 7.81475 65.4171V32.5829C7.81475 28.0278 10.2449 23.8186 14.1898 21.5411L42.625 5.12398Z" stroke="#C4C4C4" stroke-width="2.5"/>
<path d="M47.2832 9.65177C48.5209 8.93724 50.0456 8.93724 51.2833 9.65177L82.1145 27.4522C83.3521 28.1667 84.1145 29.4872 84.1145 30.9163V66.5171C84.1145 67.9462 83.3521 69.2667 82.1145 69.9813L51.2833 87.7817C50.0457 88.4962 48.5209 88.4962 47.2833 87.7817L16.452 69.9813C15.2144 69.2667 14.452 67.9462 14.452 66.5172V30.9163C14.452 29.4872 15.2144 28.1667 16.452 27.4522L47.2832 9.65177Z" fill="#EFEFEF"/>
<path d="M48.5027 64.336C46.5147 64.336 44.8207 64.238 43.4207 64.042C42.0207 63.846 40.8447 63.454 39.8927 62.866C38.9687 62.278 38.2127 61.382 37.6247 60.178C37.3447 59.534 37.1067 58.736 36.9107 57.784C36.7147 56.804 36.5747 55.642 36.4907 54.298C36.4067 52.926 36.3647 51.372 36.3647 49.636C36.3647 48.18 36.3927 46.864 36.4487 45.688C36.5327 44.484 36.6587 43.406 36.8267 42.454C37.0227 41.474 37.2747 40.62 37.5827 39.892C38.0867 38.576 38.8007 37.554 39.7247 36.826C40.6767 36.098 41.8947 35.58 43.3787 35.272C44.8627 34.936 46.6687 34.768 48.7967 34.768C49.6087 34.768 50.5327 34.81 51.5687 34.894C52.6327 34.978 53.7387 35.09 54.8867 35.23C56.0347 35.342 57.1127 35.496 58.1207 35.692V40.942C57.1127 40.83 56.0907 40.732 55.0547 40.648C54.0467 40.564 53.1227 40.508 52.2827 40.48C51.4427 40.424 50.7427 40.396 50.1827 40.396C48.7267 40.396 47.5647 40.494 46.6967 40.69C45.8287 40.858 45.1707 41.208 44.7227 41.74C44.3027 42.244 44.0227 42.986 43.8827 43.966C43.7427 44.946 43.6727 46.248 43.6727 47.872H43.9247C44.1487 47.62 44.4847 47.34 44.9327 47.032C45.3807 46.724 46.0387 46.458 46.9067 46.234C47.8027 45.982 48.9787 45.856 50.4347 45.856C51.9747 45.856 53.3327 45.968 54.5087 46.192C55.6847 46.416 56.6647 46.836 57.4487 47.452C58.2327 48.04 58.8207 48.894 59.2127 50.014C59.6047 51.134 59.8007 52.59 59.8007 54.382C59.8007 56.174 59.6467 57.714 59.3387 59.002C59.0307 60.262 58.4567 61.284 57.6167 62.068C56.8047 62.852 55.6707 63.426 54.2147 63.79C52.7587 64.154 50.8547 64.336 48.5027 64.336ZM48.1667 58.792C49.1187 58.792 49.8887 58.764 50.4767 58.708C51.0927 58.624 51.5687 58.47 51.9047 58.246C52.2407 57.994 52.4787 57.63 52.6187 57.154C52.7587 56.65 52.8287 55.992 52.8287 55.18C52.8287 54.312 52.7587 53.626 52.6187 53.122C52.4787 52.59 52.2407 52.212 51.9047 51.988C51.5967 51.736 51.1347 51.582 50.5187 51.526C49.9027 51.442 49.1187 51.4 48.1667 51.4C47.1587 51.4 46.3607 51.456 45.7727 51.568C45.1847 51.68 44.7367 51.876 44.4287 52.156C44.1487 52.408 43.9667 52.744 43.8827 53.164C43.7987 53.556 43.7567 54.046 43.7567 54.634C43.7567 55.642 43.8267 56.426 43.9667 56.986C44.1347 57.546 44.3867 57.966 44.7227 58.246C45.0587 58.498 45.5067 58.652 46.0667 58.708C46.6267 58.764 47.3267 58.792 48.1667 58.792Z" fill="black"/>
<path d="M47.9082 10.7343C48.7591 10.2431 49.8074 10.2431 50.6583 10.7343L81.4895 28.5347C82.3403 29.026 82.8645 29.9338 82.8645 30.9163V66.5171C82.8645 67.4996 82.3403 68.4075 81.4895 68.8987L50.6583 86.6991C49.8074 87.1904 48.7591 87.1904 47.9083 86.6991L17.077 68.8987C16.2262 68.4075 15.702 67.4996 15.702 66.5172V30.9163C15.702 29.9338 16.2262 29.026 17.077 28.5347L47.9082 10.7343Z" stroke="#8D8C5F" stroke-width="2.5"/>
</svg>
