<svg width="98" height="98" viewBox="0 0 98 98" fill="none" xmlns="http://www.w3.org/2000/svg">
<path d="M42 4.04145C46.3316 1.54059 51.6684 1.54059 56 4.04145L84.4352 20.4585C88.7669 22.9594 91.4352 27.5812 91.4352 32.5829V65.4171C91.4352 70.4188 88.7669 75.0406 84.4352 77.5415L56 93.9585C51.6684 96.4594 46.3316 96.4594 42 93.9585L13.5648 77.5415C9.23314 75.0406 6.56475 70.4188 6.56475 65.4171V32.5829C6.56475 27.5812 9.23314 22.9594 13.5648 20.4585L42 4.04145Z" fill="#D39316"/>
<mask id="mask0_41_488" style="mask-type:alpha" maskUnits="userSpaceOnUse" x="6" y="2" width="86" height="94">
<path d="M42 4.04145C46.3316 1.54059 51.6684 1.54059 56 4.04145L84.4352 20.4585C88.7669 22.9594 91.4352 27.5812 91.4352 32.5829V65.4171C91.4352 70.4188 88.7669 75.0406 84.4352 77.5415L56 93.9585C51.6684 96.4594 46.3316 96.4594 42 93.9585L13.5648 77.5415C9.23314 75.0406 6.56475 70.4188 6.56475 65.4171V32.5829C6.56475 27.5812 9.23314 22.9594 13.5648 20.4585L42 4.04145Z" fill="#C4C4C4"/>
</mask>
<g mask="url(#mask0_41_488)">
<rect x="-0.566528" y="73.054" width="105.692" height="35.9078" transform="rotate(-30.5 -0.566528 73.054)" fill="white" fill-opacity="0.5"/>
<rect x="-5.66479" y="46.0557" width="92.9756" height="16.8766" transform="rotate(-30.5 -5.66479 46.0557)" fill="white" fill-opacity="0.5"/>
</g>
<path d="M42.625 5.12398C46.5699 2.84642 51.4301 2.84642 55.375 5.12398L83.8102 21.5411C87.7551 23.8186 90.1852 28.0278 90.1852 32.5829V65.4171C90.1852 69.9722 87.7551 74.1814 83.8102 76.4589L55.375 92.876C51.4301 95.1536 46.5699 95.1536 42.625 92.876L14.1898 76.4589C10.2449 74.1814 7.81475 69.9722 7.81475 65.4171V32.5829C7.81475 28.0278 10.2449 23.8186 14.1898 21.5411L42.625 5.12398Z" stroke="#C4C4C4" stroke-width="2.5"/>
<path d="M47.2832 9.65183C48.5209 8.9373 50.0456 8.9373 51.2833 9.65183L82.1145 27.4523C83.3521 28.1668 84.1145 29.4873 84.1145 30.9164V66.5172C84.1145 67.9463 83.3521 69.2668 82.1145 69.9813L51.2833 87.7817C50.0457 88.4963 48.5209 88.4963 47.2833 87.7817L16.452 69.9813C15.2144 69.2668 14.452 67.9463 14.452 66.5172V30.9164C14.452 29.4873 15.2144 28.1668 16.452 27.4523L47.2832 9.65183Z" fill="#EFEFEF"/>
<path d="M48.4861 64.336C46.0221 64.336 43.9921 64.154 42.3961 63.79C40.8281 63.426 39.6101 62.894 38.7421 62.194C37.9021 61.494 37.3141 60.654 36.9781 59.674C36.6421 58.666 36.4741 57.532 36.4741 56.272C36.4741 54.676 36.6701 53.43 37.0621 52.534C37.4821 51.61 38.0841 50.91 38.8681 50.434C39.6521 49.958 40.6041 49.594 41.7241 49.342V49.174C40.0441 48.81 38.7841 48.11 37.9441 47.074C37.1321 46.038 36.7261 44.47 36.7261 42.37C36.7261 41.138 36.9081 40.046 37.2721 39.094C37.6641 38.142 38.2941 37.344 39.1621 36.7C40.0581 36.056 41.2621 35.58 42.7741 35.272C44.3141 34.936 46.2181 34.768 48.4861 34.768C50.7541 34.768 52.6441 34.936 54.1561 35.272C55.6961 35.58 56.9001 36.056 57.7681 36.7C58.6641 37.344 59.2941 38.142 59.6581 39.094C60.0501 40.046 60.2461 41.138 60.2461 42.37C60.2461 44.47 59.8261 46.038 58.9861 47.074C58.1741 48.11 56.9281 48.81 55.2481 49.174V49.342C56.3961 49.594 57.3481 49.958 58.1041 50.434C58.8881 50.91 59.4761 51.61 59.8681 52.534C60.2881 53.43 60.4981 54.676 60.4981 56.272C60.4981 57.532 60.3301 58.666 59.9941 59.674C59.6581 60.654 59.0561 61.494 58.1881 62.194C57.3201 62.894 56.1021 63.426 54.5341 63.79C52.9661 64.154 50.9501 64.336 48.4861 64.336ZM48.4861 58.876C49.7461 58.876 50.7121 58.82 51.3841 58.708C52.0561 58.568 52.5181 58.26 52.7701 57.784C53.0501 57.28 53.1901 56.51 53.1901 55.474C53.1901 54.69 53.1201 54.06 52.9801 53.584C52.8681 53.108 52.6301 52.758 52.2661 52.534C51.9301 52.282 51.4541 52.114 50.8381 52.03C50.2221 51.946 49.4381 51.904 48.4861 51.904C47.5341 51.904 46.7501 51.946 46.1341 52.03C45.5181 52.114 45.0421 52.282 44.7061 52.534C44.3701 52.758 44.1321 53.108 43.9921 53.584C43.8801 54.06 43.8241 54.69 43.8241 55.474C43.8241 56.51 43.9501 57.28 44.2021 57.784C44.4541 58.26 44.9161 58.568 45.5881 58.708C46.2881 58.82 47.2541 58.876 48.4861 58.876ZM48.4861 46.864C49.7741 46.864 50.7261 46.794 51.3421 46.654C51.9861 46.514 52.4061 46.206 52.6021 45.73C52.8261 45.254 52.9381 44.54 52.9381 43.588C52.9381 42.58 52.8261 41.852 52.6021 41.404C52.4061 40.928 51.9861 40.62 51.3421 40.48C50.7261 40.312 49.7741 40.228 48.4861 40.228C47.2261 40.228 46.2741 40.312 45.6301 40.48C44.9861 40.62 44.5661 40.928 44.3701 41.404C44.1741 41.852 44.0761 42.58 44.0761 43.588C44.0761 44.54 44.1741 45.254 44.3701 45.73C44.5661 46.206 44.9861 46.514 45.6301 46.654C46.2741 46.794 47.2261 46.864 48.4861 46.864Z" fill="black"/>
<path d="M47.9082 10.7344C48.7591 10.2431 49.8074 10.2431 50.6583 10.7344L81.4895 28.5348C82.3403 29.026 82.8645 29.9339 82.8645 30.9164V66.5172C82.8645 67.4997 82.3403 68.4075 81.4895 68.8988L50.6583 86.6992C49.8074 87.1904 48.7591 87.1904 47.9083 86.6992L17.077 68.8988C16.2262 68.4075 15.702 67.4997 15.702 66.5172V30.9164C15.702 29.9339 16.2262 29.026 17.077 28.5348L47.9082 10.7344Z" stroke="#896A2D" stroke-width="2.5"/>
</svg>
