<svg width="98" height="98" viewBox="0 0 98 98" fill="none" xmlns="http://www.w3.org/2000/svg">
<path d="M42 4.04145C46.3316 1.54059 51.6684 1.54059 56 4.04145L84.4352 20.4585C88.7669 22.9594 91.4352 27.5812 91.4352 32.5829V65.4171C91.4352 70.4188 88.7669 75.0406 84.4352 77.5415L56 93.9585C51.6684 96.4594 46.3316 96.4594 42 93.9585L13.5648 77.5415C9.23314 75.0406 6.56475 70.4188 6.56475 65.4171V32.5829C6.56475 27.5812 9.23314 22.9594 13.5648 20.4585L42 4.04145Z" fill="#8BB1BA"/>
<mask id="mask0_41_438" style="mask-type:alpha" maskUnits="userSpaceOnUse" x="6" y="2" width="86" height="94">
<path d="M42 4.04145C46.3316 1.54059 51.6684 1.54059 56 4.04145L84.4352 20.4585C88.7669 22.9594 91.4352 27.5812 91.4352 32.5829V65.4171C91.4352 70.4188 88.7669 75.0406 84.4352 77.5415L56 93.9585C51.6684 96.4594 46.3316 96.4594 42 93.9585L13.5648 77.5415C9.23314 75.0406 6.56475 70.4188 6.56475 65.4171V32.5829C6.56475 27.5812 9.23314 22.9594 13.5648 20.4585L42 4.04145Z" fill="#C4C4C4"/>
</mask>
<g mask="url(#mask0_41_438)">
<rect x="-0.566528" y="73.054" width="105.692" height="35.9078" transform="rotate(-30.5 -0.566528 73.054)" fill="white" fill-opacity="0.5"/>
<rect x="-5.66479" y="46.0558" width="92.9756" height="16.8766" transform="rotate(-30.5 -5.66479 46.0558)" fill="white" fill-opacity="0.5"/>
</g>
<path d="M42.625 5.12398C46.5699 2.84642 51.4301 2.84642 55.375 5.12398L83.8102 21.5411C87.7551 23.8186 90.1852 28.0278 90.1852 32.5829V65.4171C90.1852 69.9722 87.7551 74.1814 83.8102 76.4589L55.375 92.876C51.4301 95.1536 46.5699 95.1536 42.625 92.876L14.1898 76.4589C10.2449 74.1814 7.81475 69.9722 7.81475 65.4171V32.5829C7.81475 28.0278 10.2449 23.8186 14.1898 21.5411L42.625 5.12398Z" stroke="#C4C4C4" stroke-width="2.5"/>
<path d="M47.2832 9.65177C48.5209 8.93724 50.0456 8.93724 51.2833 9.65177L82.1145 27.4522C83.3521 28.1667 84.1145 29.4872 84.1145 30.9163V66.5171C84.1145 67.9462 83.3521 69.2667 82.1145 69.9813L51.2833 87.7817C50.0457 88.4962 48.5209 88.4962 47.2833 87.7817L16.452 69.9813C15.2144 69.2667 14.452 67.9462 14.452 66.5172V30.9163C14.452 29.4872 15.2144 28.1667 16.452 27.4522L47.2832 9.65177Z" fill="#EFEFEF"/>
<path d="M46.6476 64.336C45.6956 64.336 44.6596 64.294 43.5396 64.21C42.4196 64.154 41.3136 64.056 40.2216 63.916C39.1576 63.748 38.2056 63.594 37.3656 63.454V58.204C38.3736 58.288 39.4096 58.372 40.4736 58.456C41.5376 58.54 42.5456 58.61 43.4976 58.666C44.4776 58.694 45.3036 58.708 45.9756 58.708C47.2356 58.708 48.2296 58.666 48.9576 58.582C49.7136 58.47 50.2456 58.19 50.5536 57.742C50.8896 57.294 51.0576 56.566 51.0576 55.558C51.0576 54.606 50.9456 53.892 50.7216 53.416C50.4976 52.912 50.1056 52.576 49.5456 52.408C48.9856 52.24 48.2016 52.156 47.1936 52.156H42.3636V46.612H47.1936C48.0896 46.612 48.7896 46.542 49.2936 46.402C49.8256 46.234 50.2036 45.94 50.4276 45.52C50.6796 45.072 50.8056 44.4 50.8056 43.504C50.8056 42.496 50.6656 41.782 50.3856 41.362C50.1056 40.914 49.5876 40.648 48.8316 40.564C48.0756 40.452 46.9836 40.396 45.5556 40.396C44.7436 40.396 43.8476 40.424 42.8676 40.48C41.9156 40.536 40.9636 40.606 40.0116 40.69C39.0876 40.746 38.2616 40.83 37.5336 40.942V35.65C38.3456 35.482 39.2836 35.328 40.3476 35.188C41.4396 35.048 42.5316 34.95 43.6236 34.894C44.7436 34.81 45.7656 34.768 46.6896 34.768C48.9016 34.768 50.7356 34.936 52.1916 35.272C53.6756 35.608 54.8516 36.098 55.7196 36.742C56.5876 37.386 57.2036 38.184 57.5676 39.136C57.9596 40.06 58.1556 41.138 58.1556 42.37C58.1556 44.47 57.7356 46.038 56.8956 47.074C56.0556 48.11 54.8096 48.81 53.1576 49.174V49.342C54.2776 49.594 55.2296 49.958 56.0136 50.434C56.7976 50.91 57.3856 51.61 57.7776 52.534C58.1976 53.458 58.4076 54.704 58.4076 56.272C58.4076 57.476 58.2396 58.582 57.9036 59.59C57.5956 60.57 57.0216 61.424 56.1816 62.152C55.3416 62.852 54.1516 63.398 52.6116 63.79C51.0716 64.154 49.0836 64.336 46.6476 64.336Z" fill="black"/>
<path d="M47.9082 10.7343C48.7591 10.2431 49.8074 10.2431 50.6583 10.7343L81.4895 28.5347C82.3403 29.026 82.8645 29.9338 82.8645 30.9163V66.5171C82.8645 67.4996 82.3403 68.4075 81.4895 68.8987L50.6583 86.6991C49.8074 87.1904 48.7591 87.1904 47.9083 86.6991L17.077 68.8987C16.2262 68.4075 15.702 67.4996 15.702 66.5172V30.9163C15.702 29.9338 16.2262 29.026 17.077 28.5347L47.9082 10.7343Z" stroke="#68878D" stroke-width="2.5"/>
</svg>
