<svg width="98" height="98" viewBox="0 0 98 98" fill="none" xmlns="http://www.w3.org/2000/svg">
<path d="M42 4.04145C46.3316 1.54059 51.6684 1.54059 56 4.04145L84.4352 20.4585C88.7669 22.9594 91.4352 27.5812 91.4352 32.5829V65.4171C91.4352 70.4188 88.7669 75.0406 84.4352 77.5415L56 93.9585C51.6684 96.4594 46.3316 96.4594 42 93.9585L13.5648 77.5415C9.23314 75.0406 6.56475 70.4188 6.56475 65.4171V32.5829C6.56475 27.5812 9.23314 22.9594 13.5648 20.4585L42 4.04145Z" fill="#EB7838"/>
<mask id="mask0_41_498" style="mask-type:alpha" maskUnits="userSpaceOnUse" x="6" y="2" width="86" height="94">
<path d="M42 4.04145C46.3316 1.54059 51.6684 1.54059 56 4.04145L84.4352 20.4585C88.7669 22.9594 91.4352 27.5812 91.4352 32.5829V65.4171C91.4352 70.4188 88.7669 75.0406 84.4352 77.5415L56 93.9585C51.6684 96.4594 46.3316 96.4594 42 93.9585L13.5648 77.5415C9.23314 75.0406 6.56475 70.4188 6.56475 65.4171V32.5829C6.56475 27.5812 9.23314 22.9594 13.5648 20.4585L42 4.04145Z" fill="#C4C4C4"/>
</mask>
<g mask="url(#mask0_41_498)">
<rect x="-0.566528" y="73.054" width="105.692" height="35.9078" transform="rotate(-30.5 -0.566528 73.054)" fill="white" fill-opacity="0.5"/>
<rect x="-5.66479" y="46.0557" width="92.9756" height="16.8766" transform="rotate(-30.5 -5.66479 46.0557)" fill="white" fill-opacity="0.5"/>
</g>
<path d="M42.625 5.12398C46.5699 2.84642 51.4301 2.84642 55.375 5.12398L83.8102 21.5411C87.7551 23.8186 90.1852 28.0278 90.1852 32.5829V65.4171C90.1852 69.9722 87.7551 74.1814 83.8102 76.4589L55.375 92.876C51.4301 95.1536 46.5699 95.1536 42.625 92.876L14.1898 76.4589C10.2449 74.1814 7.81475 69.9722 7.81475 65.4171V32.5829C7.81475 28.0278 10.2449 23.8186 14.1898 21.5411L42.625 5.12398Z" stroke="#C4C4C4" stroke-width="2.5"/>
<path d="M47.2832 9.65183C48.5209 8.9373 50.0456 8.9373 51.2833 9.65183L82.1145 27.4523C83.3521 28.1668 84.1145 29.4873 84.1145 30.9164V66.5172C84.1145 67.9463 83.3521 69.2668 82.1145 69.9813L51.2833 87.7817C50.0457 88.4963 48.5209 88.4963 47.2833 87.7817L16.452 69.9813C15.2144 69.2668 14.452 67.9463 14.452 66.5172V30.9164C14.452 29.4873 15.2144 28.1668 16.452 27.4523L47.2832 9.65183Z" fill="#EFEFEF"/>
<path d="M47.2007 64.336C46.3887 64.336 45.4367 64.294 44.3447 64.21C43.2807 64.126 42.1747 64.014 41.0267 63.874C39.9067 63.734 38.8567 63.58 37.8767 63.412V58.162C38.9407 58.274 39.9627 58.372 40.9427 58.456C41.9507 58.54 42.8887 58.61 43.7567 58.666C44.6247 58.694 45.3107 58.708 45.8147 58.708C47.2987 58.708 48.4607 58.624 49.3007 58.456C50.1687 58.26 50.8127 57.91 51.2327 57.406C51.6807 56.874 51.9747 56.118 52.1147 55.138C52.2827 54.158 52.3667 52.856 52.3667 51.232H52.1147C51.8907 51.484 51.5407 51.764 51.0647 52.072C50.6167 52.38 49.9587 52.66 49.0907 52.912C48.2227 53.136 47.0607 53.248 45.6047 53.248C44.0367 53.248 42.6647 53.136 41.4887 52.912C40.3407 52.688 39.3747 52.282 38.5907 51.694C37.8067 51.078 37.2047 50.21 36.7847 49.09C36.3927 47.97 36.1967 46.514 36.1967 44.722C36.1967 42.93 36.3507 41.404 36.6587 40.144C36.9947 38.856 37.5687 37.82 38.3807 37.036C39.1927 36.252 40.3267 35.678 41.7827 35.314C43.2667 34.95 45.1707 34.768 47.4947 34.768C49.7067 34.768 51.5547 34.894 53.0387 35.146C54.5227 35.37 55.7127 35.832 56.6087 36.532C57.5327 37.204 58.2187 38.24 58.6667 39.64C59.0307 40.788 59.2827 42.16 59.4227 43.756C59.5627 45.352 59.6327 47.256 59.6327 49.468C59.6327 51.12 59.5767 52.604 59.4647 53.92C59.3807 55.236 59.2267 56.398 59.0027 57.406C58.7787 58.414 58.4707 59.296 58.0787 60.052C57.5187 61.116 56.7627 61.97 55.8107 62.614C54.8587 63.23 53.6827 63.678 52.2827 63.958C50.8827 64.21 49.1887 64.336 47.2007 64.336ZM47.8307 47.704C48.8387 47.704 49.6367 47.648 50.2247 47.536C50.8407 47.424 51.2887 47.242 51.5687 46.99C51.8487 46.71 52.0307 46.374 52.1147 45.982C52.1987 45.562 52.2407 45.058 52.2407 44.47C52.2407 43.462 52.1567 42.678 51.9887 42.118C51.8487 41.558 51.6107 41.152 51.2747 40.9C50.9387 40.62 50.4907 40.452 49.9307 40.396C49.3707 40.34 48.6707 40.312 47.8307 40.312C46.9067 40.312 46.1367 40.354 45.5207 40.438C44.9047 40.494 44.4287 40.648 44.0927 40.9C43.7567 41.124 43.5187 41.488 43.3787 41.992C43.2667 42.468 43.2107 43.112 43.2107 43.924C43.2107 44.792 43.2667 45.492 43.3787 46.024C43.5187 46.528 43.7567 46.906 44.0927 47.158C44.4287 47.382 44.8907 47.536 45.4787 47.62C46.0947 47.676 46.8787 47.704 47.8307 47.704Z" fill="black"/>
<path d="M47.9082 10.7344C48.7591 10.2431 49.8074 10.2431 50.6583 10.7344L81.4895 28.5348C82.3403 29.026 82.8645 29.9339 82.8645 30.9164V66.5172C82.8645 67.4997 82.3403 68.4075 81.4895 68.8988L50.6583 86.6992C49.8074 87.1904 48.7591 87.1904 47.9083 86.6992L17.077 68.8988C16.2262 68.4075 15.702 67.4997 15.702 66.5172V30.9164C15.702 29.9339 16.2262 29.026 17.077 28.5348L47.9082 10.7344Z" stroke="#9D4E22" stroke-width="2.5"/>
</svg>
