<svg width="98" height="98" viewBox="0 0 98 98" fill="none" xmlns="http://www.w3.org/2000/svg">
<path d="M42 4.04145C46.3316 1.54059 51.6684 1.54059 56 4.04145L84.4352 20.4585C88.7669 22.9594 91.4352 27.5812 91.4352 32.5829V65.4171C91.4352 70.4188 88.7669 75.0406 84.4352 77.5415L56 93.9585C51.6684 96.4594 46.3316 96.4594 42 93.9585L13.5648 77.5415C9.23314 75.0406 6.56475 70.4188 6.56475 65.4171V32.5829C6.56475 27.5812 9.23314 22.9594 13.5648 20.4585L42 4.04145Z" fill="#E93811"/>
<mask id="mask0_41_508" style="mask-type:alpha" maskUnits="userSpaceOnUse" x="6" y="2" width="86" height="94">
<path d="M42 4.04145C46.3316 1.54059 51.6684 1.54059 56 4.04145L84.4352 20.4585C88.7669 22.9594 91.4352 27.5812 91.4352 32.5829V65.4171C91.4352 70.4188 88.7669 75.0406 84.4352 77.5415L56 93.9585C51.6684 96.4594 46.3316 96.4594 42 93.9585L13.5648 77.5415C9.23314 75.0406 6.56475 70.4188 6.56475 65.4171V32.5829C6.56475 27.5812 9.23314 22.9594 13.5648 20.4585L42 4.04145Z" fill="#C4C4C4"/>
</mask>
<g mask="url(#mask0_41_508)">
<rect x="-0.566528" y="73.054" width="105.692" height="35.9078" transform="rotate(-30.5 -0.566528 73.054)" fill="white" fill-opacity="0.5"/>
<rect x="-5.66479" y="46.0557" width="92.9756" height="16.8766" transform="rotate(-30.5 -5.66479 46.0557)" fill="white" fill-opacity="0.5"/>
</g>
<path d="M42.625 5.12398C46.5699 2.84642 51.4301 2.84642 55.375 5.12398L83.8102 21.5411C87.7551 23.8186 90.1852 28.0278 90.1852 32.5829V65.4171C90.1852 69.9722 87.7551 74.1814 83.8102 76.4589L55.375 92.876C51.4301 95.1536 46.5699 95.1536 42.625 92.876L14.1898 76.4589C10.2449 74.1814 7.81475 69.9722 7.81475 65.4171V32.5829C7.81475 28.0278 10.2449 23.8186 14.1898 21.5411L42.625 5.12398Z" stroke="#C4C4C4" stroke-width="2.5"/>
<path d="M47.2832 9.65183C48.5209 8.9373 50.0456 8.9373 51.2833 9.65183L82.1145 27.4523C83.3521 28.1668 84.1145 29.4873 84.1145 30.9164V66.5172C84.1145 67.9463 83.3521 69.2668 82.1145 69.9813L51.2833 87.7817C50.0457 88.4963 48.5209 88.4963 47.2833 87.7817L16.452 69.9813C15.2144 69.2668 14.452 67.9463 14.452 66.5172V30.9164C14.452 29.4873 15.2144 28.1668 16.452 27.4523L47.2832 9.65183Z" fill="#EFEFEF"/>
<path d="M32.422 64V42.454L27.004 44.722V38.968L34.732 35.104H39.73V64H32.422ZM56.7624 64.336C54.6064 64.336 52.8144 64.224 51.3864 64C49.9584 63.748 48.8244 63.314 47.9844 62.698C47.1444 62.082 46.5144 61.228 46.0944 60.136C45.7024 59.016 45.4504 57.588 45.3384 55.852C45.2264 54.116 45.1704 52.016 45.1704 49.552C45.1704 47.088 45.2264 44.988 45.3384 43.252C45.4504 41.516 45.7024 40.102 46.0944 39.01C46.5144 37.89 47.1444 37.022 47.9844 36.406C48.8244 35.79 49.9584 35.37 51.3864 35.146C52.8144 34.894 54.6064 34.768 56.7624 34.768C58.9464 34.768 60.7384 34.894 62.1384 35.146C63.5664 35.37 64.7004 35.79 65.5404 36.406C66.3804 37.022 66.9964 37.89 67.3884 39.01C67.8084 40.102 68.0744 41.516 68.1864 43.252C68.3264 44.988 68.3964 47.088 68.3964 49.552C68.3964 52.016 68.3264 54.116 68.1864 55.852C68.0744 57.588 67.8084 59.016 67.3884 60.136C66.9964 61.228 66.3804 62.082 65.5404 62.698C64.7004 63.314 63.5664 63.748 62.1384 64C60.7384 64.224 58.9464 64.336 56.7624 64.336ZM56.7624 58.708C57.6024 58.708 58.2884 58.68 58.8204 58.624C59.3524 58.54 59.7724 58.358 60.0804 58.078C60.3884 57.798 60.6124 57.336 60.7524 56.692C60.8924 56.02 60.9764 55.11 61.0044 53.962C61.0604 52.814 61.0884 51.344 61.0884 49.552C61.0884 47.76 61.0604 46.29 61.0044 45.142C60.9764 43.994 60.8924 43.098 60.7524 42.454C60.6124 41.782 60.3884 41.306 60.0804 41.026C59.7724 40.746 59.3524 40.578 58.8204 40.522C58.3164 40.438 57.6304 40.396 56.7624 40.396C55.9504 40.396 55.2644 40.438 54.7044 40.522C54.1724 40.578 53.7524 40.746 53.4444 41.026C53.1644 41.306 52.9544 41.782 52.8144 42.454C52.6744 43.098 52.5764 43.994 52.5204 45.142C52.4924 46.29 52.4784 47.76 52.4784 49.552C52.4784 51.344 52.4924 52.814 52.5204 53.962C52.5764 55.11 52.6744 56.02 52.8144 56.692C52.9544 57.336 53.1644 57.798 53.4444 58.078C53.7524 58.358 54.1724 58.54 54.7044 58.624C55.2364 58.68 55.9224 58.708 56.7624 58.708Z" fill="black"/>
<path d="M47.9082 10.7344C48.7591 10.2431 49.8074 10.2431 50.6583 10.7344L81.4895 28.5348C82.3403 29.026 82.8645 29.9339 82.8645 30.9164V66.5172C82.8645 67.4997 82.3403 68.4075 81.4895 68.8988L50.6583 86.6992C49.8074 87.1904 48.7591 87.1904 47.9083 86.6992L17.077 68.8988C16.2262 68.4075 15.702 67.4997 15.702 66.5172V30.9164C15.702 29.9339 16.2262 29.026 17.077 28.5348L47.9082 10.7344Z" stroke="#921515" stroke-width="2.5"/>
</svg>
