<svg width="184" height="52" viewBox="0 0 184 52" fill="none" xmlns="http://www.w3.org/2000/svg">
<path d="M0 6C0 2.68629 2.68629 0 6 0H177.264C181.475 0 184.375 4.22386 182.864 8.15387L167.479 48.1539C166.588 50.471 164.362 52 161.879 52H6C2.68629 52 0 49.3137 0 46V6Z" fill="url(#paint0_linear_42_205)"/>
<g filter="url(#filter0_d_42_205)">
<path d="M46.0461 36.224C44.5901 36.224 43.3767 36.1307 42.4061 35.944C41.4354 35.7387 40.6421 35.412 40.0261 34.964C39.4287 34.516 38.9714 33.9187 38.6541 33.172C38.3554 32.4253 38.1501 31.492 38.0381 30.372C37.9261 29.252 37.8701 27.9173 37.8701 26.368C37.8701 24.8187 37.9261 23.484 38.0381 22.364C38.1501 21.244 38.3554 20.3107 38.6541 19.564C38.9714 18.8173 39.4287 18.22 40.0261 17.772C40.6421 17.324 41.4354 17.0067 42.4061 16.82C43.3767 16.6147 44.5901 16.512 46.0461 16.512C46.6061 16.512 47.1847 16.5307 47.7821 16.568C48.3794 16.6053 48.9581 16.6613 49.5181 16.736C50.0781 16.8107 50.5541 16.904 50.9461 17.016V20.516C50.3674 20.46 49.8354 20.4133 49.3501 20.376C48.8834 20.32 48.4727 20.292 48.1181 20.292C47.7634 20.2733 47.4647 20.264 47.2221 20.264C46.3634 20.264 45.6541 20.3013 45.0941 20.376C44.5527 20.432 44.1234 20.572 43.8061 20.796C43.4887 21.02 43.2554 21.356 43.1061 21.804C42.9567 22.2333 42.8541 22.8213 42.7981 23.568C42.7607 24.296 42.7421 25.2293 42.7421 26.368C42.7421 27.488 42.7607 28.4213 42.7981 29.168C42.8541 29.9147 42.9567 30.512 43.1061 30.96C43.2554 31.408 43.4887 31.744 43.8061 31.968C44.1234 32.1733 44.5527 32.3133 45.0941 32.388C45.6541 32.444 46.3634 32.472 47.2221 32.472C47.8007 32.472 48.4541 32.4533 49.1821 32.416C49.9101 32.36 50.5354 32.2947 51.0581 32.22V35.804C50.6474 35.8787 50.1527 35.944 49.5741 36C48.9954 36.0747 48.3981 36.1307 47.7821 36.168C47.1847 36.2053 46.6061 36.224 46.0461 36.224ZM60.3068 36.224C59.0375 36.224 57.9828 36.1493 57.1428 36C56.3028 35.8507 55.6402 35.608 55.1548 35.272C54.6695 34.936 54.3148 34.488 54.0908 33.928C53.8668 33.368 53.7175 32.668 53.6428 31.828C53.5868 30.988 53.5588 29.9893 53.5588 28.832C53.5588 27.6747 53.5868 26.6853 53.6428 25.864C53.7175 25.024 53.8668 24.324 54.0908 23.764C54.3148 23.204 54.6695 22.756 55.1548 22.42C55.6402 22.084 56.3028 21.8507 57.1428 21.72C57.9828 21.5707 59.0375 21.496 60.3068 21.496C61.5948 21.496 62.6588 21.5707 63.4988 21.72C64.3388 21.8507 65.0015 22.084 65.4868 22.42C65.9722 22.756 66.3268 23.204 66.5508 23.764C66.7748 24.324 66.9148 25.024 66.9708 25.864C67.0455 26.6853 67.0828 27.6747 67.0828 28.832C67.0828 29.9893 67.0455 30.988 66.9708 31.828C66.9148 32.668 66.7748 33.368 66.5508 33.928C66.3268 34.488 65.9722 34.936 65.4868 35.272C65.0015 35.608 64.3388 35.8507 63.4988 36C62.6588 36.1493 61.5948 36.224 60.3068 36.224ZM60.3068 32.808C60.8668 32.808 61.3055 32.7707 61.6228 32.696C61.9402 32.6213 62.1642 32.4533 62.2948 32.192C62.4255 31.9307 62.5002 31.5293 62.5188 30.988C62.5562 30.4467 62.5748 29.728 62.5748 28.832C62.5748 27.936 62.5562 27.2267 62.5188 26.704C62.5002 26.1813 62.4255 25.7893 62.2948 25.528C62.1642 25.2667 61.9402 25.0987 61.6228 25.024C61.3055 24.9493 60.8668 24.912 60.3068 24.912C59.7468 24.912 59.3082 24.9493 58.9908 25.024C58.6922 25.0987 58.4775 25.2667 58.3468 25.528C58.2162 25.7893 58.1322 26.1813 58.0948 26.704C58.0762 27.2267 58.0668 27.936 58.0668 28.832C58.0668 29.728 58.0762 30.4467 58.0948 30.988C58.1322 31.5293 58.2162 31.9307 58.3468 32.192C58.4775 32.4533 58.6922 32.6213 58.9908 32.696C59.3082 32.7707 59.7468 32.808 60.3068 32.808ZM70.0856 36V21.72H74.3416L74.4536 23.456H74.7056C74.9669 22.9707 75.2936 22.588 75.6856 22.308C76.0963 22.0093 76.5536 21.804 77.0576 21.692C77.5616 21.5613 78.1029 21.496 78.6816 21.496C79.8016 21.496 80.6509 21.6547 81.2296 21.972C81.8083 22.2707 82.2189 22.7653 82.4616 23.456H82.7136C82.9936 22.9707 83.3389 22.588 83.7496 22.308C84.1603 22.0093 84.6176 21.804 85.1216 21.692C85.6443 21.5613 86.1949 21.496 86.7736 21.496C87.9869 21.496 88.8829 21.7107 89.4616 22.14C90.0589 22.5693 90.4509 23.1947 90.6376 24.016C90.8429 24.8373 90.9456 25.8547 90.9456 27.068V36H86.4656V28.44C86.4656 27.6747 86.4376 27.0773 86.3816 26.648C86.3443 26.2 86.2696 25.8733 86.1576 25.668C86.0456 25.4627 85.8683 25.3413 85.6256 25.304C85.3829 25.248 85.0656 25.22 84.6736 25.22C84.2443 25.22 83.8989 25.276 83.6376 25.388C83.3763 25.4813 83.1803 25.6493 83.0496 25.892C82.9189 26.1347 82.8349 26.4707 82.7976 26.9C82.7789 27.3293 82.7696 27.88 82.7696 28.552V36H78.2616V28.44C78.2616 27.6747 78.2429 27.0773 78.2056 26.648C78.1683 26.2 78.0843 25.8733 77.9536 25.668C77.8416 25.4627 77.6643 25.3413 77.4216 25.304C77.1976 25.248 76.8896 25.22 76.4976 25.22C76.0683 25.22 75.7229 25.276 75.4616 25.388C75.2003 25.4813 75.0043 25.6493 74.8736 25.892C74.7429 26.1347 74.6589 26.48 74.6216 26.928C74.5843 27.3573 74.5656 27.8987 74.5656 28.552V36H70.0856ZM94.4489 36V21.72H98.7049L98.8169 23.456H99.0689C99.3302 22.9707 99.6569 22.588 100.049 22.308C100.46 22.0093 100.917 21.804 101.421 21.692C101.925 21.5613 102.466 21.496 103.045 21.496C104.165 21.496 105.014 21.6547 105.593 21.972C106.172 22.2707 106.582 22.7653 106.825 23.456H107.077C107.357 22.9707 107.702 22.588 108.113 22.308C108.524 22.0093 108.981 21.804 109.485 21.692C110.008 21.5613 110.558 21.496 111.137 21.496C112.35 21.496 113.246 21.7107 113.825 22.14C114.422 22.5693 114.814 23.1947 115.001 24.016C115.206 24.8373 115.309 25.8547 115.309 27.068V36H110.829V28.44C110.829 27.6747 110.801 27.0773 110.745 26.648C110.708 26.2 110.633 25.8733 110.521 25.668C110.409 25.4627 110.232 25.3413 109.989 25.304C109.746 25.248 109.429 25.22 109.037 25.22C108.608 25.22 108.262 25.276 108.001 25.388C107.74 25.4813 107.544 25.6493 107.413 25.892C107.282 26.1347 107.198 26.4707 107.161 26.9C107.142 27.3293 107.133 27.88 107.133 28.552V36H102.625V28.44C102.625 27.6747 102.606 27.0773 102.569 26.648C102.532 26.2 102.448 25.8733 102.317 25.668C102.205 25.4627 102.028 25.3413 101.785 25.304C101.561 25.248 101.253 25.22 100.861 25.22C100.432 25.22 100.086 25.276 99.8249 25.388C99.5636 25.4813 99.3676 25.6493 99.2369 25.892C99.1062 26.1347 99.0222 26.48 98.9849 26.928C98.9476 27.3573 98.9289 27.8987 98.9289 28.552V36H94.4489ZM125.084 36.224C123.815 36.224 122.76 36.1493 121.92 36C121.08 35.8507 120.418 35.608 119.932 35.272C119.447 34.936 119.092 34.488 118.868 33.928C118.644 33.368 118.495 32.668 118.42 31.828C118.364 30.988 118.336 29.9893 118.336 28.832C118.336 27.6747 118.364 26.6853 118.42 25.864C118.495 25.024 118.644 24.324 118.868 23.764C119.092 23.204 119.447 22.756 119.932 22.42C120.418 22.084 121.08 21.8507 121.92 21.72C122.76 21.5707 123.815 21.496 125.084 21.496C126.372 21.496 127.436 21.5707 128.276 21.72C129.116 21.8507 129.779 22.084 130.264 22.42C130.75 22.756 131.104 23.204 131.328 23.764C131.552 24.324 131.692 25.024 131.748 25.864C131.823 26.6853 131.86 27.6747 131.86 28.832C131.86 29.9893 131.823 30.988 131.748 31.828C131.692 32.668 131.552 33.368 131.328 33.928C131.104 34.488 130.75 34.936 130.264 35.272C129.779 35.608 129.116 35.8507 128.276 36C127.436 36.1493 126.372 36.224 125.084 36.224ZM125.084 32.808C125.644 32.808 126.083 32.7707 126.4 32.696C126.718 32.6213 126.942 32.4533 127.072 32.192C127.203 31.9307 127.278 31.5293 127.296 30.988C127.334 30.4467 127.352 29.728 127.352 28.832C127.352 27.936 127.334 27.2267 127.296 26.704C127.278 26.1813 127.203 25.7893 127.072 25.528C126.942 25.2667 126.718 25.0987 126.4 25.024C126.083 24.9493 125.644 24.912 125.084 24.912C124.524 24.912 124.086 24.9493 123.768 25.024C123.47 25.0987 123.255 25.2667 123.124 25.528C122.994 25.7893 122.91 26.1813 122.872 26.704C122.854 27.2267 122.844 27.936 122.844 28.832C122.844 29.728 122.854 30.4467 122.872 30.988C122.91 31.5293 122.994 31.9307 123.124 32.192C123.255 32.4533 123.47 32.6213 123.768 32.696C124.086 32.7707 124.524 32.808 125.084 32.808ZM134.863 36V21.72H139.119L139.231 23.456H139.483C139.763 22.9707 140.108 22.588 140.519 22.308C140.93 22.0093 141.396 21.804 141.919 21.692C142.442 21.5613 143.011 21.496 143.627 21.496C144.579 21.496 145.335 21.6173 145.895 21.86C146.474 22.1027 146.912 22.4573 147.211 22.924C147.51 23.3907 147.706 23.9693 147.799 24.66C147.911 25.3507 147.967 26.1533 147.967 27.068V36H143.459V28.44C143.459 27.6747 143.44 27.0773 143.403 26.648C143.366 26.2 143.282 25.8733 143.151 25.668C143.02 25.4627 142.815 25.3413 142.535 25.304C142.274 25.248 141.919 25.22 141.471 25.22C141.004 25.22 140.622 25.276 140.323 25.388C140.043 25.4813 139.828 25.6493 139.679 25.892C139.548 26.1347 139.455 26.48 139.399 26.928C139.362 27.3573 139.343 27.8987 139.343 28.552V36H134.863Z" fill="white"/>
</g>
<defs>
<filter id="filter0_d_42_205" x="35.8701" y="16.512" width="114.097" height="23.712" filterUnits="userSpaceOnUse" color-interpolation-filters="sRGB">
<feFlood flood-opacity="0" result="BackgroundImageFix"/>
<feColorMatrix in="SourceAlpha" type="matrix" values="0 0 0 0 0 0 0 0 0 0 0 0 0 0 0 0 0 0 127 0" result="hardAlpha"/>
<feOffset dy="2"/>
<feGaussianBlur stdDeviation="1"/>
<feComposite in2="hardAlpha" operator="out"/>
<feColorMatrix type="matrix" values="0 0 0 0 0 0 0 0 0 0 0 0 0 0 0 0 0 0 0.2 0"/>
<feBlend mode="normal" in2="BackgroundImageFix" result="effect1_dropShadow_42_205"/>
<feBlend mode="normal" in="SourceGraphic" in2="effect1_dropShadow_42_205" result="shape"/>
</filter>
<linearGradient id="paint0_linear_42_205" x1="76.9251" y1="0" x2="76.9251" y2="52" gradientUnits="userSpaceOnUse">
<stop stop-color="#A5A5A5"/>
<stop offset="1" stop-color="#385B70"/>
</linearGradient>
</defs>
</svg>
