<svg width="154" height="52" viewBox="0 0 154 52" fill="none" xmlns="http://www.w3.org/2000/svg">
<path d="M0 6C0 2.68629 2.68629 0 6 0H147.264C151.475 0 154.375 4.22386 152.864 8.15387L137.479 48.1539C136.588 50.471 134.362 52 131.879 52H6C2.68629 52 0 49.3137 0 46V6Z" fill="url(#paint0_linear_83_181)"/>
<g filter="url(#filter0_d_83_181)">
<path d="M34.0388 36V16.736H47.5348V20.488H38.9108V24.436H46.2188V28.132H38.9108V32.248H47.5348V36H34.0388ZM49.3673 36L54.1553 28.748L49.5353 21.72H54.4913L57.0113 25.78H57.2073L59.6993 21.72H64.3753L59.7833 28.72L64.5713 36H59.6433L56.9273 31.688H56.7033L54.0713 36H49.3673ZM71.6682 36.224C70.3988 36.224 69.3442 36.1493 68.5042 36C67.6642 35.8507 67.0015 35.608 66.5162 35.272C66.0308 34.936 65.6762 34.488 65.4522 33.928C65.2282 33.368 65.0788 32.668 65.0042 31.828C64.9482 30.988 64.9202 29.9893 64.9202 28.832C64.9202 27.6747 64.9482 26.6853 65.0042 25.864C65.0788 25.024 65.2282 24.324 65.4522 23.764C65.6762 23.204 66.0308 22.756 66.5162 22.42C67.0015 22.084 67.6642 21.8507 68.5042 21.72C69.3442 21.5707 70.3988 21.496 71.6682 21.496C72.9562 21.496 74.0202 21.5707 74.8602 21.72C75.7002 21.8507 76.3628 22.084 76.8482 22.42C77.3335 22.756 77.6882 23.204 77.9122 23.764C78.1362 24.324 78.2762 25.024 78.3322 25.864C78.4068 26.6853 78.4442 27.6747 78.4442 28.832C78.4442 29.9893 78.4068 30.988 78.3322 31.828C78.2762 32.668 78.1362 33.368 77.9122 33.928C77.6882 34.488 77.3335 34.936 76.8482 35.272C76.3628 35.608 75.7002 35.8507 74.8602 36C74.0202 36.1493 72.9562 36.224 71.6682 36.224ZM71.6682 32.808C72.2282 32.808 72.6668 32.7707 72.9842 32.696C73.3015 32.6213 73.5255 32.4533 73.6562 32.192C73.7868 31.9307 73.8615 31.5293 73.8802 30.988C73.9175 30.4467 73.9362 29.728 73.9362 28.832C73.9362 27.936 73.9175 27.2267 73.8802 26.704C73.8615 26.1813 73.7868 25.7893 73.6562 25.528C73.5255 25.2667 73.3015 25.0987 72.9842 25.024C72.6668 24.9493 72.2282 24.912 71.6682 24.912C71.1082 24.912 70.6695 24.9493 70.3522 25.024C70.0535 25.0987 69.8388 25.2667 69.7082 25.528C69.5775 25.7893 69.4935 26.1813 69.4562 26.704C69.4375 27.2267 69.4282 27.936 69.4282 28.832C69.4282 29.728 69.4375 30.4467 69.4562 30.988C69.4935 31.5293 69.5775 31.9307 69.7082 32.192C69.8388 32.4533 70.0535 32.6213 70.3522 32.696C70.6695 32.7707 71.1082 32.808 71.6682 32.808ZM82.7382 36V25.136H80.1342V21.72H82.7382V17.576H87.2742V21.72H90.3822V25.136H87.2742V36H82.7382ZM92.6566 18.808V15.196H97.2766V18.808H92.6566ZM92.7126 36V21.72H97.2486V36H92.7126ZM106.464 36.224C105.27 36.224 104.29 36.1213 103.524 35.916C102.759 35.692 102.152 35.384 101.704 34.992C101.256 34.5813 100.93 34.0773 100.724 33.48C100.519 32.8827 100.388 32.2013 100.332 31.436C100.276 30.652 100.248 29.7933 100.248 28.86C100.248 27.9453 100.276 27.1053 100.332 26.34C100.388 25.5747 100.528 24.8933 100.752 24.296C100.976 23.68 101.303 23.1667 101.732 22.756C102.18 22.3453 102.778 22.0373 103.524 21.832C104.29 21.608 105.26 21.496 106.436 21.496C107.183 21.496 107.93 21.5333 108.676 21.608C109.442 21.6827 110.123 21.7947 110.72 21.944V25.108C110.347 25.052 109.862 25.0053 109.264 24.968C108.686 24.9307 108.144 24.912 107.64 24.912C106.987 24.912 106.474 24.968 106.1 25.08C105.727 25.1733 105.447 25.36 105.26 25.64C105.074 25.9013 104.943 26.2933 104.868 26.816C104.812 27.3387 104.784 28.02 104.784 28.86C104.784 29.7 104.812 30.3907 104.868 30.932C104.943 31.4547 105.074 31.856 105.26 32.136C105.447 32.3973 105.736 32.5747 106.128 32.668C106.52 32.7613 107.034 32.808 107.668 32.808C108.116 32.808 108.62 32.7893 109.18 32.752C109.759 32.7147 110.31 32.668 110.832 32.612V35.776C110.216 35.9067 109.516 36.0093 108.732 36.084C107.948 36.1773 107.192 36.224 106.464 36.224Z" fill="white"/>
</g>
<defs>
<filter id="filter0_d_83_181" x="32.0388" y="15.196" width="80.7935" height="25.028" filterUnits="userSpaceOnUse" color-interpolation-filters="sRGB">
<feFlood flood-opacity="0" result="BackgroundImageFix"/>
<feColorMatrix in="SourceAlpha" type="matrix" values="0 0 0 0 0 0 0 0 0 0 0 0 0 0 0 0 0 0 127 0" result="hardAlpha"/>
<feOffset dy="2"/>
<feGaussianBlur stdDeviation="1"/>
<feComposite in2="hardAlpha" operator="out"/>
<feColorMatrix type="matrix" values="0 0 0 0 0 0 0 0 0 0 0 0 0 0 0 0 0 0 0.2 0"/>
<feBlend mode="normal" in2="BackgroundImageFix" result="effect1_dropShadow_83_181"/>
<feBlend mode="normal" in="SourceGraphic" in2="effect1_dropShadow_83_181" result="shape"/>
</filter>
<linearGradient id="paint0_linear_83_181" x1="58.3142" y1="0" x2="58.3142" y2="52" gradientUnits="userSpaceOnUse">
<stop stop-color="#B654E3"/>
<stop offset="1" stop-color="#276565"/>
</linearGradient>
</defs>
</svg>
