<svg width="141" height="52" viewBox="0 0 141 52" fill="none" xmlns="http://www.w3.org/2000/svg">
<path d="M0 6C0 2.68629 2.68629 0 6 0H132.264C136.475 0 139.375 4.22386 137.864 8.15387L122.479 48.1539C121.588 50.471 119.362 52 116.879 52H6C2.68629 52 0 49.3137 0 46V6Z" fill="url(#paint0_linear_42_194)"/>
<g filter="url(#filter0_d_42_194)">
<path d="M41.6853 36V16.736H51.2333C52.4839 16.736 53.4919 16.876 54.2573 17.156C55.0413 17.4173 55.6293 17.8187 56.0213 18.36C56.4319 18.8827 56.7026 19.536 56.8333 20.32C56.9826 21.0853 57.0573 21.9627 57.0573 22.952C57.0573 23.68 57.0013 24.4173 56.8893 25.164C56.7773 25.892 56.5346 26.564 56.1613 27.18C55.8066 27.7773 55.2559 28.2347 54.5093 28.552L57.4213 36H52.3533L49.6373 28.3L50.8693 28.972C50.7013 29.0653 50.5239 29.1213 50.3373 29.14C50.1693 29.1587 49.9546 29.168 49.6933 29.168H46.5573V36H41.6853ZM46.5573 25.556H49.3573C49.9919 25.556 50.4959 25.528 50.8693 25.472C51.2613 25.3973 51.5506 25.2667 51.7373 25.08C51.9239 24.8933 52.0453 24.632 52.1013 24.296C52.1573 23.96 52.1853 23.5307 52.1853 23.008C52.1853 22.4667 52.1573 22.028 52.1013 21.692C52.0639 21.356 51.9519 21.104 51.7653 20.936C51.5973 20.7493 51.3173 20.6187 50.9253 20.544C50.5519 20.4693 50.0293 20.432 49.3573 20.432H46.5573V25.556ZM63.7178 36.224C62.8218 36.224 62.0658 36.084 61.4498 35.804C60.8338 35.524 60.3671 35.0667 60.0498 34.432C59.7511 33.7973 59.6018 32.9667 59.6018 31.94C59.6018 30.8573 59.7231 29.9987 59.9658 29.364C60.2271 28.7107 60.6844 28.244 61.3378 27.964C61.9911 27.684 62.9151 27.544 64.1098 27.544C64.2778 27.544 64.5111 27.5533 64.8098 27.572C65.1271 27.572 65.4818 27.5813 65.8738 27.6C66.2658 27.6 66.6578 27.6093 67.0498 27.628C67.4418 27.628 67.7964 27.6373 68.1138 27.656V27.124C68.1138 26.5827 68.0671 26.1627 67.9738 25.864C67.8991 25.5653 67.7404 25.3507 67.4978 25.22C67.2738 25.0707 66.9284 24.9867 66.4618 24.968C65.9951 24.9307 65.3791 24.912 64.6138 24.912C64.1844 24.912 63.7084 24.9213 63.1858 24.94C62.6818 24.9587 62.1778 24.9867 61.6738 25.024C61.1884 25.0427 60.7778 25.0707 60.4418 25.108V21.944C61.2071 21.8133 62.0658 21.7107 63.0178 21.636C63.9884 21.5427 65.0058 21.496 66.0698 21.496C67.2644 21.496 68.2538 21.5707 69.0378 21.72C69.8404 21.8693 70.4844 22.1027 70.9698 22.42C71.4551 22.7187 71.8098 23.1013 72.0338 23.568C72.2764 24.0347 72.4351 24.5853 72.5098 25.22C72.5844 25.8547 72.6218 26.5733 72.6218 27.376V36H68.3098L68.1978 34.32H67.9738C67.6191 34.88 67.2084 35.3 66.7418 35.58C66.2751 35.86 65.7804 36.0373 65.2578 36.112C64.7351 36.1867 64.2218 36.224 63.7178 36.224ZM65.8458 33.032C66.1818 33.032 66.4711 33.0133 66.7138 32.976C66.9751 32.92 67.1898 32.836 67.3578 32.724C67.5444 32.5933 67.6938 32.4347 67.8058 32.248C67.8991 32.0427 67.9738 31.7907 68.0298 31.492C68.0858 31.1933 68.1138 30.8387 68.1138 30.428V29.896H65.5098C65.0431 29.896 64.6884 29.9333 64.4458 30.008C64.2031 30.064 64.0351 30.2133 63.9418 30.456C63.8671 30.68 63.8298 31.0347 63.8298 31.52C63.8298 31.9307 63.8764 32.248 63.9698 32.472C64.0631 32.696 64.2498 32.8453 64.5298 32.92C64.8284 32.9947 65.2671 33.032 65.8458 33.032ZM76.1051 36V21.72H80.3611L80.4731 24.156H80.7251C80.9865 23.4653 81.3131 22.924 81.7051 22.532C82.1158 22.14 82.6105 21.8693 83.1891 21.72C83.7678 21.5707 84.4398 21.496 85.2051 21.496V25.612C84.0291 25.612 83.1051 25.7613 82.4331 26.06C81.7611 26.3587 81.2851 26.872 81.0051 27.6C80.7251 28.3093 80.5851 29.308 80.5851 30.596V36H76.1051ZM94.1168 36.224C92.7728 36.224 91.6621 36.14 90.7848 35.972C89.9075 35.804 89.2075 35.5427 88.6848 35.188C88.1808 34.8147 87.7981 34.3387 87.5368 33.76C87.2941 33.1813 87.1355 32.4907 87.0608 31.688C87.0048 30.8853 86.9768 29.952 86.9768 28.888C86.9768 27.6 87.0328 26.4893 87.1448 25.556C87.2755 24.6227 87.5555 23.8573 87.9848 23.26C88.4141 22.6627 89.0768 22.224 89.9728 21.944C90.8875 21.6453 92.1195 21.496 93.6688 21.496C94.9195 21.496 95.9368 21.5893 96.7208 21.776C97.5048 21.944 98.1208 22.2147 98.5688 22.588C99.0355 22.9427 99.3621 23.4093 99.5488 23.988C99.7541 24.5667 99.8848 25.2667 99.9408 26.088C99.9968 26.8907 100.025 27.824 100.025 28.888V29.98H91.4288C91.4288 30.6147 91.4568 31.128 91.5128 31.52C91.5688 31.8933 91.7181 32.1733 91.9608 32.36C92.2035 32.5467 92.5768 32.6773 93.0808 32.752C93.5848 32.808 94.2848 32.836 95.1808 32.836C95.5355 32.836 95.9555 32.8267 96.4408 32.808C96.9261 32.7893 97.4301 32.7613 97.9528 32.724C98.4941 32.6867 98.9981 32.6493 99.4648 32.612V35.748C99.0541 35.8413 98.5501 35.9253 97.9528 36C97.3741 36.0747 96.7488 36.1307 96.0768 36.168C95.4048 36.2053 94.7515 36.224 94.1168 36.224ZM95.7968 28.104V27.656C95.7968 26.984 95.7595 26.452 95.6848 26.06C95.6288 25.668 95.5168 25.3787 95.3488 25.192C95.1995 24.9867 94.9848 24.856 94.7048 24.8C94.4248 24.744 94.0701 24.716 93.6408 24.716C93.1555 24.716 92.7635 24.7533 92.4648 24.828C92.1848 24.884 91.9701 25.0147 91.8208 25.22C91.6715 25.4253 91.5688 25.724 91.5128 26.116C91.4568 26.508 91.4288 27.0213 91.4288 27.656H96.2728L95.7968 28.104Z" fill="white"/>
</g>
<defs>
<filter id="filter0_d_42_194" x="39.6853" y="16.736" width="62.3396" height="23.488" filterUnits="userSpaceOnUse" color-interpolation-filters="sRGB">
<feFlood flood-opacity="0" result="BackgroundImageFix"/>
<feColorMatrix in="SourceAlpha" type="matrix" values="0 0 0 0 0 0 0 0 0 0 0 0 0 0 0 0 0 0 127 0" result="hardAlpha"/>
<feOffset dy="2"/>
<feGaussianBlur stdDeviation="1"/>
<feComposite in2="hardAlpha" operator="out"/>
<feColorMatrix type="matrix" values="0 0 0 0 0 0 0 0 0 0 0 0 0 0 0 0 0 0 0.2 0"/>
<feBlend mode="normal" in2="BackgroundImageFix" result="effect1_dropShadow_42_194"/>
<feBlend mode="normal" in="SourceGraphic" in2="effect1_dropShadow_42_194" result="shape"/>
</filter>
<linearGradient id="paint0_linear_42_194" x1="70.5" y1="0" x2="70.5" y2="52" gradientUnits="userSpaceOnUse">
<stop stop-color="#4F7DF2"/>
<stop offset="1" stop-color="#523479"/>
</linearGradient>
</defs>
</svg>
