<svg width="377" height="92" viewBox="0 0 377 92" fill="none" xmlns="http://www.w3.org/2000/svg">
<path d="M113.105 20.8118H123.481L129.383 60.4275L143.733 20.8118H153.569L166.993 58.8845L173.242 20.8118H183.31L172.934 75.9729H163.213L148.053 32.6926L131.775 75.9729H122.17L113.105 20.8118ZM199.704 20.8118V28.9124H189.482V20.8118H199.704ZM199.704 35.47V75.9729H189.482V35.47H199.704ZM219.608 20.8118V75.9729H209.386V20.8118H219.608ZM254.942 46.0393C252.834 44.6506 250.185 43.9563 246.996 43.9563C240.644 43.9563 237.468 47.518 237.468 54.6414C237.468 63.102 240.773 67.3323 247.382 67.3323C250.056 67.3323 252.576 66.9594 254.942 66.2136V46.0393ZM265.165 73.5427C258.967 75.1628 252.911 75.9729 246.996 75.9729C233.907 75.9729 227.362 68.9524 227.362 54.9114C227.362 41.9504 233.765 35.47 246.572 35.47C249.298 35.47 252.088 36.1129 254.942 37.3987V20.8118H265.165V73.5427ZM272.879 63.3591C272.879 55.31 278.743 51.2854 290.469 51.2854C293.221 51.2854 295.972 51.5426 298.724 52.0569V49.0095C298.724 45.3835 296.114 43.5706 290.894 43.5706C286.47 43.5706 281.559 44.2135 276.158 45.4993V37.3987C281.559 36.1129 286.47 35.47 290.894 35.47C302.929 35.47 308.946 39.9189 308.946 48.8167V75.9729H303.006L299.38 72.3469C295.857 74.7642 291.974 75.9729 287.73 75.9729C277.83 75.9729 272.879 71.7683 272.879 63.3591ZM298.724 59.0002C296.153 58.4859 293.401 58.2288 290.469 58.2288C285.557 58.2288 283.102 59.9003 283.102 63.2434C283.102 66.8437 285.159 68.6438 289.273 68.6438C292.668 68.6438 295.818 67.5894 298.724 65.4807V59.0002ZM328.851 20.8118V75.9729H318.628V20.8118H328.851ZM346.826 55.5671C346.826 64.0278 350.105 68.2581 356.663 68.2581C363.22 68.2581 366.499 64.0278 366.499 55.5671C366.499 47.3123 363.22 43.1848 356.663 43.1848C350.105 43.1848 346.826 47.3123 346.826 55.5671ZM336.604 55.7214C336.604 42.1433 343.29 35.3542 356.663 35.3542C370.035 35.3542 376.721 42.1433 376.721 55.7214C376.721 69.2738 370.035 76.05 356.663 76.05C343.342 76.05 336.655 69.2738 336.604 55.7214Z" fill="#DF6F1C"/>
<path d="M81.4569 41.4396C78.5016 36.2429 61.7383 6.25587 61.7383 6.25587C61.5236 5.86723 61.2087 5.54328 60.8266 5.3177C60.4445 5.09212 60.0089 4.97314 59.5653 4.97314C59.1217 4.97314 58.6862 5.09212 58.304 5.3177C57.9219 5.54328 57.6071 5.86723 57.3923 6.25587L42.4916 32.7121L35.0413 19.5834C34.8265 19.1948 34.5117 18.8708 34.1296 18.6453C33.7474 18.4197 33.3119 18.3007 32.8683 18.3007C32.4247 18.3007 31.9892 18.4197 31.607 18.6453C31.2249 18.8708 30.9101 19.1948 30.6953 19.5834C30.6953 19.5834 17.1357 44.1996 14.7019 48.4764C12.3196 52.2792 11.0942 56.6941 11.1754 61.1824C11.1754 73.8883 20.8112 85.1769 32.7069 85.4007H59.5529C73.9569 85.4007 85.6787 72.0234 85.6787 56.6569C85.7776 51.2816 84.3106 45.9938 81.4569 41.4396ZM57.0695 80.4278C48.4271 80.811 49.6688 75.838 47.1854 75.838C44.7019 75.838 47.1854 80.811 39.8344 80.4278C32.4834 80.0445 29.0489 79.1041 26.9499 76.9794C24.8508 74.8546 23.6487 72.0028 23.5926 69.0148C23.5729 66.9253 24.2135 64.0919 24.8344 61.7793C25.4552 59.4667 32.2847 34.4279 34.7681 49.3469C35.3974 53.1271 38.362 63.8827 39.0485 65.509C39.735 67.1353 40.3273 66.1388 40.4382 65.509C40.5491 64.8792 43.7085 50.2418 43.7085 50.2418C43.8211 50.0673 43.9755 49.9239 44.1577 49.8245C44.3399 49.7252 44.5441 49.6731 44.7516 49.6731C44.959 49.6731 45.1632 49.7252 45.3454 49.8245C45.5276 49.9239 45.6821 50.0673 45.7946 50.2418L51.6137 64.2658C51.6137 64.2658 52.0751 66.1887 52.8554 64.2658C53.6357 62.3428 58.2367 38.3315 58.2367 38.3315C58.345 38.1402 58.502 37.9811 58.6918 37.8703C58.8816 37.7596 59.0973 37.7013 59.317 37.7013C59.5366 37.7013 59.7523 37.7596 59.9421 37.8703C60.1319 37.9811 60.289 38.1402 60.3973 38.3315C60.3973 38.3315 69.3377 54.1953 70.9022 56.9305C72.4511 59.3029 73.2713 62.0778 73.2615 64.9121C73.2615 80.4278 65.7118 80.0445 57.0695 80.4278Z" fill="#DF6F1C"/>
</svg>
