<svg width="1600" height="1207" viewBox="0 0 1600 1207" fill="none" xmlns="http://www.w3.org/2000/svg">
<g opacity="0.3">
<g style="mix-blend-mode:color-dodge">
<path fill-rule="evenodd" clip-rule="evenodd" d="M412.447 171.779L1615 74.3457V93.6181L412.447 171.779Z" fill="#073D32" style="mix-blend-mode:screen"/>
</g>
<g style="mix-blend-mode:color-dodge">
<path fill-rule="evenodd" clip-rule="evenodd" d="M423.015 202.815L851.521 157.86L1351.82 138.922L423.015 202.815Z" fill="#073D32" style="mix-blend-mode:screen"/>
</g>
<g style="mix-blend-mode:color-dodge">
<path fill-rule="evenodd" clip-rule="evenodd" d="M2.33057 52.0489L883.775 0L2.33057 36.3365V52.0489Z" fill="#073D32" style="mix-blend-mode:screen"/>
</g>
<g style="mix-blend-mode:color-dodge">
<path fill-rule="evenodd" clip-rule="evenodd" d="M2.33057 71.3215L852.459 41.021C852.459 41.021 217.22 76.3939 2.33057 106.828V71.3215V71.3215Z" fill="#073D32" style="mix-blend-mode:screen"/>
</g>
<g style="mix-blend-mode:color-dodge">
<path fill-rule="evenodd" clip-rule="evenodd" d="M241.531 294.934L1615 241.199L604.847 278.566L241.531 294.934Z" fill="#073D32" style="mix-blend-mode:screen"/>
</g>
</g>
<path d="M2062 550.966C2062 550.966 2040.28 526.698 2013.53 525.345C2013.53 525.345 1958.37 501.077 1938.32 486.237C1938.32 486.237 1874.82 452.519 1859.77 416.117L1836.39 426.897L1819.67 418.801L1799.63 425.544L1706.03 355.424C1706.03 355.424 1634.16 417.447 1632.49 430.935C1632.49 430.935 1585.69 434.972 1577.33 443.069L1515.49 428.251L1458.66 457.909L1436.94 451.165L1416.89 460.615L1410.21 459.262L1358.41 414.763L1336.69 425.544L1313.28 406.667L1288.23 405.313L1254.81 355.424L1239.76 359.462L1224.72 351.365L1204.67 358.108L1172.92 376.986L1156.21 372.949L1141.75 339.073L1132.82 348.658C1132.82 348.658 1106.07 331.134 1101.07 319C1101.07 319 1094.01 326.014 1078.96 336.795C1078.96 336.795 1063.27 351.072 1032.55 374.279C1032.55 374.279 1019.18 375.633 1007.5 367.536C1007.5 367.536 969.044 364.829 928.946 397.194L910.566 391.804L880.481 418.756L867.107 420.109C867.107 420.109 843.72 441.693 823.649 434.949L788.557 453.827L766.839 459.217L740.092 474.057L726.719 492.935C726.719 492.935 699.972 491.582 673.224 483.508C673.224 483.508 609.717 467.314 593.005 447.106L564.59 449.812L546.209 443.069L524.491 453.849L496.075 418.801L479.364 436.325L462.653 434.972L449.279 448.459L434.237 433.618L420.863 444.399C420.863 444.399 375.736 406.644 350.68 402.607L327.271 386.436L278.806 383.729C278.806 383.729 208.623 335.194 185.213 335.194L173.689 334.697C173.689 334.697 166.021 337.652 146.762 351.387C146.762 351.387 26.4446 428.251 -3.66278 459.262C-3.66278 459.262 -38.7543 470.043 -53.7968 460.615C-53.7968 460.615 -53.7967 472.749 -78.8749 464.653C-78.8749 464.653 -172.467 422.86 -200.883 382.399L-264.391 379.692L-304.489 337.9L-347.947 374.302L-359.652 378.339L-408.117 416.094L-433.195 429.581L-438.202 449.812C-438.202 449.812 -488.336 460.593 -498.372 470.043C-498.372 470.043 -520.09 491.604 -525.119 498.348L-581.951 538.809L-602 582L2056.99 580.647L2062 550.988V550.966Z" fill="#073D32"/>
<path d="M1640.02 538.799C1640.02 538.799 1626.06 526.27 1608.86 525.559C1608.86 525.559 1573.39 513.015 1560.49 505.358C1560.49 505.358 1519.66 487.941 1509.98 469.147L1494.95 474.716L1484.2 470.539L1471.31 474.02L1411.13 437.809C1411.13 437.809 1364.91 469.843 1363.84 476.819C1363.84 476.819 1333.74 478.907 1328.36 483.083L1288.6 475.426L1252.06 490.74L1238.09 487.26L1225.2 492.132L1220.91 491.436L1187.6 468.451L1173.63 474.02L1158.58 464.275L1142.47 463.578L1120.96 437.809L1111.29 439.897L1101.61 435.721L1088.72 439.201L1068.3 448.946L1057.56 446.858L1048.26 429.369L1042.52 434.328C1042.52 434.328 1025.32 425.265 1022.1 419C1022.1 419 1017.56 422.625 1007.89 428.194C1007.89 428.194 997.797 435.576 978.045 447.554C978.045 447.554 969.446 448.25 961.919 444.074C961.919 444.074 937.208 442.681 911.41 459.387L899.576 456.603L880.231 470.525L871.631 471.221C871.631 471.221 856.593 482.358 843.686 478.878L821.122 488.623L807.156 491.407L789.957 499.064L781.358 508.809C781.358 508.809 764.159 508.113 746.974 503.937C746.974 503.937 706.137 495.584 695.391 485.128L677.119 486.52L665.3 483.04L651.335 488.609L633.062 470.496L622.317 479.559L611.571 478.863L602.971 485.824L593.299 478.167L584.699 483.736C584.699 483.736 555.681 464.231 539.57 462.143L524.517 453.79L493.352 452.398C493.352 452.398 448.223 427.324 433.17 427.324L425.76 427.063C425.76 427.063 420.829 428.586 408.459 435.677C408.459 435.677 331.077 475.383 311.732 491.393C311.732 491.393 289.167 496.962 279.495 492.089C279.495 492.089 279.495 498.354 263.369 494.177C263.369 494.177 203.186 472.584 184.914 451.687L144.077 450.295L118.293 428.702L90.348 447.51L82.8216 449.599L51.6573 469.104L35.5313 476.064L32.3119 486.506C32.3119 486.506 0.0744476 492.074 -6.37884 496.947C-6.37884 496.947 -20.344 508.084 -23.5779 511.579L-60.1224 532.476L-73 554.824L1636.8 554.128L1640.02 538.799Z" fill="#06372E"/>
<path d="M1973 614.842C1973 614.842 1955.52 588.913 1933.99 587.467C1933.99 587.467 1889.6 561.538 1873.46 545.706C1873.46 545.706 1822.35 509.681 1810.25 470.788L1791.42 482.306L1777.98 473.655L1761.84 480.86L1686.52 405.941C1686.52 405.941 1628.67 472.209 1627.33 486.62C1627.33 486.62 1589.67 490.933 1582.93 499.584L1533.16 483.728L1487.43 515.416L1469.95 508.211L1453.81 518.284L1448.44 516.838L1406.73 469.294L1389.25 480.812L1370.41 460.643L1350.25 459.197L1323.35 405.893L1311.24 410.207L1299.14 401.556L1283 408.761L1257.44 428.93L1243.99 424.617L1232.36 388.447L1225.17 398.688C1225.17 398.688 1203.65 379.964 1199.62 367C1199.62 367 1193.94 374.494 1181.83 386.013C1181.83 386.013 1169.2 401.291 1144.48 426.063C1144.48 426.063 1133.71 427.509 1124.31 418.858C1124.31 418.858 1093.37 415.966 1061.09 450.546L1046.3 444.786L1022.09 473.583L1011.33 475.029C1011.33 475.029 992.505 498.09 976.351 490.885L948.109 511.054L930.63 516.814L909.104 532.67L898.341 552.839C898.341 552.839 876.815 551.393 855.288 542.767C855.288 542.767 804.177 525.489 790.728 503.873L767.859 506.765L753.066 499.56L735.588 511.078L712.718 473.631L699.269 492.355L685.82 490.909L675.056 505.319L662.95 489.463L652.187 500.982C652.187 500.982 615.868 460.643 595.703 456.329L576.863 439.051L537.859 436.16C537.859 436.16 481.375 384.302 462.535 384.302L453.26 383.772C453.26 383.772 447.089 386.904 431.589 401.604C431.589 401.604 334.757 483.728 310.545 516.838C310.545 516.838 282.303 528.356 270.197 518.284C270.197 518.284 270.197 531.248 250.014 522.597C250.014 522.597 174.69 477.945 151.821 434.714L100.709 431.822L68.4383 387.17L33.4627 426.063L24.0427 430.4L-14.9622 470.739L-35.1453 485.15L-39.1746 506.765C-39.1746 506.765 -79.5227 518.284 -87.5995 528.38C-87.5995 528.38 -105.078 551.418 -109.126 558.623L-154.864 601.853L-171 648L1968.97 646.554L1973 614.866V614.842Z" fill="url(#paint0_linear_1097_6238)"/>
<path d="M971.317 576C961.717 562.8 919.649 556.5 899.816 555C1040.15 562 1256.92 581.1 1001.32 601.5C681.817 627 669.817 633 1023.82 633C1227.54 633 1196.54 660.5 1160.04 672.5C1027.86 715.956 797.541 732.5 681.041 835C447.441 1040.53 1109.54 967 1227.54 955.5C2347.84 846.318 820.54 1206.5 267.04 1206.5C-419.846 1206.5 13.5355 967.5 158.535 895.5C303.535 823.5 698.04 714 956.54 682.5C1215.04 651 790.816 665.5 615.816 647.5C475.816 633.1 665.15 610.833 777.316 601.5C845.983 598.5 980.917 589.2 971.317 576Z" fill="url(#paint1_linear_1097_6238)"/>
<mask id="mask0_1097_6238" style="mask-type:alpha" maskUnits="userSpaceOnUse" x="-109" y="555" width="1739" height="652">
<path d="M972.317 576C962.717 562.8 920.649 556.5 900.816 555C1041.15 562 1257.92 581.1 1002.32 601.5C682.817 627 670.817 633 1024.82 633C1228.54 633 1197.54 660.5 1161.04 672.5C1028.86 715.956 798.541 732.5 682.041 835C448.441 1040.53 1110.54 967 1228.54 955.5C2348.84 846.318 821.54 1206.5 268.04 1206.5C-418.846 1206.5 14.5355 967.5 159.535 895.5C304.535 823.5 699.04 714 957.54 682.5C1216.04 651 791.816 665.5 616.816 647.5C476.816 633.1 666.15 610.833 778.316 601.5C846.983 598.5 981.917 589.2 972.317 576Z" fill="url(#paint2_linear_1097_6238)"/>
</mask>
<g mask="url(#mask0_1097_6238)">
<ellipse cx="494.5" cy="783.5" rx="11.5" ry="3.5" fill="url(#paint3_radial_1097_6238)"/>
<ellipse cx="494.5" cy="784" rx="8.5" ry="2" fill="url(#paint4_radial_1097_6238)"/>
</g>
<path d="M453.164 742.462L455.778 740.714L458.21 741.124L459.517 739.726L464.965 737.643L469.95 737.972H481.744L483.787 737.865L487.077 737.535L488.779 736.769L491.386 735.566L492.257 735.606L493.597 735.667H493.792L496.74 737.307L500.653 738.194L504.62 737.972L507.863 736.722L509.157 736.225L511.06 735.969L510.912 735.774L510.738 733.603L510.068 733.267L506.436 732.501L501.076 730.612L499.735 731.076H497.47L494.066 730.854L492.364 730.088L492.592 729.214L493.839 729.543L496.673 729.759L498.831 729.322L499.668 729.275L498.375 727.567L497.035 722.815L495.085 721.767L492.699 720.234L490.435 719.905L488.391 720.342L488.163 719.468L489.295 718.695L491.111 718.151L491.942 717.385L491.714 715.415V714.071L492.385 714.508L493.055 718.453L495.206 719.797L497.095 721.041L497.705 716.847L498.375 716.531V711.255L497.47 708.411L497.812 708.082L499.286 710.381L500.191 713.775V715.704L501.779 714.978L503.334 714.568L503.253 713.338L502.912 710.932L501.571 709.507L500.553 708.741C500.781 708.304 501.571 708.627 501.571 708.627L503.046 709.299L504.386 707.874L505.297 707L505.86 707.544L504.955 708.754L504.614 710.287L505.284 714.064L506.316 713.789L508.808 712.807L509.72 709.957L510.282 710.065L510.51 713.352L507.904 715.106L502.912 716.417L499.735 717.949L499.065 722.439L501.33 728.024L503.83 729.234L507.569 730.108L511.656 731.533L513.841 733.59L515.884 732.501L517.848 732.239L517.586 730.222L517.7 728.361L518.37 728.145V729.019L518.826 731.103L519.496 732.104L521.386 732.219L520.756 730.552L521.091 728.69L521.661 726.391L522.116 726.284V727.265L521.888 729.019L522.344 730.881L523.59 732.084L524.153 730.989L524.723 728.912L524.609 726.828H525.279L525.614 728.253V730.552L525.44 731.748L526.411 731.54L527.082 730.115L528.422 727.594L529.762 726.72C529.762 726.72 530.211 727.265 529.876 727.393C529.541 727.52 528.536 729.584 528.536 729.584L528.254 730.868L527.859 732.649L525.815 733.63L520.146 734.302L514.926 734.524L514.29 736.386C514.578 736.527 514.886 736.688 515.188 736.863L515.301 736.924H515.342C515.42 736.964 515.496 737.009 515.569 737.058L515.63 737.092L515.844 737.226H515.884L516.079 737.354L516.266 737.475H516.307L516.467 737.576L516.595 737.656L516.695 737.723L516.756 737.764L517.426 739.189L519.416 740.714L522.471 742.791L524.059 743.463L524.287 744.337L523.269 745.984L522.022 746.965L521.352 747.732L520.381 747.658L519.992 747.624L518.176 746.858L515.569 746.091L512.621 746.421L509.901 749.049L508.654 752.41L507.77 755.098L507.515 755.885L506.61 756.436L505.94 756.214L505.27 757.202L503.454 758.297L500.278 759.608L499.575 760.348L501.752 761.362L504.265 763.439L504.935 763.99L506.409 764.663L506.637 766.417L505.967 768.164L503.361 773.864L502.456 774.96L500.07 775.504L496.894 776.378L497.35 773.017L497.658 772.54L498.482 771.27L498.931 771.129L501.484 770.335L502 770.174L502.67 768.527V767.432L499.943 765.684L495.453 763.668L495.407 765.382L495.748 768.339L494.844 770.853L494.73 773.158L495.634 780.606L496.586 781.372L496.995 781.701L498.194 784H493.43L491.728 783.563L490.388 783.12L491.406 780.384L492.076 777.756L491.962 775.02L491.621 771.734L490.709 769.65L490.374 766.256L489.47 761.362H488.739H487.54L483.68 761.033L480.055 760.267L473.582 758.459L471.759 758.318L469.045 762.512L466.211 764.925L465.3 766.672L465.527 767.66L469.387 772.574L471.652 775.202L473.582 776.405L474.487 777.077L474.828 777.957L474.889 778.011L476.416 779.49L476.758 780.256L472.671 780.801L471.277 780.397L470.406 780.142L469.608 779.598L468.59 776.096L467.544 774.61L466.439 773.024L462.693 769.522L461.353 767.768L461.205 767.096L460.669 768.232L460.783 769.327L462.713 775.135L464.395 778.623L465.735 779.718L466.305 780.599L467.819 781.782L468.704 783.328L464.623 783.872L462.123 782.999L461.534 782.75L460.535 782.34L459.517 781.668L459.859 779.806L460.308 776.627L459.175 773.669L456.682 768.635L455.55 766.444L455.436 765.563L457.815 763.049V762.68L457.875 761.376L457.915 760.307L457.011 757.464L455.764 752.645L455.985 747.826L456.434 745.93C455.356 746.28 454.176 746.602 454.176 746.602L451.335 747.046L451 746.374L453.164 742.462Z" fill="#01241D"/>
<defs>
<linearGradient id="paint0_linear_1097_6238" x1="901" y1="367" x2="901" y2="648" gradientUnits="userSpaceOnUse">
<stop stop-color="#00231C"/>
<stop offset="0.520833" stop-color="#0A2B24"/>
<stop offset="1" stop-color="#0A2F28"/>
</linearGradient>
<linearGradient id="paint1_linear_1097_6238" x1="588.234" y1="555" x2="588.234" y2="1254.46" gradientUnits="userSpaceOnUse">
<stop stop-color="#13463C"/>
<stop offset="0.102924" stop-color="#06372E"/>
<stop offset="0.78125" stop-color="#06372E" stop-opacity="0"/>
</linearGradient>
<linearGradient id="paint2_linear_1097_6238" x1="589.234" y1="555" x2="589.234" y2="1254.46" gradientUnits="userSpaceOnUse">
<stop stop-color="#7EFFE7"/>
<stop offset="0.3125" stop-color="#06372E"/>
<stop offset="0.78125" stop-color="#06372E" stop-opacity="0"/>
</linearGradient>
<radialGradient id="paint3_radial_1097_6238" cx="0" cy="0" r="1" gradientUnits="userSpaceOnUse" gradientTransform="translate(494.5 787.875) rotate(-90) scale(6.125 20.125)">
<stop stop-color="#0E4339"/>
<stop offset="1" stop-color="#0E4339" stop-opacity="0"/>
</radialGradient>
<radialGradient id="paint4_radial_1097_6238" cx="0" cy="0" r="1" gradientUnits="userSpaceOnUse" gradientTransform="translate(494.5 786.5) rotate(-90) scale(3.5 14.875)">
<stop stop-color="#0E4339"/>
<stop offset="1" stop-color="#0E4339" stop-opacity="0"/>
</radialGradient>
</defs>
</svg>
