<svg width="204" height="41" viewBox="0 0 204 41" fill="none" xmlns="http://www.w3.org/2000/svg">
<path d="M55.1787 13.3521H57.3964L63.6018 27.6441H60.6721L59.3292 24.3738H53.0831L51.7809 27.6441H48.9121L55.1787 13.3521ZM58.434 22.1937L56.2163 16.38L53.9579 22.1937H58.434Z" fill="#FFE473"/>
<path d="M66.3518 13.3521H69.302L73.2287 24.1518L77.2774 13.3521H80.0448L74.2257 27.6441H72.0081L66.3518 13.3521Z" fill="#FFE473"/>
<path d="M89.2062 13.3521H91.4244L97.6293 27.6441H94.6996L93.3571 24.3738H87.1106L85.8083 27.6441H82.9399L89.2062 13.3521ZM92.4617 22.1937L90.2441 16.38L87.9857 22.1937H92.4617Z" fill="#FFE473"/>
<path d="M103.3 13.3521H105.864V25.3428H111.987V27.6441H103.3V13.3521Z" fill="#FFE473"/>
<path d="M122.578 13.3521H124.796L131.001 27.6441H128.072L126.729 24.3738H120.483L119.18 27.6441H116.312L122.578 13.3521ZM125.834 22.1937L123.616 16.38L121.358 22.1937H125.834Z" fill="#FFE473"/>
<path d="M136.672 13.3521H140.069L147.048 23.9701H147.089V13.3521H149.652V27.6441H146.397L139.276 16.6828H139.235V27.6441H136.672V13.3521Z" fill="#FFE473"/>
<path d="M166.822 16.703C166.293 16.1378 165.778 15.7611 165.276 15.5726C164.787 15.3842 164.292 15.29 163.791 15.29C163.045 15.29 162.366 15.4246 161.756 15.6938C161.159 15.9495 160.644 16.3128 160.21 16.7838C159.775 17.2414 159.437 17.7797 159.192 18.3987C158.962 19.0178 158.847 19.6839 158.847 20.3972C158.847 21.1642 158.962 21.8708 159.192 22.5167C159.437 23.1627 159.775 23.7212 160.21 24.1922C160.644 24.6632 161.159 25.0333 161.756 25.3025C162.366 25.5716 163.045 25.7062 163.791 25.7062C164.374 25.7062 164.937 25.5716 165.479 25.3025C166.035 25.0199 166.551 24.5758 167.026 23.9702L169.141 25.464C168.49 26.3522 167.697 26.9982 166.761 27.4019C165.825 27.8056 164.828 28.0075 163.77 28.0075C162.658 28.0075 161.634 27.8325 160.698 27.4826C159.775 27.1193 158.975 26.6146 158.297 25.9687C157.632 25.3092 157.11 24.5219 156.731 23.6068C156.351 22.6917 156.161 21.6756 156.161 20.5587C156.161 19.4148 156.351 18.3785 156.731 17.45C157.11 16.5079 157.632 15.7072 158.297 15.0478C158.975 14.3883 159.775 13.8837 160.698 13.5338C161.634 13.1705 162.658 12.9888 163.77 12.9888C164.747 12.9888 165.649 13.1637 166.476 13.5136C167.317 13.85 168.097 14.4287 168.816 15.2497L166.822 16.703Z" fill="#FFE473"/>
<path d="M174.932 13.3521H177.495V19.0446H184.229V13.3521H186.793V27.6441H184.229V21.3458H177.495V27.6441H174.932V13.3521Z" fill="#FFE473"/>
<path d="M194.081 13.3521H203.623V15.6533H196.645V19.1658H203.257V21.467H196.645V25.3428H203.99V27.6441H194.081V13.3521Z" fill="#FFE473"/>
<path fill-rule="evenodd" clip-rule="evenodd" d="M41.3237 20.5C41.3237 31.8218 32.0731 41 20.6619 41C9.25064 41 0 31.8218 0 20.5C0 9.17817 9.25064 0 20.6619 0C32.0731 0 41.3237 9.17817 41.3237 20.5ZM14.8069 28.6575H10.7971C9.95449 28.6575 9.53825 28.6575 9.28443 28.4964C9.01036 28.3201 8.84283 28.028 8.82252 27.7057C8.80732 27.4086 9.01541 27.046 9.43165 26.3208L19.3325 9.00581C19.7538 8.27053 19.967 7.90293 20.236 7.76693C20.5254 7.62093 20.8705 7.62093 21.1599 7.76693C21.4289 7.90293 21.6421 8.27053 22.0634 9.00581L24.0988 12.531L24.1092 12.549C24.5642 13.3379 24.7949 13.7379 24.8957 14.1577C25.0073 14.616 25.0073 15.0994 24.8957 15.5577C24.7942 15.9807 24.5657 16.3837 24.1038 17.1844L18.9031 26.3057L18.8897 26.3291C18.4316 27.1244 18.1995 27.5274 17.8778 27.8316C17.5276 28.164 17.1063 28.4057 16.6444 28.5417C16.2231 28.6575 15.751 28.6575 14.8069 28.6575ZM24.9332 28.658H30.6791C31.5268 28.658 31.9531 28.658 32.2069 28.4918C32.481 28.3155 32.6535 28.0184 32.6688 27.6961C32.6835 27.4088 32.4799 27.0602 32.0809 26.3772C32.0673 26.3539 32.0534 26.3302 32.0394 26.3062L29.1614 21.4212L29.1286 21.3663C28.7242 20.6876 28.52 20.345 28.2579 20.2126C27.9686 20.0665 27.6285 20.0665 27.3392 20.2126C27.0752 20.3485 26.862 20.7061 26.4407 21.4262L23.5729 26.3112L23.5631 26.328C23.1433 27.047 22.9335 27.4063 22.9486 27.7012C22.9689 28.0235 23.1364 28.3206 23.4105 28.4968C23.6592 28.658 24.0855 28.658 24.9332 28.658Z" fill="#FFE473"/>
</svg>
