<svg width="217" height="42" viewBox="0 0 217 42" fill="none" xmlns="http://www.w3.org/2000/svg">
<path d="M191.606 21.0583C190.49 20.297 189.273 19.7895 188.056 19.1298C187.295 18.7238 186.484 18.3178 185.824 17.7595C184.709 16.846 184.911 15.019 186.129 14.207C187.802 13.0905 190.591 13.6995 190.896 15.9833C190.896 16.034 190.946 16.0848 190.997 16.0848H193.533C193.584 16.0848 193.634 16.034 193.634 15.9833C193.482 14.41 192.874 13.0905 191.758 12.2278C190.693 11.4158 189.476 11.0098 188.157 11.0098C181.463 11.0098 180.854 18.1148 184.455 20.3478C184.861 20.6015 188.411 22.3778 189.679 23.1898C190.946 23.951 191.301 25.372 190.794 26.4885C190.287 27.5035 189.019 28.214 187.751 28.1125C186.331 28.011 185.266 27.2498 184.861 26.0825C184.81 25.8795 184.759 25.4735 184.759 25.2705C184.759 25.2197 184.709 25.169 184.658 25.169H181.919C181.869 25.169 181.818 25.2197 181.818 25.2705C181.818 27.2497 182.325 28.3662 183.644 29.3812C184.911 30.3455 186.281 30.7515 187.751 30.7515C191.504 30.7515 193.431 28.62 193.837 26.4377C194.141 24.3063 193.533 22.3778 191.606 21.0583Z" fill="#D3BDB0"/>
<path d="M72.0721 11.4158H70.855H69.5364C69.4857 11.4158 69.435 11.4665 69.435 11.4665L67.1528 18.9268C67.1021 19.0283 67.0007 19.0283 66.95 18.9268L64.6678 11.4665C64.6678 11.4158 64.6171 11.4158 64.5664 11.4158H63.2478H62.0307H60.4078C60.3571 11.4158 60.3064 11.4665 60.3064 11.5173V30.5485C60.3064 30.5993 60.3571 30.65 60.4078 30.65H63.1464C63.1971 30.65 63.2478 30.5993 63.2478 30.5485V16.0848C63.2478 15.9833 63.4 15.9325 63.4507 16.034L65.7328 23.545L65.885 24.0525C65.885 24.1033 65.9357 24.1033 65.9864 24.1033H68.1164C68.1671 24.1033 68.2178 24.0525 68.2178 24.0525L68.37 23.545L70.6521 16.034C70.7028 15.9325 70.855 15.9325 70.855 16.0848V30.5485C70.855 30.5993 70.9057 30.65 70.9564 30.65H73.695C73.7457 30.65 73.7964 30.5993 73.7964 30.5485V11.5173C73.7964 11.4665 73.7457 11.4158 73.695 11.4158H72.0721Z" fill="#D3BDB0"/>
<path d="M149.462 11.4158C149.411 11.4158 149.361 11.4665 149.361 11.4665L147.079 18.9268C147.028 19.0283 146.926 19.0283 146.876 18.9268L144.594 11.4665C144.594 11.4158 144.543 11.4158 144.492 11.4158H140.283C140.232 11.4158 140.181 11.4665 140.181 11.5173V30.5485C140.181 30.5993 140.232 30.65 140.283 30.65H143.021C143.072 30.65 143.123 30.5993 143.123 30.5485V16.0848C143.123 15.9833 143.275 15.9325 143.326 16.034L145.608 23.545L145.76 24.0525C145.76 24.1033 145.811 24.1033 145.861 24.1033H147.991C148.042 24.1033 148.093 24.0525 148.093 24.0525L148.245 23.545L150.527 16.034C150.578 15.9325 150.73 15.9325 150.73 16.0848V30.5485C150.73 30.5993 150.781 30.65 150.831 30.65H153.57C153.621 30.65 153.671 30.5993 153.671 30.5485V11.5173C153.671 11.4665 153.621 11.4158 153.57 11.4158H149.462Z" fill="#D3BDB0"/>
<path d="M113.962 11.4158H108.84H106.101H100.929C100.878 11.4158 100.827 11.4665 100.827 11.5173V13.9025C100.827 13.9533 100.878 14.004 100.929 14.004H105.949V30.5485C105.949 30.5993 106 30.65 106.051 30.65H108.789C108.84 30.65 108.891 30.5993 108.891 30.5485V14.004H113.911C113.962 14.004 114.013 13.9533 114.013 13.9025V11.5173C114.064 11.4665 114.013 11.4158 113.962 11.4158Z" fill="#D3BDB0"/>
<path d="M130.191 30.65H132.676C132.727 30.65 132.777 30.5992 132.777 30.4977L127.604 11.4157C127.604 11.365 127.554 11.365 127.503 11.365H126.539H124.866H123.902C123.851 11.365 123.801 11.4157 123.801 11.4157L118.628 30.4977C118.628 30.5485 118.679 30.65 118.729 30.65H121.214C121.265 30.65 121.316 30.5992 121.316 30.5992L122.837 25.0167C122.837 24.966 122.888 24.966 122.939 24.966H128.466C128.517 24.966 128.568 25.0167 128.568 25.0167L130.089 30.5992C130.089 30.5992 130.14 30.65 130.191 30.65ZM123.598 22.2255L125.627 14.7652C125.677 14.6637 125.779 14.6637 125.829 14.7652L127.858 22.2255C127.858 22.2762 127.807 22.3777 127.756 22.3777H123.75C123.649 22.3777 123.598 22.2762 123.598 22.2255Z" fill="#D3BDB0"/>
<path d="M172.892 30.65H175.377C175.428 30.65 175.479 30.5992 175.479 30.4977L170.306 11.4157C170.306 11.365 170.255 11.365 170.204 11.365H169.241H167.567H166.604C166.553 11.365 166.502 11.4157 166.502 11.4157L161.329 30.4977C161.329 30.5485 161.38 30.65 161.431 30.65H163.916C163.966 30.65 164.017 30.5992 164.017 30.5992L165.539 25.0167C165.539 24.966 165.589 24.966 165.64 24.966H171.168C171.219 24.966 171.269 25.0167 171.269 25.0167L172.791 30.5992C172.791 30.5992 172.841 30.65 172.892 30.65ZM166.299 22.2255L168.328 14.7652C168.379 14.6637 168.48 14.6637 168.531 14.7652L170.559 22.2255C170.559 22.2762 170.509 22.3777 170.458 22.3777H166.451C166.35 22.3777 166.299 22.2762 166.299 22.2255Z" fill="#D3BDB0"/>
<path d="M84.9536 27.808V21.921C84.9536 21.8703 85.0044 21.8195 85.0551 21.8195H92.4086C92.4594 21.8195 92.5101 21.7688 92.5101 21.718V19.3328C92.5101 19.282 92.4594 19.2313 92.4086 19.2313H85.0551C85.0044 19.2313 84.9536 19.1805 84.9536 19.1298V14.1055C84.9536 14.0548 85.0044 14.004 85.0551 14.004H93.3722C93.4229 14.004 93.4736 13.9533 93.4736 13.9025V11.5173C93.4736 11.4665 93.4229 11.4158 93.3722 11.4158H84.9536H82.1136C82.0629 11.4158 82.0122 11.4665 82.0122 11.5173V14.004V19.282V21.8703V27.9603V30.5485C82.0122 30.5993 82.0629 30.65 82.1136 30.65H84.9536H93.7272C93.7779 30.65 93.8286 30.5993 93.8286 30.5485V28.0618C93.8286 28.011 93.7779 27.9603 93.7272 27.9603H85.0044C85.0044 27.9095 84.9536 27.8588 84.9536 27.808Z" fill="#D3BDB0"/>
<path d="M216.76 30.447L207.226 20.6015C207.175 20.5507 207.175 20.5 207.226 20.4492L215.796 11.5172C215.847 11.4665 215.796 11.365 215.746 11.365H212.246C212.196 11.365 212.196 11.365 212.196 11.4157L204.893 19.0282C204.842 19.079 204.741 19.0282 204.741 18.9775V11.568C204.741 11.5172 204.69 11.4665 204.639 11.4665H201.85C201.799 11.4665 201.749 11.5172 201.749 11.568V30.5992C201.749 30.65 201.799 30.7007 201.85 30.7007H204.589C204.639 30.7007 204.69 30.65 204.69 30.5992V22.2255C204.69 22.124 204.791 22.0732 204.842 22.1747L213.058 30.7007L213.109 30.7515H216.608C216.76 30.65 216.811 30.4977 216.76 30.447Z" fill="#D3BDB0"/>
<path d="M41.4915 1.16406L24.8572 13.5471L27.9507 6.23906L41.4915 1.16406Z" fill="#E17726" stroke="#E17726" stroke-linecap="round" stroke-linejoin="round"/>
<path d="M3.05005 1.16406L19.5829 13.6486L16.6415 6.23906L3.05005 1.16406Z" fill="#E27625" stroke="#E27625" stroke-linecap="round" stroke-linejoin="round"/>
<path d="M35.5071 29.8379L31.0442 36.6384L40.5785 39.2774L43.2663 29.9901L35.5071 29.8379Z" fill="#E27625" stroke="#E27625" stroke-linecap="round" stroke-linejoin="round"/>
<path d="M1.32568 29.9901L4.01354 39.2774L13.4971 36.6384L9.08497 29.8379L1.32568 29.9901Z" fill="#E27625" stroke="#E27625" stroke-linecap="round" stroke-linejoin="round"/>
<path d="M12.9899 18.3683L10.3528 22.3776L19.7349 22.7836L19.4306 12.6335L12.9899 18.3683Z" fill="#E27625" stroke="#E27625" stroke-linecap="round" stroke-linejoin="round"/>
<path d="M31.6022 18.3682L25.06 12.532L24.8572 22.7835L34.2393 22.3775L31.6022 18.3682Z" fill="#E27625" stroke="#E27625" stroke-linecap="round" stroke-linejoin="round"/>
<path d="M13.4971 36.6383L19.1771 33.8978L14.2578 30.0408L13.4971 36.6383Z" fill="#E27625" stroke="#E27625" stroke-linecap="round" stroke-linejoin="round"/>
<path d="M25.415 33.8978L31.0443 36.6383L30.2836 30.0408L25.415 33.8978Z" fill="#E27625" stroke="#E27625" stroke-linecap="round" stroke-linejoin="round"/>
<path d="M31.0443 36.6382L25.415 33.8977L25.8715 37.5517L25.8208 39.125L31.0443 36.6382Z" fill="#D5BFB2" stroke="#D5BFB2" stroke-linecap="round" stroke-linejoin="round"/>
<path d="M13.4971 36.6382L18.7714 39.125L18.7206 37.5517L19.1771 33.8977L13.4971 36.6382Z" fill="#D5BFB2" stroke="#D5BFB2" stroke-linecap="round" stroke-linejoin="round"/>
<path d="M18.8729 27.6049L14.1565 26.2347L17.4529 24.7122L18.8729 27.6049Z" fill="#233447" stroke="#233447" stroke-linecap="round" stroke-linejoin="round"/>
<path d="M25.7192 27.6049L27.0885 24.7122L30.4357 26.2347L25.7192 27.6049Z" fill="#233447" stroke="#233447" stroke-linecap="round" stroke-linejoin="round"/>
<path d="M13.4971 36.6382L14.3085 29.8376L9.08496 29.9899L13.4971 36.6382Z" fill="#CC6228" stroke="#CC6228" stroke-linecap="round" stroke-linejoin="round"/>
<path d="M30.2834 29.8376L31.0442 36.6382L35.507 29.9899L30.2834 29.8376Z" fill="#CC6228" stroke="#CC6228" stroke-linecap="round" stroke-linejoin="round"/>
<path d="M34.2393 22.3774L24.8572 22.7834L25.7193 27.6047L27.0886 24.7119L30.4357 26.2344L34.2393 22.3774Z" fill="#CC6228" stroke="#CC6228" stroke-linecap="round" stroke-linejoin="round"/>
<path d="M14.1564 26.2344L17.4528 24.7119L18.8728 27.6047L19.7349 22.7834L10.3528 22.3774L14.1564 26.2344Z" fill="#CC6228" stroke="#CC6228" stroke-linecap="round" stroke-linejoin="round"/>
<path d="M10.3528 22.3774L14.2578 30.0407L14.1564 26.2344L10.3528 22.3774Z" fill="#E27525" stroke="#E27525" stroke-linecap="round" stroke-linejoin="round"/>
<path d="M30.4356 26.2344L30.2834 30.0407L34.2392 22.3774L30.4356 26.2344Z" fill="#E27525" stroke="#E27525" stroke-linecap="round" stroke-linejoin="round"/>
<path d="M19.7349 22.7834L18.8728 27.6047L19.9378 33.3394L20.1914 25.7777L19.7349 22.7834Z" fill="#E27525" stroke="#E27525" stroke-linecap="round" stroke-linejoin="round"/>
<path d="M24.8571 22.7834L24.4006 25.7777L24.6035 33.3394L25.7192 27.6047L24.8571 22.7834Z" fill="#E27525" stroke="#E27525" stroke-linecap="round" stroke-linejoin="round"/>
<path d="M25.7192 27.6049L24.6035 33.3396L25.4149 33.8979L30.2835 30.0409L30.4357 26.2346L25.7192 27.6049Z" fill="#F5841F" stroke="#F5841F" stroke-linecap="round" stroke-linejoin="round"/>
<path d="M14.1565 26.2346L14.2579 30.0409L19.1772 33.8979L19.9379 33.3396L18.8729 27.6049L14.1565 26.2346Z" fill="#F5841F" stroke="#F5841F" stroke-linecap="round" stroke-linejoin="round"/>
<path d="M25.8206 39.1252L25.8714 37.5519L25.4149 37.1967H19.1264L18.7206 37.5519L18.7714 39.1252L13.4971 36.6384L15.3228 38.1609L19.0756 40.7492H25.4656L29.2185 38.1609L31.0442 36.6384L25.8206 39.1252Z" fill="#C0AC9D" stroke="#C0AC9D" stroke-linecap="round" stroke-linejoin="round"/>
<path d="M25.415 33.8978L24.6036 33.3396H19.9378L19.1771 33.8978L18.7207 37.5519L19.1264 37.1966H25.415L25.8714 37.5519L25.415 33.8978Z" fill="#161616" stroke="#161616" stroke-linecap="round" stroke-linejoin="round"/>
<path d="M42.2015 14.3591L43.6215 7.50781L41.4915 1.16406L25.415 13.1411L31.6022 18.3683L40.325 20.9058L42.2522 18.6728L41.4408 18.0638L42.7593 16.8458L41.745 16.0338L43.0636 15.0188L42.2015 14.3591Z" fill="#763E1A" stroke="#763E1A" stroke-linecap="round" stroke-linejoin="round"/>
<path d="M0.970703 7.50781L2.3907 14.3591L1.47785 15.0188L2.79642 16.0338L1.78213 16.8458L3.15142 18.0638L2.28927 18.6728L4.21642 20.9058L12.99 18.3683L19.1771 13.1411L3.04999 1.16406L0.970703 7.50781Z" fill="#763E1A" stroke="#763E1A" stroke-linecap="round" stroke-linejoin="round"/>
<path d="M40.3249 20.9059L31.602 18.3684L34.2392 22.3777L30.2834 30.0409L35.507 29.9902H43.2663L40.3249 20.9059Z" fill="#F5841F" stroke="#F5841F" stroke-linecap="round" stroke-linejoin="round"/>
<path d="M12.99 18.3684L4.2164 20.9059L1.32568 29.9902H9.08497L14.2578 30.0409L10.3528 22.3777L12.99 18.3684Z" fill="#F5841F" stroke="#F5841F" stroke-linecap="round" stroke-linejoin="round"/>
<path d="M24.8571 22.7835L25.4149 13.141L27.9506 6.23901H16.6414L19.1771 13.141L19.7349 22.7835L19.9378 25.8285V33.3395H24.6035V25.8285L24.8571 22.7835Z" fill="#F5841F" stroke="#F5841F" stroke-linecap="round" stroke-linejoin="round"/>
</svg>
