<svg width="182" height="38" viewBox="0 0 182 38" fill="none" xmlns="http://www.w3.org/2000/svg">
<g clip-path="url(#clip0_1620_6462)">
<path d="M32.0683 11.6089C31.2843 11.1269 30.2649 11.1269 29.4025 11.6089L23.2867 15.3044L19.1312 17.7145L13.0155 21.4102C12.2315 21.8922 11.2122 21.8922 10.3497 21.4102L5.48847 18.518C4.7044 18.036 4.15555 17.1523 4.15555 16.1881V10.4841C4.15555 9.52008 4.62599 8.63637 5.48847 8.15434L10.2713 5.34249C11.0553 4.86046 12.0746 4.86046 12.9371 5.34249L17.7199 8.15434C18.5039 8.63637 19.0528 9.52008 19.0528 10.4841V14.1797L23.2083 11.6892V7.99366C23.2083 7.0296 22.738 6.14588 21.8754 5.66385L13.0155 0.361522C12.2315 -0.120508 11.2122 -0.120508 10.3497 0.361522L1.33292 5.66385C0.47044 6.14588 0 7.0296 0 7.99366V18.6787C0 19.6427 0.47044 20.5264 1.33292 21.0084L10.3497 26.3107C11.1337 26.7929 12.1531 26.7929 13.0155 26.3107L19.1312 22.6955L23.2867 20.2051L29.4025 16.5898C30.1865 16.1078 31.2059 16.1078 32.0683 16.5898L36.8511 19.4017C37.6352 19.8837 38.1841 20.7675 38.1841 21.7315V27.4355C38.1841 28.3995 37.7136 29.2833 36.8511 29.7653L32.0683 32.6576C31.2843 33.1396 30.2649 33.1396 29.4025 32.6576L24.6197 29.8457C23.8356 29.3637 23.2867 28.4799 23.2867 27.5158V23.8203L19.1312 26.3107V30.0063C19.1312 30.9704 19.6016 31.8541 20.4642 32.3361L29.4809 37.6385C30.2649 38.1205 31.2843 38.1205 32.1467 37.6385L41.1635 32.3361C41.9475 31.8541 42.4964 30.9704 42.4964 30.0063V19.3213C42.4964 18.3573 42.0259 17.4736 41.1635 16.9916L32.0683 11.6089Z" fill="#7950DD"/>
<path d="M59.0515 34.5829V25.7123C60.0076 26.9236 61.7428 27.6004 63.7615 27.6004C68.8964 27.6004 72.367 23.9311 72.367 18.3379C72.367 12.7448 69.1797 9.07544 64.1864 9.07544C61.8845 9.07544 60.1139 9.93044 59.0515 11.3198V9.36044H54.1289V34.5829H59.0515ZM63.1594 23.3254C60.5034 23.3254 58.7681 21.3304 58.7681 18.3379C58.7681 15.3098 60.5034 13.3148 63.1594 13.3148C65.7446 13.3148 67.5153 15.3098 67.5153 18.3379C67.5153 21.3304 65.7446 23.3254 63.1594 23.3254Z" fill="white"/>
<path d="M83.5445 27.6004C89.0336 27.6004 92.9646 23.6817 92.9646 18.3379C92.9646 12.9942 89.0336 9.07544 83.5445 9.07544C78.0555 9.07544 74.1245 12.9942 74.1245 18.3379C74.1245 23.6817 78.0555 27.6004 83.5445 27.6004ZM83.5445 23.3254C80.8885 23.3254 79.0824 21.2948 79.0824 18.3379C79.0824 15.3454 80.8885 13.3148 83.5445 13.3148C86.2006 13.3148 88.0067 15.3454 88.0067 18.3379C88.0067 21.2948 86.2006 23.3254 83.5445 23.3254Z" fill="white"/>
<path d="M100.863 27.3155V1.55859H95.9404V27.3155H100.863Z" fill="white"/>
<path d="M115.66 9.36035L111.942 20.9385L108.188 9.36035H103.159L109.64 27.1729L107.019 34.5829H111.729L114.243 27.2441L120.724 9.36035H115.66Z" fill="white"/>
<path d="M134.549 11.1417C133.557 9.89481 131.787 9.07544 129.627 9.07544C124.42 9.07544 121.269 12.7448 121.269 18.3379C121.269 23.9311 124.42 27.6004 129.697 27.6004C131.787 27.6004 133.663 26.8167 134.585 25.4986V27.8498C134.585 29.5242 133.487 30.6998 131.999 30.6998H123.783V34.5829H132.778C136.815 34.5829 139.507 32.1248 139.507 28.3842V9.36044H134.549V11.1417ZM130.476 23.3254C127.856 23.3254 126.12 21.3661 126.12 18.3379C126.12 15.3098 127.856 13.3148 130.476 13.3148C133.132 13.3148 134.868 15.3098 134.868 18.3379C134.868 21.3661 133.132 23.3254 130.476 23.3254Z" fill="white"/>
<path d="M151.917 27.6004C157.406 27.6004 161.337 23.6817 161.337 18.3379C161.337 12.9942 157.406 9.07544 151.917 9.07544C146.428 9.07544 142.497 12.9942 142.497 18.3379C142.497 23.6817 146.428 27.6004 151.917 27.6004ZM151.917 23.3254C149.26 23.3254 147.455 21.2948 147.455 18.3379C147.455 15.3454 149.26 13.3148 151.917 13.3148C154.573 13.3148 156.379 15.3454 156.379 18.3379C156.379 21.2948 154.573 23.3254 151.917 23.3254Z" fill="white"/>
<path d="M168.988 27.3154V17.4829C168.988 15.1673 170.51 13.4929 172.67 13.4929C174.724 13.4929 176.105 15.0604 176.105 17.2336V27.3154H181.063V16.1292C181.063 11.9967 178.442 9.07544 174.405 9.07544C171.961 9.07544 169.978 10.1086 168.988 11.8542V9.36044H164.03V27.3154H168.988Z" fill="white"/>
</g>
<defs>
<clipPath id="clip0_1620_6462">
<rect width="182" height="38" fill="white"/>
</clipPath>
</defs>
</svg>
