<svg width="16" height="28" viewBox="0 0 16 28" fill="none" xmlns="http://www.w3.org/2000/svg">
<path d="M11.6523 13.0938C12.8242 13.25 13.8398 13.8359 14.6992 14.8516C15.5586 15.8672 15.8711 17.2734 15.6367 19.0703C15.2461 21.3359 14.0742 23.25 12.1211 24.8125C10.168 26.375 8.05859 27 5.79297 26.6875C3.76172 26.4531 2.43359 25.4766 1.80859 23.7578C1.18359 22.0391 1.06641 20.0859 1.45703 17.8984C1.69141 16.8047 2.04297 15.5156 2.51172 14.0312C2.98047 12.5469 3.64453 11.0234 4.50391 9.46094C5.36328 7.89844 6.41797 6.375 7.66797 4.89062C8.99609 3.40625 10.5586 2.07812 12.3555 0.90625C13.1367 0.4375 13.7227 0.242188 14.1133 0.320312C14.582 0.320312 14.8945 0.515625 15.0508 0.90625C15.207 1.21875 15.207 1.64844 15.0508 2.19531C14.9727 2.66406 14.6992 3.13281 14.2305 3.60156C13.4492 4.61719 12.5508 5.98438 11.5352 7.70312C10.5195 9.42187 9.81641 11.2969 9.42578 13.3281C10.2852 13.0938 11.0273 13.0156 11.6523 13.0938Z" fill="white"/>
</svg>
