<svg width="22" height="22" viewBox="0 0 22 22" fill="none" xmlns="http://www.w3.org/2000/svg">
<path d="M8.81893 6.00899C9.52404 5.9074 10.271 6.67825 10.4861 7.7419C10.7012 8.79957 10.3128 9.74371 9.6077 9.85127C8.90856 9.95883 8.15564 9.18798 7.93454 8.12433C7.71345 7.06666 8.11381 6.12252 8.81893 6.00899V6.00899ZM13.0914 6.00899C13.8025 6.12252 14.1969 7.06666 13.9878 8.12433C13.7607 9.18798 13.0138 9.95883 12.3086 9.85127C11.5976 9.74371 11.2091 8.79957 11.4302 7.7419C11.6454 6.67825 12.3923 5.9074 13.0914 6.00899V6.00899ZM5.62201 8.75774C6.30322 8.46494 7.22943 8.99676 7.71345 9.92297C8.16759 10.8671 8.01223 11.859 7.33699 12.1519C6.66175 12.4447 5.74152 11.9188 5.26945 10.9806C4.79738 10.0425 4.9647 9.04457 5.62201 8.75774ZM16.378 8.75774C17.0353 9.04457 17.2026 10.0425 16.7305 10.9806C16.2585 11.9188 15.3382 12.4447 14.663 12.1519C13.9878 11.859 13.8324 10.8671 14.2866 9.92297C14.7706 8.99676 15.6968 8.46494 16.378 8.75774ZM15.3801 15.1994C15.404 15.7611 14.9737 16.3825 14.4598 16.6156C13.3902 17.1056 12.1234 16.0897 10.9343 16.0897C9.74514 16.0897 8.46637 17.1474 7.41467 16.6156C6.81712 16.3228 6.4048 15.546 6.48249 14.9006C6.59005 14.0102 7.65967 13.5322 8.29308 12.8809C9.13563 12.0383 9.73318 10.4548 10.9343 10.4548C12.1294 10.4548 12.7628 12.0144 13.5695 12.8809C14.2328 13.6099 15.3382 14.2254 15.3801 15.1994Z" fill="#FB3541"/>
</svg>
