<?xml version="1.0" encoding="UTF-8"?>
<svg width="20px" height="20px" viewBox="0 0 20 20" version="1.1" xmlns="http://www.w3.org/2000/svg" xmlns:xlink="http://www.w3.org/1999/xlink">
    <title>attack_icon</title>
    <g id="Symbols" stroke="none" stroke-width="1" fill="none" fill-rule="evenodd">
        <g id="card_exotic" transform="translate(-51.000000, -289.000000)" fill="#738D99" fill-rule="nonzero">
            <g id="Combined-Shape" transform="translate(49.000000, 287.000000)">
                <path d="M12.1773588,11.0690015 C12.6041263,11.1184976 13.0126444,11.2702609 13.3682164,11.5114018 C14.0038837,12.0159037 14.490618,12.6835567 14.7764603,13.4430891 C15.0636152,13.9938006 15.4805154,14.466331 15.9911541,14.8198692 C16.5041096,15.1564366 17.1781979,15.2079228 17.6263188,15.6569972 C18.1845442,16.2277699 18.4893786,16.9993069 18.4720279,17.7974898 L18.4720279,17.7974898 L18.4720279,17.8566037 C18.4634469,18.0034348 18.451052,18.148359 18.4367503,18.2894694 C18.3238549,19.4373875 17.7508004,20.4906245 16.8483046,21.2089297 C15.9834362,21.8937316 14.8556798,22.1515846 13.7791528,21.910668 C13.4805868,21.8451552 13.1920339,21.7403143 12.9210489,21.5988903 C12.4579534,21.3509055 11.9015315,21.3509055 11.438436,21.5988903 C11.1673384,21.7400583 10.8788201,21.8448866 10.580332,21.910668 C9.50380447,22.151866 8.37592701,21.8939853 7.51118029,21.2089297 C6.60868444,20.4906245 6.03562995,19.4373875 5.92273456,18.2894694 C5.90747938,18.148359 5.89572018,18.0040704 5.88745695,17.8566037 L5.88745695,17.8566037 L5.88745695,17.7974898 C5.86756977,16.9995864 6.17122346,16.2275563 6.72935226,15.6569972 C7.17651976,15.2079228 7.85060807,15.1564366 8.36356354,14.8198692 C8.87453615,14.4667068 9.29151679,13.9940851 9.57825733,13.4430891 C9.86409967,12.6835567 10.3508339,12.0159037 10.9865012,11.5114018 C11.341934,11.2699909 11.7505204,11.1182022 12.1773588,11.0690015 Z M5.19168844,10.1180418 C6.1184767,9.73140281 7.20738795,10.2272121 7.6238398,11.2254628 C8.04029165,12.2237135 7.62658225,13.3463885 6.69979399,13.7330275 C5.77300573,14.1196665 4.68409448,13.6238573 4.26764263,12.6256065 C3.85119079,11.6273558 4.26490019,10.5046809 5.19168844,10.1180418 Z M18.8324933,10.1180418 C19.7592816,10.5046809 20.172991,11.6273558 19.7565391,12.6256065 C19.3400873,13.6238573 18.251176,14.1196665 17.3243878,13.7330275 C16.3975995,13.3463885 15.9838901,12.2237135 16.400342,11.2254628 C16.8167938,10.2272121 17.9057051,9.73140281 18.8324933,10.1180418 Z M9.06274543,7.10302139 C10.034324,6.84912911 11.0436347,7.49166034 11.317104,8.53815505 C11.5905734,9.58464977 11.024644,10.6388217 10.0530654,10.892714 C9.08148686,11.1466063 8.07217613,10.504075 7.79870681,9.45758033 C7.52523749,8.41108561 8.09116686,7.35691367 9.06274543,7.10302139 Z M14.9819381,7.10302139 C15.9535167,7.35691367 16.5194461,8.41108561 16.2459768,9.45758033 C15.9725074,10.504075 14.9631967,11.1466063 13.9916181,10.892714 C13.0200396,10.6388217 12.4541102,9.58464977 12.7275795,8.53815505 C13.0010488,7.49166034 14.0103596,6.84912911 14.9819381,7.10302139 Z M2,5.709121 C2.78922221,6.09836016 4.53917554,8.3106226 5.12038395,8.97136127 C4.92984845,8.98675068 4.74445527,9.04084829 4.57554427,9.13034514 C4.23715841,9.30659864 3.95837949,9.5788865 3.77420423,9.91302683 C3.42252924,9.10416424 2.13257153,6.58110654 2,5.709121 Z M22,5.709121 C21.8674285,6.58110654 20.5774708,9.10416424 20.2257958,9.91302683 C20.0416205,9.5788865 19.7628416,9.30659864 19.4244557,9.13034514 C19.2555447,9.04084829 19.0701516,8.98675068 18.8796161,8.97136127 C19.4608245,8.3106226 21.2107778,6.09836016 22,5.709121 Z M8.00671619,2.00098045 C8.59265873,2.65752455 9.38645911,5.36424262 9.6778291,6.19459335 C9.49540268,6.13748631 9.3032438,6.11819524 9.11310614,6.13790009 C8.73333451,6.17455792 8.37285437,6.3225864 8.07691887,6.56340266 C8.05385675,5.68169855 7.80298284,2.85913353 8.00671619,2.00098045 Z M16.4217398,2 C16.5954,2.86474051 16.2461728,5.67683073 16.1923537,6.55719287 C15.9050028,6.30619531 15.5499084,6.14567643 15.1716475,6.09578709 C14.9823133,6.06945853 14.7895982,6.08203161 14.6052899,6.13273727 C14.9254613,5.31306103 15.8132412,2.63569506 16.4217398,2 Z"></path>
            </g>
        </g>
    </g>
</svg>