<svg width="22" height="22" viewBox="0 0 22 22" fill="none" xmlns="http://www.w3.org/2000/svg">
<path d="M8.36449 5.01002C9.17033 4.89678 10.024 5.75605 10.2698 6.94171C10.5157 8.12071 10.0718 9.17315 9.26594 9.29305C8.46692 9.41295 7.60645 8.55368 7.35376 7.36802C7.10108 6.18902 7.55864 5.13658 8.36449 5.01002V5.01002ZM13.2474 5.01002C14.06 5.13658 14.5108 6.18902 14.2717 7.36802C14.0122 8.55368 13.1586 9.41295 12.3527 9.29305C11.5401 9.17315 11.0962 8.12071 11.3488 6.94171C11.5947 5.75605 12.4483 4.89678 13.2474 5.01002V5.01002ZM4.71087 8.07408C5.48939 7.7477 6.54792 8.34053 7.10108 9.37298C7.6201 10.4254 7.44254 11.5311 6.67085 11.8575C5.89915 12.1839 4.84745 11.5978 4.30794 10.552C3.76844 9.5062 3.95965 8.39381 4.71087 8.07408ZM17.0034 8.07408C17.7546 8.39381 17.9458 9.5062 17.4063 10.552C16.8668 11.5978 15.8151 12.1839 15.0434 11.8575C14.2717 11.5311 14.0942 10.4254 14.6132 9.37298C15.1664 8.34053 16.2249 7.7477 17.0034 8.07408ZM15.8629 15.2547C15.8903 15.8808 15.3986 16.5735 14.8112 16.8333C13.5888 17.3795 12.141 16.2471 10.782 16.2471C9.42301 16.2471 7.96156 17.4261 6.75962 16.8333C6.07671 16.5069 5.60549 15.641 5.69427 14.9216C5.8172 13.9291 7.03962 13.3962 7.76352 12.6702C8.72643 11.731 9.40935 9.96581 10.782 9.96581C12.1479 9.96581 12.8718 11.7043 13.7937 12.6702C14.5517 13.4828 15.8151 14.1689 15.8629 15.2547Z" fill="#39B9A3"/>
</svg>
