<svg width="22" height="22" viewBox="0 0 22 22" fill="none" xmlns="http://www.w3.org/2000/svg">
<path d="M17.1687 6.81606L11.6201 4.07342C11.5236 4.02538 11.417 4.00024 11.3088 4C11.2007 3.99976 11.094 4.02443 10.9973 4.07205L5.41112 6.81469C5.20443 6.91754 5.06177 7.11432 5.03254 7.34059C5.02349 7.4071 4.23571 14.0196 10.9764 17.631C11.08 17.6867 11.1963 17.7153 11.3144 17.7143C11.4324 17.7132 11.5482 17.6824 11.6507 17.6248C18.1276 14.0189 17.5758 7.63268 17.5493 7.36253C17.5379 7.24717 17.497 7.13653 17.4305 7.04097C17.3639 6.9454 17.2738 6.86802 17.1687 6.81606Z" fill="#39B9A3"/>
<path d="M12.1798 11.3822L12.1798 10.0997L14.5892 11.253C14.6402 11.2769 14.7144 11.2553 14.7144 11.2163L14.7144 8.98369C14.7144 8.96739 14.6999 8.95167 14.6759 8.94352L10.3682 7.43513C10.3172 7.41708 10.2527 7.4392 10.2527 7.4753L10.2527 8.4906L6.81049 7.97014C6.73541 7.95908 6.68246 8.0138 6.73637 8.04757L12.048 11.4142C12.0951 11.4445 12.1798 11.4241 12.1798 11.3822Z" fill="#09241F"/>
<path d="M11.5517 14.8304L11.5517 14.0976L12.9285 14.7566C12.9576 14.7702 13 14.7579 13 14.7356L13 13.4599C13 13.4505 12.9917 13.4416 12.978 13.4369L10.5165 12.575C10.4874 12.5646 10.4505 12.5773 10.4505 12.5979L10.4505 13.1781L8.48351 12.8807C8.4406 12.8744 8.41035 12.9056 8.44115 12.9249L11.4763 14.8487C11.5033 14.866 11.5517 14.8544 11.5517 14.8304Z" fill="#09241F"/>
</svg>
