<svg width="22" height="22" viewBox="0 0 22 22" fill="none" xmlns="http://www.w3.org/2000/svg">
<path d="M16.4906 7.46405L11.7072 5.06424C11.624 5.02221 11.5321 5.00021 11.4389 5C11.3456 4.99979 11.2537 5.02138 11.1703 5.06304L6.35443 7.46285C6.17624 7.55285 6.05325 7.72503 6.02805 7.92302C6.02025 7.98121 5.34111 13.7672 11.1523 16.9271C11.2416 16.9758 11.3419 17.0009 11.4436 17C11.5454 16.999 11.6452 16.9721 11.7336 16.9217C17.3174 13.7666 16.8416 8.1786 16.8188 7.94222C16.809 7.84127 16.7737 7.74447 16.7163 7.66085C16.6589 7.57723 16.5813 7.50952 16.4906 7.46405V7.46405Z" fill="#FFD233"/>
</svg>
