<svg width="22" height="22" viewBox="0 0 22 22" fill="none" xmlns="http://www.w3.org/2000/svg">
<path d="M17.1687 6.81606L11.6201 4.07342C11.5236 4.02538 11.417 4.00024 11.3088 4C11.2007 3.99976 11.094 4.02443 10.9973 4.07205L5.41112 6.81469C5.20443 6.91754 5.06177 7.11432 5.03254 7.34059C5.02349 7.4071 4.23571 14.0196 10.9764 17.631C11.08 17.6867 11.1963 17.7153 11.3144 17.7143C11.4324 17.7132 11.5482 17.6824 11.6507 17.6248C18.1276 14.0189 17.5758 7.63268 17.5493 7.36253C17.5379 7.24717 17.497 7.13653 17.4305 7.04097C17.3639 6.9454 17.2738 6.86802 17.1687 6.81606Z" fill="#39B9A3"/>
</svg>
