<?xml version="1.0" encoding="UTF-8"?>
<svg width="20px" height="20px" viewBox="0 0 20 20" version="1.1" xmlns="http://www.w3.org/2000/svg" xmlns:xlink="http://www.w3.org/1999/xlink">
    <title>heal_icon</title>
    <g id="Symbols" stroke="none" stroke-width="1" fill="none" fill-rule="evenodd">
        <g id="card_exotic" transform="translate(-167.000000, -289.000000)" fill="#738D99">
            <g id="Combined-Shape" transform="translate(165.000000, 287.000000)">
                <path d="M7.62861445,2.00106551 C7.8085571,2.00106551 7.99049911,2.02126872 8.17044175,2.04596154 C10.4337204,2.35349931 11.4993807,3.76323451 12.0032201,4.97542719 C12.5050602,3.76323451 13.5727199,2.35349931 15.8359985,2.05718554 C21.632151,1.25579149 27.6682271,11.4022932 12.0831946,21.9461248 L12.0032201,22 L11.9552354,21.966328 C-3.19193666,11.7457478 2.00640645,1.88209104 7.62861445,2.00106551 Z M12.05,8 C11.7738576,8 11.55,8.22385763 11.55,8.5 L11.55,8.5 L11.55,11.5 L8.55,11.5 C8.27385763,11.5 8.05,11.7238576 8.05,12 C8.05,12.2761424 8.27385763,12.5 8.55,12.5 L8.55,12.5 L11.55,12.5 L11.55,15.5 C11.55,15.7761424 11.7738576,16 12.05,16 C12.3261424,16 12.55,15.7761424 12.55,15.5 L12.55,15.5 L12.55,12.5 L15.55,12.5 C15.8261424,12.5 16.05,12.2761424 16.05,12 C16.05,11.7238576 15.8261424,11.5 15.55,11.5 L15.55,11.5 L12.55,11.499 L12.55,8.5 C12.55,8.22385763 12.3261424,8 12.05,8 Z"></path>
            </g>
        </g>
    </g>
</svg>