<?xml version="1.0" encoding="UTF-8"?>
<svg width="20px" height="20px" viewBox="0 0 20 20" version="1.1" xmlns="http://www.w3.org/2000/svg" xmlns:xlink="http://www.w3.org/1999/xlink">
    <title>lifetime_icon</title>
    <g id="Symbols" stroke="none" stroke-width="1" fill="none" fill-rule="evenodd">
        <g id="card_exotic" transform="translate(-167.000000, -366.000000)" fill="#738D99">
            <g id="Combined-Shape" transform="translate(165.000000, 364.000000)">
                <path d="M7.90000685,12.9300279 L9.13651262,14.4805047 C9.25144165,14.6267886 9.46000159,14.7013035 9.66590692,14.6696482 C9.87181225,14.6379929 10.0350119,14.5063248 10.0801618,14.3354308 L11.045504,10.7403238 L12.1789676,16.629411 C12.216484,16.8381233 12.427712,16.9942625 12.6800988,16.9998458 C12.9324855,17.0054291 13.1532967,16.8588475 13.2039658,16.6520861 L14.4838577,11.6696988 L15.1943062,12.7124171 C15.2857934,12.8486239 15.457578,12.933404 15.6444377,12.9345687 L20.8214412,12.9315235 C19.4345673,15.7169538 16.7128335,18.8140086 12.0831946,21.9461248 L12.0032201,22 L11.9552354,21.966328 C7.30383738,18.8277892 4.57098697,15.7229078 3.17980993,12.9304166 L7.90000685,12.9300279 Z M7.62861445,2.00106551 C7.8085571,2.00106551 7.99049911,2.02126872 8.17044175,2.04596154 C10.4337204,2.35349931 11.4993807,3.76323451 12.0032201,4.97542719 C12.5050602,3.76323451 13.5727199,2.35349931 15.8359985,2.05718554 C19.7286945,1.5189693 23.7296073,5.91876378 21.2165301,12.0605613 L15.9481409,12.0641256 L14.7062118,10.2506996 C14.5992021,10.0948435 14.388615,10.0099834 14.1761034,10.0370823 C13.9635919,10.0641811 13.7928483,10.1976674 13.7462929,10.3731057 L12.7701041,14.190357 L11.647487,8.36473956 C11.6030434,8.13855874 11.3563834,7.97994775 11.0834669,8.00205494 C10.8576236,8.0193762 10.6711687,8.15690508 10.6224888,8.34207177 L9.3263271,13.1476387 L8.61587861,12.254535 C8.51949625,12.1328618 8.35658743,12.0596607 8.18201694,12.0595848 L2.78445782,12.0593873 C0.385532643,6.20021075 3.91458805,1.92247107 7.62861445,2.00106551 Z"></path>
            </g>
        </g>
    </g>
</svg>