<svg width="22" height="22" viewBox="0 0 22 22" fill="none" xmlns="http://www.w3.org/2000/svg">
<path d="M13.8571 17C14.6114 17 15.2286 16.46 15.2286 15.8L15.2217 13.892C15.2217 13.574 15.0777 13.274 14.824 13.046L12.4857 11L14.824 8.942C15.0777 8.72 15.2217 8.414 15.2217 8.096L15.2286 6.2C15.2286 5.54 14.6114 5 13.8571 5H8.37143C7.61714 5 7 5.54 7 6.2V8.096C7 8.414 7.144 8.72 7.39771 8.948L9.74286 11L7.40457 13.04C7.144 13.268 7 13.574 7 13.892V15.8C7 16.46 7.61714 17 8.37143 17H13.8571ZM8.37143 8.054V6.8C8.37143 6.47 8.68 6.2 9.05714 6.2H13.1714C13.5486 6.2 13.8571 6.47 13.8571 6.8V8.054C13.8571 8.216 13.7817 8.366 13.6583 8.48L11.1143 10.7L8.57029 8.474C8.44686 8.366 8.37143 8.21 8.37143 8.054V8.054Z" fill="#F892DB"/>
</svg>
