<?xml version="1.0" encoding="UTF-8"?>
<svg width="20px" height="20px" viewBox="0 0 20 20" version="1.1" xmlns="http://www.w3.org/2000/svg" xmlns:xlink="http://www.w3.org/1999/xlink">
    <title>speed_icon</title>
    <g id="Symbols" stroke="none" stroke-width="1" fill="none" fill-rule="evenodd">
        <g id="card_exotic" transform="translate(-51.000000, -366.000000)" fill="#738D99" fill-rule="nonzero">
            <g id="Combined-Shape" transform="translate(49.000000, 364.000000)">
                <path d="M12.5000284,2.00000338 C14.1321825,2.08038443 15.661441,2.55207486 16.9959504,3.32322134 L16.2499598,4.61688262 C16.1118886,4.85602893 16.1938262,5.16182414 16.4329725,5.29989532 C16.645547,5.42262527 16.9107824,5.37152113 17.064071,5.19068937 L17.1159852,5.11688262 L17.8372154,3.86728607 C19.0153806,4.71568641 20.0014453,5.81416157 20.7176728,7.0849749 L19.4040243,7.84303057 C19.164878,7.98110176 19.0829404,8.28689696 19.2210116,8.52604327 C19.3437416,8.73861777 19.5989942,8.82697797 19.8221619,8.74701738 L19.9040243,8.70905598 L21.165059,7.98128425 C21.6532092,9.09639379 21.9438143,10.3176956 21.9926173,11.6009326 L21.998,11.959 L20.4999598,11.959056 C20.2544999,11.959056 20.0503515,12.1359311 20.0080155,12.3691803 L19.9999598,12.459056 C19.9999598,12.7045159 20.176835,12.9086643 20.4100842,12.9510003 L20.4999598,12.959056 L21.9533131,12.9598407 C21.826879,14.2704458 21.4474607,15.5070823 20.8644849,16.6203235 L19.578428,15.8784593 C19.3392817,15.7403881 19.0334865,15.8223257 18.8954153,16.061472 C18.7726853,16.2740465 18.8237895,16.5392819 19.0046212,16.6925705 L19.078428,16.7444847 L20.3559221,17.4831903 C18.5676244,20.1968381 15.4929333,21.9877175 11.9999598,21.9877175 C8.64738866,21.9877175 5.68014937,20.3379156 3.86582167,17.8058915 L5.12912496,17.0750814 C5.36827127,16.9370102 5.45020885,16.631215 5.31213766,16.3920687 C5.17406647,16.1529224 4.86827127,16.0709848 4.62912496,16.209056 L3.32393724,16.9637076 C2.63414217,15.7635873 2.18619412,14.4067939 2.04660656,12.9598407 L3.49995983,12.959056 C3.77610221,12.959056 3.99995983,12.7351984 3.99995983,12.459056 C3.99995983,12.1829136 3.77610221,11.959056 3.49995983,11.959056 L1.9999984,11.9596443 C2.00420508,10.428823 2.35238085,8.97889193 2.97131045,7.68306635 L4.27697329,8.43696772 C4.5161196,8.5750389 4.82191481,8.49310133 4.95998599,8.25395502 C5.08271594,8.04138052 5.0316118,7.77614516 4.85078004,7.62285654 L4.77697329,7.57094231 L3.44725543,6.8030746 C4.29256408,5.41161828 5.46787097,4.2428179 6.86455497,3.40529457 L7.62152463,4.71797586 C7.75959582,4.95712217 8.06539102,5.03905975 8.30453733,4.90098856 C8.51711183,4.77825862 8.60547202,4.52300599 8.52551144,4.29983827 L8.48755003,4.21797586 L7.74751467,2.93431861 C8.89538431,2.3942178 10.1626467,2.06599292 11.4988933,2.00005257 L11.4999598,3.4877175 C11.4999598,3.76385987 11.7238175,3.9877175 11.9999598,3.9877175 C12.2454197,3.9877175 12.4495682,3.81084234 12.4919042,3.57759313 L12.4999598,3.4877175 L12.5000284,2.00000338 Z M14.1646455,5.14105128 C13.8426703,5.05477826 12.8305109,7.54430745 11.1281673,12.6096388 L11.169049,12.488311 C11.153066,12.5273433 11.1393714,12.5678248 11.1281673,12.6096388 C10.9852255,13.1431049 11.301808,13.6914419 11.8352741,13.8343837 C12.3687402,13.9773255 12.9170772,13.660743 13.060019,13.1272769 C13.0707713,13.087149 13.0789234,13.0469368 13.0845746,13.0056017 C14.1240944,7.8481705 14.4841181,5.22665369 14.1646455,5.14105128 Z"></path>
            </g>
        </g>
    </g>
</svg>