<?xml version="1.0" encoding="UTF-8"?>
<svg width="20px" height="20px" viewBox="0 0 20 20" version="1.1" xmlns="http://www.w3.org/2000/svg" xmlns:xlink="http://www.w3.org/1999/xlink">
    <title>weight_icon</title>
    <g id="Symbols" stroke="none" stroke-width="1" fill="none" fill-rule="evenodd">
        <g id="card_exotic" transform="translate(-167.000000, -328.000000)" fill="#738D99" fill-rule="nonzero">
            <g id="Combined-Shape" transform="translate(165.000000, 326.000000)">
                <path d="M15.999842,2 C16.8320052,2 17.515875,2.54767927 17.5934508,3.24796777 L17.6007794,3.3809638 L17.6011396,7.49819795 C20.255512,9.0692118 22,11.7255242 22,14.737862 C22.0007509,17.694987 20.2510502,20.4420916 17.3745596,22 L6.43769064,22 C3.64757202,20.3912924 1.97785264,17.6587137 2.00022196,14.737862 C2.00022196,11.7243903 3.74602338,9.06721211 6.40208002,7.49642437 L6.40222231,3.3809638 C6.40222231,2.66314239 7.03714137,2.07323833 7.84897876,2.00632166 L8.00315971,2 L15.999842,2 Z M14.5616081,11 C13.0696116,11 11.8188361,12.1170663 11.8188361,14.0803949 C11.8188361,15.8660085 12.9802705,17 14.3293213,17 C15.5622286,17 16,16.4922426 16,15.6205924 L16,15.6205924 L16,14.6812412 C16,14.4358251 15.7766472,14.190409 15.4460851,14.190409 L15.4460851,14.190409 L14.9189726,14.190409 C14.9189726,14.2411848 14.9904455,14.596615 14.9904455,14.9943583 L14.9904455,14.9943583 L14.9904455,15.5021157 C14.9904455,15.9167842 14.874302,16.0521862 14.4186624,16.0521862 C13.5967242,16.0521862 12.9177317,15.4090268 12.9177317,13.9280677 C12.9177317,12.6502116 13.6860653,11.9478138 14.4812011,11.9478138 C15.0708525,11.9478138 15.5890309,12.1086037 15.8927907,12.4640339 L15.8927907,12.4640339 L15.9374612,12.4640339 L15.9374612,12.0747532 C15.9374612,11.5500705 15.5086239,11 14.5616081,11 Z M8.33949622,11.1015515 L8,11.1015515 L8,16.212976 C8,16.6445698 8.241221,16.8984485 8.7325971,16.8984485 L8.7325971,16.8984485 L9.0631592,16.8984485 L9.0631592,14.0042313 C9.40265542,14.6473907 10.0995161,15.9083216 10.6087604,16.6191819 C10.7695744,16.8392102 10.9929272,16.9407616 11.2877528,16.9407616 C11.6451173,16.9407616 11.8416677,16.796897 11.9220747,16.4414669 C11.7612607,16.3906911 11.5915126,16.1875882 11.4128304,15.9506347 C11.1090706,15.5528914 10.4926169,14.5204513 10.0816478,13.8011283 C10.5551557,12.9971791 11.466435,11.6431594 11.8774041,11.1438646 L11.8774041,11.1438646 L11.8774041,11.1015515 L11.1894776,11.1015515 C10.8321132,11.1015515 10.7070356,11.1692525 10.4479464,11.4654443 C10.1352525,11.8293371 9.49199653,12.9210155 9.0631592,13.6657264 L9.0631592,13.6657264 L9.0631592,11.7616361 C9.0631592,11.3215797 8.82193821,11.1015515 8.33949622,11.1015515 L8.33949622,11.1015515 Z M15.236395,4.04037401 L8.76760732,4.04037401 L8.7667758,6.46685165 C9.78098725,6.16421252 10.8686023,6 12.0001109,6 C13.1327331,6 14.2213754,6.16453593 15.2364404,6.46774567 L15.236395,4.04037401 Z"></path>
            </g>
        </g>
    </g>
</svg>