<svg width="22" height="22" viewBox="0 0 22 22" fill="none" xmlns="http://www.w3.org/2000/svg">
<path d="M16.9597 15.4496L15.2481 8.60282C15.159 8.24681 14.8627 8.00001 14.5245 8.00001H13.1124C13.1961 7.76446 13.2502 7.51438 13.2502 7.25001C13.2502 6.00735 12.2429 5 11.0002 5C9.75757 5 8.75023 6.00735 8.75023 7.25001C8.75023 7.51438 8.80413 7.76446 8.88804 8.00001H7.47593C7.13772 8.00001 6.84124 8.24704 6.75241 8.60282L5.04029 15.4496C4.84506 16.2303 5.38389 16.9998 6.12569 16.9998H15.8745C16.6161 16.9998 17.1549 16.2303 16.9597 15.4496V15.4496ZM11 7.99978C10.5866 7.99978 10.25 7.66321 10.25 7.24977C10.25 6.83633 10.5866 6.49977 11 6.49977C11.4134 6.49977 11.75 6.83633 11.75 7.24977C11.75 7.66321 11.4134 7.99978 11 7.99978Z" fill="#8873F0"/>
</svg>
