<?xml version="1.0" encoding="UTF-8"?>
<svg width="191px" height="191px" viewBox="0 0 191 191" version="1.1" xmlns="http://www.w3.org/2000/svg" xmlns:xlink="http://www.w3.org/1999/xlink">
    <title>STONE</title>
    <g id="UI-Design" stroke="none" stroke-width="1" fill="none" fill-rule="evenodd">
        <g id="Landing-Page" transform="translate(-933.000000, -1591.000000)" fill-rule="nonzero">
            <g id="STONE" transform="translate(1028.500000, 1686.500000) rotate(30.000000) translate(-1028.500000, -1686.500000) translate(958.000000, 1618.000000)">
                <path d="M0.00353590574,49.4722222 C0.1901049,46.9351852 3.29926492,41.2268519 9.33101597,32.3472222 C27.8623309,10.7824074 37.7029741,0 38.8529454,0 C40.5779023,0 93.9880235,0 96.5280664,0 C98.2214284,0 109.037854,4.02181305 128.977344,12.0654391 C136.554986,30.2378624 140.555477,39.7469136 140.978818,40.5925926 C141.402158,41.4382716 135.479954,57.9290123 123.212204,90.0648148 L91.7654859,124.103645 C80.0190264,132.701215 73.2337762,137 71.4097354,137 C69.5856945,137 58.1914936,133.828704 37.2271324,127.486111 C23.1750351,105.986402 16.1489864,95.2365481 16.1489864,95.2365481 C16.1489864,95.2365481 -0.276317586,53.2777778 0.00353590574,49.4722222 Z" id="Path-2" fill="#0C1F39"></path>
                <polygon id="Path-4" fill="#030C0F" points="13 32.3275849 39.2143951 3.89948034 95 3 84.389136 32.3275849 38.5660073 48"></polygon>
                <path d="M97.7088085,4 C117.393609,11.4757332 127.236009,15.2637775 127.236009,15.364133 C127.236009,15.5146662 138,39.8821383 138,41.1394719 C138,41.9776943 132.316378,56.9312037 120.949133,86 C98.3163775,51.482758 87,34.2241371 87,34.2241371 C87,34.2241371 90.5696028,24.1494247 97.7088085,4 Z" id="Path-5" fill="#030C0F"></path>
                <polygon id="Path-6" fill="#030C0F" points="85.5470285 35 39 50.3529412 49.6668341 92.5735294 90.3340381 122 120 90.0147059"></polygon>
                <polygon id="Path-7" fill="#030C0F" points="9.31831223 35 35.622866 50.2 46 92 18.5127752 92 2 48.9333333"></polygon>
                <polygon id="Path-8" fill="#030C0F" points="21 95.9373603 48.0912233 95 88 123.66449 70.6345159 132 39.4017695 125.409512"></polygon>
                <path d="M96.5280664,0 C98.2214284,0 109.037854,4.02181305 128.977344,12.0654391 C134.739509,25.8840527 138.433246,34.6932142 140.058555,38.4929236 L140.187484,38.7939481 C140.622434,39.8080521 140.886212,40.4076003 140.978818,40.5925926 C141.402158,41.4382716 135.479954,57.9290123 123.212204,90.0648148 L91.7654859,124.103645 C80.0190264,132.701215 73.2337762,137 71.4097354,137 C69.5856945,137 58.1914936,133.828704 37.2271324,127.486111 C23.1750351,105.986402 16.1489864,95.2365481 16.1489864,95.2365481 C16.1489864,95.2365481 -0.276317586,53.2777778 0.00353590574,49.4722222 C0.1901049,46.9351852 3.29926492,41.2268519 9.33101597,32.3472222 C27.8623309,10.7824074 37.7029741,0 38.8529454,0 L96.5280664,0 L96.5280664,0 Z M48.0912233,95 L21,95.9373603 L39.4017695,125.409512 L70.6345159,132 L88,123.66449 L48.0912233,95 Z M85.5470285,35 L39,50.3529412 L49.6668341,92.5735294 L90.3340381,122 L120,90.0147059 L85.5470285,35 Z M9.31831223,35 L2,48.9333333 L18.5127752,92 L46,92 L35.622866,50.2 L9.31831223,35 Z M97.7088085,4 C90.7123869,23.7464362 87.144212,33.8171187 87.0042835,34.2120474 L87,34.2241371 C87,34.2241371 98.3163775,51.482758 120.949133,86 C127.655807,68.8494102 132.384013,56.6123517 135.133749,49.2888247 L135.406563,48.5609976 C137.135521,43.9402205 138,41.4663786 138,41.1394719 C138,39.9356418 128.132602,17.5466464 127.292824,15.5112574 L127.25042,15.4061742 C127.240882,15.3815015 127.236009,15.3673358 127.236009,15.364133 C127.236009,15.2637775 117.393609,11.4757332 97.7088085,4 Z M95,3 L39.2143951,3.89948034 L13,32.3275849 L38.5660073,48 L84.389136,32.3275849 L95,3 Z" id="Combined-Shape" fill="#FFFFFF"></path>
            </g>
        </g>
    </g>
</svg>