<?xml version="1.0" encoding="UTF-8"?>
<svg width="555px" height="268px" viewBox="0 0 555 268" version="1.1" xmlns="http://www.w3.org/2000/svg" xmlns:xlink="http://www.w3.org/1999/xlink">
    <title>Group 3</title>
    <g id="UI-Design" stroke="none" stroke-width="1" fill="none" fill-rule="evenodd">
        <g id="Landing-Page" transform="translate(-618.000000, -1173.000000)">
            <g id="Hero_Header-1" transform="translate(55.000000, 1173.000000)">
                <g id="Group-3" transform="translate(563.000000, 0.000000)">
                    <g id="headerbackground" transform="translate(281.034422, 139.980621) rotate(9.000000) translate(-281.034422, -139.980621) translate(18.534422, 51.980621)" fill="#030C0F">
                        <path d="M333.511342,125.573414 C320.818282,130.123382 308.421545,134.035996 294.460315,137.097093 C289.440993,137.929373 284.463679,138.752676 279.511342,139.573414 C281.386413,138.467698 283.238104,137.292509 285.087958,136.117947 L286.197822,135.413846 C292.302757,131.547871 298.434597,127.841388 305.36749,126.813499 C314.815759,126.746814 324.18796,126.236417 333.511342,125.573414 Z M330.051854,119.023094 C362.076984,104.753593 399.397851,104.864715 437.166629,106.367996 L439.630395,106.467876 C440.451829,106.501738 441.273425,106.536125 442.095133,106.570903 L445.793407,106.729593 L445.793407,106.729593 L447.026326,106.783196 C444.545862,107.20783 442.049825,107.720619 439.535991,108.350121 C428.465112,111.421891 417.406467,114.039228 406.355609,116.477771 L406.355609,116.477771 L373.233068,123.660547 C359.816314,125.203882 346.377313,126.726109 332.838205,127.704506 C336.172928,126.522483 339.515437,125.300728 342.92691,123.997026 C354.397111,120.617335 365.886221,117.88701 377.385343,115.325547 C361.01539,117.200394 344.610956,119.034268 328.026326,119.91706 C328.701502,119.619071 329.414497,119.343432 330.051854,119.023094 Z M524.3311,99.870812 C523.736384,101.036207 523.086268,102.197138 522.4158,103.348021 C517.405948,103.611463 512.234414,104.702068 507.806839,105.870812 C508.383464,105.482347 508.326932,104.571463 508.352937,103.947463 L508.352937,103.947463 L507.500089,103.97073 C501.034638,104.213155 496.196328,105.882393 489.3311,105.789324 C498.059576,100.935823 508.378246,100.387186 518.929628,100.046755 L520.277772,100.004111 C520.502639,99.9970869 520.727585,99.9900782 520.952596,99.9830454 L522.303357,99.9402435 L522.303357,99.9402435 L523.655076,99.8949686 L523.655076,99.8949686 Z M509.612467,103.926254 C508.486352,102.927184 508.367635,103.276579 508.352937,103.947463 C508.76562,103.942998 509.171518,103.919556 509.612467,103.926254 Z M436.084476,43.2903251 C471.161706,40.6061911 497.355978,42.0395287 514.667291,47.590338 C515.46675,54.7257533 515.318473,61.5939421 514.549905,68.3121091 C491.784504,80.7505105 466.293091,79.2770253 443.952725,91.1193769 C441.654367,92.7062418 438.938557,91.5659165 436.211942,90.320265 L435.606014,90.0427854 C432.980991,88.8420965 430.37388,87.7238313 428.147796,89.0291921 C422.048678,91.2888965 416.002693,93.8275479 410.004898,96.5490384 C397.081129,93.7170523 384.445367,94.7690115 371.636475,95.8384926 L369.612512,96.0069399 C363.535905,96.5093366 357.415006,96.970005 351.200803,96.9780072 C365.058503,85.501334 378.935972,80.9702046 392.850511,67.3861929 C402.127695,59.7975865 409.594585,51.9522692 415.251181,43.8502409 L415.251181,43.8502409 Z M301.772642,30.3049997 C314.373891,23.4043383 328.104104,21.7354112 341.907369,22.4630534 C340.91565,23.4319862 339.918397,24.3745278 338.923358,25.2668005 C328.657519,27.8104062 318.3463,30.3653224 307.839172,32.967994 C297.338685,35.527937 286.652251,38.0665158 275.627128,40.6138916 C275.471065,40.6453097 275.32275,40.6779845 275.166687,40.7106592 C269.650251,42.0239339 264.251139,43.2002258 258.907369,44.3061413 C259.953945,43.9617602 261.000881,43.6139329 262.048634,43.2652792 L264.145364,42.5676464 C273.586768,39.4303269 283.119011,36.3675452 293.07518,35.2891598 C295.565545,35.2690522 299.287811,31.5554382 301.772642,30.3049997 Z M348.871729,22.1470909 L345.271485,24.1470909 C344.137878,24.0728285 342.997872,24.0117908 341.871729,23.9649953 C342.602229,23.3607227 343.325264,22.7645884 344.055763,22.1613331 C345.266153,22.1572639 347.667738,22.1511601 348.871729,22.1470909 L348.871729,22.1470909 Z" id="Fill-14"></path>
                        <path d="M255.864198,146.170279 C265.097262,147.996316 272.652593,145.343335 279.864198,141.763079 C272.501177,142.774845 265.18568,143.722187 257.907762,144.604049 C257.230258,145.120493 256.515176,145.605254 255.864198,146.170279" id="Fill-15"></path>
                        <path d="M433.827096,23.9571841 C439.375274,20.4147393 442.739884,18.8688989 444.646968,18.4805288 C445.50472,16.7526001 446.637868,14.6248412 448.17159,11.9673709 C447.849389,11.9635509 447.505417,11.9597308 447.186481,11.9571841 C441.460875,14.1460636 435.656895,16.1133811 429.789781,17.9469974 C427.387421,19.4953845 425.09609,21.1685594 423.17159,23.2199176 C426.726691,23.5637207 430.295942,23.8922436 433.827096,23.9571841" id="Fill-19"></path>
                        <path d="M444.659723,17.6706243 C437.797745,31.640892 451.653525,16.2620697 444.659723,17.6706243" id="Fill-21"></path>
                        <g id="Group-29" transform="translate(259.192847, 88.324169) rotate(1.000000) translate(-259.192847, -88.324169) translate(2.192847, 5.324169)">
                            <path d="M405.257072,95.7406721 C379.339256,96.0345163 354.524294,101.570984 332.140024,111.830088 C312.453597,121.839869 258.399787,136.692141 255.892678,138.986924 C223.473358,143.815635 191.686879,147.114067 158.550927,148.028673 C153.63373,148.145702 150.031828,152.012742 145.121247,152.157756 C140.154437,152.497394 135.270316,152.893002 130.40604,153.305147 C130.393912,153.586271 130.462268,153.859762 130.603389,154.125621 C120.513213,155.195417 110.515649,156.581954 100.438703,158.248343 C90.3628598,159.903283 80.209841,161.93984 69.8131674,164.398717 C60.0438222,166.012952 50.1884812,165.173397 40.3926757,165.618615 C36.7158033,165.778894 36.5515293,160.807713 34.0543431,159.667954 C24.0391381,153.869938 16.499069,149.235851 5.3648159,147.297243 C5.3648159,147.297243 5.27441004,144.809108 5.23030962,143.568857 C3.54898117,144.075134 2.02751674,144.108207 0.768449791,143.767297 C5.53570502,129.568647 18.866159,123.948718 4.22923013,114.994741 C4.22923013,114.985836 4.22923013,114.973116 4.22812762,114.955307 C5.00760251,114.516449 5.70438912,114.075047 6.37030544,113.623468 C6.45630126,113.619652 6.52906695,113.615836 6.61065272,113.61202 C6.60183264,113.553505 6.59632008,113.521704 6.58970502,113.477182 C9.87298117,111.219289 11.8233222,108.715889 13.69759,104.55755 C11.539977,104.661858 9.37905649,104.766166 7.21262343,104.870475 C7.55991423,103.109954 7.76277615,101.349433 7.47832845,99.6207137 C7.65473013,99.2810757 7.81459414,98.9325333 8.01304603,98.6017997 C8.97333264,98.5560058 9.78037029,98.5178442 9.78037029,98.5178442 C10.0604079,97.543452 10.2577573,96.5728759 10.3812385,95.6112041 C15.8518954,89.9810996 24.6929268,86.8022403 22.7999163,81.7216625 C21.3887029,79.1266753 17.3193368,81.6008175 12.6722552,83.428757 C12.3712699,82.9746343 12.0294916,82.5599451 11.6833033,82.2368438 C17.8209791,80.6976602 11.3790105,73.5360044 15.0426527,72.12021 C19.9885146,71.8772479 24.8924812,70.4220198 29.8405481,70.1994106 C49.9878243,69.287349 66.9301025,67.4034392 86.6330669,62.9105496 C87.5029477,62.7324622 88.3640084,62.556919 89.2294791,62.3813757 C98.7915523,60.4974659 107.855291,59.9148659 117.282858,60.5597965 C116.70404,61.4336966 116.096556,62.2541705 115.473638,63.0390269 C123.056705,63.574561 130.640874,63.645796 138.174328,61.5138359 C147.406751,58.730585 156.645789,55.9778633 166.055715,53.7276023 C175.46454,51.4709811 185.043151,49.6354093 194.953617,48.8225678 C215.724914,47.352075 235.706814,44.3996411 256.784609,39.9118397 C248.18172,42.8019431 239.596471,45.485974 230.758747,46.4832631 C226.785299,46.4209326 222.827287,46.4196605 218.988345,46.7478501 C222.978331,47.0747676 226.887833,46.9284815 230.758747,46.4832631 C238.404657,46.6041081 246.156408,46.9717313 253.453925,45.826884 C260.752544,44.711294 267.596929,42.0845055 273.439132,36.1745494 C274.724659,37.1921914 274.736787,38.4337147 275.972701,38.4197221 C284.668201,38.296333 293.358188,39.4691655 300.774776,34.4356536 C300.767059,33.1928583 304.500159,33.163601 303.241092,30.6869148 C310.68855,29.3932373 319.390665,29.288929 326.832611,26.795706 C330.059659,25.9765042 333.267964,23.5786852 336.488397,20.6402438 C363.164741,13.8474833 389.590814,7.21881752 418.449025,1.08243608 C425.615343,-0.0764037795 433.877556,-0.0102570476 441.124358,0.0469853166 C430.426699,4.08320801 419.423644,7.42234592 408.261828,10.4727279 C397.453918,9.4945195 387.09032,9.4410933 378.557992,15.8357014 C376.571268,17.0187103 374.598877,18.1355724 372.614358,19.1773834 C384.618492,16.4233897 396.538835,13.6375946 408.261828,10.4727279 C414.644262,11.0489677 421.179944,11.9088752 427.592144,12.0348084 C427.460946,12.12258 427.341874,12.2128958 427.205163,12.2930351 C422.165588,13.8347628 417.08522,15.3345127 411.970674,16.7134176 C402.3645,15.8573263 393.117745,15.7072241 385.186285,20.1784888 C384.197333,20.7381919 383.216098,21.3500491 382.276759,22.0623986 C380.301061,23.2479515 378.315439,24.3571813 376.338638,25.3977203 C383.736483,23.7122507 391.105663,21.977171 398.409795,20.1950254 C402.942215,19.0794354 407.471328,17.933316 411.970674,16.7134176 C414.790895,16.9932692 417.649705,17.2769369 420.5019,17.5593326 C420.198709,17.8646252 419.876776,18.1711899 419.602251,18.5108279 C417.091835,19.7319983 410.064433,34.3122645 413.769971,38.0686356 C432.875374,37.8765557 459.756785,32.2718922 459.749067,33.526136 C460.927651,38.4871409 428.137887,44.7100219 429.371596,45.9642657 C431.200661,46.5417776 433.034136,47.0289737 434.859893,47.4538392 C433.112414,48.4498564 431.404626,49.4700425 429.830241,50.6339706 C426.10596,51.8373323 421.152381,50.5461989 418.654092,53.0267014 C409.943157,60.4453118 400.04151,57.9024788 390.121121,62.8126016 C383.91068,66.5346273 376.484169,71.5070806 369.065377,76.4846222 C369.063172,78.9663967 402.3645,76.9069437 416.35205,77.6956162 C409.377569,79.7372605 402.503416,81.9557202 395.75936,84.3179217 C404.205692,82.2368438 412.174638,80.135413 419.916467,77.8558948 C421.113793,77.9004167 422.286864,77.9258577 423.467653,77.9411224 L430.894163,78.0161735 C428.586609,77.4424778 426.2989,77.0036196 424.022215,76.6143716 C428.646144,75.2252902 433.21605,73.7751503 437.720908,72.1710921 C443.933554,70.7781945 450.196916,69.5608403 456.490046,68.5533747 C462.784278,67.5738942 469.107176,66.8004863 475.437791,66.2713124 C488.100123,65.1900677 500.793326,65.1697149 513.340998,66.3705325 C512.827228,67.8766427 512.23959,69.3725765 511.590211,70.8570618 C499.474724,71.3646108 487.368056,71.129281 477.392542,77.6460062 C484.375843,77.7528586 489.232402,75.6196265 495.974253,75.5051418 C495.958818,76.2200353 496.009533,77.2478537 495.442843,77.6943442 C499.769094,76.3625052 504.823002,75.1197098 509.723661,74.8220496 C508.110688,78.0123573 506.309186,81.1670476 504.512094,84.3293702 C502.000575,86.769167 498.29614,86.6992041 494.570757,87.8720365 C478.512692,89.7648507 463.412709,88.8845903 447.597197,91.733988 C433.547906,91.1157705 420.085078,98.102097 406.30039,98.2700079 C420.003493,94.8189294 432.041877,83.7696671 444.333766,79.3938064 C430.8666,82.4034827 418.039578,91.3342821 405.257072,95.7406721 Z" id="Fill-27"></path>
                        </g>
                    </g>
                    <g id="headerbackground" transform="translate(273.034422, 127.980621) rotate(9.000000) translate(-273.034422, -127.980621) translate(10.534422, 39.980621)" fill="#1E6E53">
                        <path d="M333.511342,125.573414 C320.818282,130.123382 308.421545,134.035996 294.460315,137.097093 C289.440993,137.929373 284.463679,138.752676 279.511342,139.573414 C281.386413,138.467698 283.238104,137.292509 285.087958,136.117947 L286.197822,135.413846 C292.302757,131.547871 298.434597,127.841388 305.36749,126.813499 C314.815759,126.746814 324.18796,126.236417 333.511342,125.573414 Z M330.051854,119.023094 C362.076984,104.753593 399.397851,104.864715 437.166629,106.367996 L439.630395,106.467876 C440.451829,106.501738 441.273425,106.536125 442.095133,106.570903 L445.793407,106.729593 L445.793407,106.729593 L447.026326,106.783196 C444.545862,107.20783 442.049825,107.720619 439.535991,108.350121 C428.465112,111.421891 417.406467,114.039228 406.355609,116.477771 L406.355609,116.477771 L373.233068,123.660547 C359.816314,125.203882 346.377313,126.726109 332.838205,127.704506 C336.172928,126.522483 339.515437,125.300728 342.92691,123.997026 C354.397111,120.617335 365.886221,117.88701 377.385343,115.325547 C361.01539,117.200394 344.610956,119.034268 328.026326,119.91706 C328.701502,119.619071 329.414497,119.343432 330.051854,119.023094 Z M524.3311,99.870812 C523.736384,101.036207 523.086268,102.197138 522.4158,103.348021 C517.405948,103.611463 512.234414,104.702068 507.806839,105.870812 C508.383464,105.482347 508.326932,104.571463 508.352937,103.947463 L508.352937,103.947463 L507.500089,103.97073 C501.034638,104.213155 496.196328,105.882393 489.3311,105.789324 C498.059576,100.935823 508.378246,100.387186 518.929628,100.046755 L520.277772,100.004111 C520.502639,99.9970869 520.727585,99.9900782 520.952596,99.9830454 L522.303357,99.9402435 L522.303357,99.9402435 L523.655076,99.8949686 L523.655076,99.8949686 Z M509.612467,103.926254 C508.486352,102.927184 508.367635,103.276579 508.352937,103.947463 C508.76562,103.942998 509.171518,103.919556 509.612467,103.926254 Z M436.084476,43.2903251 C471.161706,40.6061911 497.355978,42.0395287 514.667291,47.590338 C515.46675,54.7257533 515.318473,61.5939421 514.549905,68.3121091 C491.784504,80.7505105 466.293091,79.2770253 443.952725,91.1193769 C441.654367,92.7062418 438.938557,91.5659165 436.211942,90.320265 L435.606014,90.0427854 C432.980991,88.8420965 430.37388,87.7238313 428.147796,89.0291921 C422.048678,91.2888965 416.002693,93.8275479 410.004898,96.5490384 C397.081129,93.7170523 384.445367,94.7690115 371.636475,95.8384926 L369.612512,96.0069399 C363.535905,96.5093366 357.415006,96.970005 351.200803,96.9780072 C365.058503,85.501334 378.935972,80.9702046 392.850511,67.3861929 C402.127695,59.7975865 409.594585,51.9522692 415.251181,43.8502409 L415.251181,43.8502409 Z M301.772642,30.3049997 C314.373891,23.4043383 328.104104,21.7354112 341.907369,22.4630534 C340.91565,23.4319862 339.918397,24.3745278 338.923358,25.2668005 C328.657519,27.8104062 318.3463,30.3653224 307.839172,32.967994 C297.338685,35.527937 286.652251,38.0665158 275.627128,40.6138916 C275.471065,40.6453097 275.32275,40.6779845 275.166687,40.7106592 C269.650251,42.0239339 264.251139,43.2002258 258.907369,44.3061413 C259.953945,43.9617602 261.000881,43.6139329 262.048634,43.2652792 L264.145364,42.5676464 C273.586768,39.4303269 283.119011,36.3675452 293.07518,35.2891598 C295.565545,35.2690522 299.287811,31.5554382 301.772642,30.3049997 Z M348.871729,22.1470909 L345.271485,24.1470909 C344.137878,24.0728285 342.997872,24.0117908 341.871729,23.9649953 C342.602229,23.3607227 343.325264,22.7645884 344.055763,22.1613331 C345.266153,22.1572639 347.667738,22.1511601 348.871729,22.1470909 L348.871729,22.1470909 Z" id="Fill-14"></path>
                        <path d="M255.864198,146.170279 C265.097262,147.996316 272.652593,145.343335 279.864198,141.763079 C272.501177,142.774845 265.18568,143.722187 257.907762,144.604049 C257.230258,145.120493 256.515176,145.605254 255.864198,146.170279" id="Fill-15"></path>
                        <path d="M433.827096,23.9571841 C439.375274,20.4147393 442.739884,18.8688989 444.646968,18.4805288 C445.50472,16.7526001 446.637868,14.6248412 448.17159,11.9673709 C447.849389,11.9635509 447.505417,11.9597308 447.186481,11.9571841 C441.460875,14.1460636 435.656895,16.1133811 429.789781,17.9469974 C427.387421,19.4953845 425.09609,21.1685594 423.17159,23.2199176 C426.726691,23.5637207 430.295942,23.8922436 433.827096,23.9571841" id="Fill-19"></path>
                        <path d="M444.659723,17.6706243 C437.797745,31.640892 451.653525,16.2620697 444.659723,17.6706243" id="Fill-21"></path>
                        <g id="Group-29" transform="translate(259.192847, 88.324169) rotate(1.000000) translate(-259.192847, -88.324169) translate(2.192847, 5.324169)">
                            <path d="M405.257072,95.7406721 C379.339256,96.0345163 354.524294,101.570984 332.140024,111.830088 C312.453597,121.839869 258.399787,136.692141 255.892678,138.986924 C223.473358,143.815635 191.686879,147.114067 158.550927,148.028673 C153.63373,148.145702 150.031828,152.012742 145.121247,152.157756 C140.154437,152.497394 135.270316,152.893002 130.40604,153.305147 C130.393912,153.586271 130.462268,153.859762 130.603389,154.125621 C120.513213,155.195417 110.515649,156.581954 100.438703,158.248343 C90.3628598,159.903283 80.209841,161.93984 69.8131674,164.398717 C60.0438222,166.012952 50.1884812,165.173397 40.3926757,165.618615 C36.7158033,165.778894 36.5515293,160.807713 34.0543431,159.667954 C24.0391381,153.869938 16.499069,149.235851 5.3648159,147.297243 C5.3648159,147.297243 5.27441004,144.809108 5.23030962,143.568857 C3.54898117,144.075134 2.02751674,144.108207 0.768449791,143.767297 C5.53570502,129.568647 18.866159,123.948718 4.22923013,114.994741 C4.22923013,114.985836 4.22923013,114.973116 4.22812762,114.955307 C5.00760251,114.516449 5.70438912,114.075047 6.37030544,113.623468 C6.45630126,113.619652 6.52906695,113.615836 6.61065272,113.61202 C6.60183264,113.553505 6.59632008,113.521704 6.58970502,113.477182 C9.87298117,111.219289 11.8233222,108.715889 13.69759,104.55755 C11.539977,104.661858 9.37905649,104.766166 7.21262343,104.870475 C7.55991423,103.109954 7.76277615,101.349433 7.47832845,99.6207137 C7.65473013,99.2810757 7.81459414,98.9325333 8.01304603,98.6017997 C8.97333264,98.5560058 9.78037029,98.5178442 9.78037029,98.5178442 C10.0604079,97.543452 10.2577573,96.5728759 10.3812385,95.6112041 C15.8518954,89.9810996 24.6929268,86.8022403 22.7999163,81.7216625 C21.3887029,79.1266753 17.3193368,81.6008175 12.6722552,83.428757 C12.3712699,82.9746343 12.0294916,82.5599451 11.6833033,82.2368438 C17.8209791,80.6976602 11.3790105,73.5360044 15.0426527,72.12021 C19.9885146,71.8772479 24.8924812,70.4220198 29.8405481,70.1994106 C49.9878243,69.287349 66.9301025,67.4034392 86.6330669,62.9105496 C87.5029477,62.7324622 88.3640084,62.556919 89.2294791,62.3813757 C98.7915523,60.4974659 107.855291,59.9148659 117.282858,60.5597965 C116.70404,61.4336966 116.096556,62.2541705 115.473638,63.0390269 C123.056705,63.574561 130.640874,63.645796 138.174328,61.5138359 C147.406751,58.730585 156.645789,55.9778633 166.055715,53.7276023 C175.46454,51.4709811 185.043151,49.6354093 194.953617,48.8225678 C215.724914,47.352075 235.706814,44.3996411 256.784609,39.9118397 C248.18172,42.8019431 239.596471,45.485974 230.758747,46.4832631 C226.785299,46.4209326 222.827287,46.4196605 218.988345,46.7478501 C222.978331,47.0747676 226.887833,46.9284815 230.758747,46.4832631 C238.404657,46.6041081 246.156408,46.9717313 253.453925,45.826884 C260.752544,44.711294 267.596929,42.0845055 273.439132,36.1745494 C274.724659,37.1921914 274.736787,38.4337147 275.972701,38.4197221 C284.668201,38.296333 293.358188,39.4691655 300.774776,34.4356536 C300.767059,33.1928583 304.500159,33.163601 303.241092,30.6869148 C310.68855,29.3932373 319.390665,29.288929 326.832611,26.795706 C330.059659,25.9765042 333.267964,23.5786852 336.488397,20.6402438 C363.164741,13.8474833 389.590814,7.21881752 418.449025,1.08243608 C425.615343,-0.0764037795 433.877556,-0.0102570476 441.124358,0.0469853166 C430.426699,4.08320801 419.423644,7.42234592 408.261828,10.4727279 C397.453918,9.4945195 387.09032,9.4410933 378.557992,15.8357014 C376.571268,17.0187103 374.598877,18.1355724 372.614358,19.1773834 C384.618492,16.4233897 396.538835,13.6375946 408.261828,10.4727279 C414.644262,11.0489677 421.179944,11.9088752 427.592144,12.0348084 C427.460946,12.12258 427.341874,12.2128958 427.205163,12.2930351 C422.165588,13.8347628 417.08522,15.3345127 411.970674,16.7134176 C402.3645,15.8573263 393.117745,15.7072241 385.186285,20.1784888 C384.197333,20.7381919 383.216098,21.3500491 382.276759,22.0623986 C380.301061,23.2479515 378.315439,24.3571813 376.338638,25.3977203 C383.736483,23.7122507 391.105663,21.977171 398.409795,20.1950254 C402.942215,19.0794354 407.471328,17.933316 411.970674,16.7134176 C414.790895,16.9932692 417.649705,17.2769369 420.5019,17.5593326 C420.198709,17.8646252 419.876776,18.1711899 419.602251,18.5108279 C417.091835,19.7319983 410.064433,34.3122645 413.769971,38.0686356 C432.875374,37.8765557 459.756785,32.2718922 459.749067,33.526136 C460.927651,38.4871409 428.137887,44.7100219 429.371596,45.9642657 C431.200661,46.5417776 433.034136,47.0289737 434.859893,47.4538392 C433.112414,48.4498564 431.404626,49.4700425 429.830241,50.6339706 C426.10596,51.8373323 421.152381,50.5461989 418.654092,53.0267014 C409.943157,60.4453118 400.04151,57.9024788 390.121121,62.8126016 C383.91068,66.5346273 376.484169,71.5070806 369.065377,76.4846222 C369.063172,78.9663967 402.3645,76.9069437 416.35205,77.6956162 C409.377569,79.7372605 402.503416,81.9557202 395.75936,84.3179217 C404.205692,82.2368438 412.174638,80.135413 419.916467,77.8558948 C421.113793,77.9004167 422.286864,77.9258577 423.467653,77.9411224 L430.894163,78.0161735 C428.586609,77.4424778 426.2989,77.0036196 424.022215,76.6143716 C428.646144,75.2252902 433.21605,73.7751503 437.720908,72.1710921 C443.933554,70.7781945 450.196916,69.5608403 456.490046,68.5533747 C462.784278,67.5738942 469.107176,66.8004863 475.437791,66.2713124 C488.100123,65.1900677 500.793326,65.1697149 513.340998,66.3705325 C512.827228,67.8766427 512.23959,69.3725765 511.590211,70.8570618 C499.474724,71.3646108 487.368056,71.129281 477.392542,77.6460062 C484.375843,77.7528586 489.232402,75.6196265 495.974253,75.5051418 C495.958818,76.2200353 496.009533,77.2478537 495.442843,77.6943442 C499.769094,76.3625052 504.823002,75.1197098 509.723661,74.8220496 C508.110688,78.0123573 506.309186,81.1670476 504.512094,84.3293702 C502.000575,86.769167 498.29614,86.6992041 494.570757,87.8720365 C478.512692,89.7648507 463.412709,88.8845903 447.597197,91.733988 C433.547906,91.1157705 420.085078,98.102097 406.30039,98.2700079 C420.003493,94.8189294 432.041877,83.7696671 444.333766,79.3938064 C430.8666,82.4034827 418.039578,91.3342821 405.257072,95.7406721 Z" id="Fill-27"></path>
                        </g>
                    </g>
                </g>
            </g>
        </g>
    </g>
</svg>