<svg xmlns="http://www.w3.org/2000/svg" width="98" height="153" viewBox="0 0 98 153">
    <g fill="none" fill-rule="evenodd">
        <path fill="#021425" d="M13.347 137.409c-.337-.057-.638-.299-.65-.745a354.618 354.618 0 0 0-.642-12.89c-2.05-7.988-2.976-16.472-3.497-24.333-.11-1.662-.189-3.323-.238-4.985-.284-1.473-.562-2.948-.868-4.414-.525-2.496-.893-5.767-1.849-8.134-1.75-4.343-1.493-1.157-2.002 2.46-2.592 18.427 3.059 37.717 7.604 55.634.72-.86 1.429-1.729 2.142-2.593zm15.57 12.262c5.958-.343 11.854-1.523 17.509-3.633 6.167-2.302 11.582-6.302 17.255-9.617-17.78 4.134-35.621 7.925-53.532 11.31 5.076 2.671 14.047 2.213 18.768 1.94zm43.517-32.245c-22.522 2.096-43.537 10.753-61.319 24.798.077.303.154.608.228.91 2.49-.427 4.974-.873 7.461-1.312 19.443-4.164 37.239-13.047 53.63-24.396zm6.559-21.625c-20.345 5.306-38.016 15.355-53.542 29.069-1.027 1.305-2.05 2.611-3.095 3.9 19.725-6.749 44.346-15.832 56.637-32.97zm5.648-21.896c-16.257 5.378-29.989 14.38-42.018 26.044a382.629 382.629 0 0 1-7.57 10.997c17.827-10.547 36.641-20.77 49.588-37.04zm2.375-16.373c.938-1.992 2.382-2.511-.695-1.813-1.487.336-3.428 2.112-4.706 2.951-.085.057-.169.117-.256.176-4.796 4.724-10.124 8.994-15.918 12.414-4.24 3.906-8.185 8.075-12.056 12.357a369.326 369.326 0 0 1-3.602 5.986 161.815 161.815 0 0 0 6.238-3.63 103.032 103.032 0 0 1 5.41-3.502 100.975 100.975 0 0 0 7.643-5.773c5.95-4.978 14.568-12.006 17.942-19.166zm9.659-18.19c.35-2.299-.867-.264-2.517.995a103.574 103.574 0 0 0-5.75 4.755c-2.918 2.585-5.684 5.374-8.357 8.245-5.283 5.669-9.887 12.021-15.218 17.619a408.762 408.762 0 0 1-2.183 4.034c.875-.629 1.747-1.26 2.616-1.894A147.401 147.401 0 0 1 76.54 62.93c1.404-1.145 4.742-4.37 8.158-6.898a101.56 101.56 0 0 0 3.936-4.678c2.045-2.584 7.522-8.626 8.04-12.012zM32.45 118.088a109.476 109.476 0 0 1 7.587-5.001 367.044 367.044 0 0 1-5.665 2.421c-.64.858-1.272 1.727-1.922 2.58zM93.88 21.08c-2.864 1.36-5.534 3.613-8.032 6.235-1.48 2.179-3.153 4.2-5.092 6.023-2.605 3.376-4.984 6.773-7.137 9.405-.256.31-.608.362-.933.27a365.147 365.147 0 0 1-8.064 17.463c.422-.51.87-1.001 1.3-1.506-.206-.236-.272-.6.01-.84 1.15-.98 2.269-1.976 3.372-2.983 2.78-3.025 5.669-5.93 8.596-8.7 6.622-7.496 12.03-15.819 15.98-25.367zm-3.442-3.805c.705-1.858 1.399-3.692 1.81-5.647.6-2.841 2.196-5.634-1.41-5.568-3.254.06-4.82 4.502-6.06 7.92a307.058 307.058 0 0 1-8.834 25.06c2.786-3.934 6.06-8.225 9.742-11.64 1.862-3.206 3.418-6.61 4.752-10.125zm-6.268-2.136c.366-2.2 1.156-6.397.133-8.46l-.53-2.14c-1.53.968-3.059 1.936-4.586 2.905-1.853 2.81-2.147 8.962-2.733 12.115-1.333 7.162-1.968 14.298-2.576 21.483 3.674-8.349 7.162-16.793 10.516-25.324a.588.588 0 0 1-.224-.58zm-15.865 6.333c-.374-2.669-.054-12.683-3.804-5.547-1.225 2.335-1.287 6.12-1.677 8.745-1.701 11.504-.365 22.286.642 33.722a429.22 429.22 0 0 0 6.46-13.938 1.29 1.29 0 0 1-.104-.399 89.88 89.88 0 0 1-.15-8.052c-.443-4.84-.692-9.695-1.367-14.531zm-10.848 6.456c-1.132 2.576-1.418 6.268-1.841 8.595a80.203 80.203 0 0 0-1.292 15.382c.105 8.179 1.764 15.747 3.972 23.415a408.42 408.42 0 0 0 5.35-10.236c-.01-.026-.028-.043-.036-.068-1.46-5.37-1.937-11.186-1.885-16.997-.868-6.803-2.22-13.498-4.268-20.091zM44.7 42.604c-1.73 4.648-.986 10.896-.92 15.556.074 5.263.31 10.514.954 15.743.712 5.761 3.67 12.109 4.197 18.05.53-.858 1.077-1.704 1.598-2.57a351.942 351.942 0 0 0 6.754-11.738 65.16 65.16 0 0 1-2.529-7.438c.42 2.585.823 5.174 1.233 7.752.153.967-1.27 1.397-1.503.403C51.65 66.169 50.4 53.853 44.7 42.604zM39.072 61.19c-5.353-3.936-4.767 6.476-5.014 9.006a.726.726 0 0 0-.005.06c.577 4.658.68 9.436.712 14.007.049 6.941-.448 13.896-1.531 20.79.235 1.642.532 3.257.903 4.835.758-1.083 1.522-2.16 2.27-3.25-.198-.364-.22-.849.118-1.277a92.517 92.517 0 0 1 3.5-4.136c1.621-2.45 3.215-4.92 4.789-7.405-.001-.028-.014-.049-.014-.078.007-.362-.021-.725-.037-1.087-.807-3.374-1.465-6.8-2.037-10.255-.32-1.289-.606-2.574-.794-3.856a83.318 83.318 0 0 1-.485-4.122c-.17-1.061-.335-2.126-.512-3.183-.279-1.652-.466-9.024-1.863-10.05zm-20.768 76.27a167.726 167.726 0 0 1 9.618-8.518 167.96 167.96 0 0 1-5.91 3.395c-1.235 1.71-2.462 3.43-3.708 5.123zm8.283-79.78c-3.506 4.861-2.958 15.413-3.201 20.546a131.223 131.223 0 0 0 .567 19.712c.72 6.95 2.523 13.638 3.798 20.5.067.363.132.691.191 1.002a440.73 440.73 0 0 0 2.233-2.935c-.066-.032-.13-.064-.195-.093-.219-.107-.367-.43-.294-.649l.298-.888a.146.146 0 0 1 .263-.026c.029.043 1.313-6.545 1.323-6.627.063-.558.113-1.12.171-1.678-1.929-8.525-1.636-17.41-1.65-25.979-.009-3.935-.39-8.898-.11-13.69-.795-3.192-1.882-6.292-3.394-9.196zm-9.864 76.151a80.872 80.872 0 0 1-2.483-3.84c.372 1.77.738 3.538 1.056 5.301.472-.489.957-.969 1.427-1.46zm7.587-9.524c.672-.725.19-3.344-.405-5.788.088 3.027.017 6.047-.794 8.923.411-.523.834-1.035 1.242-1.559-.366-.422-.483-1.1-.043-1.576zm-6.857-47.045c.02-1.849-.813-3.096-2.503-3.738-2.487-2.412-3.228-1.138-2.224 3.827a131.767 131.767 0 0 0-.193 18.823 228.981 228.981 0 0 1 2.704 18.74c1.387 5.838 3.114 11.554 4.56 17.43.705-.872 1.4-1.75 2.1-2.628a.488.488 0 0 1-.09-.463c1.927-7.119 1.156-15.65.29-23.516-.09-.705-.193-1.407-.272-2.112-.133-1.168-.236-2.339-.34-3.509-.022-.23-.048-.467-.07-.695-.513-5.246-1.206-10.48-2.327-15.652-.45-2.08-.733-4.537-1.635-6.507z"/>
        <path fill="#FFF" d="M13.294 138.268c-.337-.057-.638-.298-.65-.744A354.617 354.617 0 0 0 12 124.633c-2.05-7.987-2.976-16.472-3.496-24.332-.11-1.662-.19-3.324-.238-4.986-.284-1.473-.562-2.948-.869-4.413-.524-2.497-.893-5.767-1.848-8.135-1.75-4.343-1.493-1.156-2.002 2.46-2.592 18.427 3.058 37.717 7.604 55.634.72-.86 1.428-1.728 2.142-2.593zm15.57 12.263c5.958-.344 11.854-1.524 17.509-3.633 6.167-2.303 11.582-6.303 17.255-9.617-17.78 4.134-35.621 7.924-53.532 11.31 5.075 2.67 14.047 2.213 18.767 1.94zm43.517-32.246c-22.522 2.096-43.537 10.753-61.32 24.798.078.303.155.609.229.91 2.49-.427 4.973-.872 7.461-1.311 19.443-4.165 37.238-13.048 53.63-24.397zM78.94 96.66c-20.345 5.306-38.017 15.355-53.542 29.07-1.027 1.304-2.05 2.61-3.095 3.9 19.725-6.75 44.346-15.832 56.637-32.97zm5.647-21.895C68.331 80.143 54.6 89.145 42.57 100.809a382.628 382.628 0 0 1-7.568 10.996c17.826-10.547 36.64-20.77 49.586-37.04zm2.376-16.374c.937-1.991 2.382-2.51-.695-1.812-1.488.336-3.428 2.111-4.706 2.95-.086.057-.169.118-.256.176C76.51 64.43 71.182 68.7 65.388 72.12c-4.24 3.905-8.185 8.074-12.056 12.356a369.326 369.326 0 0 1-3.602 5.986 161.815 161.815 0 0 0 6.238-3.63 103.032 103.032 0 0 1 5.41-3.502 100.975 100.975 0 0 0 7.643-5.773c5.95-4.977 14.568-12.005 17.942-19.166zm9.659-18.19c.35-2.298-.867-.264-2.518.996a103.574 103.574 0 0 0-5.75 4.754c-2.917 2.586-5.683 5.374-8.356 8.245-5.283 5.67-9.888 12.022-15.218 17.62a408.762 408.762 0 0 1-2.183 4.034c.875-.63 1.747-1.26 2.615-1.895A147.401 147.401 0 0 1 76.488 63.79c1.404-1.144 4.742-4.37 8.158-6.898a101.56 101.56 0 0 0 3.936-4.677c2.045-2.584 7.521-8.627 8.04-12.012zm-64.225 78.746a109.476 109.476 0 0 1 7.588-5 367.057 367.057 0 0 1-5.665 2.42c-.641.859-1.272 1.727-1.923 2.58zm61.43-97.007c-2.863 1.359-5.534 3.613-8.031 6.235-1.48 2.178-3.153 4.2-5.092 6.022-2.605 3.376-4.984 6.773-7.137 9.405-.256.311-.608.362-.933.27a365.147 365.147 0 0 1-8.064 17.464c.421-.51.87-1.002 1.3-1.506-.207-.236-.272-.6.01-.84 1.15-.98 2.268-1.976 3.372-2.983 2.779-3.026 5.669-5.93 8.595-8.7 6.623-7.497 12.031-15.82 15.98-25.367zm-3.441-3.806c.705-1.858 1.398-3.692 1.81-5.646.6-2.842 2.195-5.634-1.41-5.569-3.254.06-4.82 4.502-6.06 7.92a307.058 307.058 0 0 1-8.834 25.06c2.786-3.933 6.06-8.224 9.741-11.64 1.863-3.205 3.419-6.609 4.753-10.125zm-6.268-2.136c.366-2.2 1.156-6.397.133-8.46l-.53-2.14c-1.53.968-3.059 1.936-4.586 2.905-1.853 2.811-2.147 8.962-2.733 12.116-1.333 7.162-1.968 14.298-2.576 21.482 3.674-8.348 7.162-16.792 10.516-25.324a.588.588 0 0 1-.224-.579zm-15.865 6.333c-.374-2.668-.054-12.682-3.804-5.547-1.225 2.335-1.287 6.12-1.677 8.745-1.701 11.505-.365 22.287.642 33.723a429.219 429.219 0 0 0 6.46-13.938 1.29 1.29 0 0 1-.105-.4 89.881 89.881 0 0 1-.15-8.052c-.442-4.839-.69-9.695-1.366-14.53zm-10.849 6.456c-1.131 2.576-1.417 6.268-1.84 8.596a80.203 80.203 0 0 0-1.292 15.381c.105 8.18 1.764 15.748 3.972 23.415a408.42 408.42 0 0 0 5.349-10.236c-.01-.026-.027-.042-.035-.067-1.46-5.371-1.937-11.186-1.885-16.998-.868-6.802-2.22-13.498-4.269-20.09zM44.647 43.463c-1.73 4.648-.986 10.897-.92 15.556.074 5.263.31 10.514.954 15.743.712 5.762 3.67 12.11 4.197 18.05.53-.858 1.077-1.703 1.598-2.57a351.942 351.942 0 0 0 6.754-11.738 65.16 65.16 0 0 1-2.53-7.437c.42 2.584.824 5.173 1.234 7.752.153.967-1.27 1.396-1.503.402-2.834-12.193-4.084-24.508-9.784-35.758zM39.019 62.05c-5.353-3.936-4.767 6.477-5.015 9.007a.726.726 0 0 0-.005.06c.578 4.657.682 9.436.712 14.006.05 6.942-.447 13.896-1.53 20.79.235 1.642.532 3.257.903 4.835.757-1.083 1.522-2.159 2.27-3.25-.198-.364-.221-.849.118-1.276a92.516 92.516 0 0 1 3.5-4.137c1.621-2.45 3.215-4.919 4.789-7.405-.001-.027-.014-.048-.014-.077.007-.363-.021-.725-.037-1.088-.808-3.374-1.465-6.8-2.037-10.255-.32-1.288-.606-2.573-.794-3.856a83.318 83.318 0 0 1-.486-4.122c-.169-1.06-.334-2.126-.512-3.183-.278-1.651-.465-9.023-1.862-10.049zm-20.768 76.27a167.726 167.726 0 0 1 9.618-8.518 167.958 167.958 0 0 1-5.91 3.395c-1.235 1.71-2.463 3.43-3.708 5.124zm8.283-79.78c-3.506 4.861-2.958 15.414-3.201 20.546a131.223 131.223 0 0 0 .567 19.712c.72 6.95 2.523 13.638 3.798 20.5.066.363.132.691.191 1.002a440.72 440.72 0 0 0 2.233-2.935c-.066-.031-.13-.064-.195-.093-.219-.106-.367-.43-.294-.649.099-.296.199-.59.297-.887a.146.146 0 0 1 .263-.026c.03.043 1.314-6.546 1.324-6.628.062-.558.113-1.12.171-1.677-1.929-8.526-1.637-17.41-1.65-25.98-.009-3.934-.39-8.898-.11-13.69-.795-3.192-1.882-6.292-3.394-9.196zm-9.864 76.152a80.872 80.872 0 0 1-2.483-3.84c.372 1.77.738 3.537 1.056 5.3.472-.489.957-.968 1.427-1.46zm7.587-9.525c.672-.725.189-3.344-.405-5.788.088 3.027.017 6.047-.795 8.923.412-.522.835-1.034 1.243-1.559-.366-.422-.483-1.1-.043-1.576zM17.4 78.123c.02-1.85-.813-3.097-2.503-3.738-2.486-2.413-3.227-1.138-2.223 3.826a131.767 131.767 0 0 0-.193 18.823 228.982 228.982 0 0 1 2.704 18.74c1.386 5.839 3.113 11.554 4.56 17.43.705-.872 1.399-1.75 2.099-2.628a.488.488 0 0 1-.089-.463c1.927-7.118 1.156-15.65.29-23.516-.091-.704-.193-1.406-.272-2.111-.133-1.168-.236-2.34-.34-3.51-.022-.23-.048-.467-.07-.694-.514-5.246-1.206-10.481-2.327-15.652-.451-2.08-.733-4.538-1.636-6.507zm-10.175 1.11a244.58 244.58 0 0 1 1.418 6.283c.07-1.02.13-2.037.223-3.054.357-3.89 0-9.01 3.196-11.71.286-.242.724-.463 1.1-.31 3.602 1.46 5.378 6.118 6.353 11.19.275-8.4.955-19.851 6.222-24.371.605-.52 1.559-.507 1.964.253 1.049 1.972 1.864 4.056 2.533 6.2.767-3.029 1.992-5.778 3.977-7.895.411-.438 1.285-.494 1.672-.004 1.364 1.731 2.286 3.607 2.97 5.57-.42-6.854-.605-14.655 2.753-19.89.46-.714 1.55-.809 1.97-.014 3.077 5.794 4.986 11.993 6.364 18.355-.34-3.432-.47-6.88-.39-10.286.145-6.18.264-20.748 5.37-25.171.666-.578 1.696-.382 1.936.513 1.257 4.664 2.337 9.355 3.176 14.083.16-1.705.335-3.398.542-5.05.7-5.584 1.084-17.785 6.59-21.193a1.04 1.04 0 0 1 1.04-.009c3.187 1.86 2.511 6.882 2.803 10.153.108 1.235.214 2.48.31 3.725.415-2.617.887-5.223 1.411-7.793 1.304-6.393 2.148-13.841 8.005-17.646.43-.279 1.158-.117 1.37.366 1.724 3.962 2.385 7.796 1.94 11.898.155-.396.31-.789.464-1.186a.77.77 0 0 1 .235-.318c2.99-6.46 8.727-16.23 10.74-7.991 1.412 5.78-2.039 13.156-4.454 18.292-.439.932-.89 1.853-1.352 2.76 1.881-1.33 3.837-2.37 5.863-2.97.722-.212 1.623.532 1.315 1.323-2.405 6.154-5.428 12.066-9.045 17.56 3.084-2.52 6.371-4.538 8.922-4.148.415.063.704.452.822.826 1.419 4.52-5.31 12.17-9.803 16.998 1.66-.462 3.082-.326 3.996.8.293.36.445.913.156 1.349-5.856 8.79-12.868 16.81-20.838 23.658a118.784 118.784 0 0 1 14.054-5.637c.815-.267 1.689.776 1.153 1.53-7.931 11.163-18.772 20.21-30.451 27.878a136.763 136.763 0 0 1 24.62-9.203c.877-.235 1.703.76 1.19 1.581-6.44 10.37-16.6 17.042-26.92 22.977a186.298 186.298 0 0 1-6.585 3.6 116.225 116.225 0 0 1 26.334-5.086c.991-.075 1.088 1.203.433 1.694-11.49 8.575-23.84 16.108-37.03 21.212 12.062-2.48 24.093-5.127 36.081-8.001 1.275-.251 1.802 1.678.507 1.982-7.886 1.579-13.63 6.79-20.553 10.541-5.984 3.242-12.509 5.37-19.179 6.364-5.484.82-22.036 2.402-26.618-3.249l-.042-.02c-.176-1.017-.29-2.678.34-4.23-2.985-7.403-15.3-61.452-2.849-66.046.699-.258 1.512.285 1.676.968z"/>
    </g>
</svg>
