<svg xmlns="http://www.w3.org/2000/svg" width="530" height="126" viewBox="0 0 530 126">
    <g fill="none" fill-rule="evenodd">
        <g fill="#030D10">
            <path d="M513.366 121.192c-6.835-.964-12.016.06-19.076-1.157 10.977-4.012 23.182-1.86 35.495-.37a71.626 71.626 0 0 1-2.436 3.134c-4.99-.523-10.268-.255-14.823.207.63-.294.716-1.202.84-1.814.408.06.813.1 1.247.176-.956-1.163-1.128-.837-1.247-.176zM436.482 93.91c-6.378 1.278-12.746 2.84-19.096 4.59-18.807-7.356-38.366-5.67-58.147-8.776 15.482-9.168 29.898-11.472 45.766-22.712 10.35-6.044 18.952-12.625 25.807-19.742l20.664 2.706c35.065 2.836 60.713 8.35 76.943 16.54-.327 7.173-1.548 13.933-3.358 20.448-24.43 8.724-49.378 3.281-73.296 11.483-5.13 2.46-10.2-6.528-15.283-4.537zm-154.714 26.67c9.113-3.594 17.978-8.652 27.534-8.558 9.343 1.412 18.68 2.374 27.992 3.178-13.249 2.508-26.105 4.434-40.373 5.273-5.088.037-10.133.071-15.153.107zm65.072-5.464c11.858-1.544 23.632-2.443 35.39-3.174-16.461-.71-32.95-1.464-49.469-3.187.714-.188 1.46-.35 2.14-.566 36.808-9.874 77.138-1.988 117.45 6.21-2.517.031-5.062.147-7.644.376-11.415 1.302-22.747 2.157-34.043 2.837l-33.838 1.913c-13.493-.575-27.005-1.174-40.53-2.325 3.478-.646 6.97-1.33 10.544-2.084zm21.804-99.666l-3.868 1.412a142.96 142.96 0 0 0-3.33-.712l2.44-1.44 4.758.74zm-75.231 6.781c-.16.007-.31.016-.47.024-5.654.434-11.17.751-16.622 1.008 11.6-1.882 23.303-4.145 35.158-3.561 2.463.37 6.72-2.716 9.37-3.562 13.526-4.845 27.348-4.345 40.867-1.467a96.12 96.12 0 0 1-3.385 2.302l-31.907 2.744a2738.7 2738.7 0 0 1-33.011 2.512zM257.38 123.397c8.834 3.248 16.712 1.81 24.394-.599a1385.69 1385.69 0 0 1-22.13-.629c-.75.404-1.532.771-2.264 1.228M452.27 30.528c6.035-2.631 9.6-3.632 11.544-3.717 1.118-1.572 2.57-3.497 4.5-5.881-.317-.055-.657-.112-.971-.165-5.998 1.267-12.038 2.302-18.12 3.195-2.615 1.153-5.14 2.448-7.361 4.173 3.457.895 6.931 1.778 10.409 2.395M463.953 26.013c-8.963 12.725 7.128-.297 0 0"/>
            <path d="M413.51 105.075c-25.575-4.211-50.975-3.068-74.8 3.148-21.126 6.44-76.938 11.68-79.805 13.505-32.766-.875-64.642-3.146-97.433-8-4.863-.738-9.082 2.445-13.943 1.735-4.95-.528-9.829-.987-14.69-1.425-.062.274-.042.556.051.842-10.123-.699-20.209-1.07-30.422-1.178a448.68 448.68 0 0 0-31.229.739c-9.9-.107-19.46-2.645-29.185-3.908-3.649-.48-2.947-5.404-5.209-6.96-8.856-7.45-15.477-13.323-26.105-17.165l.515-3.695c-1.744.206-3.248-.025-4.429-.58 7.16-13.155 21.265-16.374 8.405-27.734l.006-.04c.843-.296 1.606-.61 2.34-.939l.24.03c0-.058 0-.09.002-.136 3.625-1.653 5.98-3.78 8.549-7.55l-6.441-.817c.648-1.674 1.153-3.372 1.173-5.124.233-.304.45-.62.704-.91.953.12 1.755.223 1.755.223.445-.91.808-1.832 1.096-2.758 6.365-4.594 15.624-6.19 14.642-11.522-.939-2.8-5.376-1.07-10.27-.077a6.764 6.764 0 0 0-.767-1.346c6.312-.45 1.211-8.621 5.065-9.38 4.913.62 9.995.039 14.907.679 20 2.6 37.011 3.687 57.195 2.683l2.649-.07c9.744-.195 18.771.805 27.943 3.078a35.648 35.648 0 0 1-2.212 2.127c7.375 1.844 14.832 3.231 22.62 2.44 9.576-1.138 19.153-2.244 28.81-2.827 9.658-.588 19.41-.732 29.311.188 20.711 2.159 40.902 2.721 62.44 1.961-8.975 1.353-17.896 2.505-26.772 1.953-3.903-.752-7.8-1.44-11.638-1.784 3.873 1.015 7.748 1.55 11.638 1.784 7.509 1.446 15.079 3.155 22.464 3.294 7.382.17 14.578-1.23 21.358-6.035 1.09 1.225.885 2.45 2.105 2.651 8.585 1.388 16.94 4.052 25.117.383.208-1.225 3.89-.606 3.08-3.263 7.559.019 16.147 1.427 23.909.264 3.32-.246 6.896-2.05 10.578-4.385 27.45-2.057 54.626-3.996 84.111-5.028 7.259.103 15.384 1.603 22.511 2.918-11.236 2.117-22.652 3.495-34.174 4.56-10.474-2.84-20.67-4.692-30.184.124-2.161.82-4.298 1.577-6.433 2.259 12.3-.628 24.523-1.302 36.617-2.383 6.186 1.676 12.473 3.658 18.766 4.895-.145.064-.278.132-.426.187-5.231.644-10.495 1.238-15.77 1.708-9.312-2.51-18.393-4.264-26.98-1.238-1.071.38-2.144.811-3.192 1.35-2.152.824-4.3 1.572-6.428 2.253 7.579-.375 15.137-.804 22.64-1.29a598.06 598.06 0 0 0 13.96-1.075l8.254 2.315c-.352.248-.722.494-1.051.78-2.685.767-12.137 13.906-9.14 18.249 18.848 3.128 46.295 2.276 46.07 3.51.298 5.09-33.074 5.525-32.077 6.974a73.634 73.634 0 0 0 5.147 2.42c-1.894.678-3.753 1.386-5.506 2.259-3.877.538-8.53-1.594-11.422.415-9.867 5.794-19.176 1.57-29.799 4.683-6.762 2.587-14.94 6.194-23.11 9.808-.433 2.444 32.72 6.198 46.359 9.404-7.224.8-14.378 1.79-21.43 2.946 8.68-.583 16.892-1.269 24.912-2.17 1.171.252 2.322.481 3.482.701l7.301 1.364c-2.173-.966-4.35-1.795-6.524-2.574 4.795-.565 9.547-1.2 14.262-1.997a309.42 309.42 0 0 1 19.112-.304c6.369.129 12.73.465 19.056 1.043 12.658 1.134 25.162 3.318 37.31 6.68a57.638 57.638 0 0 1-2.503 4.114c-12.02-1.604-23.901-3.938-34.857.748 6.859 1.317 12.012.06 18.671 1.118-.139.701-.267 1.722-.903 2.064 4.492-.56 9.685-.907 14.563-.35-2.143 2.862-4.465 5.656-6.784 8.459-2.897 1.966-6.533 1.254-10.405 1.762-16.143-.924-30.86-4.413-46.93-4.353-13.73-3.049-28.2 1.494-41.805-.735 14.094-1.019 27.868-9.81 40.733-11.985-13.785.626-27.968 7.193-41.321 9.313z"/>
        </g>
        <g fill="#1E5E6E">
            <path d="M507.366 109.192c-6.835-.964-12.016.06-19.076-1.157 10.977-4.012 23.182-1.86 35.495-.37a71.626 71.626 0 0 1-2.436 3.134c-4.99-.523-10.268-.255-14.823.207.63-.294.716-1.202.84-1.814.408.06.813.1 1.247.176-.956-1.163-1.128-.837-1.247-.176zM430.482 81.91c-6.378 1.278-12.746 2.84-19.096 4.59-18.807-7.356-38.366-5.67-58.147-8.776 15.482-9.168 29.898-11.472 45.766-22.712 10.35-6.044 18.952-12.625 25.807-19.742l20.664 2.706c35.065 2.836 60.713 8.35 76.943 16.54-.327 7.173-1.548 13.933-3.358 20.448-24.43 8.724-49.378 3.281-73.296 11.483-5.13 2.46-10.2-6.528-15.283-4.537zm-154.714 26.67c9.113-3.594 17.978-8.652 27.534-8.558 9.343 1.412 18.68 2.374 27.992 3.178-13.249 2.508-26.105 4.434-40.373 5.273-5.088.037-10.133.071-15.153.107zm65.072-5.464c11.858-1.544 23.632-2.443 35.39-3.174-16.461-.71-32.95-1.464-49.469-3.187.714-.188 1.46-.35 2.14-.566 36.808-9.874 77.138-1.988 117.45 6.21-2.517.031-5.062.147-7.644.376-11.415 1.302-22.747 2.157-34.043 2.837l-33.838 1.913c-13.493-.575-27.005-1.174-40.53-2.325 3.478-.646 6.97-1.33 10.544-2.084zM362.644 3.45l-3.868 1.412a142.96 142.96 0 0 0-3.33-.712l2.44-1.44 4.758.74zm-75.231 6.781c-.16.007-.31.016-.47.024-5.654.434-11.17.751-16.622 1.008 11.6-1.882 23.303-4.145 35.158-3.561 2.463.37 6.72-2.716 9.37-3.562 13.526-4.845 27.348-4.345 40.867-1.467a96.12 96.12 0 0 1-3.385 2.302l-31.907 2.744a2738.7 2738.7 0 0 1-33.011 2.512zM251.38 111.397c8.834 3.248 16.712 1.81 24.394-.599a1385.69 1385.69 0 0 1-22.13-.629c-.75.404-1.532.771-2.264 1.228M446.27 18.528c6.035-2.631 9.6-3.632 11.544-3.717 1.118-1.572 2.57-3.497 4.5-5.881-.317-.055-.657-.112-.971-.165-5.998 1.267-12.038 2.302-18.12 3.195-2.615 1.153-5.14 2.448-7.361 4.173 3.457.895 6.931 1.778 10.409 2.395M457.953 14.013c-8.963 12.725 7.128-.297 0 0"/>
            <path d="M407.51 93.075c-25.575-4.211-50.975-3.068-74.8 3.148-21.126 6.44-76.938 11.68-79.805 13.505-32.766-.875-64.642-3.146-97.433-8-4.863-.738-9.082 2.445-13.943 1.735-4.95-.528-9.829-.987-14.69-1.425-.062.274-.042.556.051.842-10.123-.699-20.209-1.07-30.422-1.178a448.68 448.68 0 0 0-31.229.739c-9.9-.107-19.46-2.645-29.185-3.908-3.649-.48-2.947-5.404-5.209-6.96C21.99 84.123 15.368 78.25 4.74 74.408l.515-3.695c-1.744.206-3.248-.025-4.429-.58C7.986 56.978 22.091 53.76 9.231 42.4l.006-.04c.843-.296 1.606-.61 2.34-.939l.24.03c0-.058 0-.09.002-.136 3.625-1.653 5.98-3.78 8.549-7.55l-6.441-.817c.648-1.674 1.153-3.372 1.173-5.124.233-.304.45-.62.704-.91.953.12 1.755.223 1.755.223.445-.91.808-1.832 1.096-2.758 6.365-4.594 15.624-6.19 14.642-11.522-.939-2.8-5.376-1.07-10.27-.077a6.764 6.764 0 0 0-.767-1.346c6.312-.45 1.211-8.621 5.065-9.38 4.913.62 9.995.039 14.907.679 20 2.6 37.011 3.687 57.195 2.683l2.649-.07c9.744-.195 18.771.805 27.943 3.078a35.648 35.648 0 0 1-2.212 2.127c7.375 1.844 14.832 3.231 22.62 2.44 9.576-1.138 19.153-2.244 28.81-2.827 9.658-.588 19.41-.732 29.311.188 20.711 2.159 40.902 2.721 62.44 1.961-8.975 1.353-17.896 2.505-26.772 1.953-3.903-.752-7.8-1.44-11.638-1.784 3.873 1.015 7.748 1.55 11.638 1.784 7.509 1.446 15.079 3.155 22.464 3.294 7.382.17 14.578-1.23 21.358-6.035 1.09 1.225.885 2.45 2.105 2.651 8.585 1.388 16.94 4.052 25.117.383.208-1.225 3.89-.606 3.08-3.263 7.559.019 16.147 1.427 23.909.264 3.32-.246 6.896-2.05 10.578-4.385 27.45-2.057 54.626-3.996 84.111-5.028 7.259.103 15.384 1.603 22.511 2.918-11.236 2.117-22.652 3.495-34.174 4.56-10.474-2.84-20.67-4.692-30.184.124-2.161.82-4.298 1.577-6.433 2.259 12.3-.628 24.523-1.302 36.617-2.383 6.186 1.676 12.473 3.658 18.766 4.895-.145.064-.278.132-.426.187-5.231.644-10.495 1.238-15.77 1.708-9.312-2.51-18.393-4.264-26.98-1.238-1.071.38-2.144.811-3.192 1.35-2.152.824-4.3 1.572-6.428 2.253 7.579-.375 15.137-.804 22.64-1.29a598.06 598.06 0 0 0 13.96-1.075l8.254 2.315c-.352.248-.722.494-1.051.78-2.685.767-12.137 13.906-9.14 18.249 18.848 3.128 46.295 2.276 46.07 3.51.298 5.09-33.074 5.525-32.077 6.974a73.634 73.634 0 0 0 5.147 2.42c-1.894.678-3.753 1.386-5.506 2.259-3.877.538-8.53-1.594-11.422.415-9.867 5.794-19.176 1.57-29.799 4.683-6.762 2.587-14.94 6.194-23.11 9.808-.433 2.444 32.72 6.198 46.359 9.404-7.224.8-14.378 1.79-21.43 2.946 8.68-.583 16.892-1.269 24.912-2.17 1.171.252 2.322.481 3.482.701l7.301 1.364c-2.173-.966-4.35-1.795-6.524-2.574 4.795-.565 9.547-1.2 14.262-1.997a309.42 309.42 0 0 1 19.112-.304c6.369.129 12.73.465 19.056 1.043 12.658 1.134 25.162 3.318 37.31 6.68a57.638 57.638 0 0 1-2.503 4.114c-12.02-1.604-23.901-3.938-34.857.748 6.859 1.317 12.012.06 18.671 1.118-.139.701-.267 1.722-.903 2.064 4.492-.56 9.685-.907 14.563-.35-2.143 2.862-4.465 5.656-6.784 8.459-2.897 1.966-6.533 1.254-10.405 1.762-16.143-.924-30.86-4.413-46.93-4.353-13.73-3.049-28.2 1.494-41.805-.735 14.094-1.019 27.868-9.81 40.733-11.985-13.785.626-27.968 7.193-41.321 9.313z"/>
        </g>
    </g>
</svg>
