<svg width="24" height="22" viewBox="0 0 24 22" fill="none" xmlns="http://www.w3.org/2000/svg">
<path fill-rule="evenodd" clip-rule="evenodd" d="M24 10.5012C24 10.1034 23.842 9.72196 23.5607 9.44069C23.2794 9.15941 22.8979 9.0014 22.5002 9.0014H5.12311L11.5634 2.56412C11.7028 2.42467 11.8135 2.25912 11.8889 2.07692C11.9644 1.89472 12.0032 1.69945 12.0032 1.50224C12.0032 1.30503 11.9644 1.10975 11.8889 0.927549C11.8135 0.74535 11.7028 0.579802 11.5634 0.440353C11.4239 0.300905 11.2584 0.190289 11.0762 0.11482C10.894 0.0393505 10.6987 0.000509262 10.5015 0.000509262C10.3043 0.000509262 10.109 0.0393505 9.92682 0.11482C9.74462 0.190289 9.57907 0.300905 9.43963 0.440353L0.440632 9.43935C0.300958 9.57867 0.190141 9.74418 0.11453 9.92639C0.0389195 10.1086 0 10.304 0 10.5012C0 10.6985 0.0389195 10.8939 0.11453 11.0761C0.190141 11.2583 0.300958 11.4238 0.440632 11.5631L9.43963 20.5621C9.72126 20.8437 10.1032 21.002 10.5015 21.002C10.8998 21.002 11.2818 20.8437 11.5634 20.5621C11.845 20.2805 12.0032 19.8985 12.0032 19.5002C12.0032 19.1019 11.845 18.72 11.5634 18.4383L5.12311 12.0011H22.5002C22.8979 12.0011 23.2794 11.843 23.5607 11.5618C23.842 11.2805 24 10.899 24 10.5012Z" fill="#FFC633"/>
</svg>
