<svg width="24" height="22" viewBox="0 0 24 22" fill="none" xmlns="http://www.w3.org/2000/svg">
<path fill-rule="evenodd" clip-rule="evenodd" d="M0 10.5007C0 10.8985 0.158016 11.28 0.439289 11.5613C0.720562 11.8425 1.10205 12.0006 1.49983 12.0006L18.8769 12.0006L12.4366 18.4378C12.2972 18.5773 12.1865 18.7428 12.1111 18.925C12.0356 19.1072 11.9968 19.3025 11.9968 19.4997C11.9968 19.6969 12.0356 19.8922 12.1111 20.0744C12.1865 20.2566 12.2972 20.4222 12.4366 20.5616C12.5761 20.701 12.7416 20.8117 12.9238 20.8871C13.106 20.9626 13.3013 21.0014 13.4985 21.0014C13.6957 21.0014 13.891 20.9626 14.0732 20.8871C14.2554 20.8117 14.4209 20.701 14.5604 20.5616L23.5594 11.5626C23.699 11.4233 23.8099 11.2578 23.8855 11.0756C23.9611 10.8933 24 10.698 24 10.5007C24 10.3034 23.9611 10.1081 23.8855 9.92589C23.8099 9.74367 23.699 9.57816 23.5594 9.43884L14.5604 0.439846C14.2787 0.158218 13.8968 0 13.4985 0C13.1002 0 12.7182 0.158218 12.4366 0.439846C12.155 0.721474 11.9968 1.10344 11.9968 1.50173C11.9968 1.90001 12.155 2.28198 12.4366 2.56361L18.8769 9.00089L1.49983 9.00089C1.10205 9.00089 0.720562 9.15891 0.439289 9.44018C0.158016 9.72145 0 10.1029 0 10.5007Z" fill="#FFC633"/>
</svg>
