<svg width="181" height="52" viewBox="0 0 181 52" fill="none" xmlns="http://www.w3.org/2000/svg">
<path d="M0 46C0 49.3137 2.68629 52 6 52H154.264C158.475 52 161.375 47.7761 159.864 43.8461L144.479 3.84613C143.588 1.52898 141.362 3.8147e-06 138.879 3.8147e-06H6C2.68629 3.8147e-06 0 2.68629 0 6V46Z" fill="url(#paint0_linear_95_199)"/>
<g filter="url(#filter0_d_95_199)">
<path d="M40.4935 36L46.5975 16.736H53.2335L59.3655 36H54.4375L53.2895 32.22H46.4295L45.3095 36H40.4935ZM47.4655 28.552H52.2255L49.9295 20.936H49.7335L47.4655 28.552ZM62.7936 36V25.136H60.1616V21.72H62.7936V20.74C62.7936 19.6573 62.8589 18.78 62.9896 18.108C63.1202 17.4173 63.3536 16.876 63.6896 16.484C64.0256 16.092 64.4922 15.812 65.0896 15.644C65.7056 15.4573 66.4709 15.3453 67.3856 15.308C68.3189 15.252 69.4296 15.224 70.7176 15.224V18.304C69.9522 18.304 69.3362 18.3227 68.8696 18.36C68.4216 18.3973 68.0856 18.4813 67.8616 18.612C67.6376 18.724 67.4882 18.9013 67.4136 19.144C67.3576 19.368 67.3296 19.6947 67.3296 20.124V21.72H70.7176V25.136H67.3296V36H62.7936ZM73.1501 36V21.72H77.4061L77.5181 24.156H77.7701C78.0314 23.4653 78.3581 22.924 78.7501 22.532C79.1607 22.14 79.6554 21.8693 80.2341 21.72C80.8127 21.5707 81.4847 21.496 82.2501 21.496V25.612C81.0741 25.612 80.1501 25.7613 79.4781 26.06C78.8061 26.3587 78.3301 26.872 78.0501 27.6C77.7701 28.3093 77.6301 29.308 77.6301 30.596V36H73.1501ZM84.5784 18.808V15.196H89.1984V18.808H84.5784ZM84.6344 36V21.72H89.1704V36H84.6344ZM98.3862 36.224C97.1915 36.224 96.2115 36.1213 95.4462 35.916C94.6808 35.692 94.0742 35.384 93.6262 34.992C93.1782 34.5813 92.8515 34.0773 92.6462 33.48C92.4408 32.8827 92.3102 32.2013 92.2542 31.436C92.1982 30.652 92.1702 29.7933 92.1702 28.86C92.1702 27.9453 92.1982 27.1053 92.2542 26.34C92.3102 25.5747 92.4502 24.8933 92.6742 24.296C92.8982 23.68 93.2248 23.1667 93.6542 22.756C94.1022 22.3453 94.6995 22.0373 95.4462 21.832C96.2115 21.608 97.1822 21.496 98.3582 21.496C99.1048 21.496 99.8515 21.5333 100.598 21.608C101.363 21.6827 102.045 21.7947 102.642 21.944V25.108C102.269 25.052 101.783 25.0053 101.186 24.968C100.607 24.9307 100.066 24.912 99.5622 24.912C98.9088 24.912 98.3955 24.968 98.0222 25.08C97.6488 25.1733 97.3688 25.36 97.1822 25.64C96.9955 25.9013 96.8648 26.2933 96.7902 26.816C96.7342 27.3387 96.7062 28.02 96.7062 28.86C96.7062 29.7 96.7342 30.3907 96.7902 30.932C96.8648 31.4547 96.9955 31.856 97.1822 32.136C97.3688 32.3973 97.6582 32.5747 98.0502 32.668C98.4422 32.7613 98.9555 32.808 99.5902 32.808C100.038 32.808 100.542 32.7893 101.102 32.752C101.681 32.7147 102.231 32.668 102.754 32.612V35.776C102.138 35.9067 101.438 36.0093 100.654 36.084C99.8702 36.1773 99.1142 36.224 98.3862 36.224ZM109.079 36.224C108.183 36.224 107.427 36.084 106.811 35.804C106.195 35.524 105.728 35.0667 105.411 34.432C105.112 33.7973 104.963 32.9667 104.963 31.94C104.963 30.8573 105.084 29.9987 105.327 29.364C105.588 28.7107 106.046 28.244 106.699 27.964C107.352 27.684 108.276 27.544 109.471 27.544C109.639 27.544 109.872 27.5533 110.171 27.572C110.488 27.572 110.843 27.5813 111.235 27.6C111.627 27.6 112.019 27.6093 112.411 27.628C112.803 27.628 113.158 27.6373 113.475 27.656V27.124C113.475 26.5827 113.428 26.1627 113.335 25.864C113.26 25.5653 113.102 25.3507 112.859 25.22C112.635 25.0707 112.29 24.9867 111.823 24.968C111.356 24.9307 110.74 24.912 109.975 24.912C109.546 24.912 109.07 24.9213 108.547 24.94C108.043 24.9587 107.539 24.9867 107.035 25.024C106.55 25.0427 106.139 25.0707 105.803 25.108V21.944C106.568 21.8133 107.427 21.7107 108.379 21.636C109.35 21.5427 110.367 21.496 111.431 21.496C112.626 21.496 113.615 21.5707 114.399 21.72C115.202 21.8693 115.846 22.1027 116.331 22.42C116.816 22.7187 117.171 23.1013 117.395 23.568C117.638 24.0347 117.796 24.5853 117.871 25.22C117.946 25.8547 117.983 26.5733 117.983 27.376V36H113.671L113.559 34.32H113.335C112.98 34.88 112.57 35.3 112.103 35.58C111.636 35.86 111.142 36.0373 110.619 36.112C110.096 36.1867 109.583 36.224 109.079 36.224ZM111.207 33.032C111.543 33.032 111.832 33.0133 112.075 32.976C112.336 32.92 112.551 32.836 112.719 32.724C112.906 32.5933 113.055 32.4347 113.167 32.248C113.26 32.0427 113.335 31.7907 113.391 31.492C113.447 31.1933 113.475 30.8387 113.475 30.428V29.896H110.871C110.404 29.896 110.05 29.9333 109.807 30.008C109.564 30.064 109.396 30.2133 109.303 30.456C109.228 30.68 109.191 31.0347 109.191 31.52C109.191 31.9307 109.238 32.248 109.331 32.472C109.424 32.696 109.611 32.8453 109.891 32.92C110.19 32.9947 110.628 33.032 111.207 33.032Z" fill="white"/>
</g>
<defs>
<filter id="filter0_d_95_199" x="38.4935" y="15.196" width="81.4896" height="25.028" filterUnits="userSpaceOnUse" color-interpolation-filters="sRGB">
<feFlood flood-opacity="0" result="BackgroundImageFix"/>
<feColorMatrix in="SourceAlpha" type="matrix" values="0 0 0 0 0 0 0 0 0 0 0 0 0 0 0 0 0 0 127 0" result="hardAlpha"/>
<feOffset dy="2"/>
<feGaussianBlur stdDeviation="1"/>
<feComposite in2="hardAlpha" operator="out"/>
<feColorMatrix type="matrix" values="0 0 0 0 0 0 0 0 0 0 0 0 0 0 0 0 0 0 0.2 0"/>
<feBlend mode="normal" in2="BackgroundImageFix" result="effect1_dropShadow_95_199"/>
<feBlend mode="normal" in="SourceGraphic" in2="effect1_dropShadow_95_199" result="shape"/>
</filter>
<linearGradient id="paint0_linear_95_199" x1="90.5" y1="52" x2="90.5" y2="3.8147e-06" gradientUnits="userSpaceOnUse">
<stop stop-color="#83764B"/>
<stop offset="1" stop-color="#D6C48A"/>
</linearGradient>
</defs>
</svg>
