<?xml version="1.0" encoding="UTF-8"?>
<svg width="172px" height="34px" viewBox="0 0 172 34" version="1.1" xmlns="http://www.w3.org/2000/svg" xmlns:xlink="http://www.w3.org/1999/xlink">
    <title>Continent_Africa</title>
    <g id="UI-Design" stroke="none" stroke-width="1" fill="none" fill-rule="evenodd">
        <g id="Auction_buyingcardalternatives" transform="translate(-407.000000, -2019.000000)">
            <g id="Continent_Africa" transform="translate(407.000000, 2019.000000)">
                <rect id="Rectangle" fill="#D2AD3B" fill-rule="nonzero" x="0" y="0" width="172" height="34" rx="17"></rect>
                <text id="Africa" fill="#FFFFFF" font-family="BerkshireSwash-Regular, Berkshire Swash" font-size="16" font-weight="normal">
                    <tspan x="79" y="23">Africa</tspan>
                </text>
                <g id="noun_africa_789260" transform="translate(50.000000, 7.000000)" fill="#FFFFFF">
                    <path d="M17.5111111,6.87288889 L16.8322222,7.06088889 C16.6353333,7.11533333 16.4271111,7.024 16.3342222,6.842 L15.2548889,4.72822222 C15.2422222,4.70355556 15.2273333,4.68022222 15.2102222,4.65822222 L12.6702222,1.42133333 C12.6011111,1.33333333 12.5006667,1.27577778 12.3897778,1.26066667 L10.1335556,0.952888889 C10.0271111,0.938444444 9.91933333,0.964222222 9.83088889,1.02511111 L9.62244444,1.16911111 C9.496,1.25644444 9.33311111,1.27 9.19422222,1.204 C8.536,0.892 6.64755556,0 6.56111111,0 C6.47022222,0 4.60533333,0.394222222 4.11177778,0.498888889 C4.03311111,0.515555556 3.962,0.553777778 3.90422222,0.609333333 L2.616,1.84888889 C2.608,1.85666667 2.60022222,1.86466667 2.59266667,1.87311111 L0.795111111,3.89533333 C0.743777778,3.95288889 0.709111111,4.02333333 0.694444444,4.09888889 L0.173777778,6.77377778 C0.152444444,6.88355556 0.174666667,6.99755556 0.235777778,7.09111111 L1.25777778,8.65688889 C1.33,8.76733333 1.44888889,8.83866667 1.58022222,8.85022222 L3.03577778,8.97866667 C3.11311111,8.98555556 3.19088889,8.97133333 3.26088889,8.93755556 L4.56822222,8.30577778 C4.66977778,8.25666667 4.78644444,8.24955556 4.89311111,8.28555556 L6.29444444,8.75888889 C6.50488889,8.83 6.62666667,9.04977778 6.57533333,9.26577778 L6.34288889,10.2455556 C6.31488889,10.3633333 6.338,10.4875556 6.40622222,10.5875556 L7.69955556,12.4813333 C7.74355556,12.5455556 7.76911111,12.6204444 7.77377778,12.6982222 L7.84111111,13.8197778 C7.844,13.8662222 7.83911111,13.9126667 7.82711111,13.9575556 L7.43688889,15.4033333 C7.41288889,15.4926667 7.418,15.5873333 7.452,15.6733333 L8.46111111,18.2328889 C8.47,18.2551111 8.48044444,18.2766667 8.49288889,18.2973333 L9.394,19.7917778 C9.48711111,19.9462222 9.66644444,20.0262222 9.84333333,19.9922222 L11.8466667,19.6086667 C11.9531111,19.5882222 12.0477778,19.5284444 12.1122222,19.4413333 L13.0637778,18.1497778 C13.0962222,18.1057778 13.1368889,18.0682222 13.1833333,18.0393333 L13.6751111,17.734 C13.7984444,17.6573333 13.8748889,17.5235556 13.8784444,17.3784444 L13.8948889,16.6708889 C13.8975556,16.5517778 13.9495556,16.4393333 14.0384444,16.36 L15.2331111,15.2933333 C15.3186667,15.2168889 15.3702222,15.1093333 15.3762222,14.9948889 L15.5433333,11.7968889 C15.548,11.7091111 15.5791111,11.6248889 15.6331111,11.5555556 L17.6657778,8.93511111 C17.7051111,8.88422222 17.7326667,8.82533333 17.7462222,8.76266667 L18.0464444,7.37888889 C18.1148889,7.06244444 17.8228889,6.78666667 17.5111111,6.87288889 Z" id="Path"></path>
                    <path d="M17.8142222,14.4004444 C17.7642222,14.2235556 17.5273333,14.1913333 17.4317778,14.3482222 L17.162,14.7913333 C17.1426667,14.8231111 17.1151111,14.8493333 17.0822222,14.8671111 L16.5044444,15.1795556 C16.4424444,15.2131111 16.4013333,15.2753333 16.3948889,15.3455556 L16.2915556,16.4815556 C16.2886667,16.5135556 16.2784444,16.5446667 16.2615556,16.5722222 L15.964,17.0597778 C15.9437778,17.0928889 15.9331111,17.1306667 15.9331111,17.1693333 L15.9331111,17.3913333 C15.9331111,17.5184444 16.0448889,17.6164444 16.1708889,17.6 L16.4993333,17.5571111 C16.5693333,17.548 16.63,17.5044444 16.6611111,17.4411111 L17.9026667,14.9122222 C17.9255556,14.8655556 17.9304444,14.8122222 17.9162222,14.7622222 L17.8142222,14.4004444 Z" id="Path"></path>
                </g>
            </g>
        </g>
    </g>
</svg>