<?xml version="1.0" encoding="UTF-8"?>
<svg width="172px" height="34px" viewBox="0 0 172 34" version="1.1" xmlns="http://www.w3.org/2000/svg" xmlns:xlink="http://www.w3.org/1999/xlink">
    <title>Continent_antarctica</title>
    <g id="UI-Design" stroke="none" stroke-width="1" fill="none" fill-rule="evenodd">
        <g id="Auction_buyingcardalternatives" transform="translate(-694.000000, -1508.000000)">
            <g id="Continent" transform="translate(694.000000, 1508.000000)">
                <rect id="Rectangle" fill="#548CC6" fill-rule="nonzero" x="0" y="0" width="172" height="34" rx="17"></rect>
                <g id="noun_Antarctica_301976" transform="translate(33.000000, 7.000000)" fill="#FFFFFF">
                    <path d="M10.5768996,0.165356029 C10.4859045,0.164675676 10.4093753,0.234754127 10.4003268,0.327050127 L10.3741319,0.592576203 L10.1873723,0.901614937 L9.46458847,1.16466861 L9.28461997,1.09593848 C9.20402347,1.06506608 9.11334307,1.09810755 9.07021031,1.17406354 L8.73986414,1.75604532 C8.72430828,1.78338724 8.71610893,1.81443041 8.71609477,1.84603747 L8.71609477,1.94394076 L8.55019397,2.01909899 C8.53532808,2.02585092 8.52145192,2.03467035 8.50896149,2.04530557 L8.16406256,2.33802709 L8.00204248,2.42060228 C7.94228189,2.45099572 7.90452451,2.51322569 7.90453945,2.58130228 L7.90453945,3.15982304 L7.46601821,4.29263544 C7.44775476,4.33997297 7.45004665,4.39298536 7.47232447,4.43850177 L7.50094468,4.49684835 L7.31709571,5.11393696 L7.2064951,5.31073266 C7.19119094,5.33797717 7.18316254,5.36883585 7.18321078,5.40023038 L7.18321078,5.64103342 L6.63069352,6.01633013 C6.57713233,6.05257484 6.54719766,6.11568537 6.55259383,6.18098582 L6.56957213,6.38866 L4.42887044,6.82526987 L3.98452825,6.21213696 C3.96345924,6.18332701 3.93439416,6.16162388 3.90109267,6.14983494 L2.8363205,5.76811013 L2.23674929,5.01158329 C2.20222989,4.96805507 2.1497706,4.94342581 2.09488132,4.94497728 C2.03999203,4.94652874 1.98895236,4.97408345 1.95685247,5.01949468 L1.39414822,4.95570911 L0.809614986,3.96233468 L0.480724067,3.35266304 C0.444210944,3.28527881 0.369619767,3.24911813 0.295296448,3.26277051 C0.220973129,3.27642289 0.163457881,3.33685007 0.152318207,3.41298759 L0.00194035948,4.45481899 C-0.00252122125,4.48569504 0.000989825018,4.51722329 0.0121272405,4.54629443 L0.282322316,5.25090278 C0.286927474,5.26288031 0.292782163,5.27431865 0.299785527,5.28502076 L0.404079855,5.44423747 L0.516620705,5.87491392 C0.517639181,5.87857577 0.518771631,5.88220368 0.52001634,5.88579215 L0.580167484,6.0697319 C0.60052587,6.13177232 0.652376855,6.17761602 0.715507563,6.1893919 L0.861519608,6.21658709 L0.81689134,6.39805468 C0.801208818,6.46165009 0.820785879,6.52890214 0.867959452,6.57348628 C0.915133024,6.61807043 0.982399359,6.63289481 1.04342832,6.61215671 L1.36310247,6.50337519 L1.59352031,6.87669392 L1.40579038,6.8465319 C1.34510138,6.83681695 1.28383105,6.86003372 1.24410461,6.90779844 C1.20437817,6.95556316 1.19193537,7.02097469 1.2112694,7.08041241 L1.4096711,7.68761165 L1.38347618,7.95561013 C1.37856322,8.00603878 1.39478583,8.05623538 1.42814109,8.09381395 C1.46149634,8.13139252 1.5088777,8.15285317 1.55859384,8.15290051 L1.8292738,8.15290051 C1.83347663,8.15305398 1.8376835,8.15305398 1.84188633,8.15290051 L2.20230813,8.12669392 L2.33231209,8.21520278 C2.41198043,8.26934912 2.51949129,8.24870525 2.57437184,8.16872329 L2.70583123,7.97786101 L2.84408193,8.03274633 L2.43612139,8.38925342 C2.36974542,8.44736935 2.35528439,8.5463405 2.40216503,8.62165038 L2.5777675,8.90299949 L2.42108357,10.0753689 L2.43466596,10.0704243 C2.36270661,10.0949425 2.31423552,10.1636748 2.31436367,10.2410137 L2.31436367,11.1953253 C2.26061075,11.193893 2.20916,11.2175659 2.17465779,11.2596053 L2.02428012,11.4435453 C1.9819368,11.4953441 1.9716326,11.5669573 1.99760014,11.6289686 L2.2682801,12.2722635 C2.27872855,12.2969356 2.29447685,12.3189023 2.31436367,12.3365438 L2.55496825,12.5511403 C2.60327254,12.5942085 2.67073374,12.60709 2.73105603,12.5847635 L3.0614022,12.462137 C3.1163574,12.4417393 3.15779657,12.394868 3.17200256,12.3370382 L3.19916759,12.2282565 L3.21178012,12.2282565 C3.23075018,12.2282073 3.24958789,12.2250349 3.26756536,12.2188618 L3.6105238,12.1021686 L3.60373273,12.136781 L3.54358146,12.1471648 C3.48136253,12.1576228 3.42937462,12.2011858 3.40727124,12.2613853 L3.31752965,12.5061441 C3.29624101,12.5635643 3.30520596,12.6280911 3.34129902,12.6772281 L3.57026144,12.9882446 L3.51738655,13.5000129 C3.51426874,13.5303329 3.5187762,13.5609628 3.53048413,13.5890159 L3.85986018,14.383122 L4.12957003,15.0857524 C4.14691281,15.130816 4.18137188,15.1668323 4.22513282,15.1856339 L5.73133684,15.835357 L5.88219982,16.1172003 C5.92857808,16.2039709 6.03502337,16.2362343 6.12037885,16.1893919 L6.42064939,16.0247359 L6.90476914,16.3362471 C6.95903285,16.3711763 7.02763954,16.373258 7.08384542,16.3416806 C7.14005131,16.3101033 7.17496025,16.2498648 7.17496429,16.1844471 L7.17496429,16.1626909 L7.61397059,16.3767929 C7.676647,16.4075334 7.75120101,16.3978003 7.80425415,16.3519514 C7.85730729,16.3061025 7.87892389,16.2327242 7.859426,16.1646686 L8.33238865,16.4059661 C8.39213199,16.436573 8.4637254,16.4300606 8.51720799,16.3891544 L8.84076284,16.1414289 L9.24629809,16.0865438 C9.31291666,16.0773977 9.36862049,16.0304007 9.38988469,15.9654005 L9.39619071,15.9471053 L10.4231261,16.2610889 L11.2579657,16.6487471 C11.2833599,16.6604825 11.3111244,16.6659054 11.3389757,16.6645699 L12.0719465,16.6319352 C12.1241864,16.6295992 12.1727078,16.6037255 12.2043809,16.5613156 C12.236054,16.5189056 12.2476045,16.4643437 12.2359069,16.4123942 L12.2009804,16.2576276 L12.4163604,16.5187035 L12.5429687,16.9389962 C12.4886983,16.952588 12.4439751,16.9916241 12.4224471,17.044192 C12.4009191,17.09676 12.4051407,17.1566223 12.4338235,17.2055111 L12.5085273,17.3325878 L12.5191993,17.4626314 L12.4668095,17.5110889 C12.4125424,17.5612376 12.394386,17.6403856 12.4212113,17.7098625 L12.4284876,17.704918 C12.4261806,17.7066741 12.4239161,17.7084877 12.4216963,17.710357 C12.4237098,17.7157392 12.4259762,17.7210196 12.4284876,17.7261797 L12.4202409,17.7113458 C12.4020904,17.7264648 12.3870829,17.7451244 12.3760978,17.7662311 L12.2320261,18.0441187 L12.1194853,18.0500524 C12.0724132,18.0523584 12.0282106,18.0737953 11.9967602,18.1095701 C11.9653099,18.1453449 11.9492349,18.192474 11.9521293,18.2404203 L11.9802645,18.7081813 L11.8885826,18.8406972 C11.8445601,18.9042811 11.8457352,18.9895344 11.891493,19.0518324 L12.0190717,19.2248942 C12.0508801,19.268296 12.1002135,19.2947377 12.1533216,19.2968494 C12.2064298,19.298961 12.2576339,19.2765168 12.2926625,19.2357724 L12.2654974,19.2669235 L12.700623,19.5596451 C12.7452748,19.5898254 12.8009748,19.5976502 12.8519711,19.5809068 L13.4952003,19.3687825 L14.0258884,19.7203451 C14.0621297,19.7444736 14.1058184,19.7541547 14.1486162,19.7475405 L14.7966963,19.6471648 L15.1008476,19.7549575 C15.1518408,19.7730541 15.2081597,19.7663111 15.253651,19.7366623 L15.9390829,19.292141 L15.9924428,19.3677937 C16.038207,19.4331887 16.1210159,19.4596421 16.1952103,19.4325681 L16.3965226,19.3593878 C16.403571,19.4270885 16.4475778,19.4849021 16.5101619,19.5086805 C16.572746,19.532459 16.6431405,19.5181114 16.6919423,19.4716306 L16.8976204,19.2758238 L18.3558007,18.5613261 L18.751634,18.6285729 C18.8201237,18.6402629 18.8889597,18.6098441 18.9274073,18.5508982 C18.965855,18.4919524 18.9667379,18.4154818 18.929662,18.3556299 L18.8273081,18.1904795 L19.3817656,17.6638775 C19.4203902,17.6271061 19.4407755,17.5745996 19.4372974,17.5208443 C19.4338193,17.4670891 19.4068453,17.4177664 19.3638175,17.3864843 L19.1906403,17.2603965 L19.2294475,17.2050167 L19.6257659,17.1268916 C19.6664379,17.1188378 19.7030231,17.0964276 19.7290901,17.0636005 L19.9842474,16.7417058 C20.0308751,16.6832003 20.0366877,16.6012371 19.9987999,16.5365041 L19.966299,16.4816187 L20.3403032,16.4554124 C20.4151324,16.450157 20.4784886,16.3971759 20.4981686,16.3233988 C20.5178487,16.2496217 20.4895351,16.1712336 20.4276195,16.1280785 L20.1952614,15.9668838 L20.2854881,15.5485691 L20.6362082,15.4007248 C20.6816601,15.3815744 20.7171875,15.3439264 20.7341963,15.2968878 L20.808415,15.0911916 L21.0383476,15.0244392 C21.093454,15.0083406 21.1374281,14.9659149 21.1562246,14.9107129 L21.2915644,14.5121767 C21.3063746,14.4682942 21.3039408,14.4202709 21.2847733,14.3781775 L21.0427133,13.8481142 L22.0002808,13.0782367 C22.0754189,13.0179364 22.0896297,12.9075403 22.0322967,12.8295223 L21.9697201,12.7444749 L22.0851716,12.5580628 C22.1305589,12.4851006 22.1185339,12.3895349 22.0565514,12.3306101 L21.9517719,12.2317177 L22.3272313,11.6062233 C22.3589541,11.5533525 22.3616845,11.4875435 22.3344543,11.4321313 C22.307224,11.3767192 22.2538835,11.3395391 22.1933466,11.3337747 L21.7785948,11.2942177 C21.7453773,11.2573063 21.6972566,11.2043167 21.6393739,11.142418 C21.639672,11.1398863 21.6394559,11.1402225 21.639859,11.1389567 C21.6472926,11.0967542 21.6640563,11.0319757 21.6835173,10.9688618 C21.7224405,10.8426339 21.7698632,10.7206418 21.7698632,10.7206418 C21.7817246,10.6896683 21.7849153,10.6559459 21.7790798,10.6232327 L21.720869,10.2894709 L21.9221814,10.0956418 C21.9745959,10.0451384 21.9915092,9.96716631 21.9648693,9.89884582 L21.6980698,9.21896051 L21.9566228,8.81102937 C21.9897968,8.75862841 21.9939188,8.69243397 21.9675108,8.63617807 C21.9411029,8.57992218 21.8879481,8.54166386 21.8271036,8.53511949 L21.5777675,8.5079243 C21.5389672,8.50371693 21.4998946,8.5127607 21.4666821,8.5336362 L21.1567096,8.72845418 L21.0368924,8.67604127 L20.8375205,8.29827241 C20.8116921,8.24938641 20.7651279,8.21543141 20.7113971,8.20630228 L20.3456394,8.14400025 L20.2151501,8.02879038 C20.2642735,7.94854932 20.2439046,7.8432231 20.1685815,7.78798759 L20.0390626,7.69305089 L20.1972017,7.49477165 C20.2205681,7.46554449 20.2343154,7.42956111 20.2364942,7.39192354 L20.2539573,7.08980709 L20.5372498,6.81884203 C20.5896289,6.76854115 20.6067222,6.69082041 20.5804227,6.62254051 L19.9696947,5.0358119 C19.9659833,5.02603082 19.9614384,5.0166 19.956112,5.00762759 L19.858609,4.84544405 L19.8183466,4.52503266 L19.9207005,4.49289266 C20.0083188,4.46565393 20.0608311,4.37450773 20.0414879,4.28324076 L19.8979013,3.61176127 C19.8876574,3.56374401 19.8585539,3.5221047 19.8173765,3.49655165 L19.2328431,3.13312203 C19.1631126,3.0898853 19.073376,3.10114005 19.0160079,3.16031747 C18.991287,3.09533684 18.9319077,3.0508093 18.8636898,3.04609671 L18.6342423,3.03076835 C18.6078758,3.02926891 18.5815159,3.03383156 18.557113,3.04411873 L18.5352838,2.94769873 C18.5234078,2.89521351 18.4890427,2.85093565 18.4416669,2.82707754 C18.3942911,2.80321944 18.3389101,2.8023018 18.2907985,2.82457772 L18.1962061,2.86809038 L17.3002451,2.56449063 C17.2649301,2.55281851 17.2269,2.55281851 17.191585,2.56449063 L16.872881,2.66733873 C16.8650884,2.66976442 16.8574704,2.67273831 16.8500817,2.67623899 L16.7370558,2.73161873 C16.7248984,2.67116095 16.6831313,2.62130469 16.6264552,2.59959747 L16.5706699,2.5783357 L16.4270833,1.96668608 C16.4080081,1.88604787 16.3372237,1.8292256 16.2558466,1.82922557 L16.1205065,1.82922557 C16.0567903,1.82912372 15.9979872,1.86410401 15.966733,1.92070101 L15.9371426,1.9750919 L15.9007607,1.82724785 C15.8883056,1.77651415 15.8547684,1.73383739 15.8089155,1.71037298 C15.7630626,1.68690858 15.7094518,1.68498889 15.6620966,1.7051157 L15.3128319,1.85394886 L15.2347325,1.82477544 C15.2186849,1.8186935 15.2018531,1.81502888 15.1847682,1.81389722 L14.5012766,1.7718681 L13.743081,1.08555468 C13.7101413,1.05562949 13.6673828,1.03939559 13.6232638,1.0400643 L13.4268025,1.04303089 L13.354524,0.855629873 C13.3349964,0.805177949 13.2941416,0.7664273 13.2433703,0.750200697 C13.1925989,0.733974094 13.1373524,0.742010653 13.0930607,0.772065823 L12.7142054,1.02968051 L11.9205985,0.802722532 C11.8649002,0.786761326 11.8050636,0.79969908 11.7605187,0.837334684 L11.6358506,0.94314962 L11.0464664,0.807667089 L10.9552696,0.480827595 C10.9456809,0.447146041 10.9266249,0.417064355 10.9004545,0.394296709 L10.6899255,0.210356962 C10.658461,0.182723951 10.6184293,0.167312579 10.5768996,0.166844304 L10.5768996,0.165356029 Z" id="Path"></path>
                </g>
                <text id="Antarctica" fill="#FFFFFF" font-family="BerkshireSwash-Regular, Berkshire Swash" font-size="16" font-weight="normal">
                    <tspan x="67" y="23">Antarctica</tspan>
                </text>
            </g>
        </g>
    </g>
</svg>