<?xml version="1.0" encoding="UTF-8"?>
<svg width="172px" height="34px" viewBox="0 0 172 34" version="1.1" xmlns="http://www.w3.org/2000/svg" xmlns:xlink="http://www.w3.org/1999/xlink">
    <title>Continent_asia</title>
    <g id="UI-Design" stroke="none" stroke-width="1" fill="none" fill-rule="evenodd">
        <g id="Auction_buyingcardalternatives" transform="translate(-1001.000000, -997.000000)">
            <g id="Continent" transform="translate(1001.000000, 997.000000)">
                <rect id="Rectangle" fill="#D35F44" fill-rule="nonzero" x="0" y="0" width="172" height="34" rx="17"></rect>
                <text id="Asia" fill="#FFFFFF" fill-rule="nonzero" font-family="BerkshireSwash-Regular, Berkshire Swash" font-size="16" font-weight="normal">
                    <tspan x="86" y="23">Asia</tspan>
                </text>
                <g id="noun_asia_789264" transform="translate(55.000000, 7.000000)" fill="#FFFFFF">
                    <path d="M16.9524444,2.21711111 L17.5568889,1.798 C17.6782222,1.714 17.8426667,1.73111111 17.944,1.83822222 L18.7624444,2.70355556 C18.8344444,2.77955556 18.9493333,2.796 19.0395556,2.74288889 C19.1608889,2.67155556 19.1875556,2.50755556 19.0948889,2.40133333 L17.1724444,0.198666667 C17.1157778,0.133777778 17.0337778,0.0964444444 16.9475556,0.0964444444 L15.6073333,0.0964444444 C15.5875556,0.0964444444 15.568,0.0984444444 15.5486667,0.102222222 L14.6026667,0.291555556 C14.5688889,0.298222222 14.5364444,0.310888889 14.5066667,0.328888889 L13.8822222,0.707333333 C13.828,0.740222222 13.7646667,0.754888889 13.7013333,0.749333333 L12.5706667,0.650222222 C12.5233333,0.646 12.4775556,0.630666667 12.4373333,0.605111111 L11.7528889,0.172888889 C11.6762222,0.124444444 11.5817778,0.113555556 11.4962222,0.143111111 L10.2602222,0.568666667 C10.2468889,0.573333333 10.234,0.578666667 10.2213333,0.585111111 L9.29377778,1.05977778 C9.27088889,1.07155556 9.24666667,1.08022222 9.22155556,1.08555556 L8.64977778,1.21066667 C8.57266667,1.22755556 8.49222222,1.21311111 8.42555556,1.17088889 L8.14088889,0.989777778 C8.06888889,0.944 7.98066667,0.931111111 7.89844444,0.954666667 L7.56844444,1.04888889 C7.55511111,1.05266667 7.54177778,1.05555556 7.528,1.05755556 L6.70044444,1.17422222 C6.412,1.21488889 6.242,0.860666667 6.454,0.661111111 C6.51044444,0.608 6.53555556,0.529333333 6.52044444,0.453333333 L6.49822222,0.342666667 C6.46155556,0.159111111 6.22977778,0.0982222222 6.10755556,0.24 L5.72155556,0.688222222 C5.70777778,0.704222222 5.69244444,0.718666667 5.67555556,0.731333333 L5.01466667,1.232 C4.97133333,1.26488889 4.93822222,1.30955556 4.91911111,1.36044444 L4.86044444,1.51888889 C4.82933333,1.60288889 4.762,1.66844444 4.67733333,1.69755556 L3.80622222,1.99644444 C3.73377778,2.02133333 3.67377778,2.07288889 3.63844444,2.14088889 L3.17711111,3.02511111 C3.15666667,3.06422222 3.14511111,3.10733333 3.14355556,3.15155556 L3.10688889,4.08844444 C3.10288889,4.188 3.04955556,4.27933333 2.96444444,4.33133333 L2.52777778,4.59888889 C2.44377778,4.65044444 2.39044444,4.74 2.38555556,4.83866667 L2.35288889,5.49177778 C2.34955556,5.55777778 2.32355556,5.62044444 2.27933333,5.66933333 L2.17155556,5.78844444 C2.04111111,5.93266667 1.80955556,5.91555556 1.70155556,5.75377778 L1.44022222,5.36177778 C1.36911111,5.25511111 1.23777778,5.20577778 1.11422222,5.23911111 L0.912888889,5.29333333 C0.800444444,5.32355556 0.715777778,5.41666667 0.696222222,5.53133333 L0.596666667,6.11377778 C0.579333333,6.216 0.616,6.31977778 0.693777778,6.38822222 L0.905555556,6.57466667 C1.03288889,6.68666667 1.04155556,6.88222222 0.924444444,7.00488889 L0.278,7.68288889 C0.23,7.73333333 0.201111111,7.79866667 0.196222222,7.86822222 L0.000666666666,10.6715556 C-0.000666666667,10.6926667 1.56088026e-05,10.7137778 0.00311111111,10.7348889 L0.303777778,12.8195556 C0.324888889,12.9664444 0.450888889,13.0755556 0.599333333,13.0755556 L2.30977778,13.0755556 C2.39244444,13.0755556 2.47133333,13.0413333 2.52777778,12.9808889 L2.93644444,12.544 C3.03244444,12.4415556 3.044,12.286 2.964,12.1702222 L2.51977778,11.5268889 C2.46888889,11.4531111 2.38733333,11.406 2.29777778,11.3988889 L2.09822222,11.3828889 C1.96311111,11.372 1.852,11.2715556 1.828,11.138 L1.58466667,9.78266667 C1.56444444,9.67022222 1.63177778,9.56044444 1.74133333,9.52777778 L1.79155556,9.51266667 C1.91,9.47711111 2.03488889,9.544 2.07111111,9.662 L2.39311111,10.7126667 C2.422,10.8066667 2.49511111,10.8804444 2.58866667,10.91 L2.77222222,10.968 C2.83711111,10.9884444 2.89311111,11.0304444 2.93088889,11.0871111 L3.05733333,11.2766667 C3.08577778,11.3193333 3.12466667,11.354 3.17044444,11.3773333 L4.42866667,12.0168889 C4.47022222,12.038 4.50644444,12.0686667 4.534,12.1064444 L5.564,13.5091111 L5.62244444,13.5975556 L5.96911111,15.1695556 C5.97266667,15.2028889 5.98177778,15.2353333 5.99622222,15.2657778 L6.75955556,16.8771111 C6.78333333,16.9271111 6.82022222,16.9695556 6.86666667,16.9995556 L7.48444444,17.4011111 C7.61177778,17.484 7.78111111,17.4577778 7.87777778,17.3406667 L7.95955556,17.2415556 C8.00266667,17.1893333 8.01977778,17.1204444 8.00622222,17.054 L7.75088889,15.7964444 C7.738,15.7331111 7.746,15.6675556 7.77355556,15.6091111 L8.10355556,14.9122222 C8.12822222,14.86 8.16777778,14.816 8.21688889,14.7857778 L9.526,13.9802222 C9.58911111,13.9413333 9.66466667,13.9273333 9.73755556,13.9411111 L10.5611111,14.0955556 C10.6597778,14.114 10.7424444,14.1808889 10.7813333,14.2733333 L11.1333333,15.1115556 C11.1735556,15.2073333 11.2606667,15.2753333 11.3633333,15.2911111 L11.9406667,15.38 C12.0333333,15.3942222 12.1137778,15.4511111 12.1582222,15.5335556 L12.3586667,15.9057778 C12.39,15.964 12.4011111,16.0311111 12.3902222,16.0964444 L12.3257778,16.4828889 C12.3191111,16.5226667 12.3206667,16.5631111 12.3302222,16.6022222 L12.4868889,17.2484444 C12.4944444,17.2797778 12.5071111,17.3097778 12.5242222,17.3371111 L12.6744444,17.576 C12.8035556,17.7815556 12.6342222,18.0442222 12.3937778,18.0115556 C12.1166667,17.9737778 11.9557778,18.3151111 12.1611111,18.5048889 L12.9822222,19.2637778 C12.9942222,19.2748889 13.0068889,19.2848889 13.0206667,19.2937778 L13.8902222,19.8668889 C13.9602222,19.9128889 14.0497778,19.9164444 14.1231111,19.8757778 L14.2475556,19.8066667 C14.3437778,19.7531111 14.3871111,19.6377778 14.3497778,19.534 L14.2288889,19.1982222 C14.2157778,19.1622222 14.196,19.1288889 14.1704444,19.1002222 L13.924,18.6873333 L13.8897778,18.546 C13.9191111,18.4755556 13.9204444,18.3966667 13.8933333,18.3253333 L13.7133333,17.8508889 C13.6944444,17.8011111 13.6626667,17.7575556 13.6213333,17.7242222 L13.0033333,17.2268889 C12.8666667,17.1168889 12.8537778,16.9135556 12.9753333,16.7873333 L13.1782222,16.5762222 C13.2635556,16.4875556 13.3942222,16.4602222 13.5077778,16.5073333 L14.1133333,16.7584444 C14.202,16.7953333 14.3031111,16.7871111 14.3848889,16.7364444 L15.1046667,16.2908889 C15.1737778,16.248 15.2224444,16.1791111 15.2395556,16.0995556 L15.3184444,15.7311111 C15.3382222,15.6393333 15.3133333,15.5435556 15.2517778,15.4726667 L14.7731111,14.9222222 C14.6231111,14.7497778 14.7146667,14.4793333 14.9386667,14.4337778 L15.4517778,14.3291111 C15.5184444,14.3155556 15.5784444,14.2795556 15.622,14.2271111 L16.1742222,13.5604444 C16.202,13.5268889 16.222,13.488 16.2331111,13.446 L16.2995556,13.194 C16.3193333,13.1186667 16.3677778,13.054 16.4346667,13.014 L16.9331111,12.7148889 C16.9862222,12.6828889 17.0282222,12.6353333 17.0531111,12.5784444 L17.7617778,10.9588889 C17.7946667,10.8835556 17.7951111,10.7982222 17.7631111,10.7226667 L17.5577778,10.2384444 C17.5457778,10.21 17.5293333,10.1835556 17.5091111,10.16 L17.0602222,9.63888889 C17.0306667,9.60466667 16.9864444,9.59066667 16.9651111,9.54355556 L16.9095556,9.33822222 L17.0557778,8.96488889 C17.1528889,8.83044444 17.0757778,8.64044444 16.9122222,8.612 L16.7684444,8.58688889 C16.5657778,8.55133333 16.4588889,8.32644444 16.5593333,8.14688889 L16.5853333,8.10066667 C16.6388889,8.00488889 16.7426667,7.94844444 16.8522222,7.95488889 L17.276,7.98066667 C17.3702222,7.98644444 17.4562222,8.03644444 17.508,8.11555556 L17.9495556,8.79177778 C18.0548889,8.95311111 18.2831111,8.974 18.4157778,8.83444444 L18.4751111,8.772 C18.5573333,8.68555556 18.5773333,8.55733333 18.5253333,8.45 L17.9613333,7.28666667 C17.9126667,7.186 17.924,7.06666667 17.9911111,6.97711111 L18.1382222,6.78088889 C18.1922222,6.70888889 18.1922222,6.70888889 18.3251111,6.60088889 L18.3506667,6.45977778 L18.1684444,4.27355556 C18.1597778,4.22733333 18.14,4.18377778 18.1106667,4.14688889 L17.7173333,3.65511111 C17.6531111,3.57488889 17.5424444,3.54844444 17.4488889,3.59088889 L17.3577778,3.63244444 C17.228,3.69133333 17.0768889,3.61622222 17.0455556,3.47733333 L16.8313333,2.52888889 C16.8044444,2.40955556 16.8524444,2.28644444 16.9524444,2.21711111 Z" id="Path"></path>
                    <path d="M19.862,6.80022222 L19.5528889,6.134 L19.6055556,5.98155556 L19.6168889,5.75355556 L19.4968889,5.54888889 C19.294,5.48022222 19.0893333,5.64755556 19.1162222,5.85977778 L19.1415556,6.05911111 C19.1475556,6.10555556 19.1646667,6.15 19.1913333,6.18866667 L19.572,6.734 C19.6084444,6.78622222 19.6266667,6.84888889 19.624,6.91244444 L19.5857778,7.80066667 C19.5837778,7.84955556 19.5691111,7.89711111 19.5437778,7.93888889 L18.9251111,8.95511111 C18.8457778,9.08533333 18.8811111,9.25488889 19.0057778,9.34288889 L19.0057778,9.34288889 C19.1524444,9.44622222 19.3566667,9.39288889 19.4342222,9.23111111 L19.8011111,8.46533333 C19.8075556,8.452 19.8128889,8.43844444 19.8171111,8.42422222 L19.9873333,7.86333333 C19.9986667,7.826 20.0024444,7.78666667 19.9982222,7.74777778 L19.9097778,6.93133333 C19.9046667,6.88422222 19.8882222,6.83933333 19.862,6.80022222 Z" id="Path"></path>
                    <path d="M17.4688889,16.7293333 C17.3286667,16.6428889 17.1455556,16.6764444 17.0453333,16.8073333 L16.4033333,17.646 C16.3788889,17.678 16.3484444,17.7051111 16.314,17.726 L15.4866667,18.2244444 C15.3768889,18.2904444 15.3168889,18.4155556 15.3342222,18.5426667 L15.3566667,18.7077778 C15.3793333,18.8755556 15.5286667,18.9968889 15.6975556,18.9848889 L16.6826667,18.9144444 C16.7786667,18.9075556 16.8664444,18.8582222 16.9217778,18.7795556 L17.4222222,18.0722222 C17.4693333,18.0055556 17.4893333,17.9233333 17.478,17.8424444 L17.4333333,17.5228889 C17.422,17.4426667 17.4415556,17.3611111 17.488,17.2946667 L17.5637778,17.186 C17.6691111,17.0348889 17.6257778,16.8262222 17.4688889,16.7293333 Z" id="Path"></path>
                </g>
            </g>
        </g>
    </g>
</svg>