<svg width="181" height="52" viewBox="0 0 181 52" fill="none" xmlns="http://www.w3.org/2000/svg">
<path d="M0 46C0 49.3137 2.68629 52 6 52H120.15C124.105 52 126.978 48.2412 125.94 44.4253L115.06 4.42525C114.349 1.81292 111.978 -3.8147e-06 109.27 -3.8147e-06H6C2.68629 -3.8147e-06 0 2.68629 0 6V46Z" fill="url(#paint0_linear_78_396)"/>
<g filter="url(#filter0_d_78_396)">
<path d="M35.6224 36L41.7264 16.736H48.3624L54.4944 36H49.5664L48.4184 32.22H41.5584L40.4384 36H35.6224ZM42.5944 28.552H47.3544L45.0584 20.936H44.8624L42.5944 28.552ZM62.0105 36.224C61.4131 36.224 60.7598 36.2053 60.0505 36.168C59.3598 36.1307 58.6785 36.084 58.0065 36.028C57.3531 35.972 56.7651 35.9067 56.2425 35.832V32.668C56.5411 32.6867 56.8771 32.7147 57.2505 32.752C57.6425 32.7893 58.0438 32.8173 58.4545 32.836C58.8651 32.8547 59.2571 32.8733 59.6305 32.892C60.0225 32.892 60.3771 32.892 60.6945 32.892C61.5718 32.892 62.1971 32.864 62.5705 32.808C62.9625 32.752 63.2051 32.64 63.2985 32.472C63.4105 32.2853 63.4665 32.0427 63.4665 31.744C63.4665 31.4453 63.4291 31.2307 63.3545 31.1C63.2985 30.9693 63.1678 30.876 62.9625 30.82C62.7758 30.764 62.4491 30.708 61.9825 30.652L58.6505 30.232C57.8478 30.12 57.2411 29.8867 56.8305 29.532C56.4198 29.1587 56.1398 28.664 55.9905 28.048C55.8598 27.4133 55.7945 26.676 55.7945 25.836C55.7945 24.8467 55.9438 24.072 56.2425 23.512C56.5411 22.9333 56.9518 22.504 57.4745 22.224C58.0158 21.9253 58.6505 21.7293 59.3785 21.636C60.1251 21.5427 60.9185 21.496 61.7585 21.496C62.3558 21.496 62.9718 21.5147 63.6065 21.552C64.2411 21.5893 64.8478 21.6453 65.4265 21.72C66.0051 21.776 66.4811 21.8413 66.8545 21.916V25.052C66.3878 25.0147 65.8931 24.9773 65.3705 24.94C64.8665 24.9027 64.3811 24.8747 63.9145 24.856C63.4478 24.8373 63.0558 24.828 62.7385 24.828C61.9918 24.828 61.4131 24.8467 61.0025 24.884C60.6105 24.9213 60.3398 25.0147 60.1905 25.164C60.0598 25.3133 59.9945 25.556 59.9945 25.892C59.9945 26.1533 60.0131 26.3587 60.0505 26.508C60.1065 26.6387 60.2278 26.732 60.4145 26.788C60.6011 26.844 60.8905 26.9 61.2825 26.956L64.6425 27.376C65.2771 27.4507 65.8185 27.6 66.2665 27.824C66.7145 28.048 67.0505 28.4493 67.2745 29.028C67.5171 29.6067 67.6385 30.4747 67.6385 31.632C67.6385 32.6773 67.4985 33.508 67.2185 34.124C66.9571 34.7213 66.5745 35.1787 66.0705 35.496C65.5665 35.7947 64.9691 35.9907 64.2785 36.084C63.6065 36.1773 62.8505 36.224 62.0105 36.224ZM70.4105 18.808V15.196H75.0305V18.808H70.4105ZM70.4665 36V21.72H75.0025V36H70.4665ZM81.9502 36.224C81.0542 36.224 80.2982 36.084 79.6822 35.804C79.0662 35.524 78.5995 35.0667 78.2822 34.432C77.9835 33.7973 77.8342 32.9667 77.8342 31.94C77.8342 30.8573 77.9555 29.9987 78.1982 29.364C78.4595 28.7107 78.9169 28.244 79.5702 27.964C80.2235 27.684 81.1475 27.544 82.3422 27.544C82.5102 27.544 82.7435 27.5533 83.0422 27.572C83.3595 27.572 83.7142 27.5813 84.1062 27.6C84.4982 27.6 84.8902 27.6093 85.2822 27.628C85.6742 27.628 86.0289 27.6373 86.3462 27.656V27.124C86.3462 26.5827 86.2995 26.1627 86.2062 25.864C86.1315 25.5653 85.9729 25.3507 85.7302 25.22C85.5062 25.0707 85.1609 24.9867 84.6942 24.968C84.2275 24.9307 83.6115 24.912 82.8462 24.912C82.4169 24.912 81.9409 24.9213 81.4182 24.94C80.9142 24.9587 80.4102 24.9867 79.9062 25.024C79.4209 25.0427 79.0102 25.0707 78.6742 25.108V21.944C79.4395 21.8133 80.2982 21.7107 81.2502 21.636C82.2209 21.5427 83.2382 21.496 84.3022 21.496C85.4969 21.496 86.4862 21.5707 87.2702 21.72C88.0729 21.8693 88.7169 22.1027 89.2022 22.42C89.6875 22.7187 90.0422 23.1013 90.2662 23.568C90.5089 24.0347 90.6675 24.5853 90.7422 25.22C90.8169 25.8547 90.8542 26.5733 90.8542 27.376V36H86.5422L86.4302 34.32H86.2062C85.8515 34.88 85.4409 35.3 84.9742 35.58C84.5075 35.86 84.0129 36.0373 83.4902 36.112C82.9675 36.1867 82.4542 36.224 81.9502 36.224ZM84.0782 33.032C84.4142 33.032 84.7035 33.0133 84.9462 32.976C85.2075 32.92 85.4222 32.836 85.5902 32.724C85.7769 32.5933 85.9262 32.4347 86.0382 32.248C86.1315 32.0427 86.2062 31.7907 86.2622 31.492C86.3182 31.1933 86.3462 30.8387 86.3462 30.428V29.896H83.7422C83.2755 29.896 82.9209 29.9333 82.6782 30.008C82.4355 30.064 82.2675 30.2133 82.1742 30.456C82.0995 30.68 82.0622 31.0347 82.0622 31.52C82.0622 31.9307 82.1089 32.248 82.2022 32.472C82.2955 32.696 82.4822 32.8453 82.7622 32.92C83.0609 32.9947 83.4995 33.032 84.0782 33.032Z" fill="white"/>
</g>
<defs>
<filter id="filter0_d_78_396" x="33.6224" y="15.196" width="59.2318" height="25.028" filterUnits="userSpaceOnUse" color-interpolation-filters="sRGB">
<feFlood flood-opacity="0" result="BackgroundImageFix"/>
<feColorMatrix in="SourceAlpha" type="matrix" values="0 0 0 0 0 0 0 0 0 0 0 0 0 0 0 0 0 0 127 0" result="hardAlpha"/>
<feOffset dy="2"/>
<feGaussianBlur stdDeviation="1"/>
<feComposite in2="hardAlpha" operator="out"/>
<feColorMatrix type="matrix" values="0 0 0 0 0 0 0 0 0 0 0 0 0 0 0 0 0 0 0.2 0"/>
<feBlend mode="normal" in2="BackgroundImageFix" result="effect1_dropShadow_78_396"/>
<feBlend mode="normal" in="SourceGraphic" in2="effect1_dropShadow_78_396" result="shape"/>
</filter>
<linearGradient id="paint0_linear_78_396" x1="76.4441" y1="52" x2="76.4441" y2="2.38419e-06" gradientUnits="userSpaceOnUse">
<stop stop-color="#0D571D"/>
<stop offset="1" stop-color="#799E73"/>
</linearGradient>
</defs>
</svg>
