<svg width="181" height="52" viewBox="0 0 181 52" fill="none" xmlns="http://www.w3.org/2000/svg">
<path d="M0 46C0 49.3137 2.68629 52 6 52H172.264C176.475 52 179.375 47.7761 177.864 43.8461L162.479 3.84613C161.588 1.52898 159.362 3.8147e-06 156.879 3.8147e-06H6C2.68629 3.8147e-06 0 2.68629 0 6V46Z" fill="url(#paint0_linear_78_394)"/>
<g filter="url(#filter0_d_78_394)">
<path d="M34.6771 36L40.7811 16.736H47.4171L53.5491 36H48.6211L47.4731 32.22H40.6131L39.4931 36H34.6771ZM41.6491 28.552H46.4091L44.1131 20.936H43.9171L41.6491 28.552ZM59.8612 36.224C58.9092 36.224 58.1438 36.1027 57.5652 35.86C56.9865 35.6173 56.5478 35.2627 56.2492 34.796C55.9505 34.3293 55.7545 33.7507 55.6612 33.06C55.5678 32.3693 55.5212 31.5667 55.5212 30.652V21.72H60.0012V29.28C60.0012 30.0453 60.0198 30.652 60.0572 31.1C60.1132 31.5293 60.2065 31.8467 60.3372 32.052C60.4678 32.2573 60.6638 32.388 60.9252 32.444C61.1865 32.4813 61.5412 32.5 61.9892 32.5C62.4745 32.5 62.8572 32.4533 63.1372 32.36C63.4358 32.248 63.6505 32.0707 63.7812 31.828C63.9118 31.5853 63.9958 31.2493 64.0332 30.82C64.0892 30.372 64.1172 29.8213 64.1172 29.168V21.72H68.6252V36H64.3412L64.2292 34.264H63.9772C63.7158 34.7493 63.3798 35.1413 62.9692 35.44C62.5585 35.72 62.0918 35.916 61.5692 36.028C61.0465 36.1587 60.4772 36.224 59.8612 36.224ZM77.6081 36.224C77.0108 36.224 76.3575 36.2053 75.6481 36.168C74.9575 36.1307 74.2761 36.084 73.6041 36.028C72.9508 35.972 72.3628 35.9067 71.8401 35.832V32.668C72.1388 32.6867 72.4748 32.7147 72.8481 32.752C73.2401 32.7893 73.6415 32.8173 74.0521 32.836C74.4628 32.8547 74.8548 32.8733 75.2281 32.892C75.6201 32.892 75.9748 32.892 76.2921 32.892C77.1695 32.892 77.7948 32.864 78.1681 32.808C78.5601 32.752 78.8028 32.64 78.8961 32.472C79.0081 32.2853 79.0641 32.0427 79.0641 31.744C79.0641 31.4453 79.0268 31.2307 78.9521 31.1C78.8961 30.9693 78.7655 30.876 78.5601 30.82C78.3735 30.764 78.0468 30.708 77.5801 30.652L74.2481 30.232C73.4455 30.12 72.8388 29.8867 72.4281 29.532C72.0175 29.1587 71.7375 28.664 71.5881 28.048C71.4575 27.4133 71.3921 26.676 71.3921 25.836C71.3921 24.8467 71.5415 24.072 71.8401 23.512C72.1388 22.9333 72.5495 22.504 73.0721 22.224C73.6135 21.9253 74.2481 21.7293 74.9761 21.636C75.7228 21.5427 76.5161 21.496 77.3561 21.496C77.9535 21.496 78.5695 21.5147 79.2041 21.552C79.8388 21.5893 80.4455 21.6453 81.0241 21.72C81.6028 21.776 82.0788 21.8413 82.4521 21.916V25.052C81.9855 25.0147 81.4908 24.9773 80.9681 24.94C80.4641 24.9027 79.9788 24.8747 79.5121 24.856C79.0455 24.8373 78.6535 24.828 78.3361 24.828C77.5895 24.828 77.0108 24.8467 76.6001 24.884C76.2081 24.9213 75.9375 25.0147 75.7881 25.164C75.6575 25.3133 75.5921 25.556 75.5921 25.892C75.5921 26.1533 75.6108 26.3587 75.6481 26.508C75.7041 26.6387 75.8255 26.732 76.0121 26.788C76.1988 26.844 76.4881 26.9 76.8801 26.956L80.2401 27.376C80.8748 27.4507 81.4161 27.6 81.8641 27.824C82.3121 28.048 82.6481 28.4493 82.8721 29.028C83.1148 29.6067 83.2361 30.4747 83.2361 31.632C83.2361 32.6773 83.0961 33.508 82.8161 34.124C82.5548 34.7213 82.1721 35.1787 81.6681 35.496C81.1641 35.7947 80.5668 35.9907 79.8761 36.084C79.2041 36.1773 78.4481 36.224 77.6081 36.224ZM87.3554 36V25.136H84.7514V21.72H87.3554V17.576H91.8914V21.72H94.9994V25.136H91.8914V36H87.3554ZM97.3298 36V21.72H101.586L101.698 24.156H101.95C102.211 23.4653 102.538 22.924 102.93 22.532C103.34 22.14 103.835 21.8693 104.414 21.72C104.992 21.5707 105.664 21.496 106.43 21.496V25.612C105.254 25.612 104.33 25.7613 103.658 26.06C102.986 26.3587 102.51 26.872 102.23 27.6C101.95 28.3093 101.81 29.308 101.81 30.596V36H97.3298ZM112.013 36.224C111.117 36.224 110.361 36.084 109.745 35.804C109.129 35.524 108.662 35.0667 108.345 34.432C108.046 33.7973 107.897 32.9667 107.897 31.94C107.897 30.8573 108.018 29.9987 108.261 29.364C108.522 28.7107 108.979 28.244 109.633 27.964C110.286 27.684 111.21 27.544 112.405 27.544C112.573 27.544 112.806 27.5533 113.105 27.572C113.422 27.572 113.777 27.5813 114.169 27.6C114.561 27.6 114.953 27.6093 115.345 27.628C115.737 27.628 116.091 27.6373 116.409 27.656V27.124C116.409 26.5827 116.362 26.1627 116.269 25.864C116.194 25.5653 116.035 25.3507 115.793 25.22C115.569 25.0707 115.223 24.9867 114.757 24.968C114.29 24.9307 113.674 24.912 112.909 24.912C112.479 24.912 112.003 24.9213 111.481 24.94C110.977 24.9587 110.473 24.9867 109.969 25.024C109.483 25.0427 109.073 25.0707 108.737 25.108V21.944C109.502 21.8133 110.361 21.7107 111.313 21.636C112.283 21.5427 113.301 21.496 114.365 21.496C115.559 21.496 116.549 21.5707 117.333 21.72C118.135 21.8693 118.779 22.1027 119.265 22.42C119.75 22.7187 120.105 23.1013 120.329 23.568C120.571 24.0347 120.73 24.5853 120.805 25.22C120.879 25.8547 120.917 26.5733 120.917 27.376V36H116.605L116.493 34.32H116.269C115.914 34.88 115.503 35.3 115.037 35.58C114.57 35.86 114.075 36.0373 113.553 36.112C113.03 36.1867 112.517 36.224 112.013 36.224ZM114.141 33.032C114.477 33.032 114.766 33.0133 115.009 32.976C115.27 32.92 115.485 32.836 115.653 32.724C115.839 32.5933 115.989 32.4347 116.101 32.248C116.194 32.0427 116.269 31.7907 116.325 31.492C116.381 31.1933 116.409 30.8387 116.409 30.428V29.896H113.805C113.338 29.896 112.983 29.9333 112.741 30.008C112.498 30.064 112.33 30.2133 112.237 30.456C112.162 30.68 112.125 31.0347 112.125 31.52C112.125 31.9307 112.171 32.248 112.265 32.472C112.358 32.696 112.545 32.8453 112.825 32.92C113.123 32.9947 113.562 33.032 114.141 33.032ZM124.4 36V15.196H128.936V36H124.4ZM132.356 18.808V15.196H136.976V18.808H132.356ZM132.412 36V21.72H136.948V36H132.412ZM143.896 36.224C143 36.224 142.244 36.084 141.628 35.804C141.012 35.524 140.545 35.0667 140.228 34.432C139.929 33.7973 139.78 32.9667 139.78 31.94C139.78 30.8573 139.901 29.9987 140.144 29.364C140.405 28.7107 140.862 28.244 141.516 27.964C142.169 27.684 143.093 27.544 144.288 27.544C144.456 27.544 144.689 27.5533 144.988 27.572C145.305 27.572 145.66 27.5813 146.052 27.6C146.444 27.6 146.836 27.6093 147.228 27.628C147.62 27.628 147.974 27.6373 148.292 27.656V27.124C148.292 26.5827 148.245 26.1627 148.152 25.864C148.077 25.5653 147.918 25.3507 147.676 25.22C147.452 25.0707 147.106 24.9867 146.64 24.968C146.173 24.9307 145.557 24.912 144.792 24.912C144.362 24.912 143.886 24.9213 143.364 24.94C142.86 24.9587 142.356 24.9867 141.852 25.024C141.366 25.0427 140.956 25.0707 140.62 25.108V21.944C141.385 21.8133 142.244 21.7107 143.196 21.636C144.166 21.5427 145.184 21.496 146.248 21.496C147.442 21.496 148.432 21.5707 149.216 21.72C150.018 21.8693 150.662 22.1027 151.148 22.42C151.633 22.7187 151.988 23.1013 152.212 23.568C152.454 24.0347 152.613 24.5853 152.688 25.22C152.762 25.8547 152.8 26.5733 152.8 27.376V36H148.488L148.376 34.32H148.152C147.797 34.88 147.386 35.3 146.919 35.58C146.453 35.86 145.958 36.0373 145.436 36.112C144.913 36.1867 144.4 36.224 143.896 36.224ZM146.024 33.032C146.36 33.032 146.649 33.0133 146.892 32.976C147.153 32.92 147.368 32.836 147.536 32.724C147.722 32.5933 147.872 32.4347 147.984 32.248C148.077 32.0427 148.152 31.7907 148.208 31.492C148.264 31.1933 148.292 30.8387 148.292 30.428V29.896H145.688C145.221 29.896 144.866 29.9333 144.624 30.008C144.381 30.064 144.213 30.2133 144.12 30.456C144.045 30.68 144.008 31.0347 144.008 31.52C144.008 31.9307 144.054 32.248 144.148 32.472C144.241 32.696 144.428 32.8453 144.708 32.92C145.006 32.9947 145.445 33.032 146.024 33.032Z" fill="white"/>
</g>
<defs>
<filter id="filter0_d_78_394" x="32.6771" y="15.196" width="122.122" height="25.028" filterUnits="userSpaceOnUse" color-interpolation-filters="sRGB">
<feFlood flood-opacity="0" result="BackgroundImageFix"/>
<feColorMatrix in="SourceAlpha" type="matrix" values="0 0 0 0 0 0 0 0 0 0 0 0 0 0 0 0 0 0 127 0" result="hardAlpha"/>
<feOffset dy="2"/>
<feGaussianBlur stdDeviation="1"/>
<feComposite in2="hardAlpha" operator="out"/>
<feColorMatrix type="matrix" values="0 0 0 0 0 0 0 0 0 0 0 0 0 0 0 0 0 0 0.2 0"/>
<feBlend mode="normal" in2="BackgroundImageFix" result="effect1_dropShadow_78_394"/>
<feBlend mode="normal" in="SourceGraphic" in2="effect1_dropShadow_78_394" result="shape"/>
</filter>
<linearGradient id="paint0_linear_78_394" x1="90.5" y1="52" x2="90.5" y2="3.8147e-06" gradientUnits="userSpaceOnUse">
<stop stop-color="#964800"/>
<stop offset="1" stop-color="#FFA800"/>
</linearGradient>
</defs>
</svg>
