<?xml version="1.0" encoding="UTF-8"?>
<svg width="172px" height="34px" viewBox="0 0 172 34" version="1.1" xmlns="http://www.w3.org/2000/svg" xmlns:xlink="http://www.w3.org/1999/xlink">
    <title>Continent_australia</title>
    <g id="UI-Design" stroke="none" stroke-width="1" fill="none" fill-rule="evenodd">
        <g id="Auction_buyingcardalternatives" transform="translate(-1004.000000, -2019.000000)">
            <g id="Continent" transform="translate(1004.000000, 2019.000000)">
                <rect id="Rectangle" fill="#86863F" fill-rule="nonzero" x="0" y="0" width="172" height="34" rx="17"></rect>
                <text id="Australia" fill="#FFFFFF" font-family="BerkshireSwash-Regular, Berkshire Swash" font-size="16" font-weight="normal">
                    <tspan x="74" y="23">Australia</tspan>
                </text>
                <g id="noun_Australia_789263" transform="translate(36.000000, 7.000000)" fill="#FFFFFF">
                    <path d="M16.5761765,4.46441176 C16.5564706,4.435 16.5385294,4.40441176 16.5229412,4.37264706 L15.2288235,1.75735294 C14.9235294,1.14029412 14.0329412,1.17235294 13.7726471,1.80970588 L13.4823529,2.52058824 C13.3123529,2.93705882 12.8317647,3.13117647 12.4202941,2.94970588 L11.2832353,2.44852941 C10.8929412,2.27647059 10.7064706,1.82823529 10.8597059,1.43029412 C11.0514706,0.931764706 10.7097059,0.389411765 10.1773529,0.346764706 L8.48764706,0.211470588 C8.16588235,0.185588235 7.86029412,0.355882353 7.71294118,0.642941176 L7.35323529,1.34352941 C7.21294118,1.61676471 6.92823529,1.78558824 6.62117647,1.77735294 L5.80147059,1.75588235 C5.58235294,1.75 5.37029412,1.83470588 5.21529412,1.98970588 L3.48588235,3.71911765 C3.42764706,3.77735294 3.37882353,3.84411765 3.34117647,3.91705882 L2.82735294,4.91058824 C2.77029412,5.02058824 2.68882353,5.11588235 2.58852941,5.18911765 L0.328235294,6.83823529 C0.0429411765,7.04647059 -0.0717647059,7.41705882 0.0458823529,7.75029412 L1.67235294,12.3517647 C1.68294118,12.3820588 1.69205882,12.4132353 1.69911765,12.4447059 L1.75941176,12.7158824 C1.86235294,13.1785294 2.34264706,13.4505882 2.79235294,13.3005882 L5.04823529,12.5485294 C5.08764706,12.5352941 5.12588235,12.5194118 5.16264706,12.5002941 L7.40323529,11.3411765 C7.56264706,11.2588235 7.745,11.2323529 7.92147059,11.2661765 L9.65676471,11.6 C9.83294118,11.6338235 9.99235294,11.7258824 10.1097059,11.8614706 L11.0220588,12.9141176 C11.0526471,12.9494118 11.0861765,12.9820588 11.1223529,13.0114706 L13.1708824,14.6732353 C13.3132353,14.7888235 13.4911765,14.8517647 13.6744118,14.8517647 L15.5264706,14.8517647 C15.7570588,14.8517647 15.9761765,14.7523529 16.1279412,14.5788235 L18.2464706,12.1576471 C18.3105882,12.0844118 18.3608824,12 18.3947059,11.9085294 L19.385,9.23117647 C19.4741176,8.99 19.4420588,8.72088235 19.2982353,8.50764706 L16.5761765,4.46441176 Z" id="Path"></path>
                    <path d="M15.3961765,16.2126471 L14.9820588,16.1014706 C14.7126471,16.0291176 14.4482353,16.2320588 14.4482353,16.5108824 L14.4482353,17.0464706 C14.4482353,17.2805882 14.6379412,17.4702941 14.8720588,17.4702941 L15.1832353,17.4702941 C15.3788235,17.4702941 15.5491176,17.3364706 15.5952941,17.1464706 L15.6982353,16.7220588 C15.7526471,16.4985294 15.6185294,16.2723529 15.3961765,16.2126471 Z" id="Path"></path>
                    <path d="M25.7317647,14.5038235 L25.6085294,14.5038235 L25.5085294,16.1302941 C25.5023529,16.2241176 25.4614706,16.3123529 25.3938235,16.3776471 L23.6926471,18.0179412 C23.6697059,18.04 23.6441176,18.0591176 23.6161765,18.075 L21.8285294,19.085 C21.6344118,19.1947059 21.5770588,19.4476471 21.705,19.6302941 C21.8264706,19.8041176 22.0673529,19.8435294 22.2382353,19.7179412 L26.3167647,16.7194118 C26.4597059,16.6141176 26.5102941,16.4235294 26.4379412,16.2614706 L25.7317647,14.5038235 Z" id="Path"></path>
                </g>
            </g>
        </g>
    </g>
</svg>