<?xml version="1.0" encoding="UTF-8"?>
<svg width="172px" height="34px" viewBox="0 0 172 34" version="1.1" xmlns="http://www.w3.org/2000/svg" xmlns:xlink="http://www.w3.org/1999/xlink">
    <title>Continent_Europe</title>
    <g id="UI-Design" stroke="none" stroke-width="1" fill="none" fill-rule="evenodd">
        <g id="Auction_buyingcardalternatives" transform="translate(-704.000000, -997.000000)">
            <g id="Continent_Europe" transform="translate(704.000000, 997.000000)">
                <rect id="Rectangle" fill="#915077" fill-rule="nonzero" x="0" y="0" width="172" height="34" rx="17"></rect>
                <text id="Europe" fill="#FFFFFF" font-family="BerkshireSwash-Regular, Berkshire Swash" font-size="16" font-weight="normal">
                    <tspan x="76" y="23">Europe</tspan>
                </text>
                <g id="noun_europe_789265" transform="translate(46.000000, 7.000000)" fill="#FFFFFF">
                    <path d="M19.6868889,11.0637778 L17.1002222,9.86688889 C16.984,9.81311111 16.8915556,9.71844444 16.8406667,9.60088889 L16.2564444,8.25 C16.2011111,8.122 16.0968889,8.02177778 15.9671111,7.97111111 L15.6202222,7.83622222 C15.4397778,7.766 15.3131111,7.60177778 15.2913333,7.40933333 L15.114,5.848 C15.1002222,5.72711111 15.1293333,5.60511111 15.196,5.50333333 L15.924,4.394 C16.0193333,4.24888889 16.036,4.06577778 15.9686667,3.906 L14.4584444,0.319111111 C14.328,0.00911111111 13.9422222,-0.0977777778 13.6708889,0.100666667 L11.8173333,1.45511111 C11.7837778,1.47955556 11.7533333,1.508 11.7264444,1.53977778 L10.5362222,2.95044444 C10.5135556,2.97733333 10.4882222,3.002 10.4604444,3.02377778 L9.10711111,4.09022222 C9.00977778,4.16688889 8.94288889,4.27577778 8.91866667,4.39733333 L8.666,5.66044444 C8.61688889,5.90555556 8.74888889,6.15111111 8.98066667,6.24533333 L9.76577778,6.56466667 C9.89244444,6.61622222 9.99377778,6.71555556 10.048,6.84111111 L10.3706667,7.58955556 C10.4731111,7.82733333 10.7346667,7.95377778 10.9846667,7.88644444 L11.476,7.75422222 C11.656,7.70577778 11.7964444,7.56466667 11.8442222,7.38444444 L12.1793333,6.11844444 C12.1855556,6.09488889 12.1902222,6.07088889 12.1931111,6.04666667 L12.4008889,4.30088889 C12.4151111,4.18111111 12.4706667,4.06977778 12.5577778,3.98622222 L13.5473333,3.038 L13.1646667,5.29577778 C13.1171111,5.57644444 13.3035556,5.84333333 13.5835556,5.89511111 C13.9468889,5.96244444 14.1266667,6.376 13.928,6.68777778 L12.7608889,8.51711111 C12.6668889,8.66444444 12.5055556,8.75466667 12.3308889,8.75777778 L10.3417778,8.79288889 C10.1164444,8.79688889 9.914,8.65533333 9.84022222,8.44244444 L9.77644444,8.25777778 C9.62022222,7.80622222 8.98933333,7.78555556 8.80377778,8.226 L8.67977778,8.52044444 C8.618,8.66711111 8.49244444,8.77755556 8.33911111,8.82022222 L7.41933333,9.07577778 C7.352,9.09444444 7.28911111,9.12644444 7.23444444,9.17 L6.30733333,9.90755556 C6.29355556,9.91844444 6.27933333,9.92866667 6.26466667,9.938 L5.096,10.6893333 C5.01688889,10.7402222 4.92555556,10.7686667 4.83155556,10.7717778 L4.24355556,10.7913333 C3.90266667,10.8026667 3.66444444,11.1331111 3.76133333,11.4602222 L3.87266667,11.836 C3.918,11.9893333 3.89066667,12.1548889 3.79822222,12.2851111 L3.35755556,12.9071111 C3.23177778,13.0848889 3.00844444,13.1655556 2.798,13.1093333 L1.50977778,12.7657778 C1.24533333,12.6953333 0.971333333,12.8413333 0.882666667,13.1004444 L0.0393333333,15.5613333 C-0.0546666667,15.8355556 0.0915555556,16.1331111 0.366888889,16.2242222 C1.32622222,16.5413333 3.06844444,17.2873333 3.34066667,17.1877778 C3.57044444,17.1037778 3.7,16.3915556 3.86466667,15.9153333 C3.91555556,15.7682222 4.02866667,15.6542222 4.17444444,15.6 L6.47911111,14.7426667 C6.53733333,14.7211111 6.59866667,14.71 6.66066667,14.71 L7.68888889,14.71 C7.83911111,14.71 7.982,14.7748889 8.08111111,14.888 L10.0917778,17.186 C10.1748889,17.2808889 10.2108889,17.4033333 10.2206667,17.5291111 C10.2253333,17.588 10.0244444,18.2857778 10.1211111,18.4211111 C10.2177778,18.5564444 10.6744444,18.154 10.8848889,17.8957778 C11.0428889,17.7017778 11.1104444,17.452 10.9804444,17.2384444 L9.23711111,14.3742222 L9.73911111,14.3742222 C9.89577778,14.3742222 10.044,14.4446667 10.1428889,14.566 L12.4177778,17.3557778 C12.452,17.3977778 12.4795556,17.4446667 12.4991111,17.4951111 L12.7317778,18.0897778 C12.8237778,18.3251111 13.1233333,18.8311111 13.3711111,18.7815556 L13.6404444,18.7815556 C13.9746667,18.7146667 13.9173333,17.9631111 13.7688889,17.6564444 L13.6691111,17.4504444 C13.5157778,17.1333333 13.7146667,16.7586667 14.0631111,16.7077778 L15.4897778,16.5002222 C15.7457778,16.4628889 15.9357778,16.2433333 15.9357778,15.9846667 L15.9357778,15.0962222 C15.9357778,14.992 15.9671111,14.8902222 16.0255556,14.804 L16.6053333,13.9482222 C16.7751111,13.6975556 17.122,13.644 17.3595556,13.8315556 L17.6233333,14.0397778 C17.7417778,14.1333333 17.8948889,14.1708889 18.0431111,14.1428889 L19.1966667,13.9246667 C19.406,13.8851111 19.57,13.7222222 19.6111111,13.5131111 L19.9795556,11.6373333 C20.0257778,11.4013333 19.9048889,11.1646667 19.6868889,11.0637778 Z" id="Path"></path>
                    <path d="M2.49733333,8.16733333 C2.49733333,8.29622222 2.58511111,8.53044444 2.70822222,8.58888889 C2.83111111,8.64733333 3.58066667,8.53022222 3.692,8.44844444 C3.80333333,8.36666667 4.04622222,7.82844444 4.04622222,7.82844444 C4.06755556,7.79111111 4.09355556,7.75644444 4.12333333,7.72555556 C4.12333333,7.72555556 4.53511111,7.51155556 4.53511111,7.298 C4.53511111,7.08422222 4.15444444,6.75333333 4.03444444,6.75333333 C3.91444444,6.75333333 3.75622222,7.05488889 3.59533333,7.07822222 C3.43422222,7.10155556 3.14733333,6.89088889 3.03311111,6.99911111 C2.91888889,7.10733333 3.10044444,7.67888889 3.03311111,7.75444444 C2.96577778,7.83 2.49733333,8.03844444 2.49733333,8.16733333 Z" id="Path"></path>
                    <path d="M6.19511111,5.29511111 C6.10444444,5.14 5.60777778,5.33711111 5.45733333,5.34777778 C5.30688889,5.35844444 4.77511111,6.05933333 4.66977778,6.31688889 C4.56444444,6.57444444 4.68133333,6.98444444 4.702,7.06933333 C4.72266667,7.15422222 5.08022222,7.37822222 5.13244444,7.42066667 C5.18466667,7.46311111 5.03288889,8.01488889 4.93911111,8.11444444 C4.84533333,8.214 3.94377778,8.72933333 3.96422222,8.826 C3.98466667,8.92266667 4.53511111,9.20955556 4.53511111,9.30022222 C4.53511111,9.39088889 3.51622222,9.64266667 3.51622222,9.74822222 C3.51622222,9.85377778 5.52466667,9.88866667 5.67688889,9.836 C5.82911111,9.78333333 6.2053554,9.17422222 6.19511111,9.01911111 C6.18488889,8.864 5.94533333,7.972 5.94533333,7.972 C5.942,7.93244444 5.93422222,7.89333333 5.92222222,7.85555556 C5.92222222,7.85555556 5.75822222,7.34422222 5.712,7.20088889 C5.666,7.05755556 6.2053554,6.32844444 6.19511111,6.19955556 C6.18488889,6.07066667 5.80577778,6.07066667 5.77355556,5.90977778 C5.74133333,5.74888889 6.286,5.45022222 6.19511111,5.29511111 Z" id="Path"></path>
                    <path d="M4.59666667,16.3797778 C4.48755556,16.4164444 4.702,16.5906667 4.78111111,16.6257778 C4.86022222,16.6608889 5.15,16.696 5.194,16.6257778 C5.238,16.5555556 5.15,16.4764444 5.06222222,16.3797778 C4.97422222,16.2831111 4.776,16.3193333 4.59666667,16.3797778 Z" id="Path"></path>
                    <path d="M7.52177778,15.7735556 C7.40355556,16.168 7.72355556,16.1951111 7.706,16.4228889 C7.68888889,16.6433333 7.43377778,16.6871111 7.32822222,16.7311111 C7.22266667,16.7751111 7.13488889,17.0648889 7.09111111,17.2404444 C7.04711111,17.416 7.26688889,17.4513333 7.44244444,17.46 C7.618,17.4688889 7.75066667,17.0813333 7.74977778,16.9242222 C7.74911111,16.7768889 7.90733333,15.9768889 7.93422222,15.8531111 C7.97222222,15.6791111 7.586,15.5593333 7.52177778,15.7735556 Z" id="Path"></path>
                    <path d="M9.91066667,19.0673333 C9.97222222,18.9268889 9.96644444,18.6115556 9.91066667,18.4348889 C9.85977778,18.2737778 9.35733333,18.3997778 9.19911111,18.3908889 C9.04111111,18.382 8.66333333,18.3522222 8.58422222,18.5488889 C8.522,18.7037778 8.84777778,18.7246667 8.94422222,18.7597778 C9.04088889,18.7948889 9.25155556,19.12 9.524,19.1813333 C9.79644444,19.2426667 9.84911111,19.208 9.91066667,19.0673333 Z" id="Path"></path>
                    <path d="M18.4566667,19.6911111 C18.3073333,19.6646667 18.0982222,19.7317778 17.9473333,19.8315556 C17.8717778,19.8815556 18.5446667,20.016 18.694,19.9984444 C18.8433333,19.9808889 18.7555556,19.8842222 18.694,19.758 C18.6324444,19.6315556 18.606,19.7173333 18.4566667,19.6911111 Z" id="Path"></path>
                    <path d="M9.80933333,19.2995556 C9.75688889,19.2957778 9.70022222,19.4022222 9.73866667,19.4922222 C9.77733333,19.5822222 9.944,19.5371111 9.97622222,19.5371111 C10.0084444,19.5371111 10.066,19.4408889 10.0597778,19.4086667 C10.0535556,19.3764444 9.96933333,19.3106667 9.80933333,19.2995556 Z" id="Path"></path>
                    <path d="M15.1631111,19.5482222 C15.046,19.5342222 14.8702222,19.5268889 14.7064444,19.5482222 C14.5426667,19.5695556 14.222,19.0451111 13.8866667,19.0586667 C13.5937778,19.0704444 13.9217778,19.4802222 14.1208889,19.5482222 C14.32,19.6162222 14.5775556,19.6793333 14.7766667,19.6851111 C14.9757778,19.6911111 15.21,19.7962222 15.4324444,19.7493333 C15.6548889,19.7026667 15.2802222,19.5622222 15.1631111,19.5482222 Z" id="Path"></path>
                    <path d="M3.63933333,0.771555556 C3.61355556,0.826222222 3.86066667,0.963333333 3.96422222,1.07888889 C4.10177778,1.23222222 4.12088889,1.368 4.22777778,1.42133333 C4.41511111,1.51511111 4.79866667,1.57355556 5.07977778,1.55022222 C5.36088889,1.52688889 5.64266667,1.28111111 5.57155556,1.02333333 C5.49244444,0.736444444 4.58466667,0.584888889 4.44733333,0.490444444 C4.30688889,0.393777778 4.46488889,0.262 4.33311111,0.0864444444 C4.20133333,0.0531111111 3.89266667,0.0115555556 3.70955556,0.297333333 C3.686,0.334 4.01511111,0.658444444 3.98177778,0.736444444 C3.96244444,0.782 3.71822222,0.604666667 3.63933333,0.771555556 Z" id="Path"></path>
                </g>
            </g>
        </g>
    </g>
</svg>