<svg width="181" height="52" viewBox="0 0 181 52" fill="none" xmlns="http://www.w3.org/2000/svg">
<path d="M0 46C0 49.3137 2.68629 52 6 52H154.264C158.475 52 161.375 47.7761 159.864 43.8461L144.479 3.84613C143.588 1.52898 141.362 3.8147e-06 138.879 3.8147e-06H6C2.68629 3.8147e-06 0 2.68629 0 6V46Z" fill="url(#paint0_linear_95_196)"/>
<g filter="url(#filter0_d_95_196)">
<path d="M36.0446 36V16.736H49.5406V20.488H40.9166V24.436H48.2246V28.132H40.9166V32.248H49.5406V36H36.0446ZM57.1131 36.224C56.1611 36.224 55.3958 36.1027 54.8171 35.86C54.2384 35.6173 53.7998 35.2627 53.5011 34.796C53.2024 34.3293 53.0064 33.7507 52.9131 33.06C52.8198 32.3693 52.7731 31.5667 52.7731 30.652V21.72H57.2531V29.28C57.2531 30.0453 57.2718 30.652 57.3091 31.1C57.3651 31.5293 57.4584 31.8467 57.5891 32.052C57.7198 32.2573 57.9158 32.388 58.1771 32.444C58.4384 32.4813 58.7931 32.5 59.2411 32.5C59.7264 32.5 60.1091 32.4533 60.3891 32.36C60.6878 32.248 60.9024 32.0707 61.0331 31.828C61.1638 31.5853 61.2478 31.2493 61.2851 30.82C61.3411 30.372 61.3691 29.8213 61.3691 29.168V21.72H65.8771V36H61.5931L61.4811 34.264H61.2291C60.9678 34.7493 60.6318 35.1413 60.2211 35.44C59.8104 35.72 59.3438 35.916 58.8211 36.028C58.2984 36.1587 57.7291 36.224 57.1131 36.224ZM69.3161 36V21.72H73.5721L73.6841 24.156H73.9361C74.1974 23.4653 74.5241 22.924 74.9161 22.532C75.3267 22.14 75.8214 21.8693 76.4001 21.72C76.9787 21.5707 77.6507 21.496 78.4161 21.496V25.612C77.2401 25.612 76.3161 25.7613 75.6441 26.06C74.9721 26.3587 74.4961 26.872 74.2161 27.6C73.9361 28.3093 73.7961 29.308 73.7961 30.596V36H69.3161ZM86.9357 36.224C85.6664 36.224 84.6117 36.1493 83.7717 36C82.9317 35.8507 82.2691 35.608 81.7837 35.272C81.2984 34.936 80.9437 34.488 80.7197 33.928C80.4957 33.368 80.3464 32.668 80.2717 31.828C80.2157 30.988 80.1877 29.9893 80.1877 28.832C80.1877 27.6747 80.2157 26.6853 80.2717 25.864C80.3464 25.024 80.4957 24.324 80.7197 23.764C80.9437 23.204 81.2984 22.756 81.7837 22.42C82.2691 22.084 82.9317 21.8507 83.7717 21.72C84.6117 21.5707 85.6664 21.496 86.9357 21.496C88.2237 21.496 89.2877 21.5707 90.1277 21.72C90.9677 21.8507 91.6304 22.084 92.1157 22.42C92.6011 22.756 92.9557 23.204 93.1797 23.764C93.4037 24.324 93.5437 25.024 93.5997 25.864C93.6744 26.6853 93.7117 27.6747 93.7117 28.832C93.7117 29.9893 93.6744 30.988 93.5997 31.828C93.5437 32.668 93.4037 33.368 93.1797 33.928C92.9557 34.488 92.6011 34.936 92.1157 35.272C91.6304 35.608 90.9677 35.8507 90.1277 36C89.2877 36.1493 88.2237 36.224 86.9357 36.224ZM86.9357 32.808C87.4957 32.808 87.9344 32.7707 88.2517 32.696C88.5691 32.6213 88.7931 32.4533 88.9237 32.192C89.0544 31.9307 89.1291 31.5293 89.1477 30.988C89.1851 30.4467 89.2037 29.728 89.2037 28.832C89.2037 27.936 89.1851 27.2267 89.1477 26.704C89.1291 26.1813 89.0544 25.7893 88.9237 25.528C88.7931 25.2667 88.5691 25.0987 88.2517 25.024C87.9344 24.9493 87.4957 24.912 86.9357 24.912C86.3757 24.912 85.9371 24.9493 85.6197 25.024C85.3211 25.0987 85.1064 25.2667 84.9757 25.528C84.8451 25.7893 84.7611 26.1813 84.7237 26.704C84.7051 27.2267 84.6957 27.936 84.6957 28.832C84.6957 29.728 84.7051 30.4467 84.7237 30.988C84.7611 31.5293 84.8451 31.9307 84.9757 32.192C85.1064 32.4533 85.3211 32.6213 85.6197 32.696C85.9371 32.7707 86.3757 32.808 86.9357 32.808ZM96.7145 41.572V21.72H100.971L101.083 23.456H101.335C101.633 22.9147 101.988 22.504 102.399 22.224C102.828 21.944 103.304 21.7573 103.827 21.664C104.349 21.552 104.872 21.496 105.395 21.496C106.235 21.496 106.944 21.608 107.523 21.832C108.12 22.056 108.605 22.448 108.979 23.008C109.371 23.5493 109.651 24.296 109.819 25.248C110.005 26.2 110.099 27.3947 110.099 28.832C110.099 30.2507 110.005 31.436 109.819 32.388C109.651 33.34 109.38 34.096 109.007 34.656C108.633 35.216 108.148 35.6173 107.551 35.86C106.972 36.1027 106.263 36.224 105.423 36.224C104.881 36.224 104.359 36.1773 103.855 36.084C103.351 35.9907 102.893 35.8227 102.483 35.58C102.091 35.3187 101.745 34.9547 101.447 34.488H101.195V41.572H96.7145ZM103.379 32.528C103.883 32.528 104.284 32.4907 104.583 32.416C104.881 32.3413 105.096 32.192 105.227 31.968C105.376 31.7253 105.469 31.3613 105.507 30.876C105.563 30.3907 105.591 29.7187 105.591 28.86C105.591 28.0013 105.563 27.3293 105.507 26.844C105.469 26.34 105.376 25.976 105.227 25.752C105.096 25.5093 104.881 25.36 104.583 25.304C104.284 25.2293 103.883 25.192 103.379 25.192C102.837 25.192 102.417 25.2667 102.119 25.416C101.839 25.5467 101.624 25.78 101.475 26.116C101.363 26.4147 101.288 26.7973 101.251 27.264C101.213 27.712 101.195 28.244 101.195 28.86C101.195 29.4947 101.213 30.036 101.251 30.484C101.288 30.932 101.353 31.2867 101.447 31.548C101.596 31.9213 101.82 32.1827 102.119 32.332C102.417 32.4627 102.837 32.528 103.379 32.528ZM119.757 36.224C118.413 36.224 117.303 36.14 116.425 35.972C115.548 35.804 114.848 35.5427 114.325 35.188C113.821 34.8147 113.439 34.3387 113.177 33.76C112.935 33.1813 112.776 32.4907 112.701 31.688C112.645 30.8853 112.617 29.952 112.617 28.888C112.617 27.6 112.673 26.4893 112.785 25.556C112.916 24.6227 113.196 23.8573 113.625 23.26C114.055 22.6627 114.717 22.224 115.613 21.944C116.528 21.6453 117.76 21.496 119.309 21.496C120.56 21.496 121.577 21.5893 122.361 21.776C123.145 21.944 123.761 22.2147 124.209 22.588C124.676 22.9427 125.003 23.4093 125.189 23.988C125.395 24.5667 125.525 25.2667 125.581 26.088C125.637 26.8907 125.665 27.824 125.665 28.888V29.98H117.069C117.069 30.6147 117.097 31.128 117.153 31.52C117.209 31.8933 117.359 32.1733 117.601 32.36C117.844 32.5467 118.217 32.6773 118.721 32.752C119.225 32.808 119.925 32.836 120.821 32.836C121.176 32.836 121.596 32.8267 122.081 32.808C122.567 32.7893 123.071 32.7613 123.593 32.724C124.135 32.6867 124.639 32.6493 125.105 32.612V35.748C124.695 35.8413 124.191 35.9253 123.593 36C123.015 36.0747 122.389 36.1307 121.717 36.168C121.045 36.2053 120.392 36.224 119.757 36.224ZM121.437 28.104V27.656C121.437 26.984 121.4 26.452 121.325 26.06C121.269 25.668 121.157 25.3787 120.989 25.192C120.84 24.9867 120.625 24.856 120.345 24.8C120.065 24.744 119.711 24.716 119.281 24.716C118.796 24.716 118.404 24.7533 118.105 24.828C117.825 24.884 117.611 25.0147 117.461 25.22C117.312 25.4253 117.209 25.724 117.153 26.116C117.097 26.508 117.069 27.0213 117.069 27.656H121.913L121.437 28.104Z" fill="white"/>
</g>
<defs>
<filter id="filter0_d_95_196" x="34.0447" y="16.736" width="93.6207" height="28.8361" filterUnits="userSpaceOnUse" color-interpolation-filters="sRGB">
<feFlood flood-opacity="0" result="BackgroundImageFix"/>
<feColorMatrix in="SourceAlpha" type="matrix" values="0 0 0 0 0 0 0 0 0 0 0 0 0 0 0 0 0 0 127 0" result="hardAlpha"/>
<feOffset dy="2"/>
<feGaussianBlur stdDeviation="1"/>
<feComposite in2="hardAlpha" operator="out"/>
<feColorMatrix type="matrix" values="0 0 0 0 0 0 0 0 0 0 0 0 0 0 0 0 0 0 0.2 0"/>
<feBlend mode="normal" in2="BackgroundImageFix" result="effect1_dropShadow_95_196"/>
<feBlend mode="normal" in="SourceGraphic" in2="effect1_dropShadow_95_196" result="shape"/>
</filter>
<linearGradient id="paint0_linear_95_196" x1="90.5" y1="52" x2="90.5" y2="3.8147e-06" gradientUnits="userSpaceOnUse">
<stop stop-color="#5B2C63"/>
<stop offset="1" stop-color="#D086C9"/>
</linearGradient>
</defs>
</svg>
