<svg width="249" height="52" viewBox="0 0 249 52" fill="none" xmlns="http://www.w3.org/2000/svg">
<path d="M0 46C0 49.3137 2.68629 52 6 52H242.264C246.475 52 249.375 47.7761 247.864 43.8461L232.479 3.84613C231.588 1.52898 229.362 3.8147e-06 226.879 3.8147e-06H6C2.68629 3.8147e-06 0 2.68629 0 6V46Z" fill="url(#paint0_linear_95_193)"/>
<g filter="url(#filter0_d_95_193)">
<path d="M31.8728 36V16.736H36.8848L43.1568 27.068H43.2968V16.736H47.9728V36H43.4088L36.6888 24.716H36.5488V36H31.8728ZM57.9631 36.224C56.6937 36.224 55.6391 36.1493 54.7991 36C53.9591 35.8507 53.2964 35.608 52.8111 35.272C52.3257 34.936 51.9711 34.488 51.7471 33.928C51.5231 33.368 51.3737 32.668 51.2991 31.828C51.2431 30.988 51.2151 29.9893 51.2151 28.832C51.2151 27.6747 51.2431 26.6853 51.2991 25.864C51.3737 25.024 51.5231 24.324 51.7471 23.764C51.9711 23.204 52.3257 22.756 52.8111 22.42C53.2964 22.084 53.9591 21.8507 54.7991 21.72C55.6391 21.5707 56.6937 21.496 57.9631 21.496C59.2511 21.496 60.3151 21.5707 61.1551 21.72C61.9951 21.8507 62.6577 22.084 63.1431 22.42C63.6284 22.756 63.9831 23.204 64.2071 23.764C64.4311 24.324 64.5711 25.024 64.6271 25.864C64.7017 26.6853 64.7391 27.6747 64.7391 28.832C64.7391 29.9893 64.7017 30.988 64.6271 31.828C64.5711 32.668 64.4311 33.368 64.2071 33.928C63.9831 34.488 63.6284 34.936 63.1431 35.272C62.6577 35.608 61.9951 35.8507 61.1551 36C60.3151 36.1493 59.2511 36.224 57.9631 36.224ZM57.9631 32.808C58.5231 32.808 58.9617 32.7707 59.2791 32.696C59.5964 32.6213 59.8204 32.4533 59.9511 32.192C60.0817 31.9307 60.1564 31.5293 60.1751 30.988C60.2124 30.4467 60.2311 29.728 60.2311 28.832C60.2311 27.936 60.2124 27.2267 60.1751 26.704C60.1564 26.1813 60.0817 25.7893 59.9511 25.528C59.8204 25.2667 59.5964 25.0987 59.2791 25.024C58.9617 24.9493 58.5231 24.912 57.9631 24.912C57.4031 24.912 56.9644 24.9493 56.6471 25.024C56.3484 25.0987 56.1337 25.2667 56.0031 25.528C55.8724 25.7893 55.7884 26.1813 55.7511 26.704C55.7324 27.2267 55.7231 27.936 55.7231 28.832C55.7231 29.728 55.7324 30.4467 55.7511 30.988C55.7884 31.5293 55.8724 31.9307 56.0031 32.192C56.1337 32.4533 56.3484 32.6213 56.6471 32.696C56.9644 32.7707 57.4031 32.808 57.9631 32.808ZM67.7419 36V21.72H71.9979L72.1099 24.156H72.3619C72.6232 23.4653 72.9499 22.924 73.3419 22.532C73.7525 22.14 74.2472 21.8693 74.8259 21.72C75.4045 21.5707 76.0765 21.496 76.8419 21.496V25.612C75.6659 25.612 74.7419 25.7613 74.0699 26.06C73.3979 26.3587 72.9219 26.872 72.6419 27.6C72.3619 28.3093 72.2219 29.308 72.2219 30.596V36H67.7419ZM80.6542 36V25.136H78.0502V21.72H80.6542V17.576H85.1902V21.72H88.2982V25.136H85.1902V36H80.6542ZM90.6286 36V15.196H95.1086V23.372H95.3606C95.6406 22.9053 95.9766 22.5413 96.3686 22.28C96.7792 22 97.2366 21.804 97.7406 21.692C98.2446 21.58 98.7952 21.524 99.3926 21.524C100.345 21.524 101.101 21.6453 101.661 21.888C102.239 22.112 102.678 22.4573 102.977 22.924C103.275 23.3907 103.471 23.9693 103.565 24.66C103.677 25.3507 103.733 26.1533 103.733 27.068V36H99.2246V28.44C99.2246 27.6747 99.2059 27.0773 99.1686 26.648C99.1312 26.2 99.0472 25.8733 98.9166 25.668C98.7859 25.4627 98.5806 25.3413 98.3006 25.304C98.0392 25.248 97.6846 25.22 97.2366 25.22C96.7699 25.22 96.3872 25.276 96.0886 25.388C95.8086 25.4813 95.5939 25.6493 95.4446 25.892C95.3139 26.1347 95.2206 26.48 95.1646 26.928C95.1272 27.3573 95.1086 27.8987 95.1086 28.552V36H90.6286ZM112.742 36L118.846 16.736H125.482L131.614 36H126.686L125.538 32.22H118.678L117.558 36H112.742ZM119.714 28.552H124.474L122.178 20.936H121.982L119.714 28.552ZM133.586 36V21.72H137.842L137.954 23.456H138.206C138.467 22.9707 138.794 22.588 139.186 22.308C139.596 22.0093 140.054 21.804 140.558 21.692C141.062 21.5613 141.603 21.496 142.182 21.496C143.302 21.496 144.151 21.6547 144.73 21.972C145.308 22.2707 145.719 22.7653 145.962 23.456H146.214C146.494 22.9707 146.839 22.588 147.25 22.308C147.66 22.0093 148.118 21.804 148.622 21.692C149.144 21.5613 149.695 21.496 150.274 21.496C151.487 21.496 152.383 21.7107 152.962 22.14C153.559 22.5693 153.951 23.1947 154.138 24.016C154.343 24.8373 154.446 25.8547 154.446 27.068V36H149.966V28.44C149.966 27.6747 149.938 27.0773 149.882 26.648C149.844 26.2 149.77 25.8733 149.658 25.668C149.546 25.4627 149.368 25.3413 149.126 25.304C148.883 25.248 148.566 25.22 148.174 25.22C147.744 25.22 147.399 25.276 147.138 25.388C146.876 25.4813 146.68 25.6493 146.55 25.892C146.419 26.1347 146.335 26.4707 146.298 26.9C146.279 27.3293 146.27 27.88 146.27 28.552V36H141.762V28.44C141.762 27.6747 141.743 27.0773 141.706 26.648C141.668 26.2 141.584 25.8733 141.454 25.668C141.342 25.4627 141.164 25.3413 140.922 25.304C140.698 25.248 140.39 25.22 139.998 25.22C139.568 25.22 139.223 25.276 138.962 25.388C138.7 25.4813 138.504 25.6493 138.374 25.892C138.243 26.1347 138.159 26.48 138.122 26.928C138.084 27.3573 138.066 27.8987 138.066 28.552V36H133.586ZM164.613 36.224C163.269 36.224 162.158 36.14 161.281 35.972C160.404 35.804 159.704 35.5427 159.181 35.188C158.677 34.8147 158.294 34.3387 158.033 33.76C157.79 33.1813 157.632 32.4907 157.557 31.688C157.501 30.8853 157.473 29.952 157.473 28.888C157.473 27.6 157.529 26.4893 157.641 25.556C157.772 24.6227 158.052 23.8573 158.481 23.26C158.91 22.6627 159.573 22.224 160.469 21.944C161.384 21.6453 162.616 21.496 164.165 21.496C165.416 21.496 166.433 21.5893 167.217 21.776C168.001 21.944 168.617 22.2147 169.065 22.588C169.532 22.9427 169.858 23.4093 170.045 23.988C170.25 24.5667 170.381 25.2667 170.437 26.088C170.493 26.8907 170.521 27.824 170.521 28.888V29.98H161.925C161.925 30.6147 161.953 31.128 162.009 31.52C162.065 31.8933 162.214 32.1733 162.457 32.36C162.7 32.5467 163.073 32.6773 163.577 32.752C164.081 32.808 164.781 32.836 165.677 32.836C166.032 32.836 166.452 32.8267 166.937 32.808C167.422 32.7893 167.926 32.7613 168.449 32.724C168.99 32.6867 169.494 32.6493 169.961 32.612V35.748C169.55 35.8413 169.046 35.9253 168.449 36C167.87 36.0747 167.245 36.1307 166.573 36.168C165.901 36.2053 165.248 36.224 164.613 36.224ZM166.293 28.104V27.656C166.293 26.984 166.256 26.452 166.181 26.06C166.125 25.668 166.013 25.3787 165.845 25.192C165.696 24.9867 165.481 24.856 165.201 24.8C164.921 24.744 164.566 24.716 164.137 24.716C163.652 24.716 163.26 24.7533 162.961 24.828C162.681 24.884 162.466 25.0147 162.317 25.22C162.168 25.4253 162.065 25.724 162.009 26.116C161.953 26.508 161.925 27.0213 161.925 27.656H166.769L166.293 28.104ZM173.535 36V21.72H177.791L177.903 24.156H178.155C178.416 23.4653 178.743 22.924 179.135 22.532C179.545 22.14 180.04 21.8693 180.619 21.72C181.197 21.5707 181.869 21.496 182.635 21.496V25.612C181.459 25.612 180.535 25.7613 179.863 26.06C179.191 26.3587 178.715 26.872 178.435 27.6C178.155 28.3093 178.015 29.308 178.015 30.596V36H173.535ZM184.963 18.808V15.196H189.583V18.808H184.963ZM185.019 36V21.72H189.555V36H185.019ZM198.771 36.224C197.576 36.224 196.596 36.1213 195.831 35.916C195.066 35.692 194.459 35.384 194.011 34.992C193.563 34.5813 193.236 34.0773 193.031 33.48C192.826 32.8827 192.695 32.2013 192.639 31.436C192.583 30.652 192.555 29.7933 192.555 28.86C192.555 27.9453 192.583 27.1053 192.639 26.34C192.695 25.5747 192.835 24.8933 193.059 24.296C193.283 23.68 193.61 23.1667 194.039 22.756C194.487 22.3453 195.084 22.0373 195.831 21.832C196.596 21.608 197.567 21.496 198.743 21.496C199.49 21.496 200.236 21.5333 200.983 21.608C201.748 21.6827 202.43 21.7947 203.027 21.944V25.108C202.654 25.052 202.168 25.0053 201.571 24.968C200.992 24.9307 200.451 24.912 199.947 24.912C199.294 24.912 198.78 24.968 198.407 25.08C198.034 25.1733 197.754 25.36 197.567 25.64C197.38 25.9013 197.25 26.2933 197.175 26.816C197.119 27.3387 197.091 28.02 197.091 28.86C197.091 29.7 197.119 30.3907 197.175 30.932C197.25 31.4547 197.38 31.856 197.567 32.136C197.754 32.3973 198.043 32.5747 198.435 32.668C198.827 32.7613 199.34 32.808 199.975 32.808C200.423 32.808 200.927 32.7893 201.487 32.752C202.066 32.7147 202.616 32.668 203.139 32.612V35.776C202.523 35.9067 201.823 36.0093 201.039 36.084C200.255 36.1773 199.499 36.224 198.771 36.224ZM209.464 36.224C208.568 36.224 207.812 36.084 207.196 35.804C206.58 35.524 206.113 35.0667 205.796 34.432C205.497 33.7973 205.348 32.9667 205.348 31.94C205.348 30.8573 205.469 29.9987 205.712 29.364C205.973 28.7107 206.431 28.244 207.084 27.964C207.737 27.684 208.661 27.544 209.856 27.544C210.024 27.544 210.257 27.5533 210.556 27.572C210.873 27.572 211.228 27.5813 211.62 27.6C212.012 27.6 212.404 27.6093 212.796 27.628C213.188 27.628 213.543 27.6373 213.86 27.656V27.124C213.86 26.5827 213.813 26.1627 213.72 25.864C213.645 25.5653 213.487 25.3507 213.244 25.22C213.02 25.0707 212.675 24.9867 212.208 24.968C211.741 24.9307 211.125 24.912 210.36 24.912C209.931 24.912 209.455 24.9213 208.932 24.94C208.428 24.9587 207.924 24.9867 207.42 25.024C206.935 25.0427 206.524 25.0707 206.188 25.108V21.944C206.953 21.8133 207.812 21.7107 208.764 21.636C209.735 21.5427 210.752 21.496 211.816 21.496C213.011 21.496 214 21.5707 214.784 21.72C215.587 21.8693 216.231 22.1027 216.716 22.42C217.201 22.7187 217.556 23.1013 217.78 23.568C218.023 24.0347 218.181 24.5853 218.256 25.22C218.331 25.8547 218.368 26.5733 218.368 27.376V36H214.056L213.944 34.32H213.72C213.365 34.88 212.955 35.3 212.488 35.58C212.021 35.86 211.527 36.0373 211.004 36.112C210.481 36.1867 209.968 36.224 209.464 36.224ZM211.592 33.032C211.928 33.032 212.217 33.0133 212.46 32.976C212.721 32.92 212.936 32.836 213.104 32.724C213.291 32.5933 213.44 32.4347 213.552 32.248C213.645 32.0427 213.72 31.7907 213.776 31.492C213.832 31.1933 213.86 30.8387 213.86 30.428V29.896H211.256C210.789 29.896 210.435 29.9333 210.192 30.008C209.949 30.064 209.781 30.2133 209.688 30.456C209.613 30.68 209.576 31.0347 209.576 31.52C209.576 31.9307 209.623 32.248 209.716 32.472C209.809 32.696 209.996 32.8453 210.276 32.92C210.575 32.9947 211.013 33.032 211.592 33.032Z" fill="white"/>
</g>
<defs>
<filter id="filter0_d_95_193" x="29.8728" y="15.196" width="190.495" height="25.028" filterUnits="userSpaceOnUse" color-interpolation-filters="sRGB">
<feFlood flood-opacity="0" result="BackgroundImageFix"/>
<feColorMatrix in="SourceAlpha" type="matrix" values="0 0 0 0 0 0 0 0 0 0 0 0 0 0 0 0 0 0 127 0" result="hardAlpha"/>
<feOffset dy="2"/>
<feGaussianBlur stdDeviation="1"/>
<feComposite in2="hardAlpha" operator="out"/>
<feColorMatrix type="matrix" values="0 0 0 0 0 0 0 0 0 0 0 0 0 0 0 0 0 0 0.2 0"/>
<feBlend mode="normal" in2="BackgroundImageFix" result="effect1_dropShadow_95_193"/>
<feBlend mode="normal" in="SourceGraphic" in2="effect1_dropShadow_95_193" result="shape"/>
</filter>
<linearGradient id="paint0_linear_95_193" x1="90.5" y1="52" x2="90.5" y2="3.8147e-06" gradientUnits="userSpaceOnUse">
<stop stop-color="#004E96"/>
<stop offset="1" stop-color="#00C2FF"/>
</linearGradient>
</defs>
</svg>
