<?xml version="1.0" encoding="UTF-8"?>
<svg width="172px" height="34px" viewBox="0 0 172 34" version="1.1" xmlns="http://www.w3.org/2000/svg" xmlns:xlink="http://www.w3.org/1999/xlink">
    <title>Continent_NorthAmerica</title>
    <g id="UI-Design" stroke="none" stroke-width="1" fill="none" fill-rule="evenodd">
        <g id="Auction_buyingcardalternatives" transform="translate(-404.000000, -997.000000)">
            <g id="Continent" transform="translate(404.000000, 997.000000)">
                <rect id="Rectangle" fill="#545E8F" fill-rule="nonzero" x="0" y="0" width="172" height="34" rx="17"></rect>
                <g id="noun_North-America_789267-(1)" transform="translate(22.000000, 7.000000)" fill="#FFFFFF">
                    <path d="M10.9589011,19.4002198 L10.1235165,18.8147253 L9.51582418,18.3806593 C9.48747253,18.3604396 9.45472527,18.3472527 9.42021978,18.3426374 L8.31802198,18.1905495 C8.20835165,18.1753846 8.12791209,18.0793407 8.13230769,17.9687912 L8.14527473,17.6421978 C8.14681319,17.6032967 8.1589011,17.5654945 8.18021978,17.532967 C8.18021978,17.532967 8.55296703,17.0553846 8.54285714,16.9782418 C8.53274725,16.9013187 8.35736264,16.8589011 8.35736264,16.8589011 C8.27494505,16.8059341 8.16725275,16.8153846 8.09516484,16.8815385 L7.40747253,17.5149451 C7.36087912,17.5578022 7.2978022,17.578022 7.23494505,17.5701099 L6.48725275,17.4767033 C6.43384615,17.4701099 6.38483516,17.4435165 6.34989011,17.4026374 L5.6621978,16.5936264 C5.63076923,16.5567033 5.61274725,16.5103297 5.61120879,16.461978 L5.57054945,15.3230769 C5.56857143,15.2665934 5.58879121,15.2116484 5.62703297,15.1698901 L6.0378022,14.7217582 C6.06461538,14.6925275 6.09912088,14.6712088 6.13736264,14.6602198 L7.50593407,14.2692308 C7.53076923,14.2621978 7.5567033,14.2595604 7.58241758,14.2617582 L9.11934066,14.3863736 C9.20659341,14.3934066 9.28087912,14.4527473 9.30725275,14.5362637 L9.59076923,15.4367033 C9.62791209,15.5545055 9.75604396,15.6169231 9.87164835,15.5736264 L10.0454945,15.5083516 C10.1441758,15.4712088 10.2017582,15.3681319 10.1808791,15.2646154 L9.93252747,14.0226374 C9.9210989,13.9654945 9.93340659,13.9059341 9.96659341,13.858022 L10.9142857,12.489011 C10.9441758,12.4459341 10.9571429,12.3934066 10.950989,12.3413187 L10.9186813,12.0674725 C10.9156044,12.0406593 10.9173626,12.0134066 10.9243956,11.9872527 L11.1065934,11.2986813 C11.1173626,11.258022 11.1397802,11.2215385 11.170989,11.1934066 L11.7116484,10.7087912 C11.7650549,10.6608791 11.7912088,10.5892308 11.7810989,10.518022 L11.7426374,10.2483516 C11.7331868,10.1824176 11.7549451,10.1156044 11.8013187,10.0679121 L12.3138462,9.54087912 C12.4215385,9.43010989 12.6074725,9.46549451 12.6668132,9.60813187 C12.6668132,9.60813187 12.7112088,9.86769231 12.7738462,9.86483516 C12.8362637,9.86197802 13.1268132,9.01010989 13.1268132,9.01010989 C13.1747253,8.89428571 13.1138462,8.76241758 12.9949451,8.72351648 L11.9369231,8.37736264 L11.9369231,8.05186813 L12.6975824,7.84637363 C12.7604396,7.82945055 12.8276923,7.84175824 12.8802198,7.88 L13.4621978,8.3032967 C13.5250549,8.34901099 13.6076923,8.35736264 13.6784615,8.32483516 L13.876044,8.23428571 C14.001978,8.1767033 14.0413187,8.01692308 13.9569231,7.90725275 L13.2830769,7.03296703 C13.2692308,7.01494505 13.2523077,6.99912088 13.2334066,6.98637363 L11.9687912,6.12835165 C11.9630769,6.1243956 11.9571429,6.12087912 11.950989,6.11758242 L10.452967,5.30043956 C10.4349451,5.29054945 10.4158242,5.28351648 10.3958242,5.27912088 L9.4610989,5.07516484 C9.31142857,5.04263736 9.1767033,5.17208791 9.2032967,5.32285714 L9.28131868,5.76505495 C9.28505495,5.78637363 9.29208791,5.80703297 9.30197802,5.82615385 L9.61978022,6.44307692 C9.6578022,6.51692308 9.64989011,6.60637363 9.59934066,6.67230769 L9.44989011,6.86791209 C9.40615385,6.92505495 9.39384615,7.00021978 9.41714286,7.06835165 L9.64527473,7.73494505 C9.66835165,7.80241758 9.65648352,7.8767033 9.61384615,7.93384615 C9.61384615,7.93384615 9.55582418,8.13340659 9.47296703,8.12175824 C9.39010989,8.11010989 8.95230769,7.25406593 8.95230769,7.25406593 C8.92813187,7.21362637 8.89142857,7.18241758 8.84769231,7.16505495 L7.25230769,6.52681319 C7.2,6.50593407 7.15868132,6.46637363 7.13582418,6.41494505 C7.06637363,6.25824176 6.92131868,5.92 6.93912088,5.86681319 C6.95824176,5.80945055 7.67142857,4.94747253 7.92241758,4.64527473 C7.97538462,4.58153846 7.98637363,4.49362637 7.95164835,4.41846154 L7.78725275,4.06241758 C7.75208791,3.98615385 7.67582418,3.93736264 7.59186813,3.93736264 L6.07692308,3.93736264 C6.03296703,3.93736264 5.99010989,3.92395604 5.95406593,3.8989011 L4.9567033,3.20505495 C4.94571429,3.19736264 4.93384615,3.19076923 4.92153846,3.18527473 L3.76571429,2.66923077 C3.68813187,2.63450549 3.63824176,2.55758242 3.63824176,2.47274725 L3.63824176,2.27230769 C3.63824176,2.20791209 3.60945055,2.14703297 3.55978022,2.10615385 L2.75538462,1.44483516 C2.66483516,1.37032967 2.31626374,1.26857143 2.20285714,1.15956044 L2.69054945,0 L1.4178022,0.697362637 L1.03428571,1.05472527 L1.00813187,1.33362637 C0.967252747,1.38153846 1.39362637,1.3956044 1.33076923,1.3956044 L1.50505495,1.69978022 L1.11274725,2.23142857 L0.755604396,2.42615385 C0.682857143,2.42615385 0.615164835,2.46285714 0.575384615,2.52373626 L0.0997802198,3.25208791 C0.00901098901,3.39098901 0.103076923,3.57604396 0.268791209,3.58461538 L1.11208791,3.62813187 C1.19274725,3.63230769 1.26417582,3.6810989 1.29714286,3.75472527 L1.63582418,4.50725275 C1.65274725,4.54483516 1.65846154,4.58637363 1.65252747,4.62703297 L1.38637363,6.42307692 C1.38395604,6.43934066 1.38351648,6.45604396 1.38483516,6.47252747 L1.53758242,8.30571429 C1.54263736,8.36593407 1.52197802,8.42571429 1.48087912,8.47010989 L0.981758242,9.00747253 C0.955164835,9.03604396 0.936923077,9.07142857 0.928791209,9.10967033 L0.541098901,10.9589011 C0.529230769,11.0153846 0.540659341,11.0740659 0.572527473,11.1221978 L1.11252747,11.9349451 C1.1221978,11.9496703 1.13010989,11.9652747 1.13604396,11.981978 L1.49714286,12.9975824 C1.49846154,13.0013187 1.49978022,13.0048352 1.50131868,13.0085714 L2.08945055,14.4156044 C2.12549451,14.501978 2.21340659,14.5551648 2.30659341,14.547033 L2.54153846,14.5265934 C2.62813187,14.5191209 2.71076923,14.5643956 2.75098901,14.6415385 L3.49692308,16.0714286 C3.51296703,16.1021978 3.52131868,16.1362637 3.52131868,16.170989 L3.52131868,17.1815385 C3.52131868,17.2694505 3.57472527,17.3483516 3.65626374,17.3813187 L5.8178022,18.2501099 C5.86593407,18.2694505 5.91934066,18.2707692 5.96835165,18.2538462 L6.37428571,18.1134066 C6.44967033,18.0872527 6.53318681,18.1050549 6.59142857,18.1593407 L6.80769231,18.3613187 C6.83230769,18.3843956 6.8621978,18.4013187 6.89472527,18.4107692 L7.69978022,18.6437363 C7.7189011,18.6492308 7.73714286,18.6573626 7.75406593,18.6679121 L8.40373626,19.0740659 C8.44813187,19.1017582 8.50087912,19.1123077 8.55252747,19.103956 L9.52,18.9459341 C9.57846154,18.9364835 9.63824176,18.9514286 9.68549451,18.9874725 L10.6531868,19.7274725 C10.7364835,19.7912088 10.7553846,19.8030769 10.8323077,19.7316484 L10.8149451,19.6226374 C10.9145055,19.5301099 11.1193407,19.3397802 10.9589011,19.4002198 Z" id="Path"></path>
                    <path d="M6.00901099,2.57736264 L5.53516484,2.22197802 C5.40483516,2.12417582 5.22395604,2.13098901 5.1010989,2.23802198 L4.85846154,2.44967033 L4.98637363,2.74021978 L5.27692308,2.74021978 L5.23604396,2.96505495 C5.2178022,3.06571429 5.24505495,3.16923077 5.31054945,3.24791209 L5.39428571,3.34835165 C5.45978022,3.42703297 5.55714286,3.47252747 5.65956044,3.47252747 L6.16043956,3.47252747 L6.59054945,3.47252747 L6.59054945,3.27472527 C6.59054945,3.27472527 6.38131868,2.89120879 6.38131868,2.85626374 C6.38131868,2.83296703 6.47428571,2.66 6.53626374,2.54725275 C6.57142857,2.4832967 6.58549451,2.41010989 6.57626374,2.3378022 L6.55516484,2.17164835 C6.53494505,2.01406593 6.40989011,1.89032967 6.25208791,1.87230769 L5.81186813,1.82175824 L6.01428571,2.12945055 C6.07010989,2.21450549 6.08571429,2.31978022 6.05692308,2.41736264 L6.00901099,2.57736264 Z" id="Path"></path>
                    <path d="M8.58571429,2.64175824 L8.14703297,2.58 C7.99494505,2.55868132 7.85120879,2.65472527 7.81252747,2.8032967 L7.77098901,2.96285714 C7.74505495,3.06307692 7.77186813,3.16945055 7.84263736,3.24505495 L7.98593407,3.39846154 C8.03054945,3.44637363 8.05846154,3.50747253 8.06549451,3.57252747 L8.13516484,4.22505495 C8.1432967,4.30131868 8.18021978,4.37164835 8.23824176,4.42175824 L8.74065934,4.85516484 L8.57340659,4.42043956 C8.53318681,4.31604396 8.55406593,4.19802198 8.62747253,4.11362637 C8.69758242,4.03296703 8.72,3.9210989 8.68615385,3.81978022 L8.53142857,3.35582418 L8.76175824,3.42769231 C8.85120879,3.4556044 8.92241758,3.5232967 8.95494505,3.61120879 L9.12175824,4.06175824 C9.13120879,4.08703297 9.13692308,4.11318681 9.13934066,4.14 C9.15010989,4.2632967 9.1821978,4.62879121 9.1821978,4.65758242 C9.1821978,4.68791209 9.72417582,4.74417582 9.86813187,4.75868132 C9.89186813,4.7610989 9.91428571,4.76615385 9.93692308,4.77406593 L10.4648352,4.9589011 C10.5505495,4.98879121 10.6452747,4.97868132 10.7226374,4.93142857 L10.9606593,4.78549451 L10.24,3.99516484 L10.7514286,3.98351648 L10.3483516,3.41494505 C10.3156044,3.36879121 10.2703297,3.33252747 10.218022,3.31076923 L8.66021978,2.66175824 C8.63604396,2.65208791 8.61120879,2.64527473 8.58571429,2.64175824 Z" id="Path"></path>
                    <path d="M12.7136264,2.65406593 L12.3782418,2.03120879 L12.0714286,1.45274725 C12.0514286,1.41516484 12.0241758,1.38197802 11.9914286,1.35494505 L11.4703297,0.928791209 C11.4404396,0.904395604 11.4081319,0.886153846 11.3716484,0.873846154 C11.2094505,0.819120879 10.7334066,0.65956044 10.7046154,0.65956044 C10.6806593,0.65956044 10.3235165,0.441098901 10.1013187,0.303516484 C9.99428571,0.237362637 9.85846154,0.24021978 9.75406593,0.310989011 L9.68285714,0.359340659 C9.60813187,0.40989011 9.5156044,0.426593407 9.42791209,0.405274725 L9.37384615,0.392087912 C9.23318681,0.357802198 9.08725275,0.422417582 9.0178022,0.549230769 L8.8378022,0.878461538 C8.81208791,0.925494505 8.79846154,0.978241758 8.79846154,1.03186813 L8.79846154,1.59010989 C8.79846154,1.68527473 8.84087912,1.7756044 8.91428571,1.83648352 L9.04681319,1.94615385 C9.10417582,1.99362637 9.17626374,2.01956044 9.25054945,2.01956044 L9.8956044,2.01956044 C9.98153846,2.01956044 10.0632967,2.05362637 10.1235165,2.11516484 C10.2459341,2.24021978 10.4479121,2.44527473 10.4720879,2.46131868 C10.4982418,2.47868132 10.9279121,2.7043956 11.1426374,2.81692308 C11.2191209,2.85692308 11.2758242,2.92593407 11.3004396,3.00857143 C11.3340659,3.12153846 11.3808791,3.27648352 11.401978,3.33296703 C11.4369231,3.42593407 11.7041758,3.96065934 11.7391209,3.96065934 C11.7696703,3.96065934 12.3013187,4.24703297 12.4312088,4.31714286 C12.4503297,4.32747253 12.4681319,4.33956044 12.4846154,4.35362637 L12.8817582,4.68769231 C12.9393407,4.73604396 13.0123077,4.76263736 13.0874725,4.76263736 L13.0874725,4.76263736 C13.3147253,4.76263736 13.4694505,4.53230769 13.3832967,4.32197802 L13.3606593,4.26637363 C13.3564835,4.25626374 13.3518681,4.24659341 13.3468132,4.23692308 L12.9916484,3.57076923 C12.9857143,3.55956044 12.98,3.55010989 12.9727473,3.53978022 C12.9208791,3.46549451 12.6802198,3.11868132 12.6802198,3.07714286 C12.6802198,3.05472527 12.7043956,2.98659341 12.7296703,2.92175824 C12.763956,2.83428571 12.7582418,2.7367033 12.7136264,2.65406593 Z" id="Path"></path>
                    <path d="M13.1793407,16.6017582 C13.0942857,16.556044 12.9953846,16.541978 12.9004396,16.5591209 L12.3817582,16.6518681 C12.3562637,16.6564835 12.3305495,16.6586813 12.3048352,16.6586813 L11.6745055,16.6586813 C11.6175824,16.6586813 11.5610989,16.6474725 11.5083516,16.6259341 L11.078022,16.449011 C11.0694505,16.4454945 11.0606593,16.4421978 11.0518681,16.4393407 L10.6872527,16.316044 L10.2092308,16.178022 C10.1527473,16.1617582 10.0934066,16.1569231 10.0349451,16.1641758 L9.64571429,16.2118681 C9.58527473,16.2193407 9.52681319,16.2393407 9.47450549,16.2705495 L8.99010989,16.5602198 L9.46659341,16.5079121 L9.72813187,16.5659341 L10.4894505,16.5892308 L10.5127473,16.7868132 L10.6564835,16.8685714 C10.778022,16.9378022 10.9252747,16.9446154 11.0525275,16.887033 L11.1496703,16.8430769 C11.2305495,16.8063736 11.3208791,16.7953846 11.4083516,16.8114286 L11.7485714,16.8736264 C11.7923077,16.8815385 11.8369231,16.8828571 11.8810989,16.8773626 L12.6769231,16.7784615 C12.6947253,16.7762637 12.7127473,16.7751648 12.7307692,16.7751648 L13.2912088,16.7751648 C13.3331868,16.7751648 13.3751648,16.769011 13.4153846,16.7571429 L14.0013187,16.5832967 L14.0013187,16.4437363 C14.0013187,16.4437363 13.2964835,16.6413187 13.2558242,16.6356044 C13.2410989,16.6334066 13.2114286,16.6191209 13.1793407,16.6017582 Z" id="Path"></path>
                </g>
                <text id="North-America" fill="#FFFFFF" font-family="BerkshireSwash-Regular, Berkshire Swash" font-size="16" font-weight="normal">
                    <tspan x="46.2721893" y="23">North America</tspan>
                </text>
            </g>
        </g>
    </g>
</svg>