<svg width="249" height="52" viewBox="0 0 249 52" fill="none" xmlns="http://www.w3.org/2000/svg">
<path d="M0 46C0 49.3137 2.68629 52 6 52H242.264C246.475 52 249.375 47.7761 247.864 43.8461L232.479 3.84613C231.588 1.52898 229.362 3.8147e-06 226.879 3.8147e-06H6C2.68629 3.8147e-06 0 2.6863 0 6V46Z" fill="url(#paint0_linear_257_2137)"/>
<g filter="url(#filter0_d_257_2137)">
<path d="M37.8077 36.224C37.061 36.224 36.249 36.2053 35.3717 36.168C34.513 36.1307 33.6637 36.0747 32.8237 36C32.0023 35.9253 31.265 35.8507 30.6117 35.776V32.164C31.3023 32.22 31.993 32.276 32.6837 32.332C33.393 32.388 34.065 32.4253 34.6997 32.444C35.3343 32.4627 35.8663 32.472 36.2957 32.472C37.1917 32.472 37.873 32.444 38.3397 32.388C38.8063 32.3133 39.1517 32.2107 39.3757 32.08C39.525 31.9493 39.6277 31.8093 39.6837 31.66C39.7583 31.5107 39.805 31.3333 39.8237 31.128C39.8423 30.9227 39.8517 30.6893 39.8517 30.428C39.8517 30.036 39.8237 29.728 39.7677 29.504C39.7303 29.2613 39.637 29.0747 39.4877 28.944C39.357 28.8133 39.1517 28.72 38.8717 28.664C38.5917 28.5893 38.2277 28.524 37.7797 28.468L33.8317 27.964C33.0663 27.8707 32.441 27.684 31.9557 27.404C31.4703 27.1053 31.0877 26.7133 30.8077 26.228C30.5277 25.7427 30.3317 25.1733 30.2197 24.52C30.1077 23.848 30.0517 23.1013 30.0517 22.28C30.0517 21.0107 30.2383 20.0027 30.6117 19.256C30.985 18.4907 31.4983 17.912 32.1517 17.52C32.8237 17.1093 33.5983 16.8387 34.4757 16.708C35.3717 16.5773 36.3423 16.512 37.3877 16.512C38.1343 16.512 38.909 16.54 39.7117 16.596C40.5143 16.6333 41.2703 16.6987 41.9797 16.792C42.689 16.8667 43.277 16.96 43.7437 17.072V20.6C43.277 20.5253 42.7263 20.4693 42.0917 20.432C41.4757 20.376 40.8317 20.3387 40.1597 20.32C39.4877 20.2827 38.853 20.264 38.2557 20.264C37.5277 20.264 36.949 20.292 36.5197 20.348C36.0903 20.3853 35.7543 20.4693 35.5117 20.6C35.2503 20.7493 35.0823 20.9453 35.0077 21.188C34.9517 21.4307 34.9237 21.7387 34.9237 22.112C34.9237 22.5787 34.961 22.9427 35.0357 23.204C35.1103 23.4467 35.2783 23.6147 35.5397 23.708C35.801 23.8013 36.2023 23.8853 36.7437 23.96L40.5797 24.408C41.1023 24.464 41.5783 24.5573 42.0077 24.688C42.4557 24.8187 42.857 25.024 43.2117 25.304C43.585 25.584 43.893 25.9853 44.1357 26.508C44.2663 26.7507 44.369 27.0493 44.4437 27.404C44.5183 27.74 44.5837 28.132 44.6397 28.58C44.6957 29.028 44.7237 29.532 44.7237 30.092C44.7237 31.1933 44.6117 32.1267 44.3877 32.892C44.1637 33.6387 43.8463 34.236 43.4357 34.684C43.025 35.1133 42.5303 35.4493 41.9517 35.692C41.373 35.916 40.729 36.056 40.0197 36.112C39.329 36.1867 38.5917 36.224 37.8077 36.224ZM54.0256 36.224C52.7562 36.224 51.7016 36.1493 50.8616 36C50.0216 35.8507 49.3589 35.608 48.8736 35.272C48.3882 34.936 48.0336 34.488 47.8096 33.928C47.5856 33.368 47.4362 32.668 47.3616 31.828C47.3056 30.988 47.2776 29.9893 47.2776 28.832C47.2776 27.6747 47.3056 26.6853 47.3616 25.864C47.4362 25.024 47.5856 24.324 47.8096 23.764C48.0336 23.204 48.3882 22.756 48.8736 22.42C49.3589 22.084 50.0216 21.8507 50.8616 21.72C51.7016 21.5707 52.7562 21.496 54.0256 21.496C55.3136 21.496 56.3776 21.5707 57.2176 21.72C58.0576 21.8507 58.7202 22.084 59.2056 22.42C59.6909 22.756 60.0456 23.204 60.2696 23.764C60.4936 24.324 60.6336 25.024 60.6896 25.864C60.7642 26.6853 60.8016 27.6747 60.8016 28.832C60.8016 29.9893 60.7642 30.988 60.6896 31.828C60.6336 32.668 60.4936 33.368 60.2696 33.928C60.0456 34.488 59.6909 34.936 59.2056 35.272C58.7202 35.608 58.0576 35.8507 57.2176 36C56.3776 36.1493 55.3136 36.224 54.0256 36.224ZM54.0256 32.808C54.5856 32.808 55.0242 32.7707 55.3416 32.696C55.6589 32.6213 55.8829 32.4533 56.0136 32.192C56.1442 31.9307 56.2189 31.5293 56.2376 30.988C56.2749 30.4467 56.2936 29.728 56.2936 28.832C56.2936 27.936 56.2749 27.2267 56.2376 26.704C56.2189 26.1813 56.1442 25.7893 56.0136 25.528C55.8829 25.2667 55.6589 25.0987 55.3416 25.024C55.0242 24.9493 54.5856 24.912 54.0256 24.912C53.4656 24.912 53.0269 24.9493 52.7096 25.024C52.4109 25.0987 52.1962 25.2667 52.0656 25.528C51.9349 25.7893 51.8509 26.1813 51.8136 26.704C51.7949 27.2267 51.7856 27.936 51.7856 28.832C51.7856 29.728 51.7949 30.4467 51.8136 30.988C51.8509 31.5293 51.9349 31.9307 52.0656 32.192C52.1962 32.4533 52.4109 32.6213 52.7096 32.696C53.0269 32.7707 53.4656 32.808 54.0256 32.808ZM68.1444 36.224C67.1924 36.224 66.427 36.1027 65.8484 35.86C65.2697 35.6173 64.831 35.2627 64.5324 34.796C64.2337 34.3293 64.0377 33.7507 63.9444 33.06C63.851 32.3693 63.8044 31.5667 63.8044 30.652V21.72H68.2844V29.28C68.2844 30.0453 68.303 30.652 68.3404 31.1C68.3964 31.5293 68.4897 31.8467 68.6204 32.052C68.751 32.2573 68.947 32.388 69.2084 32.444C69.4697 32.4813 69.8244 32.5 70.2724 32.5C70.7577 32.5 71.1404 32.4533 71.4204 32.36C71.719 32.248 71.9337 32.0707 72.0644 31.828C72.195 31.5853 72.279 31.2493 72.3164 30.82C72.3724 30.372 72.4004 29.8213 72.4004 29.168V21.72H76.9084V36H72.6244L72.5124 34.264H72.2604C71.999 34.7493 71.663 35.1413 71.2524 35.44C70.8417 35.72 70.375 35.916 69.8524 36.028C69.3297 36.1587 68.7604 36.224 68.1444 36.224ZM81.7753 36V25.136H79.1713V21.72H81.7753V17.576H86.3113V21.72H89.4193V25.136H86.3113V36H81.7753ZM91.7497 36V15.196H96.2297V23.372H96.4817C96.7617 22.9053 97.0977 22.5413 97.4897 22.28C97.9003 22 98.3577 21.804 98.8617 21.692C99.3657 21.58 99.9163 21.524 100.514 21.524C101.466 21.524 102.222 21.6453 102.782 21.888C103.36 22.112 103.799 22.4573 104.098 22.924C104.396 23.3907 104.592 23.9693 104.686 24.66C104.798 25.3507 104.854 26.1533 104.854 27.068V36H100.346V28.44C100.346 27.6747 100.327 27.0773 100.29 26.648C100.252 26.2 100.168 25.8733 100.038 25.668C99.907 25.4627 99.7017 25.3413 99.4217 25.304C99.1603 25.248 98.8057 25.22 98.3577 25.22C97.891 25.22 97.5083 25.276 97.2097 25.388C96.9297 25.4813 96.715 25.6493 96.5657 25.892C96.435 26.1347 96.3417 26.48 96.2857 26.928C96.2483 27.3573 96.2297 27.8987 96.2297 28.552V36H91.7497ZM113.863 36L119.967 16.736H126.603L132.735 36H127.807L126.659 32.22H119.799L118.679 36H113.863ZM120.835 28.552H125.595L123.299 20.936H123.103L120.835 28.552ZM134.707 36V21.72H138.963L139.075 23.456H139.327C139.588 22.9707 139.915 22.588 140.307 22.308C140.717 22.0093 141.175 21.804 141.679 21.692C142.183 21.5613 142.724 21.496 143.303 21.496C144.423 21.496 145.272 21.6547 145.851 21.972C146.429 22.2707 146.84 22.7653 147.083 23.456H147.335C147.615 22.9707 147.96 22.588 148.371 22.308C148.781 22.0093 149.239 21.804 149.743 21.692C150.265 21.5613 150.816 21.496 151.395 21.496C152.608 21.496 153.504 21.7107 154.083 22.14C154.68 22.5693 155.072 23.1947 155.259 24.016C155.464 24.8373 155.567 25.8547 155.567 27.068V36H151.087V28.44C151.087 27.6747 151.059 27.0773 151.003 26.648C150.965 26.2 150.891 25.8733 150.779 25.668C150.667 25.4627 150.489 25.3413 150.247 25.304C150.004 25.248 149.687 25.22 149.295 25.22C148.865 25.22 148.52 25.276 148.259 25.388C147.997 25.4813 147.801 25.6493 147.671 25.892C147.54 26.1347 147.456 26.4707 147.419 26.9C147.4 27.3293 147.391 27.88 147.391 28.552V36H142.883V28.44C142.883 27.6747 142.864 27.0773 142.827 26.648C142.789 26.2 142.705 25.8733 142.575 25.668C142.463 25.4627 142.285 25.3413 142.043 25.304C141.819 25.248 141.511 25.22 141.119 25.22C140.689 25.22 140.344 25.276 140.083 25.388C139.821 25.4813 139.625 25.6493 139.495 25.892C139.364 26.1347 139.28 26.48 139.243 26.928C139.205 27.3573 139.187 27.8987 139.187 28.552V36H134.707ZM165.734 36.224C164.39 36.224 163.279 36.14 162.402 35.972C161.525 35.804 160.825 35.5427 160.302 35.188C159.798 34.8147 159.415 34.3387 159.154 33.76C158.911 33.1813 158.753 32.4907 158.678 31.688C158.622 30.8853 158.594 29.952 158.594 28.888C158.594 27.6 158.65 26.4893 158.762 25.556C158.893 24.6227 159.173 23.8573 159.602 23.26C160.031 22.6627 160.694 22.224 161.59 21.944C162.505 21.6453 163.737 21.496 165.286 21.496C166.537 21.496 167.554 21.5893 168.338 21.776C169.122 21.944 169.738 22.2147 170.186 22.588C170.653 22.9427 170.979 23.4093 171.166 23.988C171.371 24.5667 171.502 25.2667 171.558 26.088C171.614 26.8907 171.642 27.824 171.642 28.888V29.98H163.046C163.046 30.6147 163.074 31.128 163.13 31.52C163.186 31.8933 163.335 32.1733 163.578 32.36C163.821 32.5467 164.194 32.6773 164.698 32.752C165.202 32.808 165.902 32.836 166.798 32.836C167.153 32.836 167.573 32.8267 168.058 32.808C168.543 32.7893 169.047 32.7613 169.57 32.724C170.111 32.6867 170.615 32.6493 171.082 32.612V35.748C170.671 35.8413 170.167 35.9253 169.57 36C168.991 36.0747 168.366 36.1307 167.694 36.168C167.022 36.2053 166.369 36.224 165.734 36.224ZM167.414 28.104V27.656C167.414 26.984 167.377 26.452 167.302 26.06C167.246 25.668 167.134 25.3787 166.966 25.192C166.817 24.9867 166.602 24.856 166.322 24.8C166.042 24.744 165.687 24.716 165.258 24.716C164.773 24.716 164.381 24.7533 164.082 24.828C163.802 24.884 163.587 25.0147 163.438 25.22C163.289 25.4253 163.186 25.724 163.13 26.116C163.074 26.508 163.046 27.0213 163.046 27.656H167.89L167.414 28.104ZM174.656 36V21.72H178.912L179.024 24.156H179.276C179.537 23.4653 179.864 22.924 180.256 22.532C180.667 22.14 181.161 21.8693 181.74 21.72C182.319 21.5707 182.991 21.496 183.756 21.496V25.612C182.58 25.612 181.656 25.7613 180.984 26.06C180.312 26.3587 179.836 26.872 179.556 27.6C179.276 28.3093 179.136 29.308 179.136 30.596V36H174.656ZM186.084 18.808V15.196H190.704V18.808H186.084ZM186.14 36V21.72H190.676V36H186.14ZM199.892 36.224C198.697 36.224 197.717 36.1213 196.952 35.916C196.187 35.692 195.58 35.384 195.132 34.992C194.684 34.5813 194.357 34.0773 194.152 33.48C193.947 32.8827 193.816 32.2013 193.76 31.436C193.704 30.652 193.676 29.7933 193.676 28.86C193.676 27.9453 193.704 27.1053 193.76 26.34C193.816 25.5747 193.956 24.8933 194.18 24.296C194.404 23.68 194.731 23.1667 195.16 22.756C195.608 22.3453 196.205 22.0373 196.952 21.832C197.717 21.608 198.688 21.496 199.864 21.496C200.611 21.496 201.357 21.5333 202.104 21.608C202.869 21.6827 203.551 21.7947 204.148 21.944V25.108C203.775 25.052 203.289 25.0053 202.692 24.968C202.113 24.9307 201.572 24.912 201.068 24.912C200.415 24.912 199.901 24.968 199.528 25.08C199.155 25.1733 198.875 25.36 198.688 25.64C198.501 25.9013 198.371 26.2933 198.296 26.816C198.24 27.3387 198.212 28.02 198.212 28.86C198.212 29.7 198.24 30.3907 198.296 30.932C198.371 31.4547 198.501 31.856 198.688 32.136C198.875 32.3973 199.164 32.5747 199.556 32.668C199.948 32.7613 200.461 32.808 201.096 32.808C201.544 32.808 202.048 32.7893 202.608 32.752C203.187 32.7147 203.737 32.668 204.26 32.612V35.776C203.644 35.9067 202.944 36.0093 202.16 36.084C201.376 36.1773 200.62 36.224 199.892 36.224ZM210.585 36.224C209.689 36.224 208.933 36.084 208.317 35.804C207.701 35.524 207.234 35.0667 206.917 34.432C206.618 33.7973 206.469 32.9667 206.469 31.94C206.469 30.8573 206.59 29.9987 206.833 29.364C207.094 28.7107 207.552 28.244 208.205 27.964C208.858 27.684 209.782 27.544 210.977 27.544C211.145 27.544 211.378 27.5533 211.677 27.572C211.994 27.572 212.349 27.5813 212.741 27.6C213.133 27.6 213.525 27.6093 213.917 27.628C214.309 27.628 214.664 27.6373 214.981 27.656V27.124C214.981 26.5827 214.934 26.1627 214.841 25.864C214.766 25.5653 214.608 25.3507 214.365 25.22C214.141 25.0707 213.796 24.9867 213.329 24.968C212.862 24.9307 212.246 24.912 211.481 24.912C211.052 24.912 210.576 24.9213 210.053 24.94C209.549 24.9587 209.045 24.9867 208.541 25.024C208.056 25.0427 207.645 25.0707 207.309 25.108V21.944C208.074 21.8133 208.933 21.7107 209.885 21.636C210.856 21.5427 211.873 21.496 212.937 21.496C214.132 21.496 215.121 21.5707 215.905 21.72C216.708 21.8693 217.352 22.1027 217.837 22.42C218.322 22.7187 218.677 23.1013 218.901 23.568C219.144 24.0347 219.302 24.5853 219.377 25.22C219.452 25.8547 219.489 26.5733 219.489 27.376V36H215.177L215.065 34.32H214.841C214.486 34.88 214.076 35.3 213.609 35.58C213.142 35.86 212.648 36.0373 212.125 36.112C211.602 36.1867 211.089 36.224 210.585 36.224ZM212.713 33.032C213.049 33.032 213.338 33.0133 213.581 32.976C213.842 32.92 214.057 32.836 214.225 32.724C214.412 32.5933 214.561 32.4347 214.673 32.248C214.766 32.0427 214.841 31.7907 214.897 31.492C214.953 31.1933 214.981 30.8387 214.981 30.428V29.896H212.377C211.91 29.896 211.556 29.9333 211.313 30.008C211.07 30.064 210.902 30.2133 210.809 30.456C210.734 30.68 210.697 31.0347 210.697 31.52C210.697 31.9307 210.744 32.248 210.837 32.472C210.93 32.696 211.117 32.8453 211.397 32.92C211.696 32.9947 212.134 33.032 212.713 33.032Z" fill="white"/>
</g>
<defs>
<filter id="filter0_d_257_2137" x="28.0518" y="15.196" width="193.437" height="25.0281" filterUnits="userSpaceOnUse" color-interpolation-filters="sRGB">
<feFlood flood-opacity="0" result="BackgroundImageFix"/>
<feColorMatrix in="SourceAlpha" type="matrix" values="0 0 0 0 0 0 0 0 0 0 0 0 0 0 0 0 0 0 127 0" result="hardAlpha"/>
<feOffset dy="2"/>
<feGaussianBlur stdDeviation="1"/>
<feComposite in2="hardAlpha" operator="out"/>
<feColorMatrix type="matrix" values="0 0 0 0 0 0 0 0 0 0 0 0 0 0 0 0 0 0 0.2 0"/>
<feBlend mode="normal" in2="BackgroundImageFix" result="effect1_dropShadow_257_2137"/>
<feBlend mode="normal" in="SourceGraphic" in2="effect1_dropShadow_257_2137" result="shape"/>
</filter>
<linearGradient id="paint0_linear_257_2137" x1="90.5" y1="52" x2="90.5" y2="3.8147e-06" gradientUnits="userSpaceOnUse">
<stop stop-color="#375B7C"/>
<stop offset="1" stop-color="#C1C1A1"/>
</linearGradient>
</defs>
</svg>
