<?xml version="1.0" encoding="UTF-8"?>
<svg width="172px" height="34px" viewBox="0 0 172 34" version="1.1" xmlns="http://www.w3.org/2000/svg" xmlns:xlink="http://www.w3.org/1999/xlink">
    <title>Continent_SouthAmerica</title>
    <g id="UI-Design" stroke="none" stroke-width="1" fill="none" fill-rule="evenodd">
        <g id="Auction_buyingcardalternatives" transform="translate(-1004.000000, -1508.000000)">
            <g id="Continent_SouthAmerica" transform="translate(1004.000000, 1508.000000)">
                <rect id="Rectangle" fill="#C67029" fill-rule="nonzero" x="0" y="0" width="172" height="34" rx="17"></rect>
                <text id="South-America" fill="#FFFFFF" font-family="BerkshireSwash-Regular, Berkshire Swash" font-size="16" font-weight="normal">
                    <tspan x="47" y="23">South America</tspan>
                </text>
                <g id="noun_South-America_789266" transform="translate(23.000000, 7.000000)" fill="#FFFFFF">
                    <path d="M14.2611111,5.28577778 L13.9437778,5.18488889 C13.9073333,5.17333333 13.8737778,5.154 13.8451111,5.12844444 L13.1628889,4.51444444 C13.1371111,4.49133333 13.1071111,4.47333333 13.0746667,4.46155556 L12.0131111,4.07555556 C12.0062222,4.07311111 11.9995556,4.07022222 11.9928889,4.06733333 L10.2806667,3.28266667 C10.2093333,3.25 10.1557778,3.18777778 10.134,3.11244444 L9.63222222,1.37733333 C9.59066667,1.23355556 9.44,1.15111111 9.29644444,1.19377778 L8.648,1.38666667 C8.62555556,1.39333333 8.60222222,1.39711111 8.57888889,1.39777778 L7.84777778,1.41866667 C7.76844444,1.42088889 7.692,1.388 7.63911111,1.32866667 L6.54,0.0973333333 C6.48266667,0.0331111111 6.398,-6.78433481e-05 6.31222222,0.00866666667 L4.94622222,0.145333333 C4.92888889,0.147111111 4.91133333,0.147111111 4.89377778,0.145555556 L3.38,0.00111111111 C3.33733333,-0.00288888889 3.29422222,0.00333333333 3.25422222,0.0191111111 L1.82822222,0.589555556 C1.72577778,0.630444444 1.36688889,0.804666667 1.36688889,0.914888889 L1.40022222,1.84 C1.40022222,1.89688889 1.38222222,1.95222222 1.34888889,1.99844444 L0.548888889,3.35844444 C0.524666667,3.39177778 0.508444444,3.43 0.501555556,3.47066667 L0.221777778,5.07977778 C0.212,5.13644444 0.220444444,5.19488889 0.246222222,5.24644444 L1.50022222,7.75422222 C1.52066667,7.79533333 1.55133333,7.83022222 1.58911111,7.85622222 L3.41866667,9.10688889 C3.49644444,9.16022222 3.54088889,9.25022222 3.53577778,9.34444444 L3.44311111,11.0144444 C3.44266667,11.0228889 3.44266667,11.0313333 3.44288889,11.0397778 L3.54222222,13.5971111 C3.54355556,13.6328889 3.53777778,13.6686667 3.52533333,13.7022222 L3.13066667,14.7548889 C3.10222222,14.8306667 3.10933333,14.9148889 3.15,14.9848889 L3.50711111,15.6 C3.53155556,15.6422222 3.54422222,15.69 3.54355556,15.7386667 L3.51933333,17.66 C3.51911111,17.6713333 3.51977778,17.6826667 3.52111111,17.6937778 L3.634,18.6871111 C3.642,18.758 3.678,18.8228889 3.73377778,18.8675556 L5.08111111,19.9411111 C5.19155556,20.0291111 5.35133333,20.0168889 5.44711111,19.9131111 C5.52777778,19.8257778 5.54155556,19.696 5.48133333,19.5935556 L5.09777778,18.9422222 C5.08133333,18.9142222 5.07,18.8835556 5.06444444,18.8517778 L4.89222222,17.8611111 C4.87755556,17.7773333 4.90355556,17.6915556 4.96177778,17.6297778 L5.60422222,16.9495556 C5.68266667,16.8664444 5.70022222,16.7426667 5.64777778,16.6411111 L5.54088889,16.4335556 C5.44066667,16.2391111 5.60177778,16.0124444 5.81844444,16.0433333 L5.89222222,16.0537778 C6.05444444,16.0768889 6.19955556,15.9508889 6.19955556,15.7868889 L6.19955556,15.7384444 C6.19955556,15.6313333 6.26288889,15.5344444 6.36088889,15.4915556 L7.35533333,15.0557778 C7.48888889,14.9973333 7.55177778,14.8431111 7.49711111,14.708 L7.44733333,14.5846667 C7.38488889,14.4297778 7.47666667,14.256 7.64,14.2204444 L8.52555556,14.0275556 C8.58311111,14.0151111 8.63511111,13.984 8.67333333,13.9391111 L9.90533333,12.494 C9.92777778,12.4675556 9.94488889,12.4373333 9.956,12.4044444 L10.2095556,11.6435556 C10.2322222,11.5753333 10.2813333,11.5188889 10.3457778,11.4871111 L12.2775556,10.5328889 C12.3308889,10.5064444 12.374,10.4633333 12.4002222,10.41 L13.1826667,8.81466667 C13.1946667,8.79022222 13.2028889,8.76422222 13.2071111,8.73733333 L13.3413333,7.87222222 C13.3495556,7.81977778 13.3728889,7.77066667 13.4088889,7.73155556 L14.3786667,6.67155556 C14.4242222,6.62177778 14.4493333,6.55688889 14.4493333,6.48955556 L14.4493333,5.54288889 C14.4488889,5.42511111 14.3728889,5.32133333 14.2611111,5.28577778 Z" id="Path"></path>
                </g>
            </g>
        </g>
    </g>
</svg>