<?xml version="1.0" encoding="UTF-8"?>
<svg width="1303px" height="233px" viewBox="0 0 1303 233" version="1.1" xmlns="http://www.w3.org/2000/svg" xmlns:xlink="http://www.w3.org/1999/xlink">
    <title>Combined Shape</title>
    <g id="Symbols" stroke="none" stroke-width="1" fill="none" fill-rule="evenodd">
        <g id="footer" transform="translate(11.000000, -10.000000)" fill="#030C0F" fill-rule="nonzero">
            <g transform="translate(-11.000000, 10.000000)" id="Footer_8">
                <path d="M1303,233 L0,233 L0,15 C4.47071259,15.5462005 9.15056457,11.9596446 14.1570178,12.3994839 C27.1093354,13.5374682 39.9599482,14.8729803 52.9953486,15.9261956 C64.5682057,16.861054 75.6740804,18.2869331 87.2942087,19.1146307 C94.9091745,19.656033 104.821809,20.6700625 112.357989,19.5208823 C116.248555,18.9282988 121.021517,18.7675575 125.430633,18.5332431 C136.469182,17.9486567 149.506015,17.7127429 159.981607,16.7251037 C173.597154,15.4423723 186.682691,14.0860678 199.864202,12.5290366 C209.696618,11.3686605 219.109323,10.3346383 229.487507,9.63329449 C229.491805,9.6348939 229.496102,9.63649332 229.498967,9.63809273 C231.027404,9.4821497 232.469892,9.28382216 233.741918,9.01432061 C242.34385,7.19258613 247.949072,5.85707402 259.04492,5.89226117 C265.343453,5.91225386 275.214546,6.66877749 281.057557,5.98902582 C285.738841,5.44362506 289.930224,4.18568462 294.65878,3.77223566 C299.292793,3.36678378 303.769235,3.34919021 308.589468,3.40197093 C313.499947,3.45555135 318.744189,3.21803812 323.383932,3.71305728 C328.005053,4.20727673 331.036141,5.37325077 335.982431,5.82908425 C338.92614,6.0993855 342.301019,6.28891626 344.655986,6.91188868 C351.296878,8.67124594 361.516059,11.8284925 370.953116,12.2315453 C377.616927,12.5154416 383.93838,11.1175523 390.643733,11.0927613 C395.153122,11.0767672 399.887407,10.5777495 404.401094,10.8600463 C412.686451,11.3822556 419.457697,11.8228946 426.185969,9.87800509 C428.573883,9.18785721 431.453131,8.30897829 434.81655,8.02028375 C439.903221,7.58364327 444.603128,7.76277783 449.807261,7.92591823 C456.204634,8.12584519 460.29288,7.30454523 465.492715,6.41926864 C473.819614,5.00058692 479.725653,2.9101506 487.465243,1.32033139 C493.212279,0.138363192 502.544766,0.333491907 507.579869,1.65141044 C512.438778,2.92374563 517.883565,2.93814037 523.137834,3.82341696 C527.177376,4.50476805 530.439091,5.64595115 534.109057,6.4760479 C537.873566,7.32853647 546.355171,7.69640208 549.606859,7.80996059 C550.72727,7.69699133 553.614569,7.15380805 556.519759,6.53392126 L557.311213,6.36322508 C559.152843,5.96173606 560.937329,5.54219958 562.213953,5.19571563 C565.303773,4.35842151 568.233157,3.29081153 571.86015,2.6350511 C580.941956,0.994050591 591.648174,4.32803261 601.281478,3.18285097 C607.590039,2.43352472 612.791307,1.26515155 618.720265,0.399067951 C621.116774,0.049595621 622.414584,-0.175122285 625.157748,0.177548877 C629.730165,0.766133854 630.956352,1.58183586 634.31261,2.58546921 C638.946623,3.97216262 644.402869,4.89262636 650.725755,5.51319965 C662.161095,6.63518976 673.931632,5.19811475 685.379865,6.28811655 C690.013878,6.72875558 694.743866,7.79716526 698.724677,8.60646961 C703.205417,9.51733685 708.524147,9.96517324 713.209729,10.7984688 C721.870391,12.3387061 733.302867,12.2339444 740.998051,14.186831 C745.14073,15.2392465 748.02714,16.6267396 752.476365,17.5687955 C755.083446,18.1205939 758.832198,19.2705738 761.659877,19.41772 C762.661167,19.4705007 764.287011,19.5264803 764.597855,19.5200826 C764.907267,19.513685 765.306924,19.4840958 765.557605,19.4593048 C765.724601,19.4426949 774.738432,18.717082 783.871744,17.8553907 L785.098542,17.7388741 L785.098542,17.7388741 L786.322077,17.6210292 C789.983084,17.2658104 793.536573,16.896825 796.411395,16.5515671 C819.05718,13.8333601 843.794359,16.4172162 866.57193,13.8181657 C877.580398,12.5618246 889.253527,12.1795643 901.25469,12.0500116 C912.644192,11.9268566 925.357289,11.9140613 936.66514,12.3315088 C943.049622,12.5674226 949.977006,12.9216932 956.117969,13.4327065 C962.379258,13.9525166 968.793821,14.7714174 975.534985,14.7058414 C987.404362,14.5906834 998.882677,12.9344885 1010.26788,12.10919 C1016.37876,11.6669515 1022.08426,11.4614266 1028.43866,11.4614266 C1034.73719,11.4614266 1040.09603,11.197523 1046.17396,10.9368183 C1049.22797,10.8056662 1052.31063,10.666517 1055.40188,10.5209702 C1064.7888,10.0763326 1074.2674,9.56212049 1083.37642,8.9727358 C1097.12519,8.08346067 1110.9642,6.8838989 1123.22034,5.02617757 C1131.2808,3.80422397 1140.58178,3.41716537 1149.86986,3.69706312 C1154.85941,3.84772808 1158.72545,4.70917338 1162.46837,5.53655751 L1163.40211,5.7422629 C1168.68535,6.89902049 1173.8888,7.86284794 1181.85672,6.51603329 C1191.7579,4.84144505 1201.92981,3.22363607 1212.36816,1.77776428 C1219.14083,0.839706976 1231.51014,1.53785193 1237.61243,2.5638771 C1244.83203,3.77863332 1252.24645,4.9781951 1259.63366,6.1497671 C1263.35233,6.73915178 1266.45361,7.84434803 1269.70816,8.59687311 L1269.70816,8.59687311 L1270.22671,8.71842871 C1274.29061,9.66208397 1278.31869,10.6329293 1282.52296,11.5326006 C1289.09939,12.9400864 1295.7718,14.1195217 1303,15 L1303,15 L1303,233 Z" id="Combined-Shape"></path>
            </g>
        </g>
    </g>
</svg>