<svg xmlns="http://www.w3.org/2000/svg" width="1280" height="233" viewBox="0 0 1280 233">
    <path fill="#030C0F" fill-rule="nonzero" d="M1 50V10.938c4.388.547 8.982 1.022 13.896 1.461 12.714 1.138 25.328 2.474 38.123 3.527 11.36.935 22.261 2.36 33.667 3.189 7.475.541 17.205 1.555 24.602.406 3.82-.593 8.504-.753 12.832-.988 10.836-.584 23.632-.82 33.915-1.808 13.365-1.283 26.21-2.639 39.148-4.196 9.651-1.16 18.89-2.194 29.078-2.896a.09.09 0 0 1 .01.005c1.501-.156 2.917-.354 4.166-.624 8.443-1.821 13.945-3.157 24.837-3.122 6.182.02 15.871.777 21.607.097 4.595-.545 8.709-1.803 13.35-2.217 4.55-.405 8.943-.423 13.675-.37 4.82.054 9.967-.184 14.522.311 4.536.494 7.51 1.66 12.366 2.116 2.89.27 6.202.46 8.514 1.083 6.518 1.76 16.55 4.916 25.813 5.32 6.54.283 12.746-1.114 19.327-1.14 4.427-.015 9.074-.514 13.504-.232 8.133.522 14.78.963 21.384-.982 2.344-.69 5.17-1.569 8.472-1.858 4.993-.436 9.606-.257 14.714-.094 6.28.2 10.293-.621 15.397-1.507 8.173-1.418 13.97-3.509 21.568-5.099 5.64-1.182 14.801-.987 19.744.331 4.77 1.273 10.114 1.287 15.271 2.172 3.965.682 7.167 1.823 10.77 2.653 3.694.853 12.02 1.22 15.212 1.334 1.9-.195 8.973-1.674 12.375-2.614 3.032-.838 5.908-1.905 9.468-2.56 8.915-1.642 19.424 1.692 28.88.547 6.192-.75 11.297-1.918 17.117-2.784 2.352-.35 3.626-.574 6.319-.221 4.488.588 5.692 1.404 8.986 2.407 4.549 1.387 9.905 2.308 16.111 2.928 11.225 1.122 22.778-.315 34.016.775 4.548.44 9.191 1.51 13.099 2.318 4.398.911 9.619 1.36 14.218 2.192 8.501 1.54 19.723 1.436 27.277 3.389 4.066 1.052 6.9 2.44 11.266 3.382 2.56.552 6.24 1.702 9.015 1.849.983.053 2.579.108 2.884.102.303-.006.696-.036.942-.06.244-.025 19.834-1.63 30.285-2.908 22.229-2.719 46.51-.135 68.869-2.734 10.805-1.256 22.263-1.638 34.043-1.768 11.18-.123 23.66-.136 34.759.282 6.267.235 13.066.59 19.094 1.1 6.146.52 12.443 1.34 19.06 1.274 11.65-.115 22.917-1.772 34.093-2.597a235.697 235.697 0 0 1 17.836-.648c6.182 0 11.442-.263 17.408-.524 2.998-.131 6.024-.27 9.058-.416 9.214-.445 18.518-.959 27.46-1.548 13.495-.89 27.08-2.09 39.11-3.947 7.912-1.222 17.041-1.609 26.158-1.329 12.244.377 17.596 5.196 31.398 2.819 9.719-1.675 19.703-3.292 29.95-4.738 6.647-.938 18.789-.24 24.779.786a2301.722 2301.722 0 0 0 21.615 3.586c3.65.59 6.695 1.694 9.89 2.447l.508.121c3.99.944 7.943 1.915 12.07 2.815 6.455 1.407 13.005 2.472 20.1 3.353V233H0V50h1z"/>
</svg>
