<svg width="24" height="24" viewBox="0 0 24 24" fill="none" xmlns="http://www.w3.org/2000/svg">
<path d="M12 2C9.35774 2.03188 6.83268 3.09568 4.96418 4.96418C3.09568 6.83268 2.03188 9.35774 2 12C2.03188 14.6423 3.09568 17.1673 4.96418 19.0358C6.83268 20.9043 9.35774 21.9681 12 22C14.6423 21.9681 17.1673 20.9043 19.0358 19.0358C20.9043 17.1673 21.9681 14.6423 22 12C21.9681 9.35774 20.9043 6.83268 19.0358 4.96418C17.1673 3.09568 14.6423 2.03188 12 2ZM17.7143 12.7143H12.7143V17.7143H11.2857V12.7143H6.28571V11.2857H11.2857V6.28571H12.7143V11.2857H17.7143V12.7143Z" fill="#F8F8F8"/>
</svg>
