<svg width="119" height="138" viewBox="0 0 119 138" fill="none" xmlns="http://www.w3.org/2000/svg">
<path opacity="0.09" d="M131.115 65.8841C125.602 56.5575 94.331 2.73961 94.331 2.73961C93.9304 2.04211 93.3431 1.46072 92.6302 1.05587C91.9173 0.651022 91.1049 0.4375 90.2773 0.4375C89.4497 0.4375 88.6373 0.651022 87.9244 1.05587C87.2115 1.46072 86.6242 2.04211 86.2236 2.73961L58.4268 50.2207L44.5283 26.6587C44.1277 25.9612 43.5404 25.3798 42.8275 24.9749C42.1146 24.5701 41.3022 24.3565 40.4746 24.3565C39.6471 24.3565 38.8346 24.5701 38.1217 24.9749C37.4089 25.3798 36.8216 25.9612 36.4209 26.6587C36.4209 26.6587 11.1258 70.8375 6.58565 78.513C2.14147 85.338 -0.14436 93.2613 0.0070691 101.316C0.0070691 124.12 17.9824 144.38 40.1735 144.781H90.2541C117.124 144.781 138.991 120.773 138.991 93.1946C139.176 83.5475 136.439 74.0575 131.115 65.8841ZM85.6213 135.856C69.4992 136.544 71.8156 127.619 67.1828 127.619C62.55 127.619 67.1828 136.544 53.4697 135.856C39.7565 135.168 33.3496 133.481 29.4339 129.667C25.5182 125.854 23.2757 120.736 23.1711 115.373C23.1342 111.623 24.3293 106.538 25.4875 102.388C26.6457 98.2373 39.3859 53.3001 44.0187 80.0752C45.1926 86.8595 50.7231 106.163 52.0037 109.081C53.2843 112 54.3893 110.212 54.5961 109.081C54.8029 107.951 60.6968 81.6814 60.6968 81.6814C60.9068 81.3682 61.1949 81.1107 61.5348 80.9325C61.8747 80.7542 62.2556 80.6608 62.6426 80.6608C63.0296 80.6608 63.4105 80.7542 63.7504 80.9325C64.0903 81.1107 64.3784 81.3682 64.5884 81.6814L75.4437 106.85C75.4437 106.85 76.3045 110.301 77.7601 106.85C79.2158 103.399 87.7988 60.306 87.7988 60.306C88.0008 59.9626 88.2938 59.677 88.6478 59.4782C89.0018 59.2795 89.4043 59.1748 89.814 59.1748C90.2238 59.1748 90.6262 59.2795 90.9802 59.4782C91.3343 59.677 91.6273 59.9626 91.8293 60.306C91.8293 60.306 108.507 88.7768 111.426 93.6855C114.315 97.9433 115.846 102.924 115.827 108.01C115.827 135.856 101.743 135.168 85.6213 135.856Z" fill="white"/>
</svg>
