<svg width="30" height="20" viewBox="0 0 30 20" fill="none" xmlns="http://www.w3.org/2000/svg">
<path d="M1.81667 3.20002H15.0628C15.3147 3.20002 17.1552 2.1709 17.3333 1.93335C17.5115 1.69581 19.5884 2.20554 19.8667 1.93335C19.8667 1.59741 19.7666 1.27523 19.5884 1.03769C19.4103 0.800139 19.1686 0.666687 18.9167 0.666687H1.81667C1.56471 0.666687 1.32308 0.800139 1.14492 1.03769C0.966758 1.27523 0.866669 1.59741 0.866669 1.93335C0.866669 2.26929 0.966758 2.59148 1.14492 2.82902C1.32308 3.06657 1.56471 3.20002 1.81667 3.20002Z" fill="#FFC633"/>
<path d="M1.43667 8.26667H11.6967C11.8478 8.26667 11.9928 8.13322 12.0997 7.89567C12.2066 7.65813 12.2667 7.33595 12.2667 7C12.2667 6.66406 12.2066 6.34188 12.0997 6.10433C11.9928 5.86679 11.8478 5.73334 11.6967 5.73334H1.43667C1.2855 5.73334 1.14051 5.86679 1.03362 6.10433C0.926722 6.34188 0.866669 6.66406 0.866669 7C0.866669 7.33595 0.926722 7.65813 1.03362 7.89567C1.14051 8.13322 1.2855 8.26667 1.43667 8.26667V8.26667Z" fill="#FFC633"/>
<path d="M1.81667 13.3333H11.3167C12.9 13.3333 13.5333 13.3333 12.9 12.9623C13.0782 12.7248 12.2667 12.4026 12.2667 12.0667C12.2667 11.7307 12.1666 11.4085 11.9884 11.171C11.8103 10.9334 11.5686 10.8 11.3167 10.8H1.81667C1.56471 10.8 1.32308 10.9334 1.14492 11.171C0.966758 11.4085 0.866669 11.7307 0.866669 12.0667C0.866669 12.4026 0.966758 12.7248 1.14492 12.9623C1.32308 13.1999 1.56471 13.3333 1.81667 13.3333Z" fill="#FFC633"/>
<path d="M24.8914 9.09073C24.8914 10.1726 24.5707 11.2302 23.9697 12.1298C23.3688 13.0293 22.5146 13.7304 21.5153 14.1445C20.516 14.5585 19.4163 14.6668 18.3554 14.4557C17.2945 14.2447 16.32 13.7237 15.5552 12.9587C14.7903 12.1937 14.2694 11.219 14.0584 10.1579C13.8474 9.0968 13.9557 7.99694 14.3696 6.99741C14.7835 5.99787 15.4845 5.14356 16.3839 4.54249C17.2833 3.94143 18.3407 3.62061 19.4224 3.62061C20.8729 3.62061 22.2639 4.19693 23.2896 5.22277C24.3152 6.24862 24.8914 7.63996 24.8914 9.09073ZM29.7863 19.4566C29.6469 19.5914 29.4606 19.6668 29.2667 19.6668C29.0728 19.6668 28.8865 19.5914 28.7471 19.4566L24.8094 15.509C23.151 16.9022 21.0188 17.6013 18.8576 17.4605C16.6964 17.3196 14.673 16.3496 13.2094 14.7529C11.7458 13.1561 10.955 11.0559 11.002 8.89017C11.049 6.72445 11.9301 4.66049 13.4615 3.12874C14.993 1.59699 17.0565 0.715718 19.2218 0.66873C21.3871 0.621742 23.487 1.41266 25.0834 2.87654C26.6799 4.34041 27.6496 6.36421 27.7905 8.52585C27.9313 10.6875 27.2324 12.8201 25.8394 14.4788L29.7863 18.4173C29.9232 18.5556 30 18.7423 30 18.9369C30 19.1316 29.9232 19.3183 29.7863 19.4566ZM19.4224 16.0195C20.7925 16.0195 22.1319 15.6132 23.2711 14.8518C24.4103 14.0905 25.2982 13.0083 25.8225 11.7423C26.3469 10.4762 26.484 9.08304 26.2167 7.73898C25.9494 6.39492 25.2897 5.16033 24.3208 4.19132C23.352 3.2223 22.1177 2.5624 20.7739 2.29505C19.4301 2.0277 18.0372 2.16491 16.7713 2.68934C15.5055 3.21376 14.4236 4.10185 13.6624 5.24129C12.9012 6.38072 12.4949 7.72034 12.4949 9.09073C12.4973 10.9276 13.2279 12.6886 14.5266 13.9875C15.8252 15.2864 17.5858 16.0171 19.4224 16.0195Z" fill="#FFC633"/>
</svg>
