<svg width="14" height="14" viewBox="0 0 14 14" fill="none" xmlns="http://www.w3.org/2000/svg">
<path d="M6.22222 10.8889C6.22222 11.3167 6.57222 11.6667 7 11.6667C7.42778 11.6667 7.77778 11.3167 7.77778 10.8889C7.77778 10.4611 7.42778 10.1111 7 10.1111C6.57222 10.1111 6.22222 10.4611 6.22222 10.8889ZM6.22222 0V3.11111H7.77778V1.61778C10.4144 1.99889 12.4444 4.25444 12.4444 7C12.4444 10.01 10.01 12.4444 7 12.4444C3.99 12.4444 1.55556 10.01 1.55556 7C1.55556 5.69333 2.01444 4.49556 2.78444 3.56222L7 7.77778L8.09667 6.68111L2.80778 1.39222V1.40778C1.10444 2.68333 0 4.70556 0 7C0 10.8656 3.12667 14 7 14C8.85652 14 10.637 13.2625 11.9497 11.9497C13.2625 10.637 14 8.85652 14 7C14 5.14348 13.2625 3.36301 11.9497 2.05025C10.637 0.737498 8.85652 2.76642e-08 7 0H6.22222ZM11.6667 7C11.6667 6.57222 11.3167 6.22222 10.8889 6.22222C10.4611 6.22222 10.1111 6.57222 10.1111 7C10.1111 7.42778 10.4611 7.77778 10.8889 7.77778C11.3167 7.77778 11.6667 7.42778 11.6667 7ZM2.33333 7C2.33333 7.42778 2.68333 7.77778 3.11111 7.77778C3.53889 7.77778 3.88889 7.42778 3.88889 7C3.88889 6.57222 3.53889 6.22222 3.11111 6.22222C2.68333 6.22222 2.33333 6.57222 2.33333 7Z" fill="#77D163"/>
</svg>
