<svg width="14" height="14" viewBox="0 0 14 14" fill="none" xmlns="http://www.w3.org/2000/svg">
<g clip-path="url(#clip0_536_8696)">
<path d="M6.19232 -0.0166931C5.13801 -0.0166931 4.29101 0.859384 4.29101 1.91854V2.15385H2.15386C1.85717 2.15385 1.6154 2.39561 1.6154 2.69231V3.23077H1.07693V4.30769H2.15386V12.3846C2.15386 13.2704 2.88347 14 3.76924 14H10.2308C11.1166 14 11.8462 13.2704 11.8462 12.3846V4.30769H12.9231V3.23077H12.3846V2.69231C12.3846 2.39561 12.1429 2.15385 11.8462 2.15385H9.70901V1.918C9.70901 0.859384 8.86201 -0.0166931 7.8077 -0.0166931H6.19232V-0.0166931ZM6.19232 1.09361H7.8077C8.24063 1.09361 8.5987 1.44685 8.5987 1.918V2.15385H5.40078V1.918C5.40078 1.44685 5.75886 1.09415 6.19178 1.09415L6.19232 1.09361ZM3.23078 4.30769H5.9904C6.05717 4.31469 6.1234 4.32438 6.19232 4.32438H7.8077C7.87663 4.32438 7.94232 4.31469 8.00963 4.30769H10.7692V12.3846C10.7692 12.6878 10.5339 12.9231 10.2308 12.9231H3.76924C3.46609 12.9231 3.23078 12.6878 3.23078 12.3846V4.30769ZM4.3077 5.38461V11.8462H5.38463V5.38461H4.3077ZM6.46155 5.38461V11.8462H7.53847V5.38461H6.46155ZM8.6154 5.38461V11.8462H9.69232V5.38461H8.6154Z" fill="#FF937B"/>
</g>
<defs>
<clipPath id="clip0_536_8696">
<rect width="14" height="14" fill="white"/>
</clipPath>
</defs>
</svg>
