<svg width="74" height="296" viewBox="0 0 74 296" fill="none" xmlns="http://www.w3.org/2000/svg">
<g style="mix-blend-mode:overlay">
<g style="mix-blend-mode:overlay">
<path d="M0 296L5.29602 281.879L72.0423 133.064L38.1334 143.458L3.53411 281.879L0 296Z" fill="#FFC773"/>
</g>
<path d="M74.0003 0L68.5497 14.5647L4.91504 152.965L38.1336 143.458L70.3631 14.5647L74.0003 0Z" fill="#FFC633"/>
</g>
<path d="M13.3945 241.499L16.7844 232.467L59.4719 137.286L37.783 143.933L15.651 232.467L13.3945 241.499Z" fill="#052938"/>
<path d="M60.6674 53.3452L57.1746 62.6559L16.4756 151.179L37.7215 145.089L58.3388 62.6559L60.6674 53.3452Z" fill="#052938"/>
<path d="M38.5969 117.911L29.8389 133.59L26.7788 120.233L10.6641 123.412L19.1542 159.179L32.4045 156.567L55.8348 114.504L38.5969 117.911Z" fill="#052938"/>
<path d="M59.019 153.048L65.0466 139.536L62.2853 138.328C60.4103 137.583 58.4183 137.178 56.4019 137.131C54.096 137.057 51.7894 137.254 49.5295 137.719C46.3444 138.315 43.2869 139.46 40.4933 141.105C37.8394 142.665 35.5823 144.821 33.899 147.401C32.3067 149.861 31.4553 152.728 31.4468 155.659C31.3535 157.666 31.958 159.643 33.1572 161.254L26.4805 175.271L29.1388 176.541C31.2112 177.45 33.4321 177.971 35.6918 178.079C38.3904 178.244 41.0989 178.057 43.7492 177.522C46.9239 176.923 49.9708 175.778 52.7545 174.136C55.419 172.583 57.6869 170.431 59.3797 167.85C60.993 165.398 61.8594 162.529 61.8731 159.592C61.938 158.476 61.7709 157.358 61.3825 156.31C60.9941 155.261 60.3928 154.305 59.6166 153.502C59.4265 153.339 59.227 153.187 59.019 153.048Z" fill="#052938"/>
<path d="M50.8685 117.57L31.91 151.592L23.492 153.254L16.6299 124.321L25.3982 122.597L29.7154 141.425L42.059 119.304L50.8685 117.57Z" fill="white"/>
<path d="M38.0713 172.691C36.1829 172.609 34.3253 172.182 32.5898 171.431L35.9591 164.371C37.5056 165.05 39.1512 165.475 40.8327 165.63C42.5534 165.794 44.2886 165.707 45.9844 165.372C47.3481 165.155 48.6507 164.652 49.807 163.896C50.2002 163.666 50.5302 163.342 50.7676 162.953C51.005 162.564 51.1422 162.122 51.1671 161.667C51.1685 161.317 51.0444 160.979 50.8174 160.714C50.5904 160.448 50.2756 160.274 49.9307 160.222C48.6781 159.911 47.3974 159.727 46.1081 159.674C44.4712 159.581 42.8428 159.374 41.2345 159.055C39.9718 158.796 38.8096 158.18 37.8859 157.28C37.3893 156.734 37.009 156.093 36.768 155.396C36.5271 154.699 36.4307 153.959 36.4846 153.223C36.4782 151.081 37.0939 148.983 38.2568 147.185C39.5471 145.221 41.2755 143.585 43.3055 142.405C45.6817 141.013 48.2833 140.049 50.992 139.556C52.9795 139.138 55.0103 138.961 57.0401 139.03C58.6953 139.067 60.331 139.395 61.8725 140L58.7814 146.968C57.5423 146.437 56.2215 146.123 54.8764 146.039C53.4109 145.928 51.9371 146.022 50.4974 146.317C49.0592 146.54 47.6913 147.091 46.4996 147.928C46.0872 148.187 45.7415 148.539 45.4909 148.957C45.2402 149.375 45.0916 149.846 45.0571 150.333C45.0507 150.689 45.1737 151.034 45.4031 151.306C45.6325 151.578 45.9526 151.756 46.3038 151.809C47.5772 152.119 48.8787 152.299 50.1883 152.346C51.821 152.41 53.4465 152.596 55.0515 152.903C56.2931 153.148 57.4378 153.747 58.3487 154.627C58.8378 155.149 59.2132 155.767 59.4509 156.443C59.6886 157.118 59.7834 157.835 59.7294 158.549C59.73 160.68 59.1106 162.764 57.9468 164.547C56.6285 166.526 54.8637 168.167 52.7951 169.336C50.455 170.719 47.8923 171.683 45.222 172.185C42.8713 172.67 40.4667 172.84 38.0713 172.691Z" fill="white"/>
</svg>
