<svg width="151" height="37" viewBox="0 0 151 37" fill="none" xmlns="http://www.w3.org/2000/svg">
<path d="M45.5298 8.35449H49.6016L51.9175 23.8999L57.5483 8.35449H61.4082L66.6758 23.2944L69.1279 8.35449H73.0786L69.0068 30H65.1924L59.2437 13.0166L52.856 30H49.0869L45.5298 8.35449ZM79.5117 8.35449V11.5332H75.5005V8.35449H79.5117ZM79.5117 14.1064V30H75.5005V14.1064H79.5117ZM87.3223 8.35449V30H83.311V8.35449H87.3223ZM101.188 18.2539C100.36 17.709 99.3206 17.4365 98.0693 17.4365C95.5768 17.4365 94.3306 18.8341 94.3306 21.6294C94.3306 24.9494 95.6273 26.6094 98.2207 26.6094C99.2702 26.6094 100.259 26.4631 101.188 26.1704V18.2539ZM105.199 29.0464C102.767 29.6821 100.39 30 98.0693 30C92.9329 30 90.3647 27.2451 90.3647 21.7354C90.3647 16.6494 92.8774 14.1064 97.9028 14.1064C98.9725 14.1064 100.067 14.3587 101.188 14.8633V8.35449H105.199V29.0464ZM108.226 25.0503C108.226 21.8918 110.527 20.3125 115.128 20.3125C116.208 20.3125 117.288 20.4134 118.368 20.6152V19.4194C118.368 17.9966 117.343 17.2852 115.295 17.2852C113.559 17.2852 111.632 17.5374 109.513 18.042V14.8633C111.632 14.3587 113.559 14.1064 115.295 14.1064C120.018 14.1064 122.379 15.8522 122.379 19.3438V30H120.048L118.625 28.5771C117.243 29.5257 115.719 30 114.054 30C110.169 30 108.226 28.3501 108.226 25.0503ZM118.368 23.3398C117.359 23.138 116.279 23.0371 115.128 23.0371C113.201 23.0371 112.237 23.693 112.237 25.0049C112.237 26.4176 113.045 27.124 114.659 27.124C115.991 27.124 117.227 26.7103 118.368 25.8828V23.3398ZM130.189 8.35449V30H126.178V8.35449H130.189ZM137.243 21.9927C137.243 25.3127 138.53 26.9727 141.103 26.9727C143.676 26.9727 144.963 25.3127 144.963 21.9927C144.963 18.7534 143.676 17.1338 141.103 17.1338C138.53 17.1338 137.243 18.7534 137.243 21.9927ZM133.232 22.0532C133.232 16.7251 135.856 14.061 141.103 14.061C146.35 14.061 148.974 16.7251 148.974 22.0532C148.974 27.3713 146.35 30.0303 141.103 30.0303C135.876 30.0303 133.252 27.3713 133.232 22.0532Z" fill="white"/>
<path d="M32.8 16.6659C31.61 14.5759 24.86 2.51588 24.86 2.51588C24.7735 2.35958 24.6468 2.22929 24.4929 2.13857C24.339 2.04785 24.1636 2 23.985 2C23.8064 2 23.631 2.04785 23.4771 2.13857C23.3232 2.22929 23.1965 2.35958 23.11 2.51588L17.11 13.1559L14.11 7.87588C14.0235 7.71958 13.8968 7.58929 13.7429 7.49857C13.589 7.40785 13.4136 7.36 13.235 7.36C13.0564 7.36 12.881 7.40785 12.7271 7.49857C12.5732 7.58929 12.4465 7.71958 12.36 7.87588C12.36 7.87588 6.9 17.7759 5.92 19.4959C4.96071 21.0253 4.46731 22.8008 4.5 24.6059C4.5 29.7159 8.38 34.2559 13.17 34.3459H23.98C29.78 34.3459 34.5 28.9659 34.5 22.7859C34.5398 20.6241 33.9491 18.4974 32.8 16.6659ZM22.98 32.3459C19.5 32.5 20 30.5 19 30.5C18 30.5 19 32.5 16.04 32.3459C13.08 32.1918 11.6971 31.8136 10.8518 30.959C10.0066 30.1045 9.52258 28.9576 9.5 27.7559C9.49204 26.9155 9.75 25.776 10 24.8459C10.25 23.9159 13 13.8459 14 19.8459C14.2534 21.3662 15.4471 25.6919 15.7236 26.3459C16 27 16.2385 26.5992 16.2831 26.3459C16.3278 26.0927 17.6 20.2059 17.6 20.2059C17.6453 20.1357 17.7075 20.078 17.7809 20.0381C17.8543 19.9981 17.9365 19.9772 18.02 19.9772C18.1035 19.9772 18.1857 19.9981 18.2591 20.0381C18.3325 20.078 18.3947 20.1357 18.44 20.2059L20.7831 25.8459C20.7831 25.8459 20.9689 26.6193 21.2831 25.8459C21.5974 25.0726 23.45 15.4159 23.45 15.4159C23.4936 15.3389 23.5568 15.2749 23.6333 15.2304C23.7097 15.1859 23.7966 15.1624 23.885 15.1624C23.9734 15.1624 24.0603 15.1859 24.1367 15.2304C24.2131 15.2749 24.2764 15.3389 24.32 15.4159C24.32 15.4159 27.92 21.7959 28.55 22.8959C29.1737 23.85 29.5039 24.966 29.5 26.1059C29.5 32.3459 26.46 32.1918 22.98 32.3459Z" fill="white"/>
</svg>
