<svg width="154" height="36" viewBox="0 0 154 36" fill="none" xmlns="http://www.w3.org/2000/svg">
<path d="M45.5469 6.65625H49.75L52.1406 22.7031L57.9531 6.65625H61.9375L67.375 22.0781L69.9062 6.65625H73.9844L69.7812 29H65.8438L59.7031 11.4688L53.1094 29H49.2188L45.5469 6.65625ZM80.625 6.65625V9.9375H76.4844V6.65625H80.625ZM80.625 12.5938V29H76.4844V12.5938H80.625ZM88.6875 6.65625V29H84.5469V6.65625H88.6875ZM103 16.875C102.146 16.3125 101.073 16.0312 99.7812 16.0312C97.2083 16.0312 95.9219 17.474 95.9219 20.3594C95.9219 23.7865 97.2604 25.5 99.9375 25.5C101.021 25.5 102.042 25.349 103 25.0469V16.875ZM107.141 28.0156C104.63 28.6719 102.177 29 99.7812 29C94.4792 29 91.8281 26.1562 91.8281 20.4688C91.8281 15.2188 94.4219 12.5938 99.6094 12.5938C100.714 12.5938 101.844 12.8542 103 13.375V6.65625H107.141V28.0156ZM110.266 23.8906C110.266 20.6302 112.641 19 117.391 19C118.505 19 119.62 19.1042 120.734 19.3125V18.0781C120.734 16.6094 119.677 15.875 117.562 15.875C115.771 15.875 113.781 16.1354 111.594 16.6562V13.375C113.781 12.8542 115.771 12.5938 117.562 12.5938C122.438 12.5938 124.875 14.3958 124.875 18V29H122.469L121 27.5312C119.573 28.5104 118 29 116.281 29C112.271 29 110.266 27.2969 110.266 23.8906ZM120.734 22.125C119.693 21.9167 118.578 21.8125 117.391 21.8125C115.401 21.8125 114.406 22.4896 114.406 23.8438C114.406 25.3021 115.24 26.0312 116.906 26.0312C118.281 26.0312 119.557 25.6042 120.734 24.75V22.125ZM132.938 6.65625V29H128.797V6.65625H132.938ZM140.219 20.7344C140.219 24.1615 141.547 25.875 144.203 25.875C146.859 25.875 148.188 24.1615 148.188 20.7344C148.188 17.3906 146.859 15.7188 144.203 15.7188C141.547 15.7188 140.219 17.3906 140.219 20.7344ZM136.078 20.7969C136.078 15.2969 138.786 12.5469 144.203 12.5469C149.62 12.5469 152.328 15.2969 152.328 20.7969C152.328 26.2865 149.62 29.0312 144.203 29.0312C138.807 29.0312 136.099 26.2865 136.078 20.7969Z" fill="white"/>
<path d="M32.7996 16.6659C31.6096 14.5759 24.8596 2.51588 24.8596 2.51588C24.7731 2.35958 24.6463 2.22929 24.4924 2.13857C24.3386 2.04785 24.1632 2 23.9846 2C23.8059 2 23.6306 2.04785 23.4767 2.13857C23.3228 2.22929 23.1961 2.35958 23.1096 2.51588L17.1096 13.1559L14.1096 7.87588C14.0231 7.71958 13.8963 7.58929 13.7424 7.49857C13.5886 7.40785 13.4132 7.36 13.2346 7.36C13.0559 7.36 12.8806 7.40785 12.7267 7.49857C12.5728 7.58929 12.4461 7.71958 12.3596 7.87588C12.3596 7.87588 6.89957 17.7759 5.91957 19.4959C4.96029 21.0253 4.46689 22.8008 4.49957 24.6059C4.49957 29.7159 8.37957 34.2559 13.1696 34.3459H23.9796C29.7796 34.3459 34.4996 28.9659 34.4996 22.7859C34.5394 20.6241 33.9487 18.4974 32.7996 16.6659ZM22.9796 32.3459C19.4996 32.5 19.9996 30.5 18.9996 30.5C17.9996 30.5 18.9996 32.5 16.0396 32.3459C13.0796 32.1918 11.6966 31.8136 10.8514 30.959C10.0062 30.1045 9.52215 28.9576 9.49957 27.7559C9.49161 26.9155 9.74957 25.776 9.99957 24.8459C10.2496 23.9159 12.9996 13.8459 13.9996 19.8459C14.253 21.3662 15.4467 25.6919 15.7231 26.3459C15.9996 27 16.2381 26.5992 16.2827 26.3459C16.3274 26.0927 17.5996 20.2059 17.5996 20.2059C17.6449 20.1357 17.7071 20.078 17.7805 20.0381C17.8538 19.9981 17.936 19.9772 18.0196 19.9772C18.1031 19.9772 18.1853 19.9981 18.2587 20.0381C18.3321 20.078 18.3942 20.1357 18.4396 20.2059L20.7827 25.8459C20.7827 25.8459 20.9685 26.6193 21.2827 25.8459C21.5969 25.0726 23.4496 15.4159 23.4496 15.4159C23.4932 15.3389 23.5564 15.2749 23.6328 15.2304C23.7093 15.1859 23.7961 15.1624 23.8846 15.1624C23.973 15.1624 24.0599 15.1859 24.1363 15.2304C24.2127 15.2749 24.276 15.3389 24.3196 15.4159C24.3196 15.4159 27.9196 21.7959 28.5496 22.8959C29.1732 23.85 29.5035 24.966 29.4996 26.1059C29.4996 32.3459 26.4596 32.1918 22.9796 32.3459Z" fill="white"/>
</svg>
