<?xml version="1.0" encoding="UTF-8"?>
<svg width="270px" height="480px" viewBox="0 0 270 480" version="1.1" xmlns="http://www.w3.org/2000/svg" xmlns:xlink="http://www.w3.org/1999/xlink">
    <title>card_common_back</title>
    <g id="card_common_back" stroke="none" stroke-width="1" fill="none" fill-rule="evenodd">
        <g id="card_common" transform="translate(0.000000, 0.000000)">
            <path d="M264.417527,256.991855 C263.32922,256.442084 262.201747,256.433084 261.195033,255.641857 C260.151824,254.822858 258.218802,254.701744 257.028725,255.435885 C255.425637,256.424341 254.20233,257.723682 252.477593,258.605424 C251.400264,259.155709 250.553769,259.666394 249.228692,259.542194 C248.150769,259.44088 247.177286,259.329023 246.123692,259.600308 C245.426736,259.780051 244.830659,260.325964 244.336055,260.755135 C242.942143,261.964476 241.539626,261.690105 239.823791,261.366106 C238.888879,261.19022 237.908571,261.500849 236.974253,261.51062 C235.585681,261.525534 234.275736,262.394676 232.895769,262.218276 C230.941088,261.968076 228.82411,260.005051 227.44889,258.911681 C226.96111,258.524167 226.262374,258.40691 225.652352,258.238739 C224.627835,257.955111 224.000011,257.230483 223.042549,256.923455 C222.081824,256.615398 220.995297,256.763255 219.978198,256.730084 C218.980088,256.697169 218.052593,256.708484 217.092758,256.959969 C216.113637,257.217112 215.245484,257.999082 214.275857,258.337739 C213.065604,258.760738 211.021319,258.290424 209.716121,258.278081 C207.418154,258.256482 206.257154,259.086538 204.475451,260.218479 C204.211978,260.385879 203.912901,260.509307 203.596615,260.606507 C203.595725,260.605478 203.595132,260.604193 203.594242,260.603164 C201.444626,261.039535 199.494989,261.681877 197.458714,262.403419 C194.728154,263.371046 192.017769,264.213702 189.197308,265.011358 C187.027813,265.6249 184.32722,265.771986 182.041418,266.135585 C181.128165,266.280613 180.139549,266.380899 179.333407,266.749641 C177.772451,267.463469 175.719264,266.833213 174.142286,266.496099 C171.735132,265.982328 169.434791,265.095958 167.037429,264.514816 C164.337725,263.860131 161.676,263.029818 158.993209,262.322419 C156.287275,261.609877 154.03678,260.750507 151.837319,259.337509 C150.966198,258.778224 150.131868,258.174967 149.290418,257.588168 C149.254516,257.562968 149.218912,257.537768 149.183011,257.512825 C148.508901,257.044569 147.866538,256.357998 147.096,255.99157 C145.566198,255.2636 144.030165,254.517887 142.53478,253.762916 C141.271121,253.125203 138.709088,252.691146 137.306275,253.274088 C135.144198,254.173316 133.037308,255.178486 130.986198,256.219141 C128.073758,257.697197 126.944802,254.701486 124.360813,254.467487 C122.436989,254.292887 120.510791,254.534087 118.841242,255.293428 C116.302648,256.447998 113.436198,257.193712 110.588143,257.746568 C108.701703,258.112996 106.738121,258.432367 104.794121,258.708538 C104.153835,258.799567 103.51533,258.885966 102.882462,258.967223 C101.623846,259.12948 100.513879,259.293537 99.2092747,259.293537 C97.8928022,259.293537 96.711033,259.42108 95.4452967,259.696222 C93.0873956,260.209222 90.7099121,261.23882 88.2511319,261.310049 C86.8548462,261.350934 85.5265055,260.841792 84.2293187,260.518564 C82.9573516,260.20125 81.5227912,259.980879 80.2003846,259.834051 C77.8582088,259.574594 75.224967,259.582823 72.8655824,259.658937 C70.3798022,259.73968 67.9622637,259.977793 65.6818022,260.758221 C60.9639231,262.373847 55.8401538,263.214189 51.1495714,264.903872 C48.9441758,265.698443 46.8387692,266.236128 44.566022,266.742956 C44.5642418,266.744756 44.5621648,266.746813 44.5600879,266.748613 C44.3601099,266.73447 44.1589451,266.717756 43.9518462,266.685356 C43.3658571,266.593299 42.5893846,265.878957 42.0493846,265.535929 C41.1281209,264.950672 40.529967,264.087702 39.6721978,263.434046 C38.078011,262.219562 35.710022,262.284876 33.9161538,261.327792 C32.9456374,260.809649 31.8442747,260.531164 30.9161868,259.965193 C30.0913516,259.461966 29.1119341,258.798024 28.1520989,258.52391 C25.7805495,257.846854 23.3428352,257.341826 20.973956,256.644198 C19.6646044,256.258999 18.5344615,255.686342 17.5743297,254.824658 C16.8794505,254.20083 16.6251758,253.693745 15.6783956,253.327831 C15.1099121,253.108746 14.8413956,253.248374 14.3447143,253.465917 C13.1166593,254.004116 12.0393297,254.730286 10.7326484,255.195971 C8.73761538,255.907999 6.52005495,255.233257 4.63895604,256.253599 C3.88740659,256.661169 3.28064835,257.324597 2.64095604,257.845311 C1.90602198,258.443424 0.357230769,259.393823 0,259.479194 L0,465.999901 C1.81153541e-14,473.731887 6.2680135,479.999901 14,479.999901 L256,479.999901 C263.731986,479.999901 270,473.731887 270,465.999901 L270,259.480223 L270,259.480223 C269.418758,259.423137 267.511253,259.198909 266.690275,258.64091 C265.929527,258.124825 265.254527,257.415626 264.417527,256.991855 Z" id="Path" fill="#FFFFFF"></path>
            <g id="Group" transform="translate(0.000000, 430.000000)">
                <path d="M270,36 L270,43.5207064 C269.642769,43.6060777 268.093978,44.5564764 267.359044,45.1545899 C266.719352,45.6753035 266.112593,46.3387311 265.361044,46.746302 C263.479945,47.7666435 261.262385,47.0919015 259.267352,47.8039291 C257.96067,48.2696142 256.883341,48.9957847 255.655286,49.5339839 C255.158604,49.7515265 254.890088,49.8911549 254.321604,49.6720694 C253.374824,49.3061557 253.120549,48.7990706 252.42567,48.1752429 C251.465538,47.3135584 250.335396,46.740902 249.026044,46.3557026 C246.657165,45.6580749 244.219451,45.1530471 241.847901,44.4759908 C240.888066,44.2018769 239.908648,43.537935 239.083813,43.0347071 C238.155725,42.4687364 237.054363,42.1902511 236.083846,41.672109 C235.411146,41.3132023 234.657709,41.0980705 233.894619,40.9053085 L233.130944,40.7155067 C232.11544,40.4603892 231.124896,40.1730967 230.327802,39.5658547 C229.470033,38.9121984 228.871879,38.0492282 227.950615,37.4639719 C227.410615,37.1209438 226.634143,36.4066019 226.048154,36.3145449 C225.841055,36.2821449 225.63989,36.2654306 225.439912,36.2512878 C225.437835,36.2530878 225.435758,36.2551449 225.433978,36.2569449 C223.161231,36.7637728 221.055824,37.3014578 218.850429,38.0960281 C214.159846,39.7857115 209.036077,40.6260532 204.318198,42.2416796 C202.037736,43.0221071 199.620198,43.2602211 197.134418,43.3409638 C194.775033,43.417078 192.141791,43.4253066 189.799615,43.1658498 C188.477209,43.0190214 187.042648,42.7986503 185.770681,42.4813364 C184.473495,42.1581083 183.145154,41.6489661 181.748868,41.6898518 C180.343851,41.7305538 178.965379,42.0841929 177.601939,42.4755563 L176.581996,42.771852 C175.903674,42.9683643 175.228389,43.1571069 174.554703,43.3036782 C173.288967,43.5788206 172.107198,43.7063633 170.790725,43.7063633 C169.486121,43.7063633 168.376154,43.8704202 167.117538,44.0326772 C166.48467,44.1139342 165.846165,44.2003341 165.205879,44.2913625 C163.261879,44.5675336 161.298297,44.8869046 159.411857,45.2533326 C156.563802,45.806189 153.697352,46.5519023 151.158758,47.7064721 C149.489209,48.465814 147.563011,48.7070136 145.639187,48.5324139 C143.055198,48.2984142 141.926242,45.302704 139.013802,46.7807591 C136.962692,47.8214148 134.855802,48.8265849 132.693725,49.7258122 C131.290912,50.3087543 128.728879,49.8746977 127.46522,49.2369843 C125.969835,48.4820139 124.433802,47.7363007 122.904,47.0083302 C122.133462,46.6419022 121.491099,45.9553317 120.816989,45.4870752 C120.781088,45.4621323 120.745484,45.4369324 120.709582,45.4117324 C119.868132,44.8249332 119.033802,44.2216769 118.162681,43.662392 C115.96322,42.2493939 113.712725,41.3900236 111.006791,40.6774817 C108.324,39.9700827 105.662275,39.1397696 102.962571,38.4850847 C100.565209,37.9039427 98.2648681,37.0175725 95.8577143,36.5038017 C95.1107247,36.3441162 94.2568849,36.1186564 93.3991244,36.0014327 L93.391,36 L270,36 Z M91.475,36 L91.4389965,36.0062126 C91.1717986,36.058349 90.9130602,36.1375496 90.6665934,36.2502592 C89.8604505,36.6190016 88.8718352,36.7192872 87.9585824,36.8643155 C85.6727802,37.227915 82.9721868,37.3750006 80.8026923,37.9885426 C77.9822308,38.7861986 75.2718462,39.6288546 72.5412857,40.5964819 C70.505011,41.3180237 68.5553736,41.9603657 66.4057582,42.3967365 C66.4048681,42.395708 66.4042747,42.3944223 66.4033846,42.3933937 C66.0870989,42.4905936 65.788022,42.614022 65.5245495,42.7814217 C63.7428462,43.913363 62.5818462,44.743419 60.2838791,44.7218191 C58.9786813,44.7094762 56.9343956,44.2391626 55.7241429,44.662162 C54.7545165,45.0008187 53.8863626,45.7827891 52.9072418,46.0399316 C51.9474066,46.2914169 51.0199121,46.3027312 50.0218022,46.269817 C49.8183824,46.2631827 49.6121855,46.2637895 49.4047733,46.266542 L48.7804526,46.2761406 C48.1556097,46.2819849 47.5338857,46.2612798 46.9574505,46.0764458 C45.999989,45.7694176 45.3721648,45.0447901 44.3476484,44.7611619 C43.7376264,44.5929907 43.0388901,44.4757337 42.5511099,44.0882199 C41.1758901,42.99485 39.0589121,41.0318241 37.1042308,40.7816245 C35.7242637,40.6052247 34.4143187,41.4743664 33.0257473,41.4892806 C32.0914286,41.4990521 31.1111209,41.8096802 30.1762088,41.6337947 C28.4603736,41.3097952 27.0578571,41.0354241 25.6639451,42.2447653 C25.1693407,42.6739362 24.5732637,43.2198497 23.8763077,43.3995923 C22.8227143,43.6708777 21.8492308,43.5590207 20.7713077,43.4577065 C19.4462308,43.3335067 18.5997363,43.8441917 17.5224066,44.3944767 C15.7976703,45.2762183 14.5743626,46.5755594 12.9712747,47.5640152 C11.7811978,48.298157 9.84817582,48.1770429 8.80496703,47.358044 C7.79825275,46.5668165 6.67078022,46.5578166 5.58247253,46.0080459 C4.74547253,45.584275 4.07047253,44.875076 3.30972527,44.358991 C2.48874725,43.8009918 0.581241758,43.5767635 0,43.5196779 L0,43.5196779 L0,36 L91.475,36 Z M256,-1.17239551e-13 C263.731986,-1.18659894e-13 270,6.2680135 270,14 L270,36 L93.383,35.999 L93.391,36 L91.475,36 L91.481,35.999 L0,36 L0,14 C-9.46895252e-16,6.2680135 6.2680135,-1.15819209e-13 14,-1.17239551e-13 L256,-1.17239551e-13 Z" id="Combined-Shape" fill="#9BA2A0" fill-rule="nonzero" transform="translate(135.000000, 24.999950) rotate(-180.000000) translate(-135.000000, -24.999950) "></path>
                <text id="common" fill="#FFFFFF" font-family="BerkshireSwash-Regular, Berkshire Swash" font-size="19" font-weight="normal">
                    <tspan x="98.4418945" y="32">common</tspan>
                </text>
            </g>
            <path d="M270,93.5207064 C269.642769,93.6060777 268.093978,94.5564764 267.359044,95.1545899 C266.719352,95.6753035 266.112593,96.3387311 265.361044,96.746302 C263.479945,97.7666435 261.262385,97.0919015 259.267352,97.8039291 C257.96067,98.2696142 256.883341,98.9957847 255.655286,99.5339839 C255.158604,99.7515265 254.890088,99.8911549 254.321604,99.6720694 C253.374824,99.3061557 253.120549,98.7990706 252.42567,98.1752429 C251.465538,97.3135584 250.335396,96.740902 249.026044,96.3557026 C246.657165,95.6580749 244.219451,95.1530471 241.847901,94.4759908 C240.888066,94.2018769 239.908648,93.537935 239.083813,93.0347071 C238.155725,92.4687364 237.054363,92.1902511 236.083846,91.672109 C235.411146,91.3132023 234.657709,91.0980705 233.894619,90.9053085 L233.130944,90.7155067 C232.11544,90.4603892 231.124896,90.1730967 230.327802,89.5658547 C229.470033,88.9121984 228.871879,88.0492282 227.950615,87.4639719 C227.410615,87.1209438 226.634143,86.4066019 226.048154,86.3145449 C225.841055,86.2821449 225.63989,86.2654306 225.439912,86.2512878 C225.437835,86.2530878 225.435758,86.2551449 225.433978,86.2569449 C223.161231,86.7637728 221.055824,87.3014578 218.850429,88.0960281 C214.159846,89.7857115 209.036077,90.6260532 204.318198,92.2416796 C202.037736,93.0221071 199.620198,93.2602211 197.134418,93.3409638 C194.775033,93.417078 192.141791,93.4253066 189.799615,93.1658498 C188.477209,93.0190214 187.042648,92.7986503 185.770681,92.4813364 C184.473495,92.1581083 183.145154,91.6489661 181.748868,91.6898518 C180.343851,91.7305538 178.965379,92.0841929 177.601939,92.4755563 L176.581996,92.771852 C175.903674,92.9683643 175.228389,93.1571069 174.554703,93.3036782 C173.288967,93.5788206 172.107198,93.7063633 170.790725,93.7063633 C169.486121,93.7063633 168.376154,93.8704202 167.117538,94.0326772 C166.48467,94.1139342 165.846165,94.2003341 165.205879,94.2913625 C163.261879,94.5675336 161.298297,94.8869046 159.411857,95.2533326 C156.563802,95.806189 153.697352,96.5519023 151.158758,97.7064721 C149.489209,98.465814 147.563011,98.7070136 145.639187,98.5324139 C143.055198,98.2984142 141.926242,95.302704 139.013802,96.7807591 C136.962692,97.8214148 134.855802,98.8265849 132.693725,99.7258122 C131.290912,100.308754 128.728879,99.8746977 127.46522,99.2369843 C125.969835,98.4820139 124.433802,97.7363007 122.904,97.0083302 C122.133462,96.6419022 121.491099,95.9553317 120.816989,95.4870752 C120.781088,95.4621323 120.745484,95.4369324 120.709582,95.4117324 C119.868132,94.8249332 119.033802,94.2216769 118.162681,93.662392 C115.96322,92.2493939 113.712725,91.3900236 111.006791,90.6774817 C108.324,89.9700827 105.662275,89.1397696 102.962571,88.4850847 C100.565209,87.9039427 98.2648681,87.0175725 95.8577143,86.5038017 C94.2807363,86.1666879 92.2275495,85.5364316 90.6665934,86.2502592 C89.8604505,86.6190016 88.8718352,86.7192872 87.9585824,86.8643155 C85.6727802,87.227915 82.9721868,87.3750006 80.8026923,87.9885426 C77.9822308,88.7861986 75.2718462,89.6288546 72.5412857,90.5964819 C70.505011,91.3180237 68.5553736,91.9603657 66.4057582,92.3967365 C66.4048681,92.395708 66.4042747,92.3944223 66.4033846,92.3933937 C66.0870989,92.4905936 65.788022,92.614022 65.5245495,92.7814217 C63.7428462,93.913363 62.5818462,94.743419 60.2838791,94.7218191 C58.9786813,94.7094762 56.9343956,94.2391626 55.7241429,94.662162 C54.7545165,95.0008187 53.8863626,95.7827891 52.9072418,96.0399316 C51.9474066,96.2914169 51.0199121,96.3027312 50.0218022,96.269817 C49.8183824,96.2631827 49.6121855,96.2637895 49.4047733,96.266542 L48.7804526,96.2761406 C48.1556097,96.2819849 47.5338857,96.2612798 46.9574505,96.0764458 C45.999989,95.7694176 45.3721648,95.0447901 44.3476484,94.7611619 C43.7376264,94.5929907 43.0388901,94.4757337 42.5511099,94.0882199 C41.1758901,92.99485 39.0589121,91.0318241 37.1042308,90.7816245 C35.7242637,90.6052247 34.4143187,91.4743664 33.0257473,91.4892806 C32.0914286,91.4990521 31.1111209,91.8096802 30.1762088,91.6337947 C28.4603736,91.3097952 27.0578571,91.0354241 25.6639451,92.2447653 C25.1693407,92.6739362 24.5732637,93.2198497 23.8763077,93.3995923 C22.8227143,93.6708777 21.8492308,93.5590207 20.7713077,93.4577065 C19.4462308,93.3335067 18.5997363,93.8441917 17.5224066,94.3944767 C15.7976703,95.2762183 14.5743626,96.5755594 12.9712747,97.5640152 C11.7811978,98.298157 9.84817582,98.1770429 8.80496703,97.358044 C7.79825275,96.5668165 6.67078022,96.5578166 5.58247253,96.0080459 C4.74547253,95.584275 4.07047253,94.875076 3.30972527,94.358991 C2.48874725,93.8009918 0.581241758,93.5767635 0,93.5196779 L0,93.5196779 L0,14 C-9.46895252e-16,6.2680135 6.2680135,1.42034288e-15 14,0 L256,0 C263.731986,-1.42034288e-15 270,6.2680135 270,14 Z" id="Combined-Shape" fill="#9BA2A0" fill-rule="nonzero"></path>
        </g>
    </g>
</svg>