<svg xmlns="http://www.w3.org/2000/svg" width="71.894" height="48" viewBox="0 0 71.894 48">
  <path id="Combined_Shape" data-name="Combined Shape" d="M34.159,48a21.6,21.6,0,0,1-8.378-1.483A31.606,31.606,0,0,0,20.153,45a10.209,10.209,0,0,1-5.223-2.491,23.793,23.793,0,0,1-3.419-4.131A26.624,26.624,0,0,0,8.3,34.411a24.6,24.6,0,0,0-3.354-2.675A8.885,8.885,0,0,1,.934,26.62,15,15,0,0,1,.265,19.3a20.7,20.7,0,0,1,.768-3.617,28.069,28.069,0,0,0,2.114-3.842C4.038,9.86,4.962,7.061,4.3,4.985,3.477,2.377,5.088,1.763,7.318.912,7.986.657,8.742.369,9.49,0H63.549a9.493,9.493,0,0,1,2.9,1.764c3.192,2.6,4.329,5.042,4.329,6.455a9.27,9.27,0,0,1-.539,2.268,13.331,13.331,0,0,0-.879,5.428,28.1,28.1,0,0,0,1.425,5.128,14.841,14.841,0,0,1,.97,3.537,7.2,7.2,0,0,0,.108,1.043c.213,1.412.478,3.168-1.535,6.026a8.308,8.308,0,0,1-3.575,3.123,18.444,18.444,0,0,0-4.292,3,7.205,7.205,0,0,0-2.389,3.687c-.475,1.506-.85,2.7-5.585,4.5A26,26,0,0,1,44.12,47.991c-.747,0-1.519-.017-2.336-.036l-.182,0c-.927-.021-1.846-.039-2.882-.039-1.008,0-1.971.018-2.944.056C35.215,47.989,34.671,48,34.159,48Z" transform="translate(-0.108 0)" fill="#fff"/>
</svg>
