<?xml version="1.0" encoding="UTF-8"?>
<svg width="61px" height="57px" viewBox="0 0 61 57" version="1.1" xmlns="http://www.w3.org/2000/svg" xmlns:xlink="http://www.w3.org/1999/xlink">
    <title>Path 3</title>
    <g id="UI-Design" stroke="none" stroke-width="1" fill="none" fill-rule="evenodd">
        <g id="HTP1" transform="translate(-165.000000, -367.000000)" fill="#FFFFFF" fill-rule="nonzero">
            <g id="Accordions" transform="translate(165.000000, 343.000000)">
                <path d="M9.4947147,31.9648615 C12.6021648,29.2459692 12.2493686,29.8661804 16.1871198,27.9642652 C20.124871,26.06235 18.3347762,25.3928772 24.8213515,24.5621683 C31.3079268,23.7314594 33.1427827,24.5046725 36.4206962,24.4213992 C39.6986098,24.3381258 39.9067781,23.2010325 43.9456829,25.052717 C47.9845876,26.9044014 46.1415077,27.5949189 49.893989,30.5983922 C53.6464704,33.6018656 53.6557372,32.2237987 56.2929659,34.7637325 C58.9301946,37.3036662 59.9604983,39.7639803 59.9604983,41.2188376 C59.9604983,42.673695 58.4437505,45.9493643 58.7593291,48.9145905 C59.0749077,51.8798168 60.7881549,56.056545 60.7881549,57.5791617 C60.7881549,59.1017785 61.7485791,61.0134979 59.5795018,64.6471801 C57.4104246,68.2808623 56.550936,66.8906873 52.9145492,70.7691856 C49.2781624,74.647684 52.8383546,75.9478727 46.1587774,78.9614596 C39.4792002,81.9750466 37.4298082,80.6439269 30.3102114,80.9674565 C23.1906146,81.290986 22.6630164,79.1225801 17.0742104,77.9966483 C11.4854043,76.8707165 10.3510952,71.1557783 7.03386013,67.4118959 C3.71662509,63.6680134 2.41511651,64.5568194 0.791523021,59.6197572 C-0.290872639,56.3283824 -0.263148631,52.6827827 0.874695047,48.6829582 C3.44232337,44.2307151 4.36622456,40.6648126 3.64639863,37.9852505 C2.56665974,33.9659074 6.38726463,34.6837539 9.4947147,31.9648615 Z" id="Path-3"></path>
            </g>
        </g>
    </g>
</svg>