<?xml version="1.0" encoding="UTF-8"?>
<svg width="61px" height="57px" viewBox="0 0 61 57" version="1.1" xmlns="http://www.w3.org/2000/svg" xmlns:xlink="http://www.w3.org/1999/xlink">
    <title>Path 3</title>
    <g id="UI-Design" stroke="none" stroke-width="1" fill="none" fill-rule="evenodd">
        <g id="HTP2" transform="translate(-165.000000, -367.000000)" fill="#E99D37" fill-rule="nonzero">
            <g id="Accordions" transform="translate(165.000000, 367.000000)">
                <path d="M9.4947147,7.96486153 C12.6021648,5.24596915 12.2493686,5.86618045 16.1871198,3.96426521 C20.124871,2.06234996 18.3347762,1.39287722 24.8213515,0.562168318 C31.3079268,-0.268540581 33.1427827,0.504672477 36.4206962,0.421399163 C39.6986098,0.338125849 39.9067781,-0.798967462 43.9456829,1.05271699 C47.9845876,2.90440145 46.1415077,3.59491893 49.893989,6.59839225 C53.6464704,9.60186556 53.6557372,8.22379873 56.2929659,10.7637325 C58.9301946,13.3036662 59.9604983,15.7639803 59.9604983,17.2188376 C59.9604983,18.673695 58.4437505,21.9493643 58.7593291,24.9145905 C59.0749077,27.8798168 60.7881549,32.056545 60.7881549,33.5791617 C60.7881549,35.1017785 61.7485791,37.0134979 59.5795018,40.6471801 C57.4104246,44.2808623 56.550936,42.8906873 52.9145492,46.7691856 C49.2781624,50.647684 52.8383546,51.9478727 46.1587774,54.9614596 C39.4792002,57.9750466 37.4298082,56.6439269 30.3102114,56.9674565 C23.1906146,57.290986 22.6630164,55.1225801 17.0742104,53.9966483 C11.4854043,52.8707165 10.3510952,47.1557783 7.03386013,43.4118959 C3.71662509,39.6680134 2.41511651,40.5568194 0.791523021,35.6197572 C-0.290872639,32.3283824 -0.263148631,28.6827827 0.874695047,24.6829582 C3.44232337,20.2307151 4.36622456,16.6648126 3.64639863,13.9852505 C2.56665974,9.96590739 6.38726463,10.6837539 9.4947147,7.96486153 Z" id="Path-3"></path>
            </g>
        </g>
    </g>
</svg>