<svg width="148" height="109" viewBox="0 0 148 109" fill="none" xmlns="http://www.w3.org/2000/svg">
<path d="M126.8 12.0657C114.063 1.81574 93.9125 0.0782393 93.05 0.0157369C91.7125 -0.0967623 90.4375 0.653239 89.8875 1.89074C89.8375 1.96574 89.4 2.97824 88.9125 4.55324C97.3375 5.97824 107.688 8.84074 117.05 14.6532C118.55 15.5782 119.013 17.5532 118.088 19.0532C117.475 20.0407 116.438 20.5782 115.363 20.5782C114.788 20.5782 114.2 20.4157 113.675 20.0907C97.575 10.1032 77.475 9.60324 73.6 9.60324C69.725 9.60324 49.6125 10.1032 33.525 20.0907C32.025 21.0282 30.05 20.5657 29.125 19.0657C28.1875 17.5532 28.65 15.5907 30.15 14.6532C39.5125 8.85324 49.8625 5.97824 58.2875 4.56574C57.8 2.97824 57.3625 1.97824 57.325 1.89074C56.7625 0.653239 55.5 -0.121761 54.15 0.0157369C53.2875 0.0782393 33.1375 1.81574 20.225 12.2032C13.4875 18.4407 0 54.8907 0 86.4032C0 86.9657 0.15 87.5032 0.425002 87.9907C9.725 104.341 35.1125 108.616 40.9 108.803C40.925 108.803 40.9625 108.803 41 108.803C42.025 108.803 42.9875 108.316 43.5875 107.491L49.4375 99.4407C33.65 95.3657 25.5875 88.4407 25.125 88.0282C23.8 86.8657 23.675 84.8407 24.85 83.5157C26.0125 82.1907 28.0375 82.0657 29.3625 83.2282C29.55 83.4032 44.4 96.0032 73.6 96.0032C102.85 96.0032 117.7 83.3532 117.85 83.2282C119.175 82.0782 121.188 82.1907 122.363 83.5282C123.525 84.8532 123.4 86.8657 122.075 88.0282C121.612 88.4407 113.55 95.3657 97.7625 99.4407L103.613 107.491C104.213 108.316 105.175 108.803 106.2 108.803C106.238 108.803 106.275 108.803 106.3 108.803C112.088 108.616 137.475 104.341 146.775 87.9907C147.05 87.5032 147.2 86.9657 147.2 86.4032C147.2 54.8907 133.713 18.4407 126.8 12.0657ZM52.8 73.6032C46.6125 73.6032 41.6 67.8782 41.6 60.8032C41.6 53.7282 46.6125 48.0032 52.8 48.0032C58.9875 48.0032 64 53.7282 64 60.8032C64 67.8782 58.9875 73.6032 52.8 73.6032ZM94.4 73.6032C88.2125 73.6032 83.2 67.8782 83.2 60.8032C83.2 53.7282 88.2125 48.0032 94.4 48.0032C100.588 48.0032 105.6 53.7282 105.6 60.8032C105.6 67.8782 100.588 73.6032 94.4 73.6032Z" fill="white"/>
</svg>
