<svg width="114" height="114" viewBox="0 0 114 114" fill="none" xmlns="http://www.w3.org/2000/svg">
<path d="M57 0.594652C41.6093 0.594652 39.68 0.659928 33.636 0.935928C27.6053 1.21059 23.4853 2.16793 19.8813 3.56926C16.1546 5.01726 12.9947 6.95466 9.84399 10.1053C6.69332 13.256 4.75599 16.416 3.30799 20.1427C1.90799 23.7467 0.949321 27.8654 0.674654 33.8974C0.398654 39.9427 0.333313 41.8706 0.333313 57.2613C0.333313 72.6506 0.398654 74.5814 0.674654 80.6254C0.949321 86.656 1.90799 90.7759 3.30799 94.3799C4.75599 98.1066 6.69332 101.267 9.84399 104.416C12.9947 107.567 16.1546 109.504 19.8813 110.953C23.4853 112.353 27.6053 113.312 33.636 113.587C39.68 113.863 41.6093 113.928 57 113.928C72.3893 113.928 74.3187 113.863 80.3627 113.587C86.3947 113.312 90.5147 112.353 94.1187 110.953C97.8453 109.504 101.005 107.567 104.156 104.416C107.305 101.267 109.244 98.1066 110.692 94.3799C112.092 90.7759 113.051 86.656 113.325 80.6254C113.601 74.5814 113.667 72.6506 113.667 57.2613C113.667 41.872 113.601 39.9427 113.325 33.8974C113.051 27.8654 112.092 23.7467 110.692 20.1427C109.244 16.416 107.305 13.256 104.156 10.1053C101.005 6.95466 97.8453 5.01726 94.1187 3.56926C90.5147 2.16793 86.3947 1.21059 80.3627 0.935928C74.3187 0.659928 72.3893 0.594652 57 0.594652ZM57 10.8053C72.1306 10.8053 73.9227 10.8626 79.8987 11.1346C85.4227 11.388 88.4226 12.3107 90.42 13.0867C93.0653 14.1147 94.9533 15.3427 96.936 17.3254C98.9186 19.308 100.147 21.196 101.175 23.84C101.951 25.8373 102.873 28.8373 103.127 34.3626C103.399 40.3386 103.456 42.1306 103.456 57.2613C103.456 72.392 103.399 74.184 103.127 80.16C102.873 85.684 101.951 88.6854 101.175 90.6814C100.147 93.3267 98.9186 95.2147 96.936 97.1974C94.9533 99.18 93.0653 100.408 90.42 101.436C88.4226 102.212 85.4227 103.136 79.8987 103.387C73.9227 103.66 72.132 103.717 57 103.717C41.868 103.717 40.0759 103.66 34.1013 103.387C28.5773 103.136 25.576 102.212 23.58 101.436C20.9347 100.408 19.0466 99.18 17.064 97.1974C15.0813 95.2147 13.8533 93.3267 12.8253 90.6814C12.0493 88.6854 11.1266 85.684 10.8733 80.16C10.6013 74.184 10.544 72.392 10.544 57.2613C10.544 42.1306 10.6013 40.3386 10.8733 34.3626C11.1266 28.8373 12.0493 25.8373 12.8253 23.84C13.8533 21.196 15.08 19.308 17.064 17.3254C19.0466 15.3427 20.9347 14.1147 23.58 13.0867C25.576 12.3107 28.5773 11.388 34.1013 11.1346C40.0773 10.8626 41.8693 10.8053 57 10.8053Z" fill="white"/>
<path d="M56.9999 76.1507C46.5679 76.1507 38.1106 67.6934 38.1106 57.2614C38.1106 46.8294 46.5679 38.3721 56.9999 38.3721C67.4319 38.3721 75.8893 46.8294 75.8893 57.2614C75.8893 67.6934 67.4319 76.1507 56.9999 76.1507ZM56.9999 28.1627C40.9293 28.1627 27.9012 41.1907 27.9012 57.2614C27.9012 73.3321 40.9293 86.3601 56.9999 86.3601C73.0706 86.3601 86.0986 73.3321 86.0986 57.2614C86.0986 41.1907 73.0706 28.1627 56.9999 28.1627Z" fill="white"/>
<path d="M94.048 27.012C94.048 30.768 91.004 33.812 87.2493 33.812C83.4933 33.812 80.4493 30.768 80.4493 27.012C80.4493 23.256 83.4933 20.212 87.2493 20.212C91.004 20.212 94.048 23.256 94.048 27.012Z" fill="white"/>
</svg>
