<svg width="108" height="108" viewBox="0 0 108 108" fill="none" xmlns="http://www.w3.org/2000/svg">
<path d="M59.8506 45.6733C61.3279 44.0133 62.5466 42.3267 64.0653 40.896C68.732 36.4974 74.2533 34.2774 80.6986 34.332C84.2413 34.3614 87.744 34.6173 91.1587 35.6053C98.9707 37.864 103.511 43.2413 105.675 50.872C107.299 56.5947 107.597 62.4707 107.608 68.364C107.629 80.7973 107.572 93.2294 107.599 105.663C107.601 106.827 107.276 107.132 106.129 107.121C99.7252 107.069 93.3187 107.068 86.9147 107.124C85.788 107.133 85.544 106.784 85.548 105.72C85.584 93.8893 85.592 82.06 85.5546 70.2294C85.544 67.2654 85.3559 64.3027 84.5239 61.42C82.9919 56.1107 79.1919 53.4054 73.6292 53.6987C66.0332 54.1 62.084 57.8613 61.116 65.584C60.884 67.4293 60.7747 69.2747 60.776 71.1333C60.7867 82.6387 60.7639 94.144 60.8066 105.648C60.8106 106.796 60.5239 107.135 59.3519 107.124C52.9012 107.067 46.4479 107.073 39.9973 107.119C38.9639 107.127 38.664 106.848 38.6653 105.801C38.6946 83.024 38.6946 60.2453 38.6639 37.4667C38.6626 36.34 39.0319 36.0787 40.0973 36.0867C46.2239 36.132 52.352 36.1374 58.4773 36.0827C59.6053 36.0734 59.896 36.4373 59.8707 37.5053C59.808 40.2267 59.8506 42.9506 59.8506 45.6733" fill="#FEFEFE"/>
<path d="M24.7573 71.7054C24.7573 82.9734 24.7386 94.2427 24.7839 105.512C24.7892 106.764 24.4772 107.143 23.1812 107.128C16.7799 107.057 10.3759 107.075 3.97323 107.119C2.9479 107.127 2.63856 106.869 2.6399 105.809C2.67056 82.9933 2.6679 60.1773 2.64524 37.3613C2.6439 36.4173 2.87323 36.0813 3.8759 36.0867C10.3706 36.1293 16.8666 36.1414 23.3612 36.08C24.6092 36.0667 24.7799 36.552 24.7773 37.6214C24.7466 48.9827 24.7573 60.344 24.7573 71.7054" fill="#FEFEFE"/>
<path d="M26.524 13.4774C26.5293 20.5521 20.7866 26.3161 13.7293 26.3187C6.75996 26.3214 0.969274 20.552 0.946608 13.5867C0.922608 6.54536 6.71061 0.746696 13.7546 0.753363C20.7506 0.760029 26.516 6.50538 26.524 13.4774" fill="#FEFEFE"/>
</svg>
