<svg width="121" height="108" viewBox="0 0 121 108" fill="none" xmlns="http://www.w3.org/2000/svg">
<path d="M81.512 73.6C76.3426 73.6 72.1374 69.396 72.1374 64.2267C72.1374 59.056 76.3426 54.8494 81.512 54.8494C86.6813 54.8494 90.8867 59.056 90.8867 64.2267C90.8867 69.396 86.6813 73.6 81.512 73.6ZM83.1626 88.9973C76.764 95.3867 64.5027 95.884 60.8974 95.884C57.2921 95.884 45.0293 95.3867 38.6387 88.996C37.6907 88.048 37.6907 86.5093 38.6387 85.56C39.5867 84.612 41.1266 84.612 42.076 85.5613C46.108 89.5933 54.7361 91.0253 60.8974 91.0253C67.0601 91.0253 75.6893 89.5933 79.7293 85.56C80.68 84.612 82.2174 84.6133 83.1654 85.5613C84.1134 86.512 84.112 88.0493 83.1626 88.9973V88.9973ZM30.8867 64.2253C30.8867 59.056 35.0934 54.8494 40.2654 54.8494C45.432 54.8494 49.6373 59.056 49.6373 64.2253C49.6373 69.3933 45.432 73.5987 40.2654 73.5987C35.0934 73.5987 30.8867 69.3933 30.8867 64.2253ZM120.872 54.8494C120.872 47.6 114.996 41.724 107.748 41.724C104.208 41.724 101.004 43.132 98.6427 45.408C89.6734 38.932 77.3107 34.7507 63.544 34.2707L69.5227 6.14136L89.056 10.2947C89.2947 15.26 93.3614 19.224 98.3867 19.224C103.564 19.224 107.761 15.028 107.761 9.84937C107.761 4.67204 103.564 0.473362 98.3867 0.473362C94.7041 0.473362 91.5494 2.61736 90.016 5.7067L68.204 1.07069C67.5974 0.938693 66.9626 1.05735 66.4413 1.39735C65.9186 1.73602 65.5533 2.26803 65.424 2.8747L58.748 34.2627C44.7787 34.6494 32.2187 38.8374 23.1333 45.3827C20.7747 43.1214 17.5813 41.724 14.056 41.724C6.80666 41.724 0.930664 47.6 0.930664 54.8494C0.930664 60.1827 4.11735 64.7627 8.68535 66.816C8.48269 68.1214 8.37201 69.4453 8.37201 70.7867C8.37201 90.9787 31.8773 107.349 60.872 107.349C89.8667 107.349 113.372 90.9787 113.372 70.7867C113.372 69.4533 113.263 68.1387 113.064 66.8427C117.661 64.8014 120.872 60.2027 120.872 54.8494Z" fill="white"/>
</svg>
