<svg width="97" height="80" viewBox="0 0 97 80" fill="none" xmlns="http://www.w3.org/2000/svg">
<path d="M95.924 1.98666C95.58 0.973329 95.1693 0.706662 94.528 0.453329C93.1253 -0.0666709 90.7494 0.719996 90.7494 0.719996C90.7494 0.719996 6.636 30.96 1.83066 34.3067C0.795998 35.0267 0.449344 35.4533 0.277344 35.9467C-0.553323 38.32 2.03467 39.3733 2.03467 39.3733L23.7147 46.44C23.7147 46.44 24.5227 46.56 24.8107 46.3733C29.7427 43.2533 74.432 15.04 77.0094 14.0933C77.416 13.9733 77.7173 14.1067 77.6373 14.3867C76.6053 18.0133 37.7907 52.5067 37.7907 52.5067C37.7907 52.5067 37.6427 52.6933 37.5494 52.9067L37.4987 52.88L35.476 74.3867C35.476 74.3867 34.628 80.9733 41.216 74.3867C45.864 69.7333 50.3613 65.84 52.612 63.96C60.0667 69.1067 68.0893 74.8 71.552 77.7733C73.2907 79.2667 74.7454 79.5067 75.9427 79.4667C79.2294 79.3467 80.1467 75.7333 80.1467 75.7333C80.1467 75.7333 95.4747 14.04 95.9867 5.77333C96.0373 4.96 96.1067 4.45332 96.112 3.89332C96.1214 3.11999 96.0493 2.34666 95.924 1.98666" fill="white"/>
</svg>
