<svg width="118" height="96" viewBox="0 0 118 96" fill="none" xmlns="http://www.w3.org/2000/svg">
<path d="M37.5867 95.0947C81.5467 95.0947 105.587 58.6774 105.587 27.0988C105.587 26.0641 105.56 25.0334 105.52 24.0094C110.187 20.6361 114.24 16.4267 117.44 11.636C113.16 13.5373 108.547 14.8201 103.72 15.3975C108.653 12.4401 112.44 7.75741 114.227 2.17741C109.6 4.91608 104.493 6.90672 99.0533 7.97872C94.68 3.33338 88.4799 0.428066 81.5999 0.428066C68.3999 0.428066 57.7066 11.1307 57.7066 24.324C57.7066 26.2 57.9067 28.024 58.32 29.7734C38.4533 28.7747 20.8533 19.2654 9.0666 4.80541C7.01327 8.33474 5.82663 12.4401 5.82663 16.8161C5.82663 25.1081 10.0399 32.4268 16.4666 36.7094C12.5466 36.5881 8.85324 35.5107 5.63991 33.7187C5.62658 33.8187 5.62663 33.9187 5.62663 34.024C5.62663 45.5987 13.8666 55.2615 24.7999 57.4535C22.7999 57.9988 20.6799 58.2934 18.5066 58.2934C16.9599 58.2934 15.4666 58.1414 14.0132 57.8627C17.0532 67.3574 25.8799 74.2667 36.3333 74.4614C28.1599 80.8707 17.8533 84.6907 6.65332 84.6907C4.73332 84.6907 2.82663 84.5814 0.959961 84.3601C11.5333 91.1374 24.0933 95.0947 37.5867 95.0947" fill="white"/>
</svg>
