<svg width="120" height="85" viewBox="0 0 120 85" fill="none" xmlns="http://www.w3.org/2000/svg">
<path d="M48 60.952V24.952L79.176 42.952L48 60.952ZM117.492 14.0693C116.112 8.90667 112.047 4.84003 106.883 3.46003C97.5254 0.95203 60 0.952022 60 0.952022C60 0.952022 22.4747 0.95203 13.116 3.46003C7.95335 4.84003 3.88667 8.90667 2.50801 14.0693C7.88371e-06 23.4267 0 42.952 0 42.952C0 42.952 7.88371e-06 62.4773 2.50801 71.8346C3.88667 76.9986 7.95335 81.064 13.116 82.444C22.4747 84.952 60 84.952 60 84.952C60 84.952 97.5254 84.952 106.883 82.444C112.047 81.064 116.112 76.9986 117.492 71.8346C120 62.4773 120 42.952 120 42.952C120 42.952 120 23.4267 117.492 14.0693Z" fill="white"/>
</svg>
