<svg xmlns="http://www.w3.org/2000/svg" width="1280" height="98" viewBox="0 0 1280 98">
    <defs>
        <linearGradient id="a" x1="50%" x2="50%" y1="94.468%" y2="-92.115%">
            <stop offset="0%" stop-color="#1E6E53"/>
            <stop offset="100%" stop-color="#010E1B"/>
        </linearGradient>
    </defs>
    <path fill="url(#a)" fill-rule="evenodd" d="M1253.535 3.674c-5.16-1.079-10.504-1.096-15.277-2.65-4.946-1.607-6.571-.984-19.751-.404-13.18.58-13.4.491-21.576 2.222-5.108 1.08-9.12 2.082-15.402 1.839-5.11-.2-9.726-.419-14.72.114-3.304.353-6.13 1.424-8.475 2.267-6.608 2.374-13.257 1.835-21.392 1.199-4.432-.345-9.08.264-13.509.284-6.582.029-12.792 1.735-19.335 1.389-9.266-.491-19.302-1.345-25.822-3.491-2.312-.76-5.625-.99-8.517-1.321-4.857-.557-7.833-1.98-12.372-2.582-4.555-.605-9.706-.314-14.527-.38-4.732-.064-9.13-.042-13.68.452-4.641.505-3.743 2.818-13.354 2.704-9.61-.113-15.429-3.093-21.616-3.117-10.894-.042-16.398 1.587-24.845 3.81-1.249.328-2.667.57-4.166.76-.004-.001-.007-.004-.011-.006-10.191.857-19.434 2.118-29.087 3.534-12.945 1.9-25.795 3.554-39.166 5.12-10.285 1.204-21.014-3.467-26.924-3.794-5.91-.327-7.063-1.44-21.838 1.206-14.775 2.646-15.134 6.164-22.61 5.502-11.411-1.009-22.317-2.748-33.682-3.89-12.798-1.284-25.417-2.914-38.135-4.303-12.829-1.399-22.833 4.628-28.925 5.14-6.092.514-9.705-.91-14.074-1.433-4.368-.523-2.37.327-7.509-1.148-5.139-1.475-5.241-2.267-8.894-2.986-7.252-1.43-11.534-2.893-18.624-4.375-5.99-1.252-18.136-2.104-24.787-.96-10.25 1.766-20.238.739-29.961 2.782-13.808 2.901-19.16-2.98-31.41-3.439-9.12-.343-18.252.13-26.166 1.621-12.035 2.267-25.624 3.73-39.126 4.816-8.943.72-18.252 1.346-27.468 1.888-3.036.179-6.063.348-9.063.508-5.967.319-11.229.64-17.414.64-6.24 0-11.843.25-17.844.791-11.178 1.007-22.449-5.972-34.105-5.832-6.62.08-12.917-.92-19.067-1.554-6.03-.623-12.83-1.055-19.1-1.343-11.103-.51-23.587-.494-34.772-.344-11.785.158-23.246.626-34.057 2.158-22.366 3.171-27.656 3.82-49.893 7.137-10.455 1.56-16.894 2.703-26.211 2.61-9.317-.092-12.018-1.992-19.028-1.988-.948-.028-3.758.48-7.884.875-4.126.396-6.459 1.418-9.019.744-4.367-1.149-7.203-2.843-11.27-4.126-7.557-2.384-18.783-2.256-27.287-4.134-4.601-1.017-9.823-1.564-14.222-2.675-3.91-.988-8.554-2.291-13.104-2.83-11.243-1.328-22.8 8.68-34.03 7.311-6.207-.756-11.565-1.88-16.117-3.572-3.294-1.224-4.5-2.22-8.988-2.938-2.695-.43-3.968-.156-6.322.271C62.183 4.81 57.075 6.235 50.88 7.15c-9.458 1.398-19.971.073-28.889 2.076-3.563.8-6.44 2.103-9.472 3.125C9.036 13.524 1.694 15.39 0 15.557v82.282h1280V8.559c-2.756-.112-11.799-.552-15.69-1.648-3.607-1.013-6.807-2.405-10.775-3.237z" transform="rotate(-180 640 48.92)"/>
</svg>
